<svg width="811" height="530" viewBox="0 0 811 530" fill="none" xmlns="http://www.w3.org/2000/svg">
<rect x="2.5" y="2.5" width="806" height="525" rx="47.5" stroke="#1F2E35" stroke-width="5"/>
<path d="M680 297H113V417H680V297Z" fill="#F2F2F2"/>
<path d="M95 310L156.747 181H649.896L696 310H95Z" fill="#1F2E35"/>
<path d="M478 189H249V265H478V189Z" fill="#F2F2F2"/>
<path d="M264.133 128L228 203H499L477.648 128H264.133Z" fill="#1F2E35"/>
<path d="M450 321H269V417H450V321Z" fill="#CCCCCC"/>
<path d="M232 324H135V417H232V324Z" fill="#CCCCCC"/>
<path d="M531 330H481V417H531V330Z" fill="#1F2E35"/>
<path d="M609 335H585V358H609V335Z" fill="#1F2E35"/>
<path d="M642 335H617V358H642V335Z" fill="#1F2E35"/>
<path d="M609 366H585V389H609V366Z" fill="#1F2E35"/>
<path d="M642 366H617V389H642V366Z" fill="#1F2E35"/>
<path d="M289 210H270V228H289V210Z" fill="#1F2E35"/>
<path d="M314 210H295V228H314V210Z" fill="#1F2E35"/>
<path d="M289 234H270V253H289V234Z" fill="#1F2E35"/>
<path d="M314 234H295V253H314V234Z" fill="#1F2E35"/>
<path d="M431 210H412V228H431V210Z" fill="#1F2E35"/>
<path d="M457 210H438V228H457V210Z" fill="#1F2E35"/>
<path d="M431 234H412V253H431V234Z" fill="#1F2E35"/>
<path d="M457 234H438V253H457V234Z" fill="#1F2E35"/>
<path d="M361 210H342V228H361V210Z" fill="#1F2E35"/>
<path d="M386 210H367V228H386V210Z" fill="#1F2E35"/>
<path d="M361 234H342V253H361V234Z" fill="#1F2E35"/>
<path d="M386 234H367V253H386V234Z" fill="#1F2E35"/>
<path d="M504 339H492V350H504V339Z" fill="#F2F2F2"/>
<path d="M520 339H508V350H520V339Z" fill="#F2F2F2"/>
<path d="M504 354H492V366H504V354Z" fill="#F2F2F2"/>
<path d="M520 354H508V366H520V354Z" fill="#F2F2F2"/>
<path d="M524.5 383C526.433 383 528 381.657 528 380C528 378.343 526.433 377 524.5 377C522.567 377 521 378.343 521 380C521 381.657 522.567 383 524.5 383Z" fill="#F2F2F2"/>
<path d="M450 331H269V333H450V331Z" fill="#F2F2F2"/>
<path d="M450 339H269V340H450V339Z" fill="#F2F2F2"/>
<path d="M450 346H269V348H450V346Z" fill="#F2F2F2"/>
<path d="M450 354H269V355H450V354Z" fill="#F2F2F2"/>
<path d="M450 361H269V363H450V361Z" fill="#F2F2F2"/>
<path d="M450 368H269V370H450V368Z" fill="#F2F2F2"/>
<path d="M450 376H269V377H450V376Z" fill="#F2F2F2"/>
<path d="M450 383H269V385H450V383Z" fill="#F2F2F2"/>
<path d="M450 391H269V392H450V391Z" fill="#F2F2F2"/>
<path d="M450 398H269V400H450V398Z" fill="#F2F2F2"/>
<path d="M450 405H269V407H450V405Z" fill="#F2F2F2"/>
<path d="M232 331H135V333H232V331Z" fill="#F2F2F2"/>
<path d="M232 339H135V340H232V339Z" fill="#F2F2F2"/>
<path d="M232 346H135V348H232V346Z" fill="#F2F2F2"/>
<path d="M232 354H135V355H232V354Z" fill="#F2F2F2"/>
<path d="M232 361H135V363H232V361Z" fill="#F2F2F2"/>
<path d="M232 368H135V370H232V368Z" fill="#F2F2F2"/>
<path d="M232 376H135V377H232V376Z" fill="#F2F2F2"/>
<path d="M232 383H135V385H232V383Z" fill="#F2F2F2"/>
<path d="M232 391H135V392H232V391Z" fill="#F2F2F2"/>
<path d="M232 398H135V400H232V398Z" fill="#F2F2F2"/>
<path d="M232 405H135V407H232V405Z" fill="#F2F2F2"/>
<path d="M649.5 247C686.227 247 716 217.227 716 180.5C716 143.773 686.227 114 649.5 114C612.773 114 583 143.773 583 180.5C583 217.227 612.773 247 649.5 247Z" fill="#3F3D56"/>
<path d="M691 174.412H655.588V139H642.412V174.412H607V187.588H642.412V223H655.588V187.588H691V174.412Z" fill="white"/>
</svg>
