<svg width="811" height="530" viewBox="0 0 811 530" fill="none" xmlns="http://www.w3.org/2000/svg">
<path d="M728.137 68.365H84.2749V480.723H728.137V68.365Z" fill="#E6E6E6"/>
<path d="M709.726 120.085H102.686V456.328H709.726V120.085Z" fill="white"/>
<path d="M727.862 68H84V95.3536H727.862V68Z" fill="#1F2E35"/>
<path d="M104.327 87.0544C107.127 87.0544 109.397 84.7845 109.397 81.9846C109.397 79.1846 107.127 76.9148 104.327 76.9148C101.527 76.9148 99.2572 79.1846 99.2572 81.9846C99.2572 84.7845 101.527 87.0544 104.327 87.0544Z" fill="white"/>
<path d="M123.571 87.0544C126.371 87.0544 128.64 84.7845 128.64 81.9846C128.64 79.1846 126.371 76.9148 123.571 76.9148C120.771 76.9148 118.501 79.1846 118.501 81.9846C118.501 84.7845 120.771 87.0544 123.571 87.0544Z" fill="white"/>
<path d="M142.814 87.0544C145.614 87.0544 147.884 84.7845 147.884 81.9846C147.884 79.1846 145.614 76.9148 142.814 76.9148C140.014 76.9148 137.744 79.1846 137.744 81.9846C137.744 84.7845 140.014 87.0544 142.814 87.0544Z" fill="white"/>
<path d="M313.824 154.973H157.844V421.44H313.824V154.973Z" fill="#E6E6E6"/>
<path d="M470.733 154.973H340.75V228.321H470.733V154.973Z" fill="#1F2E35"/>
<path d="M470.733 248.747H340.75V327.666H470.733V248.747Z" fill="#E6E6E6"/>
<path d="M470.733 348.092H340.75V421.44H470.733V348.092Z" fill="#E6E6E6"/>
<path d="M654.568 154.973H498.587V271.098H654.568V154.973Z" fill="#E6E6E6"/>
<path d="M654.568 305.315H498.587V421.44H654.568V305.315Z" fill="#E6E6E6"/>
<path d="M503.58 109.546C483.576 92.6667 459.097 81.9652 433.122 78.7441C407.147 75.523 380.795 79.9211 357.274 91.4034C333.753 102.886 314.077 120.957 300.639 143.418C287.201 165.879 280.581 191.762 281.585 217.917C282.59 244.072 291.174 269.371 306.294 290.736C321.415 312.101 342.419 328.61 366.751 338.256C391.083 347.901 417.694 350.266 443.346 345.063C468.998 339.859 492.584 327.313 511.235 308.949L676.853 448.697C679.373 450.827 682.636 451.87 685.925 451.594C689.213 451.319 692.257 449.748 694.388 447.228C696.518 444.708 697.56 441.445 697.285 438.157C697.009 434.869 695.439 431.824 692.919 429.694L692.901 429.679L527.283 289.931C546.522 262.318 554.757 228.515 550.372 195.147C545.988 161.779 529.3 131.252 503.58 109.546ZM492.903 276.474C480.001 291.765 462.854 302.886 443.631 308.432C424.408 313.978 403.972 313.699 384.907 307.63C365.843 301.561 349.006 289.976 336.526 274.338C324.046 258.701 316.483 239.713 314.794 219.778C313.106 199.842 317.366 179.853 327.037 162.339C336.709 144.825 351.357 130.572 369.128 121.382C386.9 112.193 406.998 108.48 426.88 110.713C446.762 112.945 465.536 121.024 480.827 133.926H480.827C490.979 142.493 499.346 152.976 505.447 164.776C511.549 176.576 515.266 189.462 516.388 202.699C517.509 215.936 516.012 229.264 511.983 241.922C507.953 254.58 501.47 266.321 492.903 276.474Z" fill="#535461"/>
<path opacity="0.3" d="M350.355 288.551C330.949 272.174 318.411 249.099 315.231 223.906C312.051 198.714 318.462 173.247 333.19 152.562C331.256 154.509 329.386 156.549 327.58 158.682C319.013 168.834 312.53 180.575 308.501 193.233C304.471 205.892 302.975 219.22 304.096 232.457C305.217 245.693 308.935 258.58 315.037 270.38C321.138 282.18 329.504 292.663 339.657 301.229C349.81 309.796 361.55 316.28 374.209 320.309C386.867 324.338 400.195 325.835 413.432 324.714C426.669 323.592 439.555 319.875 451.355 313.773C463.155 307.672 473.638 299.306 482.205 289.153C484.006 287.018 485.702 284.832 487.294 282.594C469.381 300.592 445.356 311.195 419.987 312.299C394.619 313.402 369.763 304.925 350.355 288.551Z" fill="black"/>
<rect x="2.5" y="2.5" width="806" height="525" rx="47.5" stroke="#1F2E35" stroke-width="5"/>
<path d="M436 206H375V225H436V206Z" fill="#F0F0F0"/>
<path d="M409 210H402V225H409V210Z" fill="#CACACA"/>
<path d="M433 185H378V201H433V185Z" fill="#F0F0F0"/>
<path d="M438.448 185H372.552C372.442 185 372.334 184.968 372.243 184.907C372.152 184.847 372.081 184.761 372.04 184.66C371.999 184.56 371.989 184.45 372.012 184.344C372.035 184.238 372.09 184.142 372.169 184.067L390.179 167.043V159.627C390.179 159.483 390.237 159.346 390.341 159.244C390.444 159.142 390.584 159.085 390.731 159.085H394.285C394.431 159.085 394.571 159.142 394.675 159.244C394.778 159.346 394.836 159.483 394.837 159.627V162.64L396.197 161.354C398.423 159.25 401.376 158.052 404.463 158.002C407.551 157.951 410.543 159.052 412.839 161.082L438.817 184.054C438.9 184.128 438.959 184.224 438.985 184.331C439.011 184.437 439.003 184.549 438.963 184.652C438.923 184.754 438.853 184.842 438.761 184.905C438.669 184.967 438.56 185 438.448 185V185Z" fill="#CACACA"/>
<path d="M392.5 189C392.96 189 393.415 189.088 393.839 189.259C394.264 189.43 394.65 189.681 394.975 189.997C395.3 190.313 395.558 190.688 395.734 191.101C395.909 191.514 396 191.956 396 192.403V197H389V192.403C389 191.956 389.091 191.514 389.266 191.101C389.442 190.688 389.7 190.313 390.025 189.997C390.35 189.681 390.736 189.43 391.161 189.259C391.585 189.088 392.04 189 392.5 189V189Z" fill="white"/>
<path d="M405.5 189C406.428 189 407.318 189.359 407.975 189.997C408.631 190.635 409 191.5 409 192.403V197H402V192.403C402 191.5 402.369 190.635 403.025 189.997C403.682 189.359 404.572 189 405.5 189V189Z" fill="white"/>
<path d="M418.5 189C419.428 189 420.318 189.359 420.975 189.997C421.631 190.635 422 191.5 422 192.403V197H415V192.403C415 191.5 415.369 190.635 416.025 189.997C416.682 189.359 417.572 189 418.5 189V189Z" fill="white"/>
<path d="M423.5 210C424.428 210 425.319 210.359 425.975 210.997C426.631 211.635 427 212.5 427 213.403V218H420V213.403C420 212.5 420.369 211.635 421.025 210.997C421.682 210.359 422.572 210 423.5 210Z" fill="white"/>
<path d="M389 210C390.061 210 391.078 210.359 391.828 210.997C392.579 211.635 393 212.5 393 213.403V218H385V213.403C385 212.956 385.103 212.514 385.304 212.101C385.506 211.688 385.8 211.313 386.172 210.997C386.543 210.681 386.984 210.43 387.469 210.259C387.955 210.088 388.475 210 389 210V210Z" fill="white"/>
<path d="M445.707 206.24L434.033 201.042C433.971 201.014 433.903 201 433.834 201H378.199C378.135 201 378.072 201.012 378.014 201.036L365.307 206.234C365.201 206.278 365.114 206.357 365.059 206.458C365.005 206.559 364.987 206.675 365.009 206.788C365.031 206.901 365.091 207.002 365.179 207.075C365.267 207.148 365.378 207.188 365.492 207.188H368.789V224.267H368.42V226H442.58V224.267H441.965V207.188H445.508C445.621 207.188 445.73 207.149 445.818 207.078C445.905 207.006 445.966 206.906 445.989 206.795C446.013 206.684 445.997 206.569 445.946 206.468C445.895 206.366 445.81 206.286 445.707 206.24ZM440.981 224.267H369.773V207.188H440.981V224.267Z" fill="#CACACA"/>
<path d="M397 196H388V198H397V196Z" fill="#CACACA"/>
<path d="M410 196H401V198H410V196Z" fill="#CACACA"/>
<path d="M423 196H414V198H423V196Z" fill="#CACACA"/>
<path d="M428 217H419V219H428V217Z" fill="#CACACA"/>
<path d="M393 217H385V219H393V217Z" fill="#CACACA"/>
</svg>
