<svg width="811" height="530" viewBox="0 0 811 530" fill="none" xmlns="http://www.w3.org/2000/svg">
<rect x="2.5" y="2.5" width="806" height="525" rx="47.5" stroke="#1F2E35" stroke-width="5"/>
<path d="M191.954 201C191.475 201 191 200.91 190.553 200.736C189.831 200.459 189.21 199.968 188.774 199.331C188.337 198.693 188.105 197.937 188.108 197.164V157.136C188.106 155.781 187.567 154.483 186.608 153.524C185.649 152.566 184.349 152.027 182.992 152.026H174.787C171.397 152.022 168.147 150.675 165.749 148.28C163.352 145.886 162.004 142.639 162 139.252V58.7738C162.004 55.3871 163.352 52.1403 165.749 49.7456C168.147 47.3508 171.397 46.0038 174.787 46H464.213C467.603 46.0038 470.853 47.3508 473.251 49.7456C475.648 52.1403 476.996 55.3871 477 58.7738V139.252C476.996 142.639 475.648 145.886 473.251 148.28C470.853 150.675 467.603 152.022 464.213 152.026H240.817C240.108 152.027 239.407 152.174 238.758 152.46C238.109 152.745 237.526 153.161 237.046 153.683L194.771 199.754C194.414 200.146 193.979 200.459 193.494 200.674C193.009 200.888 192.485 200.999 191.954 201V201ZM174.787 47.7021C171.849 47.7054 169.032 48.873 166.954 50.9486C164.876 53.0242 163.707 55.8384 163.704 58.7738V139.252C163.707 142.187 164.876 145.002 166.954 147.077C169.031 149.153 171.849 150.32 174.787 150.324H182.992C184.8 150.326 186.534 151.044 187.812 152.321C189.091 153.599 189.81 155.33 189.812 157.136V197.164C189.812 197.593 189.942 198.013 190.184 198.367C190.427 198.721 190.771 198.994 191.171 199.149C191.571 199.305 192.009 199.336 192.428 199.238C192.846 199.141 193.225 198.92 193.515 198.603L235.79 152.533C236.43 151.837 237.207 151.282 238.072 150.902C238.937 150.522 239.872 150.325 240.817 150.324H464.213C467.151 150.32 469.969 149.153 472.046 147.077C474.124 145.002 475.293 142.187 475.296 139.252V58.7738C475.293 55.8384 474.124 53.0242 472.046 50.9486C469.969 48.873 467.151 47.7054 464.213 47.7021H174.787Z" fill="#3F3D56"/>
<path d="M193.5 82C199.851 82 205 77.0751 205 71C205 64.9249 199.851 60 193.5 60C187.149 60 182 64.9249 182 71C182 77.0751 187.149 82 193.5 82Z" fill="#3F3D56"/>
<path d="M451.031 133H187.969C187.185 133.001 186.409 132.846 185.685 132.545C184.961 132.244 184.303 131.802 183.749 131.245C183.194 130.688 182.755 130.026 182.454 129.298C182.154 128.569 182 127.789 182 127C182 126.211 182.154 125.431 182.454 124.702C182.755 123.974 183.194 123.312 183.749 122.755C184.303 122.198 184.961 121.756 185.685 121.455C186.409 121.154 187.185 120.999 187.969 121H451.031C451.815 120.999 452.591 121.154 453.315 121.455C454.039 121.756 454.697 122.198 455.251 122.755C455.806 123.312 456.245 123.974 456.546 124.702C456.846 125.431 457 126.211 457 127C457 127.789 456.846 128.569 456.546 129.298C456.245 130.026 455.806 130.688 455.251 131.245C454.697 131.802 454.039 132.244 453.315 132.545C452.591 132.846 451.815 133.001 451.031 133V133Z" fill="#3F3D56"/>
<path d="M365.041 108H187.959C187.177 108.001 186.402 107.846 185.679 107.545C184.956 107.244 184.299 106.802 183.746 106.245C183.192 105.688 182.753 105.026 182.454 104.298C182.154 103.569 182 102.789 182 102C182 101.211 182.154 100.431 182.454 99.7022C182.753 98.9738 183.192 98.3121 183.746 97.7548C184.299 97.1976 184.956 96.7558 185.679 96.4547C186.402 96.1536 187.177 95.9991 187.959 96H365.041C365.823 95.9991 366.598 96.1536 367.321 96.4547C368.044 96.7558 368.701 97.1976 369.254 97.7548C369.808 98.3121 370.247 98.9738 370.546 99.7022C370.846 100.431 371 101.211 371 102C371 102.789 370.846 103.569 370.546 104.298C370.247 105.026 369.808 105.688 369.254 106.245C368.701 106.802 368.044 107.244 367.321 107.545C366.598 107.846 365.823 108.001 365.041 108V108Z" fill="#3F3D56"/>
<path d="M191.954 485C191.475 485 191 484.91 190.553 484.736C189.831 484.459 189.21 483.968 188.774 483.331C188.337 482.693 188.105 481.937 188.108 481.164V441.136C188.106 439.781 187.567 438.483 186.608 437.524C185.649 436.566 184.349 436.027 182.992 436.026H174.787C171.397 436.022 168.147 434.675 165.749 432.28C163.352 429.886 162.004 426.639 162 423.252V342.774C162.004 339.387 163.352 336.14 165.749 333.746C168.147 331.351 171.397 330.004 174.787 330H464.213C467.603 330.004 470.853 331.351 473.251 333.746C475.648 336.14 476.996 339.387 477 342.774V423.252C476.996 426.639 475.648 429.886 473.251 432.28C470.853 434.675 467.603 436.022 464.213 436.026H240.817C240.108 436.027 239.407 436.174 238.758 436.46C238.109 436.745 237.526 437.161 237.046 437.683L194.771 483.754C194.414 484.146 193.979 484.459 193.494 484.674C193.009 484.888 192.485 484.999 191.954 485V485ZM174.787 331.702C171.849 331.705 169.032 332.873 166.954 334.949C164.876 337.024 163.707 339.838 163.704 342.774V423.252C163.707 426.187 164.876 429.002 166.954 431.077C169.032 433.153 171.849 434.32 174.787 434.324H182.992C184.8 434.326 186.534 435.044 187.812 436.321C189.091 437.599 189.81 439.33 189.812 441.136V481.164C189.812 481.594 189.942 482.013 190.184 482.367C190.427 482.721 190.771 482.994 191.171 483.149C191.571 483.305 192.009 483.336 192.428 483.239C192.846 483.141 193.225 482.92 193.515 482.603L235.79 436.533C236.43 435.838 237.207 435.282 238.072 434.902C238.937 434.522 239.872 434.325 240.817 434.324H464.213C467.151 434.32 469.969 433.153 472.046 431.077C474.124 429.002 475.293 426.187 475.296 423.252V342.774C475.293 339.838 474.124 337.024 472.046 334.949C469.969 332.873 467.151 331.705 464.213 331.702L174.787 331.702Z" fill="#3F3D56"/>
<path d="M619.046 337C618.515 336.999 617.991 336.888 617.506 336.674C617.021 336.459 616.586 336.146 616.229 335.754L573.954 289.683C573.474 289.161 572.891 288.745 572.242 288.46C571.593 288.174 570.892 288.027 570.183 288.026H346.787C343.397 288.022 340.147 286.675 337.749 284.28C335.352 281.886 334.004 278.639 334 275.252V194.774C334.004 191.387 335.352 188.14 337.749 185.746C340.147 183.351 343.397 182.004 346.787 182H636.213C639.603 182.004 642.853 183.351 645.251 185.746C647.648 188.14 648.996 191.387 649 194.774V275.252C648.996 278.639 647.648 281.886 645.251 284.28C642.853 286.675 639.603 288.022 636.213 288.026H628.008C626.651 288.027 625.351 288.566 624.392 289.524C623.433 290.483 622.894 291.781 622.892 293.136V333.164C622.895 333.937 622.663 334.693 622.226 335.33C621.79 335.968 621.169 336.458 620.447 336.735C620 336.91 619.525 337 619.046 337V337ZM346.787 183.702C343.849 183.705 341.031 184.873 338.954 186.949C336.876 189.024 335.707 191.838 335.704 194.774V275.252C335.707 278.187 336.876 281.002 338.954 283.077C341.031 285.153 343.849 286.32 346.787 286.324H570.183C571.128 286.325 572.063 286.522 572.928 286.902C573.793 287.282 574.57 287.837 575.21 288.533L617.485 334.603C617.775 334.92 618.154 335.141 618.572 335.238C618.991 335.336 619.429 335.305 619.829 335.149C620.229 334.994 620.573 334.721 620.816 334.367C621.058 334.013 621.188 333.593 621.188 333.164V293.136C621.19 291.33 621.909 289.599 623.188 288.321C624.466 287.044 626.2 286.326 628.008 286.324H636.213C639.151 286.32 641.969 285.153 644.046 283.077C646.124 281.002 647.293 278.187 647.296 275.252V194.774C647.293 191.838 646.124 189.024 644.046 186.949C641.969 184.873 639.151 183.705 636.213 183.702L346.787 183.702Z" fill="#C4C4C4"/>
<path d="M193.5 366C199.851 366 205 361.075 205 355C205 348.925 199.851 344 193.5 344C187.149 344 182 348.925 182 355C182 361.075 187.149 366 193.5 366Z" fill="#3F3D56"/>
<path d="M451.038 417H187.969C187.186 417.001 186.409 416.846 185.685 416.545C184.961 416.244 184.303 415.802 183.749 415.245C183.194 414.688 182.755 414.026 182.455 413.298C182.154 412.569 182 411.789 182 411C182 410.211 182.154 409.431 182.455 408.702C182.755 407.974 183.194 407.312 183.749 406.755C184.303 406.198 184.961 405.756 185.685 405.455C186.409 405.154 187.186 404.999 187.969 405H451.038C452.619 405 454.136 405.632 455.254 406.757C456.372 407.883 457 409.409 457 411C457 412.591 456.372 414.117 455.254 415.243C454.136 416.368 452.619 417 451.038 417Z" fill="#3F3D56"/>
<path d="M365.041 392H187.959C187.177 392.001 186.402 391.846 185.679 391.545C184.956 391.244 184.299 390.802 183.746 390.245C183.192 389.688 182.753 389.026 182.454 388.298C182.154 387.569 182 386.789 182 386C182 385.211 182.154 384.431 182.454 383.702C182.753 382.974 183.192 382.312 183.746 381.755C184.299 381.198 184.956 380.756 185.679 380.455C186.402 380.154 187.177 379.999 187.959 380H365.041C365.823 379.999 366.598 380.154 367.321 380.455C368.044 380.756 368.701 381.198 369.254 381.755C369.808 382.312 370.247 382.974 370.546 383.702C370.846 384.431 371 385.211 371 386C371 386.789 370.846 387.569 370.546 388.298C370.247 389.026 369.808 389.688 369.254 390.245C368.701 390.802 368.044 391.244 367.321 391.545C366.598 391.846 365.823 392.001 365.041 392Z" fill="#3F3D56"/>
<path d="M365.5 218C371.851 218 377 213.075 377 207C377 200.925 371.851 196 365.5 196C359.149 196 354 200.925 354 207C354 213.075 359.149 218 365.5 218Z" fill="#C4C4C4"/>
<path d="M623.038 269H359.962C358.381 269 356.864 268.368 355.746 267.243C354.628 266.117 354 264.591 354 263C354 261.409 354.628 259.883 355.746 258.757C356.864 257.632 358.381 257 359.962 257H623.038C624.619 257 626.136 257.632 627.254 258.757C628.372 259.883 629 261.409 629 263C629 264.591 628.372 266.117 627.254 267.243C626.136 268.368 624.619 269 623.038 269V269Z" fill="#1F2E35"/>
<path d="M537.041 243H359.959C359.177 243.001 358.402 242.846 357.679 242.545C356.956 242.244 356.299 241.802 355.746 241.245C355.192 240.688 354.753 240.026 354.454 239.298C354.154 238.569 354 237.789 354 237C354 236.211 354.154 235.431 354.454 234.702C354.753 233.974 355.192 233.312 355.746 232.755C356.299 232.198 356.956 231.756 357.679 231.455C358.402 231.154 359.177 230.999 359.959 231H537.041C537.823 230.999 538.598 231.154 539.321 231.455C540.044 231.756 540.701 232.198 541.254 232.755C541.808 233.312 542.247 233.974 542.546 234.702C542.846 235.431 543 236.211 543 237C543 237.789 542.846 238.569 542.546 239.298C542.247 240.026 541.808 240.688 541.254 241.245C540.701 241.802 540.044 242.244 539.321 242.545C538.598 242.846 537.823 243.001 537.041 243Z" fill="#1F2E35"/>
<path d="M535 453C567.033 453 593 427.033 593 395C593 362.967 567.033 337 535 337C502.967 337 477 362.967 477 395C477 427.033 502.967 453 535 453Z" fill="#C4C4C4"/>
<path d="M560.436 410.281C558.374 408.218 553.413 405.107 550.953 403.945C548.114 402.582 547.071 402.606 545.061 404.058C543.39 405.243 542.305 406.387 540.385 405.966C538.465 405.546 534.66 402.677 530.979 399.009C527.298 395.34 524.441 391.559 524.032 389.609C523.623 387.659 524.75 386.598 525.947 384.927C527.393 382.918 527.435 381.875 526.06 379.036C524.874 376.577 521.798 371.628 519.718 369.554C517.637 367.479 517.187 367.936 516.049 368.368C514.878 368.859 513.753 369.454 512.688 370.146C510.626 371.527 509.47 372.677 508.658 374.408C507.846 376.138 506.927 379.35 511.651 387.76C515.136 394.193 519.549 400.078 524.75 405.226V405.226C529.915 410.437 535.82 414.859 542.276 418.347C550.68 423.088 553.899 422.146 555.629 421.34C557.36 420.534 558.51 419.39 559.885 417.31C560.578 416.246 561.173 415.121 561.663 413.949C562.054 412.811 562.517 412.349 560.436 410.281Z" fill="#1F2E35"/>
<path opacity="0.1" d="M535.029 337C523.555 336.994 512.338 340.392 502.795 346.763C493.253 353.134 485.814 362.192 481.421 372.791C477.027 383.39 475.876 395.055 478.113 406.308C480.35 417.562 485.875 427.899 493.988 436.012C502.101 444.125 512.438 449.65 523.692 451.887C534.945 454.124 546.61 452.973 557.209 448.579C567.808 444.186 576.866 436.747 583.237 427.205C589.608 417.662 593.006 406.445 593 394.971C592.992 379.598 586.882 364.858 576.012 353.988C565.142 343.118 550.402 337.008 535.029 337V337ZM535.029 445.24C525.087 445.24 515.368 442.291 507.101 436.768C498.835 431.244 492.392 423.393 488.587 414.208C484.782 405.023 483.787 394.915 485.726 385.164C487.666 375.413 492.454 366.456 499.484 359.426C506.514 352.396 515.471 347.608 525.222 345.668C534.973 343.729 545.081 344.724 554.266 348.529C563.451 352.334 571.302 358.777 576.826 367.043C582.349 375.31 585.298 385.029 585.298 394.971C585.298 401.572 583.997 408.109 581.471 414.208C578.945 420.307 575.242 425.848 570.574 430.516C565.906 435.184 560.365 438.887 554.266 441.413C548.167 443.939 541.63 445.24 535.029 445.24Z" fill="black"/>
<path d="M284.792 289.877C303.838 271.153 304.099 240.533 285.374 221.487C266.649 202.44 236.029 202.18 216.983 220.904C197.936 239.629 197.676 270.249 216.401 289.295C235.126 308.342 265.745 308.602 284.792 289.877Z" fill="#C4C4C4"/>
<path d="M260.233 225.367L260.175 246.114C260.174 246.149 260.18 246.184 260.192 246.217C260.205 246.25 260.225 246.28 260.249 246.305C260.274 246.331 260.304 246.35 260.336 246.364C260.369 246.377 260.404 246.384 260.44 246.383L275.323 246.923C275.67 246.927 276.007 247.032 276.292 247.227C276.578 247.421 276.799 247.696 276.929 248.017C277.058 248.338 277.089 248.69 277.019 249.03C276.948 249.37 276.779 249.681 276.533 249.926C276.198 250.254 275.749 250.436 275.283 250.435L260.465 249.885C260.392 249.885 260.322 249.914 260.27 249.965C260.218 250.016 260.188 250.085 260.187 250.158L260.164 253.673C260.164 255.122 259.874 256.557 259.311 257.895C258.749 259.233 257.926 260.447 256.889 261.465C255.829 262.498 254.575 263.31 253.2 263.855C251.825 264.4 250.356 264.665 248.881 264.637L245.483 264.58C245.41 264.58 245.34 264.609 245.288 264.66C245.236 264.711 245.206 264.78 245.205 264.853L245.503 279.644C245.501 279.875 245.453 280.103 245.362 280.315C245.272 280.528 245.14 280.721 244.975 280.883C244.81 281.045 244.615 281.173 244.401 281.26C244.187 281.347 243.958 281.391 243.727 281.39C243.496 281.389 243.268 281.343 243.056 281.254C242.843 281.165 242.651 281.035 242.49 280.871C242.328 280.706 242.201 280.512 242.116 280.298C242.03 280.084 241.988 279.855 241.991 279.624L241.694 264.779C241.689 264.709 241.66 264.644 241.612 264.595C241.563 264.545 241.498 264.515 241.429 264.509L220.684 264.215C220.631 264.214 220.579 264.229 220.535 264.259C220.49 264.288 220.455 264.329 220.434 264.378C220.414 264.427 220.408 264.481 220.418 264.533C220.427 264.585 220.453 264.633 220.49 264.671L241.186 285.722C241.989 286.533 243.082 286.992 244.227 286.999C245.371 287.005 246.474 286.559 247.296 285.756L281.309 252.317C282.125 251.51 282.59 250.414 282.603 249.27C282.616 248.125 282.176 247.025 281.379 246.208L260.7 225.174C260.663 225.133 260.614 225.104 260.56 225.092C260.507 225.08 260.45 225.085 260.399 225.106C260.348 225.127 260.305 225.164 260.275 225.21C260.245 225.257 260.231 225.312 260.233 225.367V225.367Z" fill="#1F2E35"/>
<path d="M254.532 259.126C255.232 258.451 255.789 257.643 256.17 256.749C256.551 255.855 256.749 254.894 256.752 253.922L256.751 224.134C255.792 224.216 254.891 224.628 254.201 225.299L220.743 258.192C220.058 258.869 219.631 259.764 219.535 260.722L249.322 261.227C250.286 261.242 251.244 261.064 252.139 260.703C253.034 260.342 253.848 259.806 254.532 259.126V259.126Z" fill="#1F2E35"/>
<path opacity="0.1" d="M216.504 221.375C209.678 228.079 204.994 236.657 203.044 246.023C201.095 255.389 201.967 265.123 205.55 273.994C209.134 282.864 215.268 290.473 223.176 295.856C231.085 301.24 240.413 304.157 249.979 304.238C259.546 304.32 268.922 301.562 276.921 296.314C284.92 291.065 291.183 283.563 294.917 274.754C298.651 265.946 299.688 256.228 297.898 246.83C296.108 237.432 291.571 228.776 284.86 221.957C275.87 212.821 263.62 207.628 250.803 207.519C237.985 207.41 225.649 212.394 216.504 221.375ZM279.776 285.734C273.865 291.546 266.362 295.474 258.218 297.022C250.074 298.57 241.654 297.668 234.022 294.431C226.39 291.193 219.89 285.766 215.343 278.834C210.797 271.902 208.407 263.777 208.478 255.488C208.548 247.198 211.076 239.116 215.74 232.262C220.404 225.409 226.996 220.092 234.681 216.985C242.367 213.878 250.801 213.12 258.918 214.806C267.035 216.493 274.469 220.548 280.281 226.46C288.074 234.387 292.399 245.085 292.304 256.201C292.21 267.317 287.703 277.941 279.776 285.734Z" fill="black"/>
</svg>
