<svg width="2689" height="107" viewBox="0 0 2689 107" fill="none" xmlns="http://www.w3.org/2000/svg">
<path d="M71.5818 60.5828C71.9481 60.8758 72.1312 61.2421 72.1312 61.6817C72.1312 62.048 71.9481 62.5975 71.5818 63.3301C71.2888 63.9895 70.7395 64.9053 69.9337 66.0775C69.2012 67.1765 67.8461 68.715 65.8684 70.6931C63.8907 72.6712 61.7299 74.3929 59.3859 75.8581C57.0419 77.2501 53.9288 78.4956 50.0467 79.5946C46.2377 80.6935 42.1358 81.243 37.7408 81.243C27.0465 81.243 18.1101 77.5066 10.9318 70.0337C3.82662 62.5609 0.274048 52.7802 0.274048 40.6918C0.274048 28.5301 3.86324 18.8594 11.0416 11.6796C18.2933 4.49981 27.0099 0.909912 37.1915 0.909912C48.5451 0.909912 56.7855 4.8295 61.913 12.6687L61.8031 2.88802C61.6566 2.00887 62.0961 1.56929 63.1216 1.56929H69.2745C70.2267 1.56929 70.7028 2.00887 70.7028 2.88802V26.8451C70.7028 27.7975 70.2267 28.2737 69.2745 28.2737H62.3525C61.4735 28.2737 61.034 27.7975 61.034 26.8451V25.856C61.034 22.4859 58.7266 19.0059 54.112 15.416C49.5705 11.7529 43.8938 9.92129 37.0816 9.92129C30.2695 9.92129 24.1166 12.632 18.6229 18.0535C13.2025 23.4017 10.4923 31.0211 10.4923 40.9116C10.4923 50.7289 13.2391 58.3849 18.7328 63.8796C24.2264 69.3011 30.6723 72.0118 38.0705 72.0118C46.0546 72.0118 52.354 70.2169 56.9687 66.627C60.5579 63.843 63.1948 61.0223 64.8795 58.1651C65.4655 57.0661 66.1614 56.8463 66.9671 57.5057L71.5818 60.5828ZM124.422 73.5503C119.294 78.6788 112.739 81.243 104.754 81.243C96.7703 81.243 90.2145 78.7154 85.0871 73.6602C79.9597 68.5318 77.3959 61.755 77.3959 53.3297C77.3959 44.8312 79.9963 38.091 85.197 33.1091C90.3976 28.1272 96.9168 25.6362 104.754 25.6362C112.665 25.6362 119.184 28.1638 124.312 33.219C129.513 38.2009 132.113 44.9044 132.113 53.3297C132.113 61.6817 129.549 68.4219 124.422 73.5503ZM86.6253 53.3297C86.6253 59.3373 88.3833 64.2093 91.8992 67.9457C95.4152 71.6821 99.7002 73.5503 104.754 73.5503C109.882 73.5503 114.204 71.6821 117.719 67.9457C121.235 64.2093 122.993 59.3373 122.993 53.3297C122.993 47.3221 121.199 42.4868 117.61 38.8236C114.094 35.1604 109.845 33.3289 104.864 33.3289C99.8834 33.3289 95.5983 35.1604 92.0091 38.8236C88.4199 42.4868 86.6253 47.3221 86.6253 53.3297ZM163.034 105.2H140.95C139.997 105.2 139.521 104.76 139.521 103.881V99.1558C139.521 98.2767 139.997 97.8371 140.95 97.8371H147.103V33.7684H141.169C140.217 33.7684 139.741 33.3289 139.741 32.4497V27.7242C139.741 26.8451 140.217 26.4055 141.169 26.4055H154.025C154.977 26.4055 155.453 26.8451 155.453 27.7242L155.343 36.4059H155.453C156.845 33.4021 159.079 30.8746 162.155 28.8232C165.305 26.6986 169.151 25.6362 173.692 25.6362C181.09 25.6362 187.06 28.1638 191.601 33.219C196.143 38.2009 198.413 44.8678 198.413 53.2198C198.413 61.4986 196.179 68.2388 191.711 73.4405C187.243 78.6421 181.273 81.243 173.802 81.243C169.26 81.243 165.451 80.2173 162.375 78.1659C159.372 76.0413 157.211 73.4771 155.892 70.4733H155.563C155.783 72.8177 155.892 74.5028 155.892 75.5284V97.8371H163.034C163.986 97.8371 164.463 98.2767 164.463 99.1558V103.881C164.463 104.76 163.986 105.2 163.034 105.2ZM155.673 53.6594C155.673 60.0333 157.321 64.9419 160.617 68.3853C163.986 71.8287 168.015 73.5503 172.703 73.5503C177.464 73.5503 181.42 71.7188 184.569 68.0556C187.792 64.3192 189.404 59.4472 189.404 53.4396C189.404 47.3588 187.792 42.4868 184.569 38.8236C181.42 35.1604 177.464 33.3289 172.703 33.3289C167.942 33.3289 163.913 35.1238 160.617 38.7137C157.321 42.3036 155.673 47.2855 155.673 53.6594ZM228.616 79.2649C227.444 79.2649 226.492 78.3491 225.76 76.5175L208.949 33.7684H202.906C202.027 33.7684 201.588 33.3289 201.588 32.4497V27.7242C201.588 26.8451 202.027 26.4055 202.906 26.4055H222.793C223.745 26.4055 224.221 26.8451 224.221 27.7242V32.4497C224.221 33.3289 223.745 33.7684 222.793 33.7684H218.288L232.462 71.0228H232.682L245.867 33.7684H240.922C240.043 33.7684 239.604 33.3289 239.604 32.4497V27.7242C239.604 26.8451 240.043 26.4055 240.922 26.4055H261.359C262.238 26.4055 262.677 26.8451 262.677 27.7242V32.4497C262.677 33.3289 262.238 33.7684 261.359 33.7684H255.206L235.648 87.507C233.231 94.0274 230.704 98.7529 228.067 101.683C225.503 104.687 221.951 106.189 217.409 106.189C212.941 106.189 209.096 104.76 205.873 101.903C205.14 101.171 205.03 100.511 205.543 99.9251L208.29 96.4085C208.949 95.8956 209.608 95.859 210.268 96.2986C212.026 97.6906 214.113 98.3866 216.53 98.3866C218.948 98.3866 220.925 97.544 222.464 95.859C224.075 94.2472 225.613 91.4266 227.078 87.3971L230.045 79.2649H228.616ZM291.337 80.4737H270.351C269.399 80.4737 268.923 80.0341 268.923 79.155V74.4295C268.923 73.5504 269.399 73.1108 270.351 73.1108H276.394V33.7684H270.351C269.399 33.7684 268.923 33.3289 268.923 32.4497V27.7242C268.923 26.8451 269.399 26.4055 270.351 26.4055H283.206C284.159 26.4055 284.635 26.8451 284.635 27.7242V41.4611H284.964C285.184 40.2889 285.953 38.6771 287.272 36.6257C288.59 34.5743 290.019 32.8893 291.557 31.5706C293.168 30.1786 295.439 28.9331 298.369 27.8341C301.372 26.7352 304.742 26.1857 308.477 26.1857C309.429 26.1857 309.906 26.6619 309.906 27.6143V33.4388C309.906 34.3912 309.429 34.8674 308.477 34.8674H306.17C299.87 34.8674 294.853 36.8821 291.117 40.9116C287.382 44.9411 285.514 49.52 285.514 54.6485V73.1108H291.337C292.289 73.1108 292.765 73.5504 292.765 74.4295V79.155C292.765 80.0341 292.289 80.4737 291.337 80.4737ZM337.583 80.4737H316.597C315.645 80.4737 315.169 80.0341 315.169 79.155V74.4295C315.169 73.5504 315.645 73.1108 316.597 73.1108H322.64V33.7684H316.597C315.645 33.7684 315.169 33.3289 315.169 32.4497V27.7242C315.169 26.8451 315.645 26.4055 316.597 26.4055H330.441C331.32 26.4055 331.759 26.8451 331.759 27.7242V73.1108H337.583C338.535 73.1108 339.011 73.5504 339.011 74.4295V79.155C339.011 80.0341 338.535 80.4737 337.583 80.4737ZM331.32 10.1411C332.565 11.3866 333.188 12.8518 333.188 14.5369C333.188 16.2219 332.565 17.6506 331.32 18.8228C330.148 19.995 328.72 20.5811 327.035 20.5811C325.35 20.5811 323.885 19.995 322.64 18.8228C321.468 17.6506 320.882 16.2219 320.882 14.5369C320.882 12.8518 321.468 11.3866 322.64 10.1411C323.885 8.8956 325.35 8.27287 327.035 8.27287C328.72 8.27287 330.148 8.8956 331.32 10.1411ZM371.556 106.189C367.893 106.189 365.11 105.933 363.205 105.42C361.374 104.907 359.872 104.431 358.7 103.991C357.602 103.625 356.649 103.222 355.844 102.782C355.038 102.416 354.269 102.013 353.536 101.574C350.313 99.4489 349.105 97.9104 349.91 96.9579L352.767 92.8918C353.207 92.2325 353.829 92.1958 354.635 92.7819C354.708 92.7819 354.928 92.9285 355.294 93.2215C355.734 93.5878 356.137 93.9175 356.503 94.2106C356.942 94.5036 357.492 94.8333 358.151 95.1996C358.883 95.6392 359.689 96.0055 360.568 96.2986C361.447 96.6649 362.399 96.9946 363.425 97.2876C365.842 97.947 368.516 98.2767 371.446 98.2767C376.72 98.2767 380.931 96.9946 384.081 94.4303C387.304 91.9394 388.915 87.9832 388.915 82.5617V70.0337C387.597 73.1108 385.4 75.7482 382.323 77.9461C379.32 80.144 375.548 81.243 371.006 81.243C363.535 81.243 357.528 78.6421 352.987 73.4405C348.519 68.2388 346.285 61.4986 346.285 53.2198C346.285 44.9411 348.555 38.2741 353.097 33.219C357.711 28.1638 363.681 25.6362 371.006 25.6362C375.548 25.6362 379.356 26.6986 382.433 28.8232C385.583 30.8746 387.853 33.4021 389.245 36.4059H389.465L389.355 27.7242C389.355 26.8451 389.794 26.4055 390.673 26.4055H403.638C404.517 26.4055 404.957 26.8451 404.957 27.7242V32.4497C404.957 33.3289 404.517 33.7684 403.638 33.7684H397.705V82.5617C397.705 90.4009 395.288 96.2986 390.454 100.255C385.693 104.211 379.393 106.189 371.556 106.189ZM355.294 53.4396C355.294 59.4472 356.906 64.3192 360.129 68.0556C363.352 71.7188 367.38 73.5503 372.215 73.5503C377.049 73.5503 381.041 71.7188 384.191 68.0556C387.414 64.3925 389.025 59.4838 389.025 53.3297C389.025 47.1756 387.414 42.3036 384.191 38.7137C381.041 35.1238 377.049 33.3289 372.215 33.3289C367.38 33.3289 363.352 35.1604 360.129 38.8236C356.906 42.4868 355.294 47.3588 355.294 53.4396ZM470.94 80.4737H460.502C457.353 80.4737 455.778 78.9352 455.778 75.8581V46.9558C455.778 42.7066 454.752 39.4097 452.701 37.0653C450.65 34.7209 447.647 33.5487 443.692 33.5487C440.688 33.5487 438.381 34.0249 436.77 34.9773C435.231 35.8564 434.059 36.6623 433.254 37.395C432.448 38.0543 431.789 38.7137 431.276 39.3731C430.397 40.5453 429.664 41.7541 429.078 42.9996V73.1108H434.902C435.854 73.1108 436.33 73.5504 436.33 74.4295V79.155C436.33 80.0341 435.854 80.4737 434.902 80.4737H413.916C412.964 80.4737 412.488 80.0341 412.488 79.155V74.4295C412.488 73.5504 412.964 73.1108 413.916 73.1108H419.959V8.93224H413.916C412.964 8.93224 412.488 8.49266 412.488 7.6135V2.88802C412.488 2.00887 412.964 1.56929 413.916 1.56929H427.76C428.639 1.56929 429.078 2.00887 429.078 2.88802V27.3946C429.078 29.8122 428.932 32.0468 428.639 34.0981H428.859C432.448 28.4569 438.161 25.6362 445.999 25.6362C451.859 25.6362 456.437 27.3579 459.733 30.8013C463.029 34.2447 464.714 38.8969 464.787 44.7579V73.1108H470.94C471.892 73.1108 472.369 73.5504 472.369 74.4295V79.155C472.369 80.0341 471.892 80.4737 470.94 80.4737ZM512.277 74.8691C512.57 75.1621 512.716 75.4918 512.716 75.8581C512.716 76.1512 512.497 76.5175 512.057 76.9571C508.834 79.8143 504.769 81.243 499.861 81.243C495.027 81.243 491.035 79.6678 487.885 76.5175C484.809 73.2939 483.27 68.6417 483.27 62.5609V33.7684H477.118C476.092 33.7684 475.579 33.2922 475.579 32.3398V27.8341C475.579 26.8817 476.092 26.4055 477.118 26.4055H483.27V15.3061C483.27 14.2804 483.783 13.7676 484.809 13.7676H490.962C491.914 13.7676 492.39 14.2804 492.39 15.3061V26.4055H506.344C507.369 26.4055 507.882 26.8817 507.882 27.8341V32.3398C507.882 33.2922 507.369 33.7684 506.344 33.7684H492.39V62.3411C492.39 66.0042 493.196 68.7882 494.807 70.6931C496.492 72.5247 498.689 73.4405 501.399 73.4405C504.183 73.4405 506.271 72.7444 507.662 71.3524C508.395 70.6931 509.054 70.7297 509.64 71.4623L512.277 74.8691ZM609.717 19.2623C616.163 25.7095 619.386 33.3655 619.386 42.2303C619.386 51.0952 616.163 58.7512 609.717 65.1983C603.272 71.6455 595.617 74.8691 586.754 74.8691C577.891 74.8691 570.236 71.6455 563.79 65.1983C557.345 58.7512 554.122 51.0952 554.122 42.2303C554.122 33.3655 557.345 25.7095 563.79 19.2623C570.236 12.8152 577.891 9.5916 586.754 9.5916C595.617 9.5916 603.272 12.8152 609.717 19.2623ZM605.761 61.2421C611.035 55.9672 613.672 49.6299 613.672 42.2303C613.672 34.8308 611.035 28.5301 605.761 23.3284C600.488 18.0535 594.152 15.416 586.754 15.416C579.356 15.416 573.02 18.0535 567.746 23.3284C562.545 28.5301 559.945 34.8308 559.945 42.2303C559.945 49.6299 562.545 55.9672 567.746 61.2421C573.02 66.4438 579.356 69.0447 586.754 69.0447C594.152 69.0447 600.488 66.4438 605.761 61.2421ZM601.477 51.3516C601.843 51.6447 602.026 51.9011 602.026 52.1209C602.026 52.3407 601.843 52.7802 601.477 53.4396C601.111 54.0257 600.451 54.8682 599.499 55.9672C598.62 56.9929 596.972 58.1284 594.555 59.3739C592.138 60.6194 589.464 61.2421 586.534 61.2421C581.48 61.2421 577.195 59.5205 573.679 56.0771C570.163 52.5605 568.405 47.835 568.405 41.9007C568.405 35.9663 570.163 31.2775 573.679 27.8341C577.195 24.3175 581.48 22.5592 586.534 22.5592C589.464 22.5592 592.138 23.1819 594.555 24.4274C596.972 25.6729 598.657 26.8451 599.609 27.944C601.221 29.7756 602.026 30.9112 602.026 31.3508C602.026 31.7903 601.88 32.1567 601.587 32.4497L598.401 34.6476C597.888 34.9407 597.485 34.8674 597.192 34.4278C595.068 30.6181 591.515 28.7133 586.534 28.7133C583.238 28.7133 580.455 29.8489 578.184 32.12C575.986 34.3179 574.888 37.5415 574.888 41.7908C574.888 46.04 576.023 49.3369 578.294 51.6813C580.564 53.9525 583.385 55.088 586.754 55.088C591.662 55.088 595.141 53.2931 597.192 49.7032C597.558 49.1171 597.961 49.0072 598.401 49.3735L601.477 51.3516ZM718.534 80.4737H663.598C662.645 80.4737 662.169 80.0341 662.169 79.155V75.7482C662.169 71.3525 663.012 67.3962 664.696 63.8796C666.454 60.363 668.688 57.5057 671.399 55.3078C674.182 53.0367 677.222 50.9853 680.518 49.1537C683.814 47.3221 687.11 45.6371 690.407 44.0986C693.703 42.4868 696.743 40.8383 699.526 39.1533C705.679 35.3436 708.755 30.6181 708.755 24.9769C708.755 20.7276 707.107 17.1377 703.811 14.2072C700.588 11.2034 696.193 9.7015 690.626 9.7015C685.059 9.7015 680.701 11.2034 677.551 14.2072C674.402 17.211 672.827 21.0207 672.827 25.6362C672.827 26.5154 672.351 26.955 671.399 26.955H664.257C663.378 26.955 662.938 26.5154 662.938 25.6362C662.938 18.8228 665.319 12.9983 670.08 8.16297C674.914 3.3276 681.763 0.909912 690.626 0.909912C699.563 0.909912 706.448 3.21771 711.283 7.83329C716.19 12.3756 718.644 17.8703 718.644 24.3175C718.644 28.7133 717.545 32.6695 715.348 36.1861C713.15 39.7028 710.404 42.5234 707.107 44.648C703.811 46.6994 700.222 48.7874 696.34 50.912C692.458 52.9634 688.832 54.8682 685.462 56.6266C682.093 58.3116 679.2 60.5095 676.782 63.2202C674.438 65.931 673.157 68.9348 672.937 72.2316H710.294V64.3192C710.294 63.44 710.733 63.0004 711.612 63.0004H718.534C719.486 63.0004 719.963 63.44 719.963 64.3192V79.155C719.963 80.0341 719.486 80.4737 718.534 80.4737ZM783.311 70.1436C777.744 77.5432 769.979 81.243 760.017 81.243C750.056 81.243 742.255 77.5432 736.614 70.1436C731.048 62.744 728.264 53.0367 728.264 41.0215C728.264 29.0063 731.121 19.3356 736.834 12.0093C742.548 4.60971 750.275 0.909912 760.017 0.909912C769.76 0.909912 777.487 4.60971 783.201 12.0093C788.914 19.3356 791.771 29.0063 791.771 41.0215C791.771 52.9634 788.951 62.6708 783.311 70.1436ZM744.196 64.0994C748.005 69.5941 753.279 72.3415 760.017 72.3415C766.756 72.3415 772.03 69.6308 775.839 64.2093C779.648 58.7146 781.553 51.0219 781.553 41.1314C781.553 31.2409 779.612 23.5116 775.729 17.9436C771.92 12.3756 766.683 9.5916 760.017 9.5916C753.352 9.5916 748.078 12.3756 744.196 17.9436C740.387 23.5116 738.482 31.2409 738.482 41.1314C738.482 50.9487 740.387 58.6047 744.196 64.0994ZM856.523 80.4737H801.586C800.634 80.4737 800.158 80.0341 800.158 79.155V75.7482C800.158 71.3525 801 67.3962 802.685 63.8796C804.443 60.363 806.677 57.5057 809.387 55.3078C812.171 53.0367 815.21 50.9853 818.507 49.1537C821.803 47.3221 825.099 45.6371 828.395 44.0986C831.692 42.4868 834.731 40.8383 837.515 39.1533C843.668 35.3436 846.744 30.6181 846.744 24.9769C846.744 20.7276 845.096 17.1377 841.8 14.2072C838.577 11.2034 834.182 9.7015 828.615 9.7015C823.048 9.7015 818.69 11.2034 815.54 14.2072C812.39 17.211 810.816 21.0207 810.816 25.6362C810.816 26.5154 810.339 26.955 809.387 26.955H802.245C801.366 26.955 800.927 26.5154 800.927 25.6362C800.927 18.8228 803.308 12.9983 808.069 8.16297C812.903 3.3276 819.752 0.909912 828.615 0.909912C837.551 0.909912 844.437 3.21771 849.271 7.83329C854.179 12.3756 856.633 17.8703 856.633 24.3175C856.633 28.7133 855.534 32.6695 853.337 36.1861C851.139 39.7028 848.392 42.5234 845.096 44.648C841.8 46.6994 838.211 48.7874 834.328 50.912C830.446 52.9634 826.82 54.8682 823.451 56.6266C820.081 58.3116 817.188 60.5095 814.771 63.2202C812.427 65.931 811.145 68.9348 810.925 72.2316H848.282V64.3192C848.282 63.44 848.722 63.0004 849.601 63.0004H856.523C857.475 63.0004 857.951 63.44 857.951 64.3192V79.155C857.951 80.0341 857.475 80.4737 856.523 80.4737ZM912.4 80.4737H869C868.047 80.4737 867.571 80.0341 867.571 79.155V73.5503C867.571 72.6712 868.047 72.2316 869 72.2316H886.799V11.8994L871.637 22.779C870.904 23.2918 870.281 23.1819 869.769 22.4493L866.692 17.9436C866.472 17.6506 866.363 17.3575 866.363 17.0644C866.363 16.7714 866.582 16.4417 867.022 16.0754L886.14 2.33855C886.872 1.82571 887.532 1.56929 888.118 1.56929H895.04C895.919 1.56929 896.358 2.00887 896.358 2.88802V72.2316H912.4C913.278 72.2316 913.718 72.6712 913.718 73.5503V79.155C913.718 80.0341 913.278 80.4737 912.4 80.4737ZM1034.5 80.4737H1030.32C1027.61 80.4737 1025.89 79.0084 1025.16 76.0779L1012.41 20.2514H1012.09L999.56 76.0779C998.827 79.0084 997.069 80.4737 994.286 80.4737H990.22C987.657 80.4737 985.899 79.0084 984.946 76.0779L964.84 9.81139H957.918C956.965 9.81139 956.489 9.37181 956.489 8.49266V2.88802C956.489 2.00887 956.965 1.56929 957.918 1.56929H982.639C983.591 1.56929 984.067 2.00887 984.067 2.88802V8.49266C984.067 9.37181 983.591 9.81139 982.639 9.81139H974.948L991.978 68.8249H992.638L1007.91 1.56929H1016.7L1032.08 68.8249H1032.74L1049.77 9.81139H1041.97C1041.09 9.81139 1040.65 9.37181 1040.65 8.49266V2.88802C1040.65 2.00887 1041.09 1.56929 1041.97 1.56929H1066.8C1067.68 1.56929 1068.12 2.00887 1068.12 2.88802V8.49266C1068.12 9.37181 1067.68 9.81139 1066.8 9.81139H1059.77L1039.66 76.0779C1038.78 79.0084 1037.06 80.4737 1034.5 80.4737ZM1130.07 80.4737H1119.63C1116.48 80.4737 1114.91 78.9352 1114.91 75.8581V46.9558C1114.91 42.7066 1113.88 39.4097 1111.83 37.0653C1109.78 34.7209 1106.78 33.5487 1102.82 33.5487C1099.82 33.5487 1097.51 34.0249 1095.9 34.9773C1094.36 35.8564 1093.19 36.6623 1092.38 37.395C1091.58 38.0543 1090.92 38.7137 1090.41 39.3731C1089.53 40.5453 1088.8 41.7541 1088.21 42.9996V73.1108H1094.03C1094.98 73.1108 1095.46 73.5504 1095.46 74.4295V79.155C1095.46 80.0341 1094.98 80.4737 1094.03 80.4737H1073.05C1072.09 80.4737 1071.62 80.0341 1071.62 79.155V74.4295C1071.62 73.5504 1072.09 73.1108 1073.05 73.1108H1079.09V8.93224H1073.05C1072.09 8.93224 1071.62 8.49266 1071.62 7.6135V2.88802C1071.62 2.00887 1072.09 1.56929 1073.05 1.56929H1086.89C1087.77 1.56929 1088.21 2.00887 1088.21 2.88802V27.3946C1088.21 29.8122 1088.06 32.0468 1087.77 34.0981H1087.99C1091.58 28.4569 1097.29 25.6362 1105.13 25.6362C1110.99 25.6362 1115.57 27.3579 1118.86 30.8013C1122.16 34.2447 1123.84 38.8969 1123.92 44.7579V73.1108H1130.07C1131.02 73.1108 1131.5 73.5504 1131.5 74.4295V79.155C1131.5 80.0341 1131.02 80.4737 1130.07 80.4737ZM1161.63 80.4737H1140.65C1139.7 80.4737 1139.22 80.0341 1139.22 79.155V74.4295C1139.22 73.5504 1139.7 73.1108 1140.65 73.1108H1146.69V33.7684H1140.65C1139.7 33.7684 1139.22 33.3289 1139.22 32.4497V27.7242C1139.22 26.8451 1139.7 26.4055 1140.65 26.4055H1154.49C1155.37 26.4055 1155.81 26.8451 1155.81 27.7242V73.1108H1161.63C1162.59 73.1108 1163.06 73.5504 1163.06 74.4295V79.155C1163.06 80.0341 1162.59 80.4737 1161.63 80.4737ZM1155.37 10.1411C1156.62 11.3866 1157.24 12.8518 1157.24 14.5369C1157.24 16.2219 1156.62 17.6506 1155.37 18.8228C1154.2 19.995 1152.77 20.5811 1151.09 20.5811C1149.4 20.5811 1147.94 19.995 1146.69 18.8228C1145.52 17.6506 1144.93 16.2219 1144.93 14.5369C1144.93 12.8518 1145.52 11.3866 1146.69 10.1411C1147.94 8.8956 1149.4 8.27287 1151.09 8.27287C1152.77 8.27287 1154.2 8.8956 1155.37 10.1411ZM1207.35 74.8691C1207.65 75.1621 1207.79 75.4918 1207.79 75.8581C1207.79 76.1512 1207.57 76.5175 1207.13 76.9571C1203.91 79.8143 1199.85 81.243 1194.94 81.243C1190.1 81.243 1186.11 79.6678 1182.96 76.5175C1179.89 73.2939 1178.35 68.6417 1178.35 62.5609V33.7684H1172.19C1171.17 33.7684 1170.66 33.2922 1170.66 32.3398V27.8341C1170.66 26.8817 1171.17 26.4055 1172.19 26.4055H1178.35V15.3061C1178.35 14.2804 1178.86 13.7676 1179.89 13.7676H1186.04C1186.99 13.7676 1187.47 14.2804 1187.47 15.3061V26.4055H1201.42C1202.45 26.4055 1202.96 26.8817 1202.96 27.8341V32.3398C1202.96 33.2922 1202.45 33.7684 1201.42 33.7684H1187.47V62.3411C1187.47 66.0042 1188.27 68.7882 1189.88 70.6931C1191.57 72.5247 1193.77 73.4405 1196.48 73.4405C1199.26 73.4405 1201.35 72.7444 1202.74 71.3524C1203.47 70.6931 1204.13 70.7297 1204.72 71.4623L1207.35 74.8691ZM1260 54.5386H1220.45C1220.74 60.6194 1222.65 65.3082 1226.16 68.6051C1229.75 71.9019 1233.78 73.5503 1238.25 73.5503C1242.72 73.5503 1246.52 72.5979 1249.67 70.6931C1252.9 68.7882 1255.06 66.92 1256.16 65.0885C1256.74 64.3558 1257.4 64.2459 1258.13 64.7588L1261.1 67.7259C1261.54 68.1655 1261.76 68.5684 1261.76 68.9348C1261.76 69.2278 1261.58 69.6308 1261.21 70.1436C1260.92 70.6564 1260.26 71.4624 1259.23 72.5613C1258.21 73.6602 1256.74 74.9057 1254.84 76.2977C1253.01 77.6897 1250.59 78.8619 1247.59 79.8144C1244.66 80.7668 1241.51 81.243 1238.14 81.243C1230.45 81.243 1224 78.7154 1218.8 73.6602C1213.67 68.6051 1211.11 61.8282 1211.11 53.3297C1211.11 44.7579 1213.67 38.0177 1218.8 33.1091C1223.93 28.1272 1230.19 25.6362 1237.59 25.6362C1245.06 25.6362 1250.92 28.0539 1255.17 32.8893C1259.42 37.6514 1261.54 44.0985 1261.54 52.2308C1261.54 52.5238 1261.54 52.8169 1261.54 53.1099C1261.54 54.0623 1261.03 54.5386 1260 54.5386ZM1252.42 47.835C1252.2 43.2927 1250.77 39.6661 1248.14 36.9554C1245.5 34.2447 1241.98 32.8893 1237.59 32.8893C1233.19 32.8893 1229.42 34.1348 1226.27 36.6257C1223.12 39.1167 1221.25 42.8531 1220.67 47.835H1252.42ZM1332.85 80.4737H1272.75C1271.8 80.4737 1271.33 80.0341 1271.33 79.155V73.5503C1271.33 72.6712 1271.8 72.2316 1272.75 72.2316H1281.1V9.81139H1272.75C1271.8 9.81139 1271.33 9.37181 1271.33 8.49266V2.88802C1271.33 2.00887 1271.8 1.56929 1272.75 1.56929H1299.01C1299.97 1.56929 1300.44 2.0455 1300.44 2.99792V8.38276C1300.44 9.33518 1299.97 9.81139 1299.01 9.81139H1290.66V72.2316H1325.6V61.4619C1325.6 60.5828 1326.08 60.1432 1327.03 60.1432H1332.96C1333.84 60.1432 1334.28 60.5828 1334.28 61.4619V79.0451C1334.28 79.9975 1333.81 80.4737 1332.85 80.4737ZM1366.25 80.4737H1345.26C1344.31 80.4737 1343.84 80.0341 1343.84 79.155V74.4295C1343.84 73.5504 1344.31 73.1108 1345.26 73.1108H1351.31V33.7684H1345.26C1344.31 33.7684 1343.84 33.3289 1343.84 32.4497V27.7242C1343.84 26.8451 1344.31 26.4055 1345.26 26.4055H1359.11C1359.99 26.4055 1360.43 26.8451 1360.43 27.7242V73.1108H1366.25C1367.2 73.1108 1367.68 73.5504 1367.68 74.4295V79.155C1367.68 80.0341 1367.2 80.4737 1366.25 80.4737ZM1359.99 10.1411C1361.23 11.3866 1361.85 12.8518 1361.85 14.5369C1361.85 16.2219 1361.23 17.6506 1359.99 18.8228C1358.81 19.995 1357.39 20.5811 1355.7 20.5811C1354.02 20.5811 1352.55 19.995 1351.31 18.8228C1350.13 17.6506 1349.55 16.2219 1349.55 14.5369C1349.55 12.8518 1350.13 11.3866 1351.31 10.1411C1352.55 8.8956 1354.02 8.27287 1355.7 8.27287C1357.39 8.27287 1358.81 8.8956 1359.99 10.1411ZM1400.1 81.243C1395.19 81.243 1391.27 80.3272 1388.34 78.4956C1385.41 76.664 1383.58 74.9423 1382.85 73.3306H1382.63C1382.77 76.9205 1382.85 78.8253 1382.85 79.0451C1382.85 79.9975 1382.33 80.4737 1381.31 80.4737H1377.57C1376.62 80.4737 1376.14 79.9975 1376.14 79.0451V62.5609C1376.14 61.6085 1376.62 61.1322 1377.57 61.1322H1381.86C1382.88 61.1322 1383.4 61.6085 1383.4 62.5609V64.7588C1384.13 66.9567 1385.67 68.9714 1388.01 70.803C1390.79 73.0009 1394.27 74.0998 1398.45 74.0998C1406.65 74.0998 1410.75 71.2426 1410.75 65.528C1410.75 63.5499 1409.62 61.9748 1407.35 60.8026C1405.08 59.5571 1402.29 58.5314 1399 57.7255C1395.77 56.9196 1392.55 56.0038 1389.33 54.9781C1386.11 53.9524 1383.36 52.304 1381.09 50.0329C1378.82 47.6885 1377.68 44.7579 1377.68 41.2413C1377.68 36.4792 1379.4 32.7061 1382.85 29.9221C1386.29 27.0649 1390.68 25.6362 1396.03 25.6362C1403.28 25.6362 1408.48 27.7609 1411.63 32.0101H1411.85C1411.71 29.3727 1411.63 28.0173 1411.63 27.944C1411.63 26.9916 1412.11 26.5154 1413.06 26.5154H1416.58C1417.53 26.5154 1418.01 26.9916 1418.01 27.944V43.2194C1418.01 44.1718 1417.53 44.648 1416.58 44.648H1412.29C1411.27 44.648 1410.75 44.1718 1410.75 43.2194V41.6809C1410.75 39.7028 1409.58 37.7613 1407.24 35.8564C1404.97 33.8783 1402 32.8893 1398.34 32.8893C1394.68 32.8893 1391.82 33.6586 1389.77 35.1971C1387.72 36.7356 1386.69 38.7503 1386.69 41.2413C1386.69 43.659 1387.83 45.5638 1390.1 46.9558C1392.44 48.2746 1395.26 49.3369 1398.56 50.1428C1401.85 50.8754 1405.15 51.7179 1408.45 52.6703C1411.74 53.6228 1414.53 55.1979 1416.8 57.3958C1419.14 59.5937 1420.31 62.6341 1420.31 66.5171C1420.31 70.4 1418.63 73.8434 1415.26 76.8472C1411.96 79.7777 1406.91 81.243 1400.1 81.243ZM1464.65 74.8691C1464.95 75.1621 1465.09 75.4918 1465.09 75.8581C1465.09 76.1512 1464.87 76.5175 1464.43 76.9571C1461.21 79.8143 1457.15 81.243 1452.24 81.243C1447.4 81.243 1443.41 79.6678 1440.26 76.5175C1437.18 73.2939 1435.65 68.6417 1435.65 62.5609V33.7684H1429.49C1428.47 33.7684 1427.96 33.2922 1427.96 32.3398V27.8341C1427.96 26.8817 1428.47 26.4055 1429.49 26.4055H1435.65V15.3061C1435.65 14.2804 1436.16 13.7676 1437.18 13.7676H1443.34C1444.29 13.7676 1444.77 14.2804 1444.77 15.3061V26.4055H1458.72C1459.75 26.4055 1460.26 26.8817 1460.26 27.8341V32.3398C1460.26 33.2922 1459.75 33.7684 1458.72 33.7684H1444.77V62.3411C1444.77 66.0042 1445.57 68.7882 1447.18 70.6931C1448.87 72.5247 1451.07 73.4405 1453.78 73.4405C1456.56 73.4405 1458.65 72.7444 1460.04 71.3524C1460.77 70.6931 1461.43 70.7297 1462.02 71.4623L1464.65 74.8691ZM1535.4 80.4737H1509.03C1508.08 80.4737 1507.6 80.0341 1507.6 79.155V73.5503C1507.6 72.6712 1508.08 72.2316 1509.03 72.2316H1517.38V9.81139H1509.03C1508.08 9.81139 1507.6 9.37181 1507.6 8.49266V2.88802C1507.6 2.00887 1508.08 1.56929 1509.03 1.56929H1535.4C1536.35 1.56929 1536.83 2.00887 1536.83 2.88802V8.49266C1536.83 9.37181 1536.35 9.81139 1535.4 9.81139H1526.94V72.2316H1535.4C1536.35 72.2316 1536.83 72.6712 1536.83 73.5503V79.155C1536.83 80.0341 1536.35 80.4737 1535.4 80.4737ZM1604.33 80.4737H1593.89C1590.74 80.4737 1589.17 78.9352 1589.17 75.8581V46.9558C1589.17 42.7066 1588.14 39.4097 1586.09 37.0653C1584.04 34.7209 1581.04 33.5487 1577.08 33.5487C1571.44 33.5487 1567.05 35.8564 1563.9 40.472C1563.53 40.9116 1563.06 41.7175 1562.47 42.8897V73.1108H1568.29C1569.25 73.1108 1569.72 73.5504 1569.72 74.4295V79.155C1569.72 80.0341 1569.25 80.4737 1568.29 80.4737H1547.31C1546.36 80.4737 1545.88 80.0341 1545.88 79.155V74.4295C1545.88 73.5504 1546.36 73.1108 1547.31 73.1108H1553.35V33.7684H1547.31C1546.36 33.7684 1545.88 33.3289 1545.88 32.4497V27.7242C1545.88 26.8451 1546.36 26.4055 1547.31 26.4055H1560.16C1561.12 26.4055 1561.59 26.8451 1561.59 27.7242L1561.37 35.1971H1561.7C1565.51 28.8232 1571.41 25.6362 1579.39 25.6362C1585.25 25.6362 1589.83 27.3579 1593.13 30.8013C1596.42 34.2447 1598.11 38.8969 1598.18 44.7579V73.1108H1604.33C1605.28 73.1108 1605.76 73.5504 1605.76 74.4295V79.155C1605.76 80.0341 1605.28 80.4737 1604.33 80.4737ZM1645.67 74.8691C1645.96 75.1621 1646.11 75.4918 1646.11 75.8581C1646.11 76.1512 1645.89 76.5175 1645.45 76.9571C1642.23 79.8143 1638.16 81.243 1633.25 81.243C1628.42 81.243 1624.43 79.6678 1621.28 76.5175C1618.2 73.2939 1616.66 68.6417 1616.66 62.5609V33.7684H1610.51C1609.48 33.7684 1608.97 33.2922 1608.97 32.3398V27.8341C1608.97 26.8817 1609.48 26.4055 1610.51 26.4055H1616.66V15.3061C1616.66 14.2804 1617.18 13.7676 1618.2 13.7676H1624.35C1625.31 13.7676 1625.78 14.2804 1625.78 15.3061V26.4055H1639.74C1640.76 26.4055 1641.27 26.8817 1641.27 27.8341V32.3398C1641.27 33.2922 1640.76 33.7684 1639.74 33.7684H1625.78V62.3411C1625.78 66.0042 1626.59 68.7882 1628.2 70.6931C1629.88 72.5247 1632.08 73.4405 1634.79 73.4405C1637.58 73.4405 1639.66 72.7444 1641.05 71.3524C1641.79 70.6931 1642.45 70.7297 1643.03 71.4623L1645.67 74.8691ZM1660.87 72.4514C1661.89 73.4038 1662.41 74.6127 1662.41 76.0779C1662.41 77.5432 1661.89 78.7887 1660.87 79.8144C1659.92 80.7668 1658.71 81.243 1657.24 81.243C1655.78 81.243 1654.53 80.7668 1653.51 79.8144C1652.48 78.7887 1651.97 77.5432 1651.97 76.0779C1651.97 74.6127 1652.48 73.4038 1653.51 72.4514C1654.53 71.4257 1655.78 70.9129 1657.24 70.9129C1658.71 70.9129 1659.92 71.4257 1660.87 72.4514ZM1784.35 80.4737H1759.52C1758.64 80.4737 1758.2 80.0341 1758.2 79.155V73.5503C1758.2 72.6712 1758.64 72.2316 1759.52 72.2316H1767.21L1760.07 53.2198H1729.41L1722.27 72.2316H1729.96C1730.84 72.2316 1731.28 72.6712 1731.28 73.5503V79.155C1731.28 80.0341 1730.84 80.4737 1729.96 80.4737H1705.24C1704.36 80.4737 1703.92 80.0341 1703.92 79.155V73.5503C1703.92 72.6712 1704.36 72.2316 1705.24 72.2316H1712.6L1736.22 9.81139H1730.29C1729.34 9.81139 1728.86 9.37181 1728.86 8.49266V2.88802C1728.86 2.00887 1729.34 1.56929 1730.29 1.56929H1745.23C1746.99 1.56929 1748.31 1.9356 1749.19 2.66823C1750.14 3.40087 1750.95 4.60971 1751.61 6.29476L1776.88 72.2316H1784.35C1785.23 72.2316 1785.67 72.6712 1785.67 73.5503V79.155C1785.67 80.0341 1785.23 80.4737 1784.35 80.4737ZM1757.1 45.6371L1744.9 12.9983H1744.57L1732.27 45.6371H1757.1ZM1813.9 80.4737H1792.91C1791.96 80.4737 1791.48 80.0341 1791.48 79.155V74.4295C1791.48 73.5504 1791.96 73.1108 1792.91 73.1108H1798.95V8.93224H1792.91C1791.96 8.93224 1791.48 8.49266 1791.48 7.6135V2.88802C1791.48 2.00887 1791.96 1.56929 1792.91 1.56929H1805.11C1807.09 1.56929 1808.07 2.48508 1808.07 4.31666V73.1108H1813.9C1814.85 73.1108 1815.33 73.5504 1815.33 74.4295V79.155C1815.33 80.0341 1814.85 80.4737 1813.9 80.4737ZM1846.08 80.4737H1825.1C1824.15 80.4737 1823.67 80.0341 1823.67 79.155V74.4295C1823.67 73.5504 1824.15 73.1108 1825.1 73.1108H1831.14V8.93224H1825.1C1824.15 8.93224 1823.67 8.49266 1823.67 7.6135V2.88802C1823.67 2.00887 1824.15 1.56929 1825.1 1.56929H1837.29C1839.27 1.56929 1840.26 2.48508 1840.26 4.31666V73.1108H1846.08C1847.04 73.1108 1847.51 73.5504 1847.51 74.4295V79.155C1847.51 80.0341 1847.04 80.4737 1846.08 80.4737ZM1912.72 80.4737H1891.73C1890.78 80.4737 1890.3 80.0341 1890.3 79.155V74.4295C1890.3 73.5504 1890.78 73.1108 1891.73 73.1108H1897.77V33.7684H1891.73C1890.78 33.7684 1890.3 33.3289 1890.3 32.4497V27.7242C1890.3 26.8451 1890.78 26.4055 1891.73 26.4055H1904.59C1905.54 26.4055 1906.01 26.8451 1906.01 27.7242V41.4611H1906.34C1906.56 40.2889 1907.33 38.6771 1908.65 36.6257C1909.97 34.5743 1911.4 32.8893 1912.94 31.5706C1914.55 30.1786 1916.82 28.9331 1919.75 27.8341C1922.75 26.7352 1926.12 26.1857 1929.86 26.1857C1930.81 26.1857 1931.29 26.6619 1931.29 27.6143V33.4388C1931.29 34.3912 1930.81 34.8674 1929.86 34.8674H1927.55C1921.25 34.8674 1916.23 36.8821 1912.5 40.9116C1908.76 44.9411 1906.89 49.52 1906.89 54.6485V73.1108H1912.72C1913.67 73.1108 1914.14 73.5504 1914.14 74.4295V79.155C1914.14 80.0341 1913.67 80.4737 1912.72 80.4737ZM1958.97 80.4737H1937.98C1937.03 80.4737 1936.55 80.0341 1936.55 79.155V74.4295C1936.55 73.5504 1937.03 73.1108 1937.98 73.1108H1944.02V33.7684H1937.98C1937.03 33.7684 1936.55 33.3289 1936.55 32.4497V27.7242C1936.55 26.8451 1937.03 26.4055 1937.98 26.4055H1951.83C1952.7 26.4055 1953.14 26.8451 1953.14 27.7242V73.1108H1958.97C1959.92 73.1108 1960.4 73.5504 1960.4 74.4295V79.155C1960.4 80.0341 1959.92 80.4737 1958.97 80.4737ZM1952.7 10.1411C1953.95 11.3866 1954.57 12.8518 1954.57 14.5369C1954.57 16.2219 1953.95 17.6506 1952.7 18.8228C1951.53 19.995 1950.1 20.5811 1948.42 20.5811C1946.73 20.5811 1945.27 19.995 1944.02 18.8228C1942.85 17.6506 1942.27 16.2219 1942.27 14.5369C1942.27 12.8518 1942.85 11.3866 1944.02 10.1411C1945.27 8.8956 1946.73 8.27287 1948.42 8.27287C1950.1 8.27287 1951.53 8.8956 1952.7 10.1411ZM1992.94 106.189C1989.27 106.189 1986.49 105.933 1984.59 105.42C1982.75 104.907 1981.25 104.431 1980.08 103.991C1978.98 103.625 1978.03 103.222 1977.22 102.782C1976.42 102.416 1975.65 102.013 1974.92 101.574C1971.69 99.4489 1970.49 97.9104 1971.29 96.9579L1974.15 92.8918C1974.59 92.2325 1975.21 92.1958 1976.02 92.7819C1976.09 92.7819 1976.31 92.9285 1976.68 93.2215C1977.11 93.5878 1977.52 93.9175 1977.88 94.2106C1978.32 94.5036 1978.87 94.8333 1979.53 95.1996C1980.26 95.6392 1981.07 96.0055 1981.95 96.2986C1982.83 96.6649 1983.78 96.9946 1984.81 97.2876C1987.22 97.947 1989.9 98.2767 1992.83 98.2767C1998.1 98.2767 2002.31 96.9946 2005.46 94.4303C2008.68 91.9394 2010.3 87.9832 2010.3 82.5617V70.0337C2008.98 73.1108 2006.78 75.7482 2003.7 77.9461C2000.7 80.144 1996.93 81.243 1992.39 81.243C1984.92 81.243 1978.91 78.6421 1974.37 73.4405C1969.9 68.2388 1967.67 61.4986 1967.67 53.2198C1967.67 44.9411 1969.94 38.2741 1974.48 33.219C1979.09 28.1638 1985.06 25.6362 1992.39 25.6362C1996.93 25.6362 2000.74 26.6986 2003.81 28.8232C2006.96 30.8746 2009.23 33.4021 2010.63 36.4059H2010.85L2010.74 27.7242C2010.74 26.8451 2011.18 26.4055 2012.05 26.4055H2025.02C2025.9 26.4055 2026.34 26.8451 2026.34 27.7242V32.4497C2026.34 33.3289 2025.9 33.7684 2025.02 33.7684H2019.09V82.5617C2019.09 90.4009 2016.67 96.2986 2011.83 100.255C2007.07 104.211 2000.77 106.189 1992.94 106.189ZM1976.68 53.4396C1976.68 59.4472 1978.29 64.3192 1981.51 68.0556C1984.73 71.7188 1988.76 73.5503 1993.6 73.5503C1998.43 73.5503 2002.42 71.7188 2005.57 68.0556C2008.79 64.3925 2010.41 59.4838 2010.41 53.3297C2010.41 47.1756 2008.79 42.3036 2005.57 38.7137C2002.42 35.1238 1998.43 33.3289 1993.6 33.3289C1988.76 33.3289 1984.73 35.1604 1981.51 38.8236C1978.29 42.4868 1976.68 47.3588 1976.68 53.4396ZM2092.32 80.4737H2081.88C2078.74 80.4737 2077.16 78.9352 2077.16 75.8581V46.9558C2077.16 42.7066 2076.13 39.4097 2074.08 37.0653C2072.03 34.7209 2069.03 33.5487 2065.07 33.5487C2062.07 33.5487 2059.76 34.0249 2058.15 34.9773C2056.61 35.8564 2055.44 36.6623 2054.64 37.395C2053.83 38.0543 2053.17 38.7137 2052.66 39.3731C2051.78 40.5453 2051.05 41.7541 2050.46 42.9996V73.1108H2056.28C2057.24 73.1108 2057.71 73.5504 2057.71 74.4295V79.155C2057.71 80.0341 2057.24 80.4737 2056.28 80.4737H2035.3C2034.35 80.4737 2033.87 80.0341 2033.87 79.155V74.4295C2033.87 73.5504 2034.35 73.1108 2035.3 73.1108H2041.34V8.93224H2035.3C2034.35 8.93224 2033.87 8.49266 2033.87 7.6135V2.88802C2033.87 2.00887 2034.35 1.56929 2035.3 1.56929H2049.14C2050.02 1.56929 2050.46 2.00887 2050.46 2.88802V27.3946C2050.46 29.8122 2050.31 32.0468 2050.02 34.0981H2050.24C2053.83 28.4569 2059.54 25.6362 2067.38 25.6362C2073.24 25.6362 2077.82 27.3579 2081.12 30.8013C2084.41 34.2447 2086.1 38.8969 2086.17 44.7579V73.1108H2092.32C2093.27 73.1108 2093.75 73.5504 2093.75 74.4295V79.155C2093.75 80.0341 2093.27 80.4737 2092.32 80.4737ZM2133.66 74.8691C2133.95 75.1621 2134.1 75.4918 2134.1 75.8581C2134.1 76.1512 2133.88 76.5175 2133.44 76.9571C2130.22 79.8143 2126.15 81.243 2121.24 81.243C2116.41 81.243 2112.42 79.6678 2109.27 76.5175C2106.19 73.2939 2104.65 68.6417 2104.65 62.5609V33.7684H2098.5C2097.47 33.7684 2096.96 33.2922 2096.96 32.3398V27.8341C2096.96 26.8817 2097.47 26.4055 2098.5 26.4055H2104.65V15.3061C2104.65 14.2804 2105.17 13.7676 2106.19 13.7676H2112.34C2113.3 13.7676 2113.77 14.2804 2113.77 15.3061V26.4055H2127.73C2128.75 26.4055 2129.26 26.8817 2129.26 27.8341V32.3398C2129.26 33.2922 2128.75 33.7684 2127.73 33.7684H2113.77V62.3411C2113.77 66.0042 2114.58 68.7882 2116.19 70.6931C2117.87 72.5247 2120.07 73.4405 2122.78 73.4405C2125.57 73.4405 2127.65 72.7444 2129.04 71.3524C2129.78 70.6931 2130.44 70.7297 2131.02 71.4623L2133.66 74.8691ZM2164.59 81.243C2159.69 81.243 2155.77 80.3272 2152.84 78.4956C2149.91 76.664 2148.08 74.9423 2147.34 73.3306H2147.13C2147.27 76.9205 2147.34 78.8253 2147.34 79.0451C2147.34 79.9975 2146.83 80.4737 2145.81 80.4737H2142.07C2141.12 80.4737 2140.64 79.9975 2140.64 79.0451V62.5609C2140.64 61.6085 2141.12 61.1322 2142.07 61.1322H2146.36C2147.38 61.1322 2147.89 61.6085 2147.89 62.5609V64.7588C2148.63 66.9567 2150.17 68.9714 2152.51 70.803C2155.29 73.0009 2158.77 74.0998 2162.95 74.0998C2171.15 74.0998 2175.25 71.2426 2175.25 65.528C2175.25 63.5499 2174.12 61.9748 2171.85 60.8026C2169.58 59.5571 2166.79 58.5314 2163.5 57.7255C2160.27 56.9196 2157.05 56.0038 2153.83 54.9781C2150.6 53.9524 2147.86 52.304 2145.59 50.0329C2143.32 47.6885 2142.18 44.7579 2142.18 41.2413C2142.18 36.4792 2143.9 32.7061 2147.34 29.9221C2150.79 27.0649 2155.18 25.6362 2160.53 25.6362C2167.78 25.6362 2172.98 27.7609 2176.13 32.0101H2176.35C2176.2 29.3727 2176.13 28.0173 2176.13 27.944C2176.13 26.9916 2176.61 26.5154 2177.56 26.5154H2181.08C2182.03 26.5154 2182.5 26.9916 2182.5 27.944V43.2194C2182.5 44.1718 2182.03 44.648 2181.08 44.648H2176.79C2175.77 44.648 2175.25 44.1718 2175.25 43.2194V41.6809C2175.25 39.7028 2174.08 37.7613 2171.74 35.8564C2169.47 33.8783 2166.5 32.8893 2162.84 32.8893C2159.17 32.8893 2156.32 33.6586 2154.27 35.1971C2152.22 36.7356 2151.19 38.7503 2151.19 41.2413C2151.19 43.659 2152.33 45.5638 2154.6 46.9558C2156.94 48.2746 2159.76 49.3369 2163.06 50.1428C2166.35 50.8754 2169.65 51.7179 2172.95 52.6703C2176.24 53.6228 2179.03 55.1979 2181.3 57.3958C2183.64 59.5937 2184.81 62.6341 2184.81 66.5171C2184.81 70.4 2183.13 73.8434 2179.76 76.8472C2176.46 79.7777 2171.41 81.243 2164.59 81.243ZM2250.49 80.4737H2229.51C2228.55 80.4737 2228.08 80.0341 2228.08 79.155V74.4295C2228.08 73.5504 2228.55 73.1108 2229.51 73.1108H2235.55V33.7684H2229.51C2228.55 33.7684 2228.08 33.3289 2228.08 32.4497V27.7242C2228.08 26.8451 2228.55 26.4055 2229.51 26.4055H2242.36C2243.31 26.4055 2243.79 26.8451 2243.79 27.7242V41.4611H2244.12C2244.34 40.2889 2245.11 38.6771 2246.43 36.6257C2247.74 34.5743 2249.17 32.8893 2250.71 31.5706C2252.32 30.1786 2254.59 28.9331 2257.52 27.8341C2260.53 26.7352 2263.9 26.1857 2267.63 26.1857C2268.58 26.1857 2269.06 26.6619 2269.06 27.6143V33.4388C2269.06 34.3912 2268.58 34.8674 2267.63 34.8674H2265.32C2259.03 34.8674 2254.01 36.8821 2250.27 40.9116C2246.54 44.9411 2244.67 49.52 2244.67 54.6485V73.1108H2250.49C2251.44 73.1108 2251.92 73.5504 2251.92 74.4295V79.155C2251.92 80.0341 2251.44 80.4737 2250.49 80.4737ZM2321.5 54.5386H2281.95C2282.24 60.6194 2284.14 65.3082 2287.66 68.6051C2291.25 71.9019 2295.28 73.5503 2299.75 73.5503C2304.21 73.5503 2308.02 72.5979 2311.17 70.6931C2314.39 68.7882 2316.56 66.92 2317.65 65.0885C2318.24 64.3558 2318.9 64.2459 2319.63 64.7588L2322.6 67.7259C2323.04 68.1655 2323.26 68.5684 2323.26 68.9348C2323.26 69.2278 2323.08 69.6308 2322.71 70.1436C2322.42 70.6564 2321.76 71.4624 2320.73 72.5613C2319.71 73.6602 2318.24 74.9057 2316.34 76.2977C2314.5 77.6897 2312.09 78.8619 2309.08 79.8144C2306.15 80.7668 2303 81.243 2299.64 81.243C2291.94 81.243 2285.5 78.7154 2280.3 73.6602C2275.17 68.6051 2272.61 61.8282 2272.61 53.3297C2272.61 44.7579 2275.17 38.0177 2280.3 33.1091C2285.43 28.1272 2291.69 25.6362 2299.09 25.6362C2306.56 25.6362 2312.42 28.0539 2316.67 32.8893C2320.91 37.6514 2323.04 44.0985 2323.04 52.2308C2323.04 52.5238 2323.04 52.8169 2323.04 53.1099C2323.04 54.0623 2322.53 54.5386 2321.5 54.5386ZM2313.92 47.835C2313.7 43.2927 2312.27 39.6661 2309.63 36.9554C2307 34.2447 2303.48 32.8893 2299.09 32.8893C2294.69 32.8893 2290.92 34.1348 2287.77 36.6257C2284.62 39.1167 2282.75 42.8531 2282.17 47.835H2313.92ZM2356.12 81.243C2351.21 81.243 2347.3 80.3272 2344.37 78.4956C2341.44 76.664 2339.6 74.9423 2338.87 73.3306H2338.65C2338.8 76.9205 2338.87 78.8253 2338.87 79.0451C2338.87 79.9975 2338.36 80.4737 2337.33 80.4737H2333.6C2332.65 80.4737 2332.17 79.9975 2332.17 79.0451V62.5609C2332.17 61.6085 2332.65 61.1322 2333.6 61.1322H2337.88C2338.91 61.1322 2339.42 61.6085 2339.42 62.5609V64.7588C2340.15 66.9567 2341.69 68.9714 2344.04 70.803C2346.82 73.0009 2350.3 74.0998 2354.47 74.0998C2362.68 74.0998 2366.78 71.2426 2366.78 65.528C2366.78 63.5499 2365.64 61.9748 2363.37 60.8026C2361.1 59.5571 2358.32 58.5314 2355.02 57.7255C2351.8 56.9196 2348.58 56.0038 2345.35 54.9781C2342.13 53.9524 2339.39 52.304 2337.11 50.0329C2334.84 47.6885 2333.71 44.7579 2333.71 41.2413C2333.71 36.4792 2335.43 32.7061 2338.87 29.9221C2342.31 27.0649 2346.71 25.6362 2352.06 25.6362C2359.31 25.6362 2364.51 27.7609 2367.66 32.0101H2367.88C2367.73 29.3727 2367.66 28.0173 2367.66 27.944C2367.66 26.9916 2368.14 26.5154 2369.09 26.5154H2372.6C2373.56 26.5154 2374.03 26.9916 2374.03 27.944V43.2194C2374.03 44.1718 2373.56 44.648 2372.6 44.648H2368.32C2367.29 44.648 2366.78 44.1718 2366.78 43.2194V41.6809C2366.78 39.7028 2365.61 37.7613 2363.26 35.8564C2360.99 33.8783 2358.03 32.8893 2354.36 32.8893C2350.7 32.8893 2347.85 33.6586 2345.79 35.1971C2343.74 36.7356 2342.72 38.7503 2342.72 41.2413C2342.72 43.659 2343.85 45.5638 2346.12 46.9558C2348.47 48.2746 2351.29 49.3369 2354.58 50.1428C2357.88 50.8754 2361.18 51.7179 2364.47 52.6703C2367.77 53.6228 2370.55 55.1979 2372.82 57.3958C2375.17 59.5937 2376.34 62.6341 2376.34 66.5171C2376.34 70.4 2374.65 73.8434 2371.29 76.8472C2367.99 79.7777 2362.93 81.243 2356.12 81.243ZM2434.06 54.5386H2394.5C2394.8 60.6194 2396.7 65.3082 2400.22 68.6051C2403.81 71.9019 2407.84 73.5503 2412.3 73.5503C2416.77 73.5503 2420.58 72.5979 2423.73 70.6931C2426.95 68.7882 2429.11 66.92 2430.21 65.0885C2430.8 64.3558 2431.46 64.2459 2432.19 64.7588L2435.16 67.7259C2435.6 68.1655 2435.82 68.5684 2435.82 68.9348C2435.82 69.2278 2435.63 69.6308 2435.27 70.1436C2434.97 70.6564 2434.32 71.4624 2433.29 72.5613C2432.26 73.6602 2430.8 74.9057 2428.9 76.2977C2427.06 77.6897 2424.65 78.8619 2421.64 79.8144C2418.71 80.7668 2415.56 81.243 2412.19 81.243C2404.5 81.243 2398.06 78.7154 2392.86 73.6602C2387.73 68.6051 2385.17 61.8282 2385.17 53.3297C2385.17 44.7579 2387.73 38.0177 2392.86 33.1091C2397.98 28.1272 2404.25 25.6362 2411.65 25.6362C2419.12 25.6362 2424.98 28.0539 2429.22 32.8893C2433.47 37.6514 2435.6 44.0985 2435.6 52.2308C2435.6 52.5238 2435.6 52.8169 2435.6 53.1099C2435.6 54.0623 2435.08 54.5386 2434.06 54.5386ZM2426.48 47.835C2426.26 43.2927 2424.83 39.6661 2422.19 36.9554C2419.56 34.2447 2416.04 32.8893 2411.65 32.8893C2407.25 32.8893 2403.48 34.1348 2400.33 36.6257C2397.18 39.1167 2395.31 42.8531 2394.72 47.835H2426.48ZM2466.7 80.4737H2445.71C2444.76 80.4737 2444.28 80.0341 2444.28 79.155V74.4295C2444.28 73.5504 2444.76 73.1108 2445.71 73.1108H2451.75V33.7684H2445.71C2444.76 33.7684 2444.28 33.3289 2444.28 32.4497V27.7242C2444.28 26.8451 2444.76 26.4055 2445.71 26.4055H2458.57C2459.52 26.4055 2460 26.8451 2460 27.7242V41.4611H2460.33C2460.54 40.2889 2461.31 38.6771 2462.63 36.6257C2463.95 34.5743 2465.38 32.8893 2466.92 31.5706C2468.53 30.1786 2470.8 28.9331 2473.73 27.8341C2476.73 26.7352 2480.1 26.1857 2483.84 26.1857C2484.79 26.1857 2485.27 26.6619 2485.27 27.6143V33.4388C2485.27 34.3912 2484.79 34.8674 2483.84 34.8674H2481.53C2475.23 34.8674 2470.21 36.8821 2466.48 40.9116C2462.74 44.9411 2460.87 49.52 2460.87 54.6485V73.1108H2466.7C2467.65 73.1108 2468.13 73.5504 2468.13 74.4295V79.155C2468.13 80.0341 2467.65 80.4737 2466.7 80.4737ZM2522.17 80.4737H2514.81C2514.08 80.4737 2513.56 80.3638 2513.27 80.144C2512.98 79.851 2512.69 79.3015 2512.39 78.4956L2494.92 33.7684H2488.77C2487.89 33.7684 2487.45 33.3289 2487.45 32.4497V27.7242C2487.45 26.8451 2487.89 26.4055 2488.77 26.4055H2509.21C2510.09 26.4055 2510.52 26.8451 2510.52 27.7242V32.4497C2510.52 33.3289 2510.09 33.7684 2509.21 33.7684H2504.37L2518.44 70.803H2518.66L2532.94 33.7684H2527.99C2527.12 33.7684 2526.68 33.3289 2526.68 32.4497V27.7242C2526.68 26.8451 2527.12 26.4055 2527.99 26.4055H2548.43C2549.38 26.4055 2549.86 26.8451 2549.86 27.7242V32.4497C2549.86 33.3289 2549.38 33.7684 2548.43 33.7684H2542.39L2524.7 78.4956C2524.26 79.8143 2523.42 80.4737 2522.17 80.4737ZM2601.55 54.5386H2561.99C2562.29 60.6194 2564.19 65.3082 2567.71 68.6051C2571.3 71.9019 2575.33 73.5503 2579.79 73.5503C2584.26 73.5503 2588.07 72.5979 2591.22 70.6931C2594.44 68.7882 2596.6 66.92 2597.7 65.0885C2598.29 64.3558 2598.95 64.2459 2599.68 64.7588L2602.65 67.7259C2603.09 68.1655 2603.31 68.5684 2603.31 68.9348C2603.31 69.2278 2603.12 69.6308 2602.76 70.1436C2602.46 70.6564 2601.81 71.4624 2600.78 72.5613C2599.75 73.6602 2598.29 74.9057 2596.38 76.2977C2594.55 77.6897 2592.14 78.8619 2589.13 79.8144C2586.2 80.7668 2583.05 81.243 2579.68 81.243C2571.99 81.243 2565.55 78.7154 2560.35 73.6602C2555.22 68.6051 2552.66 61.8282 2552.66 53.3297C2552.66 44.7579 2555.22 38.0177 2560.35 33.1091C2565.47 28.1272 2571.74 25.6362 2579.13 25.6362C2586.61 25.6362 2592.47 28.0539 2596.71 32.8893C2600.96 37.6514 2603.09 44.0985 2603.09 52.2308C2603.09 52.5238 2603.09 52.8169 2603.09 53.1099C2603.09 54.0623 2602.57 54.5386 2601.55 54.5386ZM2593.97 47.835C2593.75 43.2927 2592.32 39.6661 2589.68 36.9554C2587.05 34.2447 2583.53 32.8893 2579.13 32.8893C2574.74 32.8893 2570.97 34.1348 2567.82 36.6257C2564.67 39.1167 2562.8 42.8531 2562.21 47.835H2593.97ZM2669.35 80.4737H2659.79C2658.11 80.4737 2656.86 80.144 2656.06 79.4847C2655.33 78.752 2654.96 77.5432 2654.96 75.8581V69.704H2654.85C2653.68 72.7811 2651.48 75.4918 2648.26 77.8362C2645.03 80.1074 2641.12 81.243 2636.5 81.243C2629.18 81.243 2623.21 78.6788 2618.59 73.5503C2614.05 68.4219 2611.78 61.7183 2611.78 53.4396C2611.78 45.0876 2614.05 38.384 2618.59 33.3289C2623.21 28.2004 2629.21 25.6362 2636.61 25.6362C2641.15 25.6362 2644.92 26.6986 2647.93 28.8232C2650.93 30.8746 2653.09 33.4021 2654.41 36.4059H2654.52C2654.45 34.9407 2654.41 33.7318 2654.41 32.7794V8.93224H2648.26C2647.31 8.93224 2646.83 8.49266 2646.83 7.6135V2.88802C2646.83 2.00887 2647.31 1.56929 2648.26 1.56929H2661.88C2662.76 1.56929 2663.2 2.00887 2663.2 2.88802V73.1108H2669.35C2670.23 73.1108 2670.67 73.5504 2670.67 74.4295V79.155C2670.67 80.0341 2670.23 80.4737 2669.35 80.4737ZM2620.79 53.2198C2620.79 59.3007 2622.36 64.2093 2625.51 67.9457C2628.74 71.6821 2632.8 73.5503 2637.71 73.5503C2642.62 73.5503 2646.65 71.7188 2649.8 68.0556C2652.95 64.3192 2654.52 59.3739 2654.52 53.2198C2654.52 47.0657 2652.91 42.2303 2649.69 38.7137C2646.46 35.1238 2642.47 33.3289 2637.71 33.3289C2632.95 33.3289 2628.92 35.1238 2625.62 38.7137C2622.4 42.3036 2620.79 47.139 2620.79 53.2198ZM2686.85 72.4514C2687.88 73.4038 2688.39 74.6127 2688.39 76.0779C2688.39 77.5432 2687.88 78.7887 2686.85 79.8144C2685.9 80.7668 2684.69 81.243 2683.23 81.243C2681.76 81.243 2680.52 80.7668 2679.49 79.8144C2678.47 78.7887 2677.95 77.5432 2677.95 76.0779C2677.95 74.6127 2678.47 73.4038 2679.49 72.4514C2680.52 71.4257 2681.76 70.9129 2683.23 70.9129C2684.69 70.9129 2685.9 71.4257 2686.85 72.4514Z" fill="black"/>
</svg>
