<svg width="442" height="19" viewBox="0 0 442 19" fill="none" xmlns="http://www.w3.org/2000/svg">
<path d="M12.546 10.742C12.606 10.79 12.636 10.85 12.636 10.922C12.636 10.982 12.606 11.072 12.546 11.192C12.498 11.3 12.408 11.45 12.276 11.642C12.156 11.822 11.934 12.074 11.61 12.398C11.286 12.722 10.932 13.004 10.548 13.244C10.164 13.472 9.654 13.676 9.018 13.856C8.394 14.036 7.722 14.126 7.002 14.126C5.25 14.126 3.786 13.514 2.61 12.29C1.446 11.066 0.864 9.464 0.864 7.484C0.864 5.492 1.452 3.908 2.628 2.732C3.816 1.556 5.244 0.967999 6.912 0.967999C8.772 0.967999 10.122 1.61 10.962 2.894L10.944 1.292C10.92 1.148 10.992 1.076 11.16 1.076H12.168C12.324 1.076 12.402 1.148 12.402 1.292V5.216C12.402 5.372 12.324 5.45 12.168 5.45H11.034C10.89 5.45 10.818 5.372 10.818 5.216V5.054C10.818 4.502 10.44 3.932 9.684 3.344C8.94 2.744 8.01 2.444 6.894 2.444C5.778 2.444 4.77 2.888 3.87 3.776C2.982 4.652 2.538 5.9 2.538 7.52C2.538 9.128 2.988 10.382 3.888 11.282C4.788 12.17 5.844 12.614 7.056 12.614C8.364 12.614 9.396 12.32 10.152 11.732C10.74 11.276 11.172 10.814 11.448 10.346C11.544 10.166 11.658 10.13 11.79 10.238L12.546 10.742ZM21.2025 12.866C20.3625 13.706 19.2885 14.126 17.9805 14.126C16.6725 14.126 15.5985 13.712 14.7585 12.884C13.9185 12.044 13.4985 10.934 13.4985 9.554C13.4985 8.162 13.9245 7.058 14.7765 6.242C15.6285 5.426 16.6965 5.018 17.9805 5.018C19.2765 5.018 20.3445 5.432 21.1845 6.26C22.0365 7.076 22.4625 8.174 22.4625 9.554C22.4625 10.922 22.0425 12.026 21.2025 12.866ZM15.0105 9.554C15.0105 10.538 15.2985 11.336 15.8745 11.948C16.4505 12.56 17.1525 12.866 17.9805 12.866C18.8205 12.866 19.5285 12.56 20.1045 11.948C20.6805 11.336 20.9685 10.538 20.9685 9.554C20.9685 8.57 20.6745 7.778 20.0865 7.178C19.5105 6.578 18.8145 6.278 17.9985 6.278C17.1825 6.278 16.4805 6.578 15.8925 7.178C15.3045 7.778 15.0105 8.57 15.0105 9.554ZM27.5282 18.05H23.9102C23.7542 18.05 23.6762 17.978 23.6762 17.834V17.06C23.6762 16.916 23.7542 16.844 23.9102 16.844H24.9182V6.35H23.9462C23.7902 6.35 23.7122 6.278 23.7122 6.134V5.36C23.7122 5.216 23.7902 5.144 23.9462 5.144H26.0522C26.2082 5.144 26.2862 5.216 26.2862 5.36L26.2682 6.782H26.2862C26.5142 6.29 26.8802 5.876 27.3842 5.54C27.9002 5.192 28.5302 5.018 29.2742 5.018C30.4862 5.018 31.4642 5.432 32.2082 6.26C32.9522 7.076 33.3242 8.168 33.3242 9.536C33.3242 10.892 32.9582 11.996 32.2262 12.848C31.4942 13.7 30.5162 14.126 29.2922 14.126C28.5482 14.126 27.9242 13.958 27.4202 13.622C26.9282 13.274 26.5742 12.854 26.3582 12.362H26.3042C26.3402 12.746 26.3582 13.022 26.3582 13.19V16.844H27.5282C27.6842 16.844 27.7622 16.916 27.7622 17.06V17.834C27.7622 17.978 27.6842 18.05 27.5282 18.05ZM26.3222 9.608C26.3222 10.652 26.5922 11.456 27.1322 12.02C27.6842 12.584 28.3442 12.866 29.1122 12.866C29.8922 12.866 30.5402 12.566 31.0562 11.966C31.5842 11.354 31.8482 10.556 31.8482 9.572C31.8482 8.576 31.5842 7.778 31.0562 7.178C30.5402 6.578 29.8922 6.278 29.1122 6.278C28.3322 6.278 27.6722 6.572 27.1322 7.16C26.5922 7.748 26.3222 8.564 26.3222 9.608ZM38.2722 13.802C38.0802 13.802 37.9242 13.652 37.8042 13.352L35.0502 6.35H34.0602C33.9162 6.35 33.8442 6.278 33.8442 6.134V5.36C33.8442 5.216 33.9162 5.144 34.0602 5.144H37.3182C37.4742 5.144 37.5522 5.216 37.5522 5.36V6.134C37.5522 6.278 37.4742 6.35 37.3182 6.35H36.5802L38.9022 12.452H38.9382L41.0982 6.35H40.2882C40.1442 6.35 40.0722 6.278 40.0722 6.134V5.36C40.0722 5.216 40.1442 5.144 40.2882 5.144H43.6362C43.7802 5.144 43.8522 5.216 43.8522 5.36V6.134C43.8522 6.278 43.7802 6.35 43.6362 6.35H42.6282L39.4242 15.152C39.0282 16.22 38.6142 16.994 38.1822 17.474C37.7622 17.966 37.1802 18.212 36.4362 18.212C35.7042 18.212 35.0742 17.978 34.5462 17.51C34.4262 17.39 34.4082 17.282 34.4922 17.186L34.9422 16.61C35.0502 16.526 35.1582 16.52 35.2662 16.592C35.5542 16.82 35.8962 16.934 36.2922 16.934C36.6882 16.934 37.0122 16.796 37.2642 16.52C37.5282 16.256 37.7802 15.794 38.0202 15.134L38.5062 13.802H38.2722ZM48.5474 14H45.1094C44.9534 14 44.8754 13.928 44.8754 13.784V13.01C44.8754 12.866 44.9534 12.794 45.1094 12.794H46.0994V6.35H45.1094C44.9534 6.35 44.8754 6.278 44.8754 6.134V5.36C44.8754 5.216 44.9534 5.144 45.1094 5.144H47.2154C47.3714 5.144 47.4494 5.216 47.4494 5.36V7.61H47.5034C47.5394 7.418 47.6654 7.154 47.8814 6.818C48.0974 6.482 48.3314 6.206 48.5834 5.99C48.8474 5.762 49.2194 5.558 49.6994 5.378C50.1914 5.198 50.7434 5.108 51.3554 5.108C51.5114 5.108 51.5894 5.186 51.5894 5.342V6.296C51.5894 6.452 51.5114 6.53 51.3554 6.53H50.9774C49.9454 6.53 49.1234 6.86 48.5114 7.52C47.8994 8.18 47.5934 8.93 47.5934 9.77V12.794H48.5474C48.7034 12.794 48.7814 12.866 48.7814 13.01V13.784C48.7814 13.928 48.7034 14 48.5474 14ZM56.1236 14H52.6856C52.5296 14 52.4516 13.928 52.4516 13.784V13.01C52.4516 12.866 52.5296 12.794 52.6856 12.794H53.6756V6.35H52.6856C52.5296 6.35 52.4516 6.278 52.4516 6.134V5.36C52.4516 5.216 52.5296 5.144 52.6856 5.144H54.9536C55.0976 5.144 55.1696 5.216 55.1696 5.36V12.794H56.1236C56.2796 12.794 56.3576 12.866 56.3576 13.01V13.784C56.3576 13.928 56.2796 14 56.1236 14ZM55.0976 2.48C55.3016 2.684 55.4036 2.924 55.4036 3.2C55.4036 3.476 55.3016 3.71 55.0976 3.902C54.9056 4.094 54.6716 4.19 54.3956 4.19C54.1196 4.19 53.8796 4.094 53.6756 3.902C53.4836 3.71 53.3876 3.476 53.3876 3.2C53.3876 2.924 53.4836 2.684 53.6756 2.48C53.8796 2.276 54.1196 2.174 54.3956 2.174C54.6716 2.174 54.9056 2.276 55.0976 2.48ZM61.6892 18.212C61.0892 18.212 60.6332 18.17 60.3212 18.086C60.0212 18.002 59.7752 17.924 59.5832 17.852C59.4032 17.792 59.2472 17.726 59.1152 17.654C58.9832 17.594 58.8572 17.528 58.7372 17.456C58.2092 17.108 58.0112 16.856 58.1432 16.7L58.6112 16.034C58.6832 15.926 58.7852 15.92 58.9172 16.016C58.9292 16.016 58.9652 16.04 59.0252 16.088C59.0972 16.148 59.1632 16.202 59.2232 16.25C59.2952 16.298 59.3852 16.352 59.4932 16.412C59.6132 16.484 59.7452 16.544 59.8892 16.592C60.0332 16.652 60.1892 16.706 60.3572 16.754C60.7532 16.862 61.1912 16.916 61.6712 16.916C62.5352 16.916 63.2252 16.706 63.7412 16.286C64.2692 15.878 64.5332 15.23 64.5332 14.342V12.29C64.3172 12.794 63.9572 13.226 63.4532 13.586C62.9612 13.946 62.3432 14.126 61.5992 14.126C60.3752 14.126 59.3912 13.7 58.6472 12.848C57.9152 11.996 57.5492 10.892 57.5492 9.536C57.5492 8.18 57.9212 7.088 58.6652 6.26C59.4212 5.432 60.3992 5.018 61.5992 5.018C62.3432 5.018 62.9672 5.192 63.4712 5.54C63.9872 5.876 64.3592 6.29 64.5872 6.782H64.6232L64.6052 5.36C64.6052 5.216 64.6772 5.144 64.8212 5.144H66.9452C67.0892 5.144 67.1612 5.216 67.1612 5.36V6.134C67.1612 6.278 67.0892 6.35 66.9452 6.35H65.9732V14.342C65.9732 15.626 65.5772 16.592 64.7852 17.24C64.0052 17.888 62.9732 18.212 61.6892 18.212ZM59.0252 9.572C59.0252 10.556 59.2892 11.354 59.8172 11.966C60.3452 12.566 61.0052 12.866 61.7972 12.866C62.5892 12.866 63.2432 12.566 63.7592 11.966C64.2872 11.366 64.5512 10.562 64.5512 9.554C64.5512 8.546 64.2872 7.748 63.7592 7.16C63.2432 6.572 62.5892 6.278 61.7972 6.278C61.0052 6.278 60.3452 6.578 59.8172 7.178C59.2892 7.778 59.0252 8.576 59.0252 9.572ZM77.9709 14H76.2609C75.7449 14 75.4869 13.748 75.4869 13.244V8.51C75.4869 7.814 75.3189 7.274 74.9829 6.89C74.6469 6.506 74.1549 6.314 73.5069 6.314C73.0149 6.314 72.6369 6.392 72.3729 6.548C72.1209 6.692 71.9289 6.824 71.7969 6.944C71.6649 7.052 71.5569 7.16 71.4729 7.268C71.3289 7.46 71.2089 7.658 71.1129 7.862V12.794H72.0669C72.2229 12.794 72.3009 12.866 72.3009 13.01V13.784C72.3009 13.928 72.2229 14 72.0669 14H68.6289C68.4729 14 68.3949 13.928 68.3949 13.784V13.01C68.3949 12.866 68.4729 12.794 68.6289 12.794H69.6189V2.282H68.6289C68.4729 2.282 68.3949 2.21 68.3949 2.066V1.292C68.3949 1.148 68.4729 1.076 68.6289 1.076H70.8969C71.0409 1.076 71.1129 1.148 71.1129 1.292V5.306C71.1129 5.702 71.0889 6.068 71.0409 6.404H71.0769C71.6649 5.48 72.6009 5.018 73.8849 5.018C74.8449 5.018 75.5949 5.3 76.1349 5.864C76.6749 6.428 76.9509 7.19 76.9629 8.15V12.794H77.9709C78.1269 12.794 78.2049 12.866 78.2049 13.01V13.784C78.2049 13.928 78.1269 14 77.9709 14ZM84.7429 13.082C84.7909 13.13 84.8149 13.184 84.8149 13.244C84.8149 13.292 84.7789 13.352 84.7069 13.424C84.1789 13.892 83.5129 14.126 82.7089 14.126C81.9169 14.126 81.2629 13.868 80.7469 13.352C80.2429 12.824 79.9909 12.062 79.9909 11.066V6.35H78.9829C78.8149 6.35 78.7309 6.272 78.7309 6.116V5.378C78.7309 5.222 78.8149 5.144 78.9829 5.144H79.9909V3.326C79.9909 3.158 80.0749 3.074 80.2429 3.074H81.2509C81.4069 3.074 81.4849 3.158 81.4849 3.326V5.144H83.7709C83.9389 5.144 84.0229 5.222 84.0229 5.378V6.116C84.0229 6.272 83.9389 6.35 83.7709 6.35H81.4849V11.03C81.4849 11.63 81.6169 12.086 81.8809 12.398C82.1569 12.698 82.5169 12.848 82.9609 12.848C83.4169 12.848 83.7589 12.734 83.9869 12.506C84.1069 12.398 84.2149 12.404 84.3109 12.524L84.7429 13.082ZM100.706 3.974C101.762 5.03 102.29 6.284 102.29 7.736C102.29 9.188 101.762 10.442 100.706 11.498C99.6501 12.554 98.3961 13.082 96.9441 13.082C95.4921 13.082 94.2381 12.554 93.1821 11.498C92.1261 10.442 91.5981 9.188 91.5981 7.736C91.5981 6.284 92.1261 5.03 93.1821 3.974C94.2381 2.918 95.4921 2.39 96.9441 2.39C98.3961 2.39 99.6501 2.918 100.706 3.974ZM100.058 10.85C100.922 9.986 101.354 8.948 101.354 7.736C101.354 6.524 100.922 5.492 100.058 4.64C99.1941 3.776 98.1561 3.344 96.9441 3.344C95.7321 3.344 94.6941 3.776 93.8301 4.64C92.9781 5.492 92.5521 6.524 92.5521 7.736C92.5521 8.948 92.9781 9.986 93.8301 10.85C94.6941 11.702 95.7321 12.128 96.9441 12.128C98.1561 12.128 99.1941 11.702 100.058 10.85ZM99.3561 9.23C99.4161 9.278 99.4461 9.32 99.4461 9.356C99.4461 9.392 99.4161 9.464 99.3561 9.572C99.2961 9.668 99.1881 9.806 99.0321 9.986C98.8881 10.154 98.6181 10.34 98.2221 10.544C97.8261 10.748 97.3881 10.85 96.9081 10.85C96.0801 10.85 95.3781 10.568 94.8021 10.004C94.2261 9.428 93.9381 8.654 93.9381 7.682C93.9381 6.71 94.2261 5.942 94.8021 5.378C95.3781 4.802 96.0801 4.514 96.9081 4.514C97.3881 4.514 97.8261 4.616 98.2221 4.82C98.6181 5.024 98.8941 5.216 99.0501 5.396C99.3141 5.696 99.4461 5.882 99.4461 5.954C99.4461 6.026 99.4221 6.086 99.3741 6.134L98.8521 6.494C98.7681 6.542 98.7021 6.53 98.6541 6.458C98.3061 5.834 97.7241 5.522 96.9081 5.522C96.3681 5.522 95.9121 5.708 95.5401 6.08C95.1801 6.44 95.0001 6.968 95.0001 7.664C95.0001 8.36 95.1861 8.9 95.5581 9.284C95.9301 9.656 96.3921 9.842 96.9441 9.842C97.7481 9.842 98.3181 9.548 98.6541 8.96C98.7141 8.864 98.7801 8.846 98.8521 8.906L99.3561 9.23ZM118.533 14H109.533C109.377 14 109.299 13.928 109.299 13.784V13.226C109.299 12.506 109.437 11.858 109.713 11.282C110.001 10.706 110.367 10.238 110.811 9.878C111.267 9.506 111.765 9.17 112.305 8.87C112.845 8.57 113.385 8.294 113.925 8.042C114.465 7.778 114.963 7.508 115.419 7.232C116.427 6.608 116.931 5.834 116.931 4.91C116.931 4.214 116.661 3.626 116.121 3.146C115.593 2.654 114.873 2.408 113.961 2.408C113.049 2.408 112.335 2.654 111.819 3.146C111.303 3.638 111.045 4.262 111.045 5.018C111.045 5.162 110.967 5.234 110.811 5.234H109.641C109.497 5.234 109.425 5.162 109.425 5.018C109.425 3.902 109.815 2.948 110.595 2.156C111.387 1.364 112.509 0.967999 113.961 0.967999C115.425 0.967999 116.553 1.346 117.345 2.102C118.149 2.846 118.551 3.746 118.551 4.802C118.551 5.522 118.371 6.17 118.011 6.746C117.651 7.322 117.201 7.784 116.661 8.132C116.121 8.468 115.533 8.81 114.897 9.158C114.261 9.494 113.667 9.806 113.115 10.094C112.563 10.37 112.089 10.73 111.693 11.174C111.309 11.618 111.099 12.11 111.063 12.65H117.183V11.354C117.183 11.21 117.255 11.138 117.399 11.138H118.533C118.689 11.138 118.767 11.21 118.767 11.354V13.784C118.767 13.928 118.689 14 118.533 14ZM129.145 12.308C128.233 13.52 126.961 14.126 125.329 14.126C123.697 14.126 122.419 13.52 121.495 12.308C120.583 11.096 120.127 9.506 120.127 7.538C120.127 5.57 120.595 3.986 121.531 2.786C122.467 1.574 123.733 0.967999 125.329 0.967999C126.925 0.967999 128.191 1.574 129.127 2.786C130.063 3.986 130.531 5.57 130.531 7.538C130.531 9.494 130.069 11.084 129.145 12.308ZM122.737 11.318C123.361 12.218 124.225 12.668 125.329 12.668C126.433 12.668 127.297 12.224 127.921 11.336C128.545 10.436 128.857 9.176 128.857 7.556C128.857 5.936 128.539 4.67 127.903 3.758C127.279 2.846 126.421 2.39 125.329 2.39C124.237 2.39 123.373 2.846 122.737 3.758C122.113 4.67 121.801 5.936 121.801 7.556C121.801 9.164 122.113 10.418 122.737 11.318ZM141.139 14H132.139C131.983 14 131.905 13.928 131.905 13.784V13.226C131.905 12.506 132.043 11.858 132.319 11.282C132.607 10.706 132.973 10.238 133.417 9.878C133.873 9.506 134.371 9.17 134.911 8.87C135.451 8.57 135.991 8.294 136.531 8.042C137.071 7.778 137.569 7.508 138.025 7.232C139.033 6.608 139.537 5.834 139.537 4.91C139.537 4.214 139.267 3.626 138.727 3.146C138.199 2.654 137.479 2.408 136.567 2.408C135.655 2.408 134.941 2.654 134.425 3.146C133.909 3.638 133.651 4.262 133.651 5.018C133.651 5.162 133.573 5.234 133.417 5.234H132.247C132.103 5.234 132.031 5.162 132.031 5.018C132.031 3.902 132.421 2.948 133.201 2.156C133.993 1.364 135.115 0.967999 136.567 0.967999C138.031 0.967999 139.159 1.346 139.951 2.102C140.755 2.846 141.157 3.746 141.157 4.802C141.157 5.522 140.977 6.17 140.617 6.746C140.257 7.322 139.807 7.784 139.267 8.132C138.727 8.468 138.139 8.81 137.503 9.158C136.867 9.494 136.273 9.806 135.721 10.094C135.169 10.37 134.695 10.73 134.299 11.174C133.915 11.618 133.705 12.11 133.669 12.65H139.789V11.354C139.789 11.21 139.861 11.138 140.005 11.138H141.139C141.295 11.138 141.373 11.21 141.373 11.354V13.784C141.373 13.928 141.295 14 141.139 14ZM150.293 14H143.183C143.027 14 142.949 13.928 142.949 13.784V12.866C142.949 12.722 143.027 12.65 143.183 12.65H146.099V2.768L143.615 4.55C143.495 4.634 143.393 4.616 143.309 4.496L142.805 3.758C142.769 3.71 142.751 3.662 142.751 3.614C142.751 3.566 142.787 3.512 142.859 3.452L145.991 1.202C146.111 1.118 146.219 1.076 146.315 1.076H147.449C147.593 1.076 147.665 1.148 147.665 1.292V12.65H150.293C150.437 12.65 150.509 12.722 150.509 12.866V13.784C150.509 13.928 150.437 14 150.293 14ZM170.296 14H169.612C169.168 14 168.886 13.76 168.766 13.28L166.678 4.136H166.624L164.572 13.28C164.452 13.76 164.164 14 163.708 14H163.042C162.622 14 162.334 13.76 162.178 13.28L158.884 2.426H157.75C157.594 2.426 157.516 2.354 157.516 2.21V1.292C157.516 1.148 157.594 1.076 157.75 1.076H161.8C161.956 1.076 162.034 1.148 162.034 1.292V2.21C162.034 2.354 161.956 2.426 161.8 2.426H160.54L163.33 12.092H163.438L165.94 1.076H167.38L169.9 12.092H170.008L172.798 2.426H171.52C171.376 2.426 171.304 2.354 171.304 2.21V1.292C171.304 1.148 171.376 1.076 171.52 1.076H175.588C175.732 1.076 175.804 1.148 175.804 1.292V2.21C175.804 2.354 175.732 2.426 175.588 2.426H174.436L171.142 13.28C170.998 13.76 170.716 14 170.296 14ZM185.953 14H184.243C183.727 14 183.469 13.748 183.469 13.244V8.51C183.469 7.814 183.301 7.274 182.965 6.89C182.629 6.506 182.137 6.314 181.489 6.314C180.997 6.314 180.619 6.392 180.355 6.548C180.103 6.692 179.911 6.824 179.779 6.944C179.647 7.052 179.539 7.16 179.455 7.268C179.311 7.46 179.191 7.658 179.095 7.862V12.794H180.049C180.205 12.794 180.283 12.866 180.283 13.01V13.784C180.283 13.928 180.205 14 180.049 14H176.611C176.455 14 176.377 13.928 176.377 13.784V13.01C176.377 12.866 176.455 12.794 176.611 12.794H177.601V2.282H176.611C176.455 2.282 176.377 2.21 176.377 2.066V1.292C176.377 1.148 176.455 1.076 176.611 1.076H178.879C179.023 1.076 179.095 1.148 179.095 1.292V5.306C179.095 5.702 179.071 6.068 179.023 6.404H179.059C179.647 5.48 180.583 5.018 181.867 5.018C182.827 5.018 183.577 5.3 184.117 5.864C184.657 6.428 184.933 7.19 184.945 8.15V12.794H185.953C186.109 12.794 186.187 12.866 186.187 13.01V13.784C186.187 13.928 186.109 14 185.953 14ZM191.124 14H187.686C187.53 14 187.452 13.928 187.452 13.784V13.01C187.452 12.866 187.53 12.794 187.686 12.794H188.676V6.35H187.686C187.53 6.35 187.452 6.278 187.452 6.134V5.36C187.452 5.216 187.53 5.144 187.686 5.144H189.954C190.098 5.144 190.17 5.216 190.17 5.36V12.794H191.124C191.28 12.794 191.358 12.866 191.358 13.01V13.784C191.358 13.928 191.28 14 191.124 14ZM190.098 2.48C190.302 2.684 190.404 2.924 190.404 3.2C190.404 3.476 190.302 3.71 190.098 3.902C189.906 4.094 189.672 4.19 189.396 4.19C189.12 4.19 188.88 4.094 188.676 3.902C188.484 3.71 188.388 3.476 188.388 3.2C188.388 2.924 188.484 2.684 188.676 2.48C188.88 2.276 189.12 2.174 189.396 2.174C189.672 2.174 189.906 2.276 190.098 2.48ZM198.614 13.082C198.662 13.13 198.686 13.184 198.686 13.244C198.686 13.292 198.65 13.352 198.578 13.424C198.05 13.892 197.384 14.126 196.58 14.126C195.788 14.126 195.134 13.868 194.618 13.352C194.114 12.824 193.862 12.062 193.862 11.066V6.35H192.854C192.686 6.35 192.602 6.272 192.602 6.116V5.378C192.602 5.222 192.686 5.144 192.854 5.144H193.862V3.326C193.862 3.158 193.946 3.074 194.114 3.074H195.122C195.278 3.074 195.356 3.158 195.356 3.326V5.144H197.642C197.81 5.144 197.894 5.222 197.894 5.378V6.116C197.894 6.272 197.81 6.35 197.642 6.35H195.356V11.03C195.356 11.63 195.488 12.086 195.752 12.398C196.028 12.698 196.388 12.848 196.832 12.848C197.288 12.848 197.63 12.734 197.858 12.506C197.978 12.398 198.086 12.404 198.182 12.524L198.614 13.082ZM207.239 9.752H200.759C200.807 10.748 201.119 11.516 201.695 12.056C202.283 12.596 202.943 12.866 203.675 12.866C204.407 12.866 205.031 12.71 205.547 12.398C206.075 12.086 206.429 11.78 206.609 11.48C206.705 11.36 206.813 11.342 206.933 11.426L207.419 11.912C207.491 11.984 207.527 12.05 207.527 12.11C207.527 12.158 207.497 12.224 207.437 12.308C207.389 12.392 207.281 12.524 207.113 12.704C206.945 12.884 206.705 13.088 206.393 13.316C206.093 13.544 205.697 13.736 205.205 13.892C204.725 14.048 204.209 14.126 203.657 14.126C202.397 14.126 201.341 13.712 200.489 12.884C199.649 12.056 199.229 10.946 199.229 9.554C199.229 8.15 199.649 7.046 200.489 6.242C201.329 5.426 202.355 5.018 203.567 5.018C204.791 5.018 205.751 5.414 206.447 6.206C207.143 6.986 207.491 8.042 207.491 9.374C207.491 9.422 207.491 9.47 207.491 9.518C207.491 9.674 207.407 9.752 207.239 9.752ZM205.997 8.654C205.961 7.91 205.727 7.316 205.295 6.872C204.863 6.428 204.287 6.206 203.567 6.206C202.847 6.206 202.229 6.41 201.713 6.818C201.197 7.226 200.891 7.838 200.795 8.654H205.997ZM219.174 14H209.328C209.172 14 209.094 13.928 209.094 13.784V12.866C209.094 12.722 209.172 12.65 209.328 12.65H210.696V2.426H209.328C209.172 2.426 209.094 2.354 209.094 2.21V1.292C209.094 1.148 209.172 1.076 209.328 1.076H213.63C213.786 1.076 213.864 1.154 213.864 1.31V2.192C213.864 2.348 213.786 2.426 213.63 2.426H212.262V12.65H217.986V10.886C217.986 10.742 218.064 10.67 218.22 10.67H219.192C219.336 10.67 219.408 10.742 219.408 10.886V13.766C219.408 13.922 219.33 14 219.174 14ZM224.645 14H221.207C221.051 14 220.973 13.928 220.973 13.784V13.01C220.973 12.866 221.051 12.794 221.207 12.794H222.197V6.35H221.207C221.051 6.35 220.973 6.278 220.973 6.134V5.36C220.973 5.216 221.051 5.144 221.207 5.144H223.475C223.619 5.144 223.691 5.216 223.691 5.36V12.794H224.645C224.801 12.794 224.879 12.866 224.879 13.01V13.784C224.879 13.928 224.801 14 224.645 14ZM223.619 2.48C223.823 2.684 223.925 2.924 223.925 3.2C223.925 3.476 223.823 3.71 223.619 3.902C223.427 4.094 223.193 4.19 222.917 4.19C222.641 4.19 222.401 4.094 222.197 3.902C222.005 3.71 221.909 3.476 221.909 3.2C221.909 2.924 222.005 2.684 222.197 2.48C222.401 2.276 222.641 2.174 222.917 2.174C223.193 2.174 223.427 2.276 223.619 2.48ZM230.19 14.126C229.386 14.126 228.744 13.976 228.264 13.676C227.784 13.376 227.484 13.094 227.364 12.83H227.328C227.352 13.418 227.364 13.73 227.364 13.766C227.364 13.922 227.28 14 227.112 14H226.5C226.344 14 226.266 13.922 226.266 13.766V11.066C226.266 10.91 226.344 10.832 226.5 10.832H227.202C227.37 10.832 227.454 10.91 227.454 11.066V11.426C227.574 11.786 227.826 12.116 228.21 12.416C228.666 12.776 229.236 12.956 229.92 12.956C231.264 12.956 231.936 12.488 231.936 11.552C231.936 11.228 231.75 10.97 231.378 10.778C231.006 10.574 230.55 10.406 230.01 10.274C229.482 10.142 228.954 9.992 228.426 9.824C227.898 9.656 227.448 9.386 227.076 9.014C226.704 8.63 226.518 8.15 226.518 7.574C226.518 6.794 226.8 6.176 227.364 5.72C227.928 5.252 228.648 5.018 229.524 5.018C230.712 5.018 231.564 5.366 232.08 6.062H232.116C232.092 5.63 232.08 5.408 232.08 5.396C232.08 5.24 232.158 5.162 232.314 5.162H232.89C233.046 5.162 233.124 5.24 233.124 5.396V7.898C233.124 8.054 233.046 8.132 232.89 8.132H232.188C232.02 8.132 231.936 8.054 231.936 7.898V7.646C231.936 7.322 231.744 7.004 231.36 6.692C230.988 6.368 230.502 6.206 229.902 6.206C229.302 6.206 228.834 6.332 228.498 6.584C228.162 6.836 227.994 7.166 227.994 7.574C227.994 7.97 228.18 8.282 228.552 8.51C228.936 8.726 229.398 8.9 229.938 9.032C230.478 9.152 231.018 9.29 231.558 9.446C232.098 9.602 232.554 9.86 232.926 10.22C233.31 10.58 233.502 11.078 233.502 11.714C233.502 12.35 233.226 12.914 232.674 13.406C232.134 13.886 231.306 14.126 230.19 14.126ZM240.766 13.082C240.814 13.13 240.838 13.184 240.838 13.244C240.838 13.292 240.802 13.352 240.73 13.424C240.202 13.892 239.536 14.126 238.732 14.126C237.94 14.126 237.286 13.868 236.77 13.352C236.266 12.824 236.014 12.062 236.014 11.066V6.35H235.006C234.838 6.35 234.754 6.272 234.754 6.116V5.378C234.754 5.222 234.838 5.144 235.006 5.144H236.014V3.326C236.014 3.158 236.098 3.074 236.266 3.074H237.274C237.43 3.074 237.508 3.158 237.508 3.326V5.144H239.794C239.962 5.144 240.046 5.222 240.046 5.378V6.116C240.046 6.272 239.962 6.35 239.794 6.35H237.508V11.03C237.508 11.63 237.64 12.086 237.904 12.398C238.18 12.698 238.54 12.848 238.984 12.848C239.44 12.848 239.782 12.734 240.01 12.506C240.13 12.398 240.238 12.404 240.334 12.524L240.766 13.082ZM252.356 14H248.036C247.88 14 247.802 13.928 247.802 13.784V12.866C247.802 12.722 247.88 12.65 248.036 12.65H249.404V2.426H248.036C247.88 2.426 247.802 2.354 247.802 2.21V1.292C247.802 1.148 247.88 1.076 248.036 1.076H252.356C252.512 1.076 252.59 1.148 252.59 1.292V2.21C252.59 2.354 252.512 2.426 252.356 2.426H250.97V12.65H252.356C252.512 12.65 252.59 12.722 252.59 12.866V13.784C252.59 13.928 252.512 14 252.356 14ZM263.649 14H261.939C261.423 14 261.165 13.748 261.165 13.244V8.51C261.165 7.814 260.997 7.274 260.661 6.89C260.325 6.506 259.833 6.314 259.185 6.314C258.261 6.314 257.541 6.692 257.025 7.448C256.965 7.52 256.887 7.652 256.791 7.844V12.794H257.745C257.901 12.794 257.979 12.866 257.979 13.01V13.784C257.979 13.928 257.901 14 257.745 14H254.307C254.151 14 254.073 13.928 254.073 13.784V13.01C254.073 12.866 254.151 12.794 254.307 12.794H255.297V6.35H254.307C254.151 6.35 254.073 6.278 254.073 6.134V5.36C254.073 5.216 254.151 5.144 254.307 5.144H256.413C256.569 5.144 256.647 5.216 256.647 5.36L256.611 6.584H256.665C257.289 5.54 258.255 5.018 259.563 5.018C260.523 5.018 261.273 5.3 261.813 5.864C262.353 6.428 262.629 7.19 262.641 8.15V12.794H263.649C263.805 12.794 263.883 12.866 263.883 13.01V13.784C263.883 13.928 263.805 14 263.649 14ZM270.421 13.082C270.469 13.13 270.493 13.184 270.493 13.244C270.493 13.292 270.457 13.352 270.385 13.424C269.857 13.892 269.191 14.126 268.387 14.126C267.595 14.126 266.941 13.868 266.425 13.352C265.921 12.824 265.669 12.062 265.669 11.066V6.35H264.661C264.493 6.35 264.409 6.272 264.409 6.116V5.378C264.409 5.222 264.493 5.144 264.661 5.144H265.669V3.326C265.669 3.158 265.753 3.074 265.921 3.074H266.929C267.085 3.074 267.163 3.158 267.163 3.326V5.144H269.449C269.617 5.144 269.701 5.222 269.701 5.378V6.116C269.701 6.272 269.617 6.35 269.449 6.35H267.163V11.03C267.163 11.63 267.295 12.086 267.559 12.398C267.835 12.698 268.195 12.848 268.639 12.848C269.095 12.848 269.437 12.734 269.665 12.506C269.785 12.398 269.893 12.404 269.989 12.524L270.421 13.082ZM272.911 12.686C273.079 12.842 273.163 13.04 273.163 13.28C273.163 13.52 273.079 13.724 272.911 13.892C272.755 14.048 272.557 14.126 272.317 14.126C272.077 14.126 271.873 14.048 271.705 13.892C271.537 13.724 271.453 13.52 271.453 13.28C271.453 13.04 271.537 12.842 271.705 12.686C271.873 12.518 272.077 12.434 272.317 12.434C272.557 12.434 272.755 12.518 272.911 12.686ZM293.14 14H289.072C288.928 14 288.856 13.928 288.856 13.784V12.866C288.856 12.722 288.928 12.65 289.072 12.65H290.332L289.162 9.536H284.14L282.97 12.65H284.23C284.374 12.65 284.446 12.722 284.446 12.866V13.784C284.446 13.928 284.374 14 284.23 14H280.18C280.036 14 279.964 13.928 279.964 13.784V12.866C279.964 12.722 280.036 12.65 280.18 12.65H281.386L285.256 2.426H284.284C284.128 2.426 284.05 2.354 284.05 2.21V1.292C284.05 1.148 284.128 1.076 284.284 1.076H286.732C287.02 1.076 287.236 1.136 287.38 1.256C287.536 1.376 287.668 1.574 287.776 1.85L291.916 12.65H293.14C293.284 12.65 293.356 12.722 293.356 12.866V13.784C293.356 13.928 293.284 14 293.14 14ZM288.676 8.294L286.678 2.948H286.624L284.608 8.294H288.676ZM297.981 14H294.543C294.387 14 294.309 13.928 294.309 13.784V13.01C294.309 12.866 294.387 12.794 294.543 12.794H295.533V2.282H294.543C294.387 2.282 294.309 2.21 294.309 2.066V1.292C294.309 1.148 294.387 1.076 294.543 1.076H296.541C296.865 1.076 297.027 1.226 297.027 1.526V12.794H297.981C298.137 12.794 298.215 12.866 298.215 13.01V13.784C298.215 13.928 298.137 14 297.981 14ZM303.254 14H299.816C299.66 14 299.582 13.928 299.582 13.784V13.01C299.582 12.866 299.66 12.794 299.816 12.794H300.806V2.282H299.816C299.66 2.282 299.582 2.21 299.582 2.066V1.292C299.582 1.148 299.66 1.076 299.816 1.076H301.814C302.138 1.076 302.3 1.226 302.3 1.526V12.794H303.254C303.41 12.794 303.488 12.866 303.488 13.01V13.784C303.488 13.928 303.41 14 303.254 14ZM314.17 14H310.732C310.576 14 310.498 13.928 310.498 13.784V13.01C310.498 12.866 310.576 12.794 310.732 12.794H311.722V6.35H310.732C310.576 6.35 310.498 6.278 310.498 6.134V5.36C310.498 5.216 310.576 5.144 310.732 5.144H312.838C312.994 5.144 313.072 5.216 313.072 5.36V7.61H313.126C313.162 7.418 313.288 7.154 313.504 6.818C313.72 6.482 313.954 6.206 314.206 5.99C314.47 5.762 314.842 5.558 315.322 5.378C315.814 5.198 316.366 5.108 316.978 5.108C317.134 5.108 317.212 5.186 317.212 5.342V6.296C317.212 6.452 317.134 6.53 316.978 6.53H316.6C315.568 6.53 314.746 6.86 314.134 7.52C313.522 8.18 313.216 8.93 313.216 9.77V12.794H314.17C314.326 12.794 314.404 12.866 314.404 13.01V13.784C314.404 13.928 314.326 14 314.17 14ZM321.747 14H318.309C318.153 14 318.075 13.928 318.075 13.784V13.01C318.075 12.866 318.153 12.794 318.309 12.794H319.299V6.35H318.309C318.153 6.35 318.075 6.278 318.075 6.134V5.36C318.075 5.216 318.153 5.144 318.309 5.144H320.577C320.721 5.144 320.793 5.216 320.793 5.36V12.794H321.747C321.903 12.794 321.981 12.866 321.981 13.01V13.784C321.981 13.928 321.903 14 321.747 14ZM320.721 2.48C320.925 2.684 321.027 2.924 321.027 3.2C321.027 3.476 320.925 3.71 320.721 3.902C320.529 4.094 320.295 4.19 320.019 4.19C319.743 4.19 319.503 4.094 319.299 3.902C319.107 3.71 319.011 3.476 319.011 3.2C319.011 2.924 319.107 2.684 319.299 2.48C319.503 2.276 319.743 2.174 320.019 2.174C320.295 2.174 320.529 2.276 320.721 2.48ZM327.312 18.212C326.712 18.212 326.256 18.17 325.944 18.086C325.644 18.002 325.398 17.924 325.206 17.852C325.026 17.792 324.87 17.726 324.738 17.654C324.606 17.594 324.48 17.528 324.36 17.456C323.832 17.108 323.634 16.856 323.766 16.7L324.234 16.034C324.306 15.926 324.408 15.92 324.54 16.016C324.552 16.016 324.588 16.04 324.648 16.088C324.72 16.148 324.786 16.202 324.846 16.25C324.918 16.298 325.008 16.352 325.116 16.412C325.236 16.484 325.368 16.544 325.512 16.592C325.656 16.652 325.812 16.706 325.98 16.754C326.376 16.862 326.814 16.916 327.294 16.916C328.158 16.916 328.848 16.706 329.364 16.286C329.892 15.878 330.156 15.23 330.156 14.342V12.29C329.94 12.794 329.58 13.226 329.076 13.586C328.584 13.946 327.966 14.126 327.222 14.126C325.998 14.126 325.014 13.7 324.27 12.848C323.538 11.996 323.172 10.892 323.172 9.536C323.172 8.18 323.544 7.088 324.288 6.26C325.044 5.432 326.022 5.018 327.222 5.018C327.966 5.018 328.59 5.192 329.094 5.54C329.61 5.876 329.982 6.29 330.21 6.782H330.246L330.228 5.36C330.228 5.216 330.3 5.144 330.444 5.144H332.568C332.712 5.144 332.784 5.216 332.784 5.36V6.134C332.784 6.278 332.712 6.35 332.568 6.35H331.596V14.342C331.596 15.626 331.2 16.592 330.408 17.24C329.628 17.888 328.596 18.212 327.312 18.212ZM324.648 9.572C324.648 10.556 324.912 11.354 325.44 11.966C325.968 12.566 326.628 12.866 327.42 12.866C328.212 12.866 328.866 12.566 329.382 11.966C329.91 11.366 330.174 10.562 330.174 9.554C330.174 8.546 329.91 7.748 329.382 7.16C328.866 6.572 328.212 6.278 327.42 6.278C326.628 6.278 325.968 6.578 325.44 7.178C324.912 7.778 324.648 8.576 324.648 9.572ZM343.594 14H341.884C341.368 14 341.11 13.748 341.11 13.244V8.51C341.11 7.814 340.942 7.274 340.606 6.89C340.27 6.506 339.778 6.314 339.13 6.314C338.638 6.314 338.26 6.392 337.996 6.548C337.744 6.692 337.552 6.824 337.42 6.944C337.288 7.052 337.18 7.16 337.096 7.268C336.952 7.46 336.832 7.658 336.736 7.862V12.794H337.69C337.846 12.794 337.924 12.866 337.924 13.01V13.784C337.924 13.928 337.846 14 337.69 14H334.252C334.096 14 334.018 13.928 334.018 13.784V13.01C334.018 12.866 334.096 12.794 334.252 12.794H335.242V2.282H334.252C334.096 2.282 334.018 2.21 334.018 2.066V1.292C334.018 1.148 334.096 1.076 334.252 1.076H336.52C336.664 1.076 336.736 1.148 336.736 1.292V5.306C336.736 5.702 336.712 6.068 336.664 6.404H336.7C337.288 5.48 338.224 5.018 339.508 5.018C340.468 5.018 341.218 5.3 341.758 5.864C342.298 6.428 342.574 7.19 342.586 8.15V12.794H343.594C343.75 12.794 343.828 12.866 343.828 13.01V13.784C343.828 13.928 343.75 14 343.594 14ZM350.366 13.082C350.414 13.13 350.438 13.184 350.438 13.244C350.438 13.292 350.402 13.352 350.33 13.424C349.802 13.892 349.136 14.126 348.332 14.126C347.54 14.126 346.886 13.868 346.37 13.352C345.866 12.824 345.614 12.062 345.614 11.066V6.35H344.606C344.438 6.35 344.354 6.272 344.354 6.116V5.378C344.354 5.222 344.438 5.144 344.606 5.144H345.614V3.326C345.614 3.158 345.698 3.074 345.866 3.074H346.874C347.03 3.074 347.108 3.158 347.108 3.326V5.144H349.394C349.562 5.144 349.646 5.222 349.646 5.378V6.116C349.646 6.272 349.562 6.35 349.394 6.35H347.108V11.03C347.108 11.63 347.24 12.086 347.504 12.398C347.78 12.698 348.14 12.848 348.584 12.848C349.04 12.848 349.382 12.734 349.61 12.506C349.73 12.398 349.838 12.404 349.934 12.524L350.366 13.082ZM355.434 14.126C354.63 14.126 353.988 13.976 353.508 13.676C353.028 13.376 352.728 13.094 352.608 12.83H352.572C352.596 13.418 352.608 13.73 352.608 13.766C352.608 13.922 352.524 14 352.356 14H351.744C351.588 14 351.51 13.922 351.51 13.766V11.066C351.51 10.91 351.588 10.832 351.744 10.832H352.446C352.614 10.832 352.698 10.91 352.698 11.066V11.426C352.818 11.786 353.07 12.116 353.454 12.416C353.91 12.776 354.48 12.956 355.164 12.956C356.508 12.956 357.18 12.488 357.18 11.552C357.18 11.228 356.994 10.97 356.622 10.778C356.25 10.574 355.794 10.406 355.254 10.274C354.726 10.142 354.198 9.992 353.67 9.824C353.142 9.656 352.692 9.386 352.32 9.014C351.948 8.63 351.762 8.15 351.762 7.574C351.762 6.794 352.044 6.176 352.608 5.72C353.172 5.252 353.892 5.018 354.768 5.018C355.956 5.018 356.808 5.366 357.324 6.062H357.36C357.336 5.63 357.324 5.408 357.324 5.396C357.324 5.24 357.402 5.162 357.558 5.162H358.134C358.29 5.162 358.368 5.24 358.368 5.396V7.898C358.368 8.054 358.29 8.132 358.134 8.132H357.432C357.264 8.132 357.18 8.054 357.18 7.898V7.646C357.18 7.322 356.988 7.004 356.604 6.692C356.232 6.368 355.746 6.206 355.146 6.206C354.546 6.206 354.078 6.332 353.742 6.584C353.406 6.836 353.238 7.166 353.238 7.574C353.238 7.97 353.424 8.282 353.796 8.51C354.18 8.726 354.642 8.9 355.182 9.032C355.722 9.152 356.262 9.29 356.802 9.446C357.342 9.602 357.798 9.86 358.17 10.22C358.554 10.58 358.746 11.078 358.746 11.714C358.746 12.35 358.47 12.914 357.918 13.406C357.378 13.886 356.55 14.126 355.434 14.126ZM369.506 14H366.068C365.912 14 365.834 13.928 365.834 13.784V13.01C365.834 12.866 365.912 12.794 366.068 12.794H367.058V6.35H366.068C365.912 6.35 365.834 6.278 365.834 6.134V5.36C365.834 5.216 365.912 5.144 366.068 5.144H368.174C368.33 5.144 368.408 5.216 368.408 5.36V7.61H368.462C368.498 7.418 368.624 7.154 368.84 6.818C369.056 6.482 369.29 6.206 369.542 5.99C369.806 5.762 370.178 5.558 370.658 5.378C371.15 5.198 371.702 5.108 372.314 5.108C372.47 5.108 372.548 5.186 372.548 5.342V6.296C372.548 6.452 372.47 6.53 372.314 6.53H371.936C370.904 6.53 370.082 6.86 369.47 7.52C368.858 8.18 368.552 8.93 368.552 9.77V12.794H369.506C369.662 12.794 369.74 12.866 369.74 13.01V13.784C369.74 13.928 369.662 14 369.506 14ZM381.139 9.752H374.659C374.707 10.748 375.019 11.516 375.595 12.056C376.183 12.596 376.843 12.866 377.575 12.866C378.307 12.866 378.931 12.71 379.447 12.398C379.975 12.086 380.329 11.78 380.509 11.48C380.605 11.36 380.713 11.342 380.833 11.426L381.319 11.912C381.391 11.984 381.427 12.05 381.427 12.11C381.427 12.158 381.397 12.224 381.337 12.308C381.289 12.392 381.181 12.524 381.013 12.704C380.845 12.884 380.605 13.088 380.293 13.316C379.993 13.544 379.597 13.736 379.105 13.892C378.625 14.048 378.109 14.126 377.557 14.126C376.297 14.126 375.241 13.712 374.389 12.884C373.549 12.056 373.129 10.946 373.129 9.554C373.129 8.15 373.549 7.046 374.389 6.242C375.229 5.426 376.255 5.018 377.467 5.018C378.691 5.018 379.651 5.414 380.347 6.206C381.043 6.986 381.391 8.042 381.391 9.374C381.391 9.422 381.391 9.47 381.391 9.518C381.391 9.674 381.307 9.752 381.139 9.752ZM379.897 8.654C379.861 7.91 379.627 7.316 379.195 6.872C378.763 6.428 378.187 6.206 377.467 6.206C376.747 6.206 376.129 6.41 375.613 6.818C375.097 7.226 374.791 7.838 374.695 8.654H379.897ZM386.811 14.126C386.007 14.126 385.365 13.976 384.885 13.676C384.405 13.376 384.105 13.094 383.985 12.83H383.949C383.973 13.418 383.985 13.73 383.985 13.766C383.985 13.922 383.901 14 383.733 14H383.121C382.965 14 382.887 13.922 382.887 13.766V11.066C382.887 10.91 382.965 10.832 383.121 10.832H383.823C383.991 10.832 384.075 10.91 384.075 11.066V11.426C384.195 11.786 384.447 12.116 384.831 12.416C385.287 12.776 385.857 12.956 386.541 12.956C387.885 12.956 388.557 12.488 388.557 11.552C388.557 11.228 388.371 10.97 387.999 10.778C387.627 10.574 387.171 10.406 386.631 10.274C386.103 10.142 385.575 9.992 385.047 9.824C384.519 9.656 384.069 9.386 383.697 9.014C383.325 8.63 383.139 8.15 383.139 7.574C383.139 6.794 383.421 6.176 383.985 5.72C384.549 5.252 385.269 5.018 386.145 5.018C387.333 5.018 388.185 5.366 388.701 6.062H388.737C388.713 5.63 388.701 5.408 388.701 5.396C388.701 5.24 388.779 5.162 388.935 5.162H389.511C389.667 5.162 389.745 5.24 389.745 5.396V7.898C389.745 8.054 389.667 8.132 389.511 8.132H388.809C388.641 8.132 388.557 8.054 388.557 7.898V7.646C388.557 7.322 388.365 7.004 387.981 6.692C387.609 6.368 387.123 6.206 386.523 6.206C385.923 6.206 385.455 6.332 385.119 6.584C384.783 6.836 384.615 7.166 384.615 7.574C384.615 7.97 384.801 8.282 385.173 8.51C385.557 8.726 386.019 8.9 386.559 9.032C387.099 9.152 387.639 9.29 388.179 9.446C388.719 9.602 389.175 9.86 389.547 10.22C389.931 10.58 390.123 11.078 390.123 11.714C390.123 12.35 389.847 12.914 389.295 13.406C388.755 13.886 387.927 14.126 386.811 14.126ZM399.579 9.752H393.099C393.147 10.748 393.459 11.516 394.035 12.056C394.623 12.596 395.283 12.866 396.015 12.866C396.747 12.866 397.371 12.71 397.887 12.398C398.415 12.086 398.769 11.78 398.949 11.48C399.045 11.36 399.153 11.342 399.273 11.426L399.759 11.912C399.831 11.984 399.867 12.05 399.867 12.11C399.867 12.158 399.837 12.224 399.777 12.308C399.729 12.392 399.621 12.524 399.453 12.704C399.285 12.884 399.045 13.088 398.733 13.316C398.433 13.544 398.037 13.736 397.545 13.892C397.065 14.048 396.549 14.126 395.997 14.126C394.737 14.126 393.681 13.712 392.829 12.884C391.989 12.056 391.569 10.946 391.569 9.554C391.569 8.15 391.989 7.046 392.829 6.242C393.669 5.426 394.695 5.018 395.907 5.018C397.131 5.018 398.091 5.414 398.787 6.206C399.483 6.986 399.831 8.042 399.831 9.374C399.831 9.422 399.831 9.47 399.831 9.518C399.831 9.674 399.747 9.752 399.579 9.752ZM398.337 8.654C398.301 7.91 398.067 7.316 397.635 6.872C397.203 6.428 396.627 6.206 395.907 6.206C395.187 6.206 394.569 6.41 394.053 6.818C393.537 7.226 393.231 7.838 393.135 8.654H398.337ZM404.926 14H401.488C401.332 14 401.254 13.928 401.254 13.784V13.01C401.254 12.866 401.332 12.794 401.488 12.794H402.478V6.35H401.488C401.332 6.35 401.254 6.278 401.254 6.134V5.36C401.254 5.216 401.332 5.144 401.488 5.144H403.594C403.75 5.144 403.828 5.216 403.828 5.36V7.61H403.882C403.918 7.418 404.044 7.154 404.26 6.818C404.476 6.482 404.71 6.206 404.962 5.99C405.226 5.762 405.598 5.558 406.078 5.378C406.57 5.198 407.122 5.108 407.734 5.108C407.89 5.108 407.968 5.186 407.968 5.342V6.296C407.968 6.452 407.89 6.53 407.734 6.53H407.356C406.324 6.53 405.502 6.86 404.89 7.52C404.278 8.18 403.972 8.93 403.972 9.77V12.794H404.926C405.082 12.794 405.16 12.866 405.16 13.01V13.784C405.16 13.928 405.082 14 404.926 14ZM414.014 14H412.808C412.688 14 412.604 13.982 412.556 13.946C412.508 13.898 412.46 13.808 412.412 13.676L409.55 6.35H408.542C408.398 6.35 408.326 6.278 408.326 6.134V5.36C408.326 5.216 408.398 5.144 408.542 5.144H411.89C412.034 5.144 412.106 5.216 412.106 5.36V6.134C412.106 6.278 412.034 6.35 411.89 6.35H411.098L413.402 12.416H413.438L415.778 6.35H414.968C414.824 6.35 414.752 6.278 414.752 6.134V5.36C414.752 5.216 414.824 5.144 414.968 5.144H418.316C418.472 5.144 418.55 5.216 418.55 5.36V6.134C418.55 6.278 418.472 6.35 418.316 6.35H417.326L414.428 13.676C414.356 13.892 414.218 14 414.014 14ZM427.018 9.752H420.538C420.586 10.748 420.898 11.516 421.474 12.056C422.062 12.596 422.722 12.866 423.454 12.866C424.186 12.866 424.81 12.71 425.326 12.398C425.854 12.086 426.208 11.78 426.388 11.48C426.484 11.36 426.592 11.342 426.712 11.426L427.198 11.912C427.27 11.984 427.306 12.05 427.306 12.11C427.306 12.158 427.276 12.224 427.216 12.308C427.168 12.392 427.06 12.524 426.892 12.704C426.724 12.884 426.484 13.088 426.172 13.316C425.872 13.544 425.476 13.736 424.984 13.892C424.504 14.048 423.988 14.126 423.436 14.126C422.176 14.126 421.12 13.712 420.268 12.884C419.428 12.056 419.008 10.946 419.008 9.554C419.008 8.15 419.428 7.046 420.268 6.242C421.108 5.426 422.134 5.018 423.346 5.018C424.57 5.018 425.53 5.414 426.226 6.206C426.922 6.986 427.27 8.042 427.27 9.374C427.27 9.422 427.27 9.47 427.27 9.518C427.27 9.674 427.186 9.752 427.018 9.752ZM425.776 8.654C425.74 7.91 425.506 7.316 425.074 6.872C424.642 6.428 424.066 6.206 423.346 6.206C422.626 6.206 422.008 6.41 421.492 6.818C420.976 7.226 420.67 7.838 420.574 8.654H425.776ZM438.126 14H436.56C436.284 14 436.08 13.946 435.948 13.838C435.828 13.718 435.768 13.52 435.768 13.244V12.236H435.75C435.558 12.74 435.198 13.184 434.67 13.568C434.142 13.94 433.5 14.126 432.744 14.126C431.544 14.126 430.566 13.706 429.81 12.866C429.066 12.026 428.694 10.928 428.694 9.572C428.694 8.204 429.066 7.106 429.81 6.278C430.566 5.438 431.55 5.018 432.762 5.018C433.506 5.018 434.124 5.192 434.616 5.54C435.108 5.876 435.462 6.29 435.678 6.782H435.696C435.684 6.542 435.678 6.344 435.678 6.188V2.282H434.67C434.514 2.282 434.436 2.21 434.436 2.066V1.292C434.436 1.148 434.514 1.076 434.67 1.076H436.902C437.046 1.076 437.118 1.148 437.118 1.292V12.794H438.126C438.27 12.794 438.342 12.866 438.342 13.01V13.784C438.342 13.928 438.27 14 438.126 14ZM430.17 9.536C430.17 10.532 430.428 11.336 430.944 11.948C431.472 12.56 432.138 12.866 432.942 12.866C433.746 12.866 434.406 12.566 434.922 11.966C435.438 11.354 435.696 10.544 435.696 9.536C435.696 8.528 435.432 7.736 434.904 7.16C434.376 6.572 433.722 6.278 432.942 6.278C432.162 6.278 431.502 6.572 430.962 7.16C430.434 7.748 430.17 8.54 430.17 9.536ZM440.993 12.686C441.161 12.842 441.245 13.04 441.245 13.28C441.245 13.52 441.161 13.724 440.993 13.892C440.837 14.048 440.639 14.126 440.399 14.126C440.159 14.126 439.955 14.048 439.787 13.892C439.619 13.724 439.535 13.52 439.535 13.28C439.535 13.04 439.619 12.842 439.787 12.686C439.955 12.518 440.159 12.434 440.399 12.434C440.639 12.434 440.837 12.518 440.993 12.686Z" fill="white"/>
</svg>
