<svg width="564" height="325" viewBox="0 0 564 325" fill="none" xmlns="http://www.w3.org/2000/svg">
<path d="M4.137 268.147L0 261.252L38.614 228.154H137.908V237.807L102.052 276.422L60.679 284.696L4.137 268.147Z" fill="#1F2E35"/>
<path d="M155 247.577V226H142V232.804L137.908 228.154L104.81 261.252L99.293 266.768L92.398 294.35L104.81 324.689H168.247V262.631L155 247.577Z" fill="#CCCCCC"/>
<path d="M104.81 261.252H0V324.689H104.81V261.252Z" fill="#F2F2F2"/>
<path d="M90.3295 281.248H68.2643V300.555H90.3295V281.248Z" fill="#1F2E35"/>
<path d="M59.3003 280.559H39.9932V324.689H59.3003V280.559Z" fill="#CCCCCC"/>
<path d="M17.928 287.454V280.559H9.65399V287.454H17.238H17.928Z" fill="#1F2E35"/>
<path d="M17.238 292.97H9.65399V299.866H17.928V292.97H17.238Z" fill="#1F2E35"/>
<path d="M31.7188 280.559H23.4443V287.454H31.7188V280.559Z" fill="#1F2E35"/>
<path d="M31.7188 292.97H23.4443V299.866H31.7188V292.97Z" fill="#1F2E35"/>
<path d="M134.46 288.144V281.248H126.185V288.144H133.77H134.46Z" fill="#1F2E35"/>
<path d="M133.77 293.66H126.185V300.555H134.46V293.66H133.77Z" fill="#1F2E35"/>
<path d="M148.251 281.248H139.976V288.144H148.251V281.248Z" fill="#1F2E35"/>
<path d="M148.251 293.66H139.976V300.555H148.251V293.66Z" fill="#1F2E35"/>
<path d="M329.137 268.147L325 261.252L363.614 228.154H462.908V237.807L427.052 276.422L385.679 284.696L329.137 268.147Z" fill="#1F2E35"/>
<path d="M480 247.577V226H467V232.804L462.908 228.154L429.81 261.252L424.293 266.768L417.398 294.35L429.81 324.689H493.247V262.631L480 247.577Z" fill="#CCCCCC"/>
<path d="M429.81 261.252H325V324.689H429.81V261.252Z" fill="#F2F2F2"/>
<path d="M415.329 281.248H393.264V300.555H415.329V281.248Z" fill="#1F2E35"/>
<path d="M384.3 280.559H364.993V324.689H384.3V280.559Z" fill="#CCCCCC"/>
<path d="M342.928 287.454V280.559H334.654V287.454H342.238H342.928Z" fill="#1F2E35"/>
<path d="M342.238 292.97H334.654V299.866H342.928V292.97H342.238Z" fill="#1F2E35"/>
<path d="M356.719 280.559H348.444V287.454H356.719V280.559Z" fill="#1F2E35"/>
<path d="M356.719 292.97H348.444V299.866H356.719V292.97Z" fill="#1F2E35"/>
<path d="M459.46 288.144V281.248H451.185V288.144H458.77H459.46Z" fill="#1F2E35"/>
<path d="M458.77 293.66H451.185V300.555H459.46V293.66H458.77Z" fill="#1F2E35"/>
<path d="M473.251 281.248H464.976V288.144H473.251V281.248Z" fill="#1F2E35"/>
<path d="M473.251 293.66H464.976V300.555H473.251V293.66Z" fill="#1F2E35"/>
<path d="M156.515 151.994L149.62 146.477L188.234 112H286.148V142.34L222.711 185.092L156.515 151.994Z" fill="#1F2E35"/>
<path d="M304 131.34V112.689H291V117.257L286.148 112L254.429 146.477L242.018 154.752L222.773 295.355L251.796 324.378H319.246V147.856L304 131.34Z" fill="#CCCCCC"/>
<path d="M254.429 146.477H149.62V324.378H254.429V146.477Z" fill="#F2F2F2"/>
<path d="M209.609 280.937H190.302V324.378H209.609V280.937Z" fill="#CCCCCC"/>
<path d="M169.616 293.349V286.454H161.342V293.349H168.927H169.616Z" fill="#1F2E35"/>
<path d="M168.927 298.865H161.342V305.761H169.616V298.865H168.927Z" fill="#1F2E35"/>
<path d="M183.407 286.454H175.132V293.349H183.407V286.454Z" fill="#1F2E35"/>
<path d="M183.407 298.865H175.132V305.761H183.407V298.865Z" fill="#1F2E35"/>
<path d="M226.158 293.349V286.454H217.884V293.349H225.469H226.158Z" fill="#1F2E35"/>
<path d="M225.469 298.865H217.884V305.761H226.158V298.865H225.469Z" fill="#1F2E35"/>
<path d="M239.949 286.454H231.675V293.349H239.949V286.454Z" fill="#1F2E35"/>
<path d="M239.949 298.865H231.675V305.761H239.949V298.865Z" fill="#1F2E35"/>
<path d="M284.079 155.441V148.546H275.805V155.441H283.39H284.079Z" fill="#1F2E35"/>
<path d="M283.39 160.958H275.805V167.853H284.079V160.958H283.39Z" fill="#1F2E35"/>
<path d="M297.87 148.546H289.596V155.441H297.87V148.546Z" fill="#1F2E35"/>
<path d="M297.87 160.958H289.596V167.853H297.87V160.958Z" fill="#1F2E35"/>
<path d="M284.079 194.056V187.16H275.805V194.056H283.39H284.079Z" fill="#1F2E35"/>
<path d="M283.39 199.572H275.805V206.467H284.079V199.572H283.39Z" fill="#1F2E35"/>
<path d="M297.87 187.16H289.596V194.056H297.87V187.16Z" fill="#1F2E35"/>
<path d="M297.87 199.572H289.596V206.467H297.87V199.572Z" fill="#1F2E35"/>
<path d="M284.079 232.67V225.774H275.805V232.67H283.39H284.079Z" fill="#1F2E35"/>
<path d="M283.39 238.186H275.805V245.081H284.079V238.186H283.39Z" fill="#1F2E35"/>
<path d="M297.87 225.774H289.596V232.67H297.87V225.774Z" fill="#1F2E35"/>
<path d="M297.87 238.186H289.596V245.081H297.87V238.186Z" fill="#1F2E35"/>
<path d="M284.079 271.284V264.388H275.805V271.284H283.39H284.079Z" fill="#1F2E35"/>
<path d="M283.39 276.8H275.805V283.695H284.079V276.8H283.39Z" fill="#1F2E35"/>
<path d="M297.87 264.388H289.596V271.284H297.87V264.388Z" fill="#1F2E35"/>
<path d="M297.87 276.8H289.596V283.696H297.87V276.8Z" fill="#1F2E35"/>
<path d="M241.328 155.441H161.342V171.99H241.328V155.441Z" fill="#1F2E35"/>
<path d="M241.328 188.539H161.342V205.088H241.328V188.539Z" fill="#1F2E35"/>
<path d="M241.328 221.637H161.342V238.186H241.328V221.637Z" fill="#1F2E35"/>
<path d="M241.328 254.735H161.342V271.284H241.328V254.735Z" fill="#1F2E35"/>
<path d="M521.001 318L527.776 318L531 292L521 292L521.001 318Z" fill="#FFB8B8"/>
<path d="M520 316L532.826 316H532.826C534.994 316 537.073 316.816 538.606 318.269C540.139 319.722 541 321.693 541 323.747V323.999L520 324L520 316Z" fill="#1F2E35"/>
<path d="M544.001 318L550.099 318L553 292L544 292L544.001 318Z" fill="#FFB8B8"/>
<path d="M542 316L554.826 316H554.826C556.994 316 559.073 316.816 560.606 318.269C562.139 319.722 563 321.693 563 323.747V323.999L542 324L542 316Z" fill="#1F2E35"/>
<path d="M531.449 227.599L533 309L520.453 308.2L511.749 256.351L509 221L531.449 227.599Z" fill="#1F2E35"/>
<path d="M554.193 214.211L556 310L540.964 309.572L537.717 252.632L532.067 232.016L509 221.239L512.766 195.469L546.661 195L554.193 214.211Z" fill="#1F2E35"/>
<path d="M527.5 128C533.851 128 539 122.851 539 116.5C539 110.149 533.851 105 527.5 105C521.149 105 516 110.149 516 116.5C516 122.851 521.149 128 527.5 128Z" fill="#FFB8B8"/>
<path d="M537.462 133L539.246 135.69L544 148.941L540.197 200.526L517.852 201L515 141.842L520.975 134.407L537.462 133Z" fill="#CCCCCC"/>
<path d="M506.294 143.471L502.529 143C502.529 143 501.588 143.471 501.118 146.765C500.647 150.059 495 179.235 495 179.235L502.529 215L511 203.706L505.824 183.941L511 164.176L506.294 143.471Z" fill="#1F2E35"/>
<path d="M554.454 143H557.182L564 181.25L557.636 211L551.273 200.139L553.091 188.333L552.182 177.945L549 171.805L554.454 143Z" fill="#1F2E35"/>
<path d="M534.93 116.547L532.783 116.032C532.783 116.032 531.173 107.283 527.416 108.313C523.66 109.342 514 110.371 514 106.254C514 102.137 523.123 98.5345 528.49 99.0492C533.856 99.5638 540.71 101.271 542.443 108.827C545.22 120.94 536.712 124 536.712 124L536.854 123.559C537.247 122.334 537.275 121.029 536.935 119.79C536.595 118.551 535.9 117.427 534.93 116.547V116.547Z" fill="#1F2E35"/>
<path d="M503 143.083L518.005 136.986L521.522 134.407L532.072 181.07L536.995 133L556.455 143.083L549.89 174.973L548.952 187.166L551.766 197.015C551.766 197.015 561.612 204.049 558.33 211.553C555.048 219.057 551.297 219.526 551.297 219.526C551.297 219.526 535.354 204.518 534.416 200.767C533.479 197.015 532.072 190.449 532.072 190.449C532.072 190.449 524.1 220.464 514.723 219.995C505.345 219.526 505.345 209.677 505.345 209.677L507.689 199.36L511.44 188.573L509.565 170.752L503 143.083Z" fill="#1F2E35"/>
<path d="M464.248 90.9988C462.835 90.9941 461.429 90.8125 460.062 90.4583L459.792 90.3838L459.542 90.2588C450.505 85.7356 442.88 79.7612 436.88 72.5012C431.914 66.4563 428.042 59.5929 425.438 52.2197C422.325 43.3921 420.827 34.0776 421.016 24.7208C421.02 24.5244 421.023 24.3727 421.023 24.2683C421.023 19.7198 423.552 15.729 427.466 14.1009C430.462 12.8549 457.663 1.7026 459.628 0.896811C463.329 -0.954402 467.278 0.590726 467.909 0.860927C469.327 1.43937 494.472 11.7056 499.906 14.2884C505.506 16.9504 507 21.7325 507 24.1384C507 35.0309 505.11 45.2108 501.383 54.3954C498.373 61.8296 494.107 68.6928 488.77 74.686C478.474 86.2523 468.175 90.3526 468.075 90.3888C466.844 90.8115 465.549 91.0179 464.248 90.9988ZM461.826 85.0101C462.719 85.2099 464.774 85.5097 466.114 85.0218C467.816 84.4021 476.437 79.9401 484.492 70.8913C495.621 58.389 501.269 42.6726 501.277 24.1786C501.257 23.8039 500.99 21.1316 497.445 19.4465C492.117 16.9136 465.981 6.24568 465.717 6.13816L465.645 6.1076C465.097 5.87849 463.354 5.39589 462.153 6.02443L461.912 6.13639C461.621 6.25583 432.747 18.0936 429.668 19.3743C427.514 20.2703 426.746 22.4898 426.746 24.2683C426.746 24.3982 426.743 24.5873 426.738 24.8316C426.492 37.4859 429.425 68.6242 461.826 85.0101Z" fill="#1F2E35"/>
<path d="M460.838 3.63266C460.838 3.63266 431.803 15.5381 428.693 16.8321C425.582 18.1262 424.026 21.232 424.026 24.3377C424.026 27.4435 421.693 67.9696 460.838 87.5638C460.838 87.5638 464.39 88.5452 467.086 87.5638C469.781 86.5824 504 70.0183 504 24.2083C504 24.2083 504 19.5497 498.556 16.9616C493.112 14.3734 466.792 3.63266 466.792 3.63266C466.792 3.63266 463.56 2.20918 460.838 3.63266Z" fill="#276B88"/>
<path opacity="0.1" d="M464 13V76C464 76 434.743 62.0355 435.002 25.3231L464 13Z" fill="black"/>
<path d="M464.406 59L455 46.6799L460.47 42.3461L464.924 48.1794L479.969 32L485 36.8559L464.406 59Z" fill="white"/>
</svg>
