<svg width="564" height="226" viewBox="0 0 564 226" fill="none" xmlns="http://www.w3.org/2000/svg">
<path d="M4.137 169.147L0 162.252L38.614 129.154H137.908V138.807L102.052 177.422L60.679 185.696L4.137 169.147Z" fill="#1F2E35"/>
<path d="M155 148.577V127H142V133.804L137.908 129.154L104.81 162.252L99.293 167.768L92.3979 195.35L104.81 225.689H168.247V163.631L155 148.577Z" fill="#CCCCCC"/>
<path d="M104.81 162.252H0V225.689H104.81V162.252Z" fill="#F2F2F2"/>
<path d="M90.3294 182.248H68.2642V201.555H90.3294V182.248Z" fill="#1F2E35"/>
<path d="M59.3002 181.559H39.9932V225.689H59.3002V181.559Z" fill="#CCCCCC"/>
<path d="M17.9278 188.454V181.559H9.65381V188.454H17.2378H17.9278Z" fill="#1F2E35"/>
<path d="M17.2378 193.97H9.65381V200.866H17.9278V193.97H17.2378Z" fill="#1F2E35"/>
<path d="M31.7188 181.559H23.4443V188.454H31.7188V181.559Z" fill="#1F2E35"/>
<path d="M31.7188 193.971H23.4443V200.866H31.7188V193.971Z" fill="#1F2E35"/>
<path d="M134.46 189.144V182.248H126.185V189.144H133.77H134.46Z" fill="#1F2E35"/>
<path d="M133.77 194.66H126.185V201.555H134.46V194.66H133.77Z" fill="#1F2E35"/>
<path d="M148.251 182.248H139.976V189.143H148.251V182.248Z" fill="#1F2E35"/>
<path d="M148.251 194.66H139.976V201.556H148.251V194.66Z" fill="#1F2E35"/>
<path d="M329.137 169.147L325 162.252L363.614 129.154H462.908V138.807L427.052 177.422L385.679 185.696L329.137 169.147Z" fill="#1F2E35"/>
<path d="M480 148.577V127H467V133.804L462.908 129.154L429.81 162.252L424.293 167.768L417.398 195.35L429.81 225.689H493.247V163.631L480 148.577Z" fill="#CCCCCC"/>
<path d="M429.81 162.252H325V225.689H429.81V162.252Z" fill="#F2F2F2"/>
<path d="M415.329 182.248H393.264V201.555H415.329V182.248Z" fill="#1F2E35"/>
<path d="M384.3 181.559H364.993V225.689H384.3V181.559Z" fill="#CCCCCC"/>
<path d="M342.928 188.454V181.559H334.654V188.454H342.238H342.928Z" fill="#1F2E35"/>
<path d="M342.238 193.97H334.654V200.866H342.928V193.97H342.238Z" fill="#1F2E35"/>
<path d="M356.719 181.559H348.444V188.454H356.719V181.559Z" fill="#1F2E35"/>
<path d="M356.719 193.971H348.444V200.866H356.719V193.971Z" fill="#1F2E35"/>
<path d="M459.46 189.144V182.248H451.185V189.144H458.77H459.46Z" fill="#1F2E35"/>
<path d="M458.77 194.66H451.185V201.555H459.46V194.66H458.77Z" fill="#1F2E35"/>
<path d="M473.251 182.248H464.976V189.143H473.251V182.248Z" fill="#1F2E35"/>
<path d="M473.251 194.66H464.976V201.556H473.251V194.66Z" fill="#1F2E35"/>
<path d="M156.515 52.994L149.62 47.477L188.234 13H286.148V43.34L222.711 86.092L156.515 52.994Z" fill="#1F2E35"/>
<path d="M304 32.34V13.689H291V18.257L286.148 13L254.429 47.477L242.018 55.752L222.773 196.355L251.796 225.378H319.246V48.856L304 32.34Z" fill="#CCCCCC"/>
<path d="M254.429 47.4775H149.62V225.378H254.429V47.4775Z" fill="#F2F2F2"/>
<path d="M209.609 181.938H190.302V225.378H209.609V181.938Z" fill="#CCCCCC"/>
<path d="M169.616 194.349V187.454H161.342V194.349H168.927H169.616Z" fill="#1F2E35"/>
<path d="M168.927 199.865H161.342V206.761H169.616V199.865H168.927Z" fill="#1F2E35"/>
<path d="M183.407 187.454H175.132V194.349H183.407V187.454Z" fill="#1F2E35"/>
<path d="M183.407 199.865H175.132V206.761H183.407V199.865Z" fill="#1F2E35"/>
<path d="M226.158 194.349V187.454H217.884V194.349H225.469H226.158Z" fill="#1F2E35"/>
<path d="M225.469 199.865H217.884V206.761H226.158V199.865H225.469Z" fill="#1F2E35"/>
<path d="M239.949 187.454H231.675V194.349H239.949V187.454Z" fill="#1F2E35"/>
<path d="M239.949 199.865H231.675V206.761H239.949V199.865Z" fill="#1F2E35"/>
<path d="M284.079 56.4409V49.5459H275.805V56.4409H283.39H284.079Z" fill="#1F2E35"/>
<path d="M283.39 61.958H275.805V68.853H284.079V61.958H283.39Z" fill="#1F2E35"/>
<path d="M297.87 49.5459H289.596V56.4413H297.87V49.5459Z" fill="#1F2E35"/>
<path d="M297.87 61.958H289.596V68.8534H297.87V61.958Z" fill="#1F2E35"/>
<path d="M284.079 95.0562V88.1602H275.805V95.0562H283.39H284.079Z" fill="#1F2E35"/>
<path d="M283.39 100.572H275.805V107.467H284.079V100.572H283.39Z" fill="#1F2E35"/>
<path d="M297.87 88.1602H289.596V95.0555H297.87V88.1602Z" fill="#1F2E35"/>
<path d="M297.87 100.572H289.596V107.467H297.87V100.572Z" fill="#1F2E35"/>
<path d="M284.079 133.67V126.774H275.805V133.67H283.39H284.079Z" fill="#1F2E35"/>
<path d="M283.39 139.186H275.805V146.081H284.079V139.186H283.39Z" fill="#1F2E35"/>
<path d="M297.87 126.774H289.596V133.67H297.87V126.774Z" fill="#1F2E35"/>
<path d="M297.87 139.186H289.596V146.081H297.87V139.186Z" fill="#1F2E35"/>
<path d="M284.079 172.284V165.388H275.805V172.284H283.39H284.079Z" fill="#1F2E35"/>
<path d="M283.39 177.8H275.805V184.695H284.079V177.8H283.39Z" fill="#1F2E35"/>
<path d="M297.87 165.389H289.596V172.284H297.87V165.389Z" fill="#1F2E35"/>
<path d="M297.87 177.8H289.596V184.696H297.87V177.8Z" fill="#1F2E35"/>
<path d="M241.328 56.4414H161.342V72.9903H241.328V56.4414Z" fill="#1F2E35"/>
<path d="M241.328 89.5391H161.342V106.088H241.328V89.5391Z" fill="#1F2E35"/>
<path d="M241.328 122.637H161.342V139.186H241.328V122.637Z" fill="#1F2E35"/>
<path d="M241.328 155.735H161.342V172.284H241.328V155.735Z" fill="#1F2E35"/>
<path d="M521.001 219L527.776 219L531 193L521 193L521.001 219Z" fill="#FFB8B8"/>
<path d="M520 217L532.826 217H532.826C534.994 217 537.073 217.816 538.606 219.269C540.139 220.722 541 222.693 541 224.747V224.999L520 225L520 217Z" fill="#1F2E35"/>
<path d="M544.001 219L550.099 219L553 193L544 193L544.001 219Z" fill="#FFB8B8"/>
<path d="M542 217L554.826 217H554.826C556.994 217 559.073 217.816 560.606 219.269C562.139 220.722 563 222.693 563 224.747V224.999L542 225L542 217Z" fill="#1F2E35"/>
<path d="M531.449 128.599L533 210L520.453 209.2L511.749 157.351L509 122L531.449 128.599Z" fill="#1F2E35"/>
<path d="M554.193 115.211L556 211L540.964 210.572L537.717 153.632L532.067 133.016L509 122.239L512.766 96.4686L546.661 96L554.193 115.211Z" fill="#1F2E35"/>
<path d="M527.5 29C533.851 29 539 23.8513 539 17.5C539 11.1487 533.851 6 527.5 6C521.149 6 516 11.1487 516 17.5C516 23.8513 521.149 29 527.5 29Z" fill="#FFB8B8"/>
<path d="M537.462 34L539.246 36.6897L544 49.9408L540.197 101.526L517.852 102L515 42.8417L520.975 35.4066L537.462 34Z" fill="#CCCCCC"/>
<path d="M506.294 44.4706L502.529 44C502.529 44 501.588 44.4706 501.118 47.7647C500.647 51.0588 495 80.2353 495 80.2353L502.529 116L511 104.706L505.824 84.9412L511 65.1765L506.294 44.4706Z" fill="#1F2E35"/>
<path d="M554.454 44H557.182L564 82.2498L557.636 112L551.273 101.139L553.091 89.3333L552.182 78.9446L549 72.8052L554.454 44Z" fill="#1F2E35"/>
<path d="M534.93 17.547L532.783 17.0324C532.783 17.0324 531.173 8.28347 527.416 9.31275C523.66 10.342 514 11.3713 514 7.25417C514 3.13701 523.123 -0.465477 528.49 0.0491656C533.856 0.563809 540.71 2.27113 542.443 9.82738C545.22 21.9404 536.712 25 536.712 25L536.854 24.559C537.247 23.3344 537.275 22.0288 536.935 20.7897C536.595 19.5506 535.9 18.4274 534.93 17.547Z" fill="#1F2E35"/>
<path d="M503 44.083L518.005 37.9863L521.522 35.4069L532.072 82.0698L536.995 34L556.455 44.0829L549.89 75.9731L548.952 88.1664L551.766 98.0149C551.766 98.0149 561.612 105.049 558.33 112.553C555.048 120.057 551.297 120.526 551.297 120.526C551.297 120.526 535.354 105.518 534.416 101.767C533.479 98.0149 532.072 91.4492 532.072 91.4492C532.072 91.4492 524.1 121.464 514.723 120.995C505.345 120.526 505.345 110.677 505.345 110.677L507.689 100.36L511.44 89.5733L509.565 71.7523L503 44.083Z" fill="#1F2E35"/>
</svg>
