<svg width="879" height="706" viewBox="0 0 879 706" fill="none" xmlns="http://www.w3.org/2000/svg">
<ellipse cx="439.5" cy="662" rx="439.5" ry="44" fill="#57B894"/>
<path opacity="0.7" d="M661.532 658H95.3906L99.2907 235.266L261.202 192.541H490.139L657.632 222.808L661.532 658Z" fill="url(#paint0_linear)"/>
<path d="M653.708 652.671H103.214L107.138 240.594L261.739 197.893H492.918L649.785 228.137L653.708 652.671Z" fill="#EEEEEE"/>
<path opacity="0.7" d="M314.239 10.3772H272.926V91.9699H314.239V10.3772Z" fill="url(#paint1_linear)"/>
<path opacity="0.7" d="M272.927 261.723V173.539H93.4766L63 261.723V270.768H274.048V261.723H272.927Z" fill="url(#paint2_linear)"/>
<path d="M272.926 261.84H65.2417L95.3913 174.661H272.926V261.84Z" fill="#09203F"/>
<path opacity="0.1" d="M272.926 261.84H65.2417L95.3913 174.661H272.926V261.84Z" fill="black"/>
<path d="M274.071 261.84H65.2417V270.791H274.071V261.84Z" fill="#09203F"/>
<path opacity="0.7" d="M659.453 174.661H479.536V263.85H478.392V273.012H690V263.85L659.453 174.661Z" fill="url(#paint3_linear)"/>
<path d="M479.514 264.06H687.222L657.072 176.905H479.514V264.06Z" fill="#09203F"/>
<path opacity="0.1" d="M479.514 264.06H687.222L657.072 176.905H479.514V264.06Z" fill="black"/>
<path d="M478.393 273.012H687.222V264.06H478.393V273.012Z" fill="#09203F"/>
<path opacity="0.5" d="M233.832 500.424H121.057V570.821H233.832V500.424Z" fill="#09203F"/>
<path opacity="0.1" d="M240.558 565.797H114.378V578.09H240.558V565.797Z" fill="black"/>
<path d="M240.558 564.698H114.378V576.992H240.558V564.698Z" fill="#535461"/>
<path opacity="0.1" d="M233.832 500.424H121.057V528.354H233.832V500.424Z" fill="black"/>
<path opacity="0.5" d="M632.504 500.424H519.729V570.821H632.504V500.424Z" fill="#09203F"/>
<path opacity="0.1" d="M639.206 565.797H513.026V578.09H639.206V565.797Z" fill="black"/>
<path d="M639.206 564.698H513.026V576.992H639.206V564.698Z" fill="#535461"/>
<path opacity="0.1" d="M632.504 500.424H519.729V528.354H632.504V500.424Z" fill="black"/>
<path opacity="0.5" d="M632.504 336.14H519.729V406.538H632.504V336.14Z" fill="#09203F"/>
<path opacity="0.1" d="M639.206 401.536H513.026V413.83H639.206V401.536Z" fill="black"/>
<path d="M639.206 400.414H513.026V412.708H639.206V400.414Z" fill="#535461"/>
<path opacity="0.1" d="M632.504 336.14H519.729V364.07H632.504V336.14Z" fill="black"/>
<path opacity="0.5" d="M237.195 336.14H124.42V406.538H237.195V336.14Z" fill="#09203F"/>
<path opacity="0.1" d="M243.897 401.536H117.717V413.83H243.897V401.536Z" fill="black"/>
<path d="M243.897 400.414H117.717V412.708H243.897V400.414Z" fill="#535461"/>
<path opacity="0.1" d="M237.195 336.14H124.42V364.07H237.195V336.14Z" fill="black"/>
<path opacity="0.7" d="M514.311 127.917L376.594 21.3155L243.267 127.846L232.805 114.758L376.43 0L524.563 114.664L514.311 127.917Z" fill="url(#paint4_linear)"/>
<path opacity="0.1" d="M254.5 270.768H105.993V272.451H254.5V270.768Z" fill="black"/>
<path opacity="0.1" d="M650.93 273.012H500.742V274.695H650.93V273.012Z" fill="black"/>
<path d="M313.141 11.4993H274.047V91.9701H313.141V11.4993Z" fill="#535461"/>
<path opacity="0.7" d="M501.302 654.658H251.161V113.66L377.318 108.728L501.302 113.66V654.658Z" fill="url(#paint5_linear)"/>
<path d="M497.94 654.658H254.5V111.509L376.22 19.8899L500.182 114.875L497.94 654.658Z" fill="white"/>
<path d="M406.93 551.843H345.509V654.658H406.93V551.843Z" fill="#535461"/>
<path opacity="0.1" d="M439.322 459.64H313.142V471.933H439.322V459.64Z" fill="black"/>
<path opacity="0.5" d="M432.62 394.267H319.844V464.664H432.62V394.267Z" fill="#09203F"/>
<path d="M439.322 458.517H313.142V470.811H439.322V458.517Z" fill="#535461"/>
<path opacity="0.1" d="M432.62 394.267H319.844V422.197H432.62V394.267Z" fill="black"/>
<path opacity="0.5" d="M432.62 256.254H319.844V326.651H432.62V256.254Z" fill="#09203F"/>
<path d="M439.322 320.504H313.142V332.798H439.322V320.504Z" fill="#535461"/>
<path opacity="0.1" d="M432.62 256.254H319.844V284.184H432.62V256.254Z" fill="black"/>
<path opacity="0.5" d="M432.62 118.217H319.844V188.615H432.62V118.217Z" fill="#09203F"/>
<path d="M439.322 182.491H313.142V194.785H439.322V182.491Z" fill="#535461"/>
<path opacity="0.1" d="M432.62 118.217H319.844V146.147H432.62V118.217Z" fill="black"/>
<path d="M514.311 131.843L376.594 25.2188L243.267 131.75L232.805 118.661L376.43 3.90332L524.563 118.568L514.311 131.843Z" fill="#09203F"/>
<path d="M398.008 607.703C400.472 607.703 402.469 605.704 402.469 603.239C402.469 600.773 400.472 598.774 398.008 598.774C395.545 598.774 393.548 600.773 393.548 603.239C393.548 605.704 395.545 607.703 398.008 607.703Z" fill="#E0E0E0"/>
<path d="M689.002 650L698.487 649.999L703 614L689 614.001L689.002 650Z" fill="#FFB8B8"/>
<path d="M688 647.001L705.712 647H705.713C708.706 647 711.577 648.123 713.694 650.12C715.811 652.118 717 654.828 717 657.653V657.999L688.001 658L688 647.001Z" fill="#09203F"/>
<path d="M721.002 650L729.132 649.999L733 614L721 614.001L721.002 650Z" fill="#FFB8B8"/>
<path d="M718 647.001L735.712 647H735.713C738.706 647 741.577 648.123 743.694 650.12C745.811 652.118 747 654.828 747 657.653V657.999L718.001 658L718 647.001Z" fill="#09203F"/>
<path d="M703.867 526.999L706 638L688.748 636.908L676.78 566.207L673 518L703.867 526.999Z" fill="#09203F"/>
<path d="M734.54 508.227L737 639L716.526 638.416L712.103 560.68L704.411 532.535L673 517.822L678.128 482.64L724.283 482L734.54 508.227Z" fill="#09203F"/>
<path d="M697.5 394C706.06 394 713 387.06 713 378.5C713 369.94 706.06 363 697.5 363C688.94 363 682 369.94 682 378.5C682 387.06 688.94 394 697.5 394Z" fill="#FFB8B8"/>
<path d="M711.982 398L714.442 401.639L721 419.567L715.754 489.359L684.934 490L681 409.962L689.242 399.903L711.982 398Z" fill="#CCCCCC"/>
<path d="M669.529 411.647L664.353 411C664.353 411 663.059 411.647 662.412 416.176C661.765 420.706 654 460.824 654 460.824L664.353 510L676 494.471L668.882 467.294L676 440.118L669.529 411.647Z" fill="#09203F"/>
<path d="M735.273 411H738.909L748 463.312L739.515 504L731.03 489.146L733.454 473L732.242 458.792L728 450.395L735.273 411Z" fill="#09203F"/>
<path d="M665 411.676L685.364 403.407L690.136 399.908L704.455 463.198L711.136 398L737.545 411.676L728.636 454.929L727.364 471.467L731.182 484.825C731.182 484.825 744.545 494.366 740.091 504.543C735.636 514.72 730.545 515.357 730.545 515.357C730.545 515.357 708.909 495.002 707.636 489.913C706.364 484.825 704.455 475.92 704.455 475.92C704.455 475.92 693.636 516.629 680.909 515.993C668.182 515.357 668.182 501.999 668.182 501.999L671.364 488.005L676.455 473.375L673.909 449.204L665 411.676Z" fill="#09203F"/>
<path d="M685.167 362.421L682.501 361.359C682.501 361.359 688.076 355.255 695.832 355.786L693.651 353.397C693.651 353.397 698.983 351.274 703.831 356.847C706.379 359.777 709.327 363.221 711.165 367.101H714.021L712.829 369.711L717 372.321L712.719 371.852C713.124 374.105 712.986 376.422 712.314 378.611L712.429 380.674C712.429 380.674 707.466 373.038 707.466 371.976V374.63C707.466 374.63 704.8 372.241 704.8 370.649L703.346 372.507L702.619 369.587L693.651 372.507L695.105 370.118L689.53 370.914L691.712 367.995C691.712 367.995 685.41 371.445 685.168 374.365C684.925 377.284 681.774 381 681.774 381L680.32 378.346C680.32 378.346 678.138 366.402 685.167 362.421Z" fill="#2F2E41"/>
<path d="M772 321C809.555 321 840 290.555 840 253C840 215.445 809.555 185 772 185C734.445 185 704 215.445 704 253C704 290.555 734.445 321 772 321Z" fill="#09203F"/>
<path opacity="0.1" d="M772 311C804.033 311 830 285.033 830 253C830 220.967 804.033 195 772 195C739.967 195 714 220.967 714 253C714 285.033 739.967 311 772 311Z" fill="black"/>
<path d="M769.454 288V279.389C765.112 279.304 760.62 277.768 758 275.637L759.797 269.925C762.91 272.264 766.687 273.548 770.577 273.59C775.893 273.59 779.487 270.095 779.487 265.235C779.487 260.545 776.567 257.647 771.027 255.089C763.39 251.678 758.674 247.756 758.674 240.339C758.674 233.262 763.091 227.89 769.979 226.611V218H774.62V226.27C778.081 226.318 781.457 227.353 784.353 229.254L782.481 234.882C779.704 232.976 776.413 231.965 773.048 231.983C767.284 231.983 765.112 235.905 765.112 239.315C765.112 243.749 767.882 245.966 774.396 249.035C782.107 252.616 786 257.05 786 264.638C786 271.374 781.882 277.683 774.171 279.132V288H769.454Z" fill="#F2F2F2"/>
<defs>
<linearGradient id="paint0_linear" x1="416356" y1="131233" x2="416356" y2="38537.1" gradientUnits="userSpaceOnUse">
<stop stop-color="#808080" stop-opacity="0.25"/>
<stop offset="0.54" stop-color="#808080" stop-opacity="0.12"/>
<stop offset="1" stop-color="#808080" stop-opacity="0.1"/>
</linearGradient>
<linearGradient id="paint1_linear" x1="29147.2" y1="3221.05" x2="29147.2" y2="372.649" gradientUnits="userSpaceOnUse">
<stop stop-color="#808080" stop-opacity="0.25"/>
<stop offset="0.54" stop-color="#808080" stop-opacity="0.12"/>
<stop offset="1" stop-color="#808080" stop-opacity="0.1"/>
</linearGradient>
<linearGradient id="paint2_linear" x1="136267" y1="11437.5" x2="136267" y2="7392.77" gradientUnits="userSpaceOnUse">
<stop stop-color="#808080" stop-opacity="0.25"/>
<stop offset="0.54" stop-color="#808080" stop-opacity="0.12"/>
<stop offset="1" stop-color="#808080" stop-opacity="0.1"/>
</linearGradient>
<linearGradient id="paint3_linear" x1="174708" y1="11663" x2="174708" y2="7524.4" gradientUnits="userSpaceOnUse">
<stop stop-color="#808080" stop-opacity="0.25"/>
<stop offset="0.54" stop-color="#808080" stop-opacity="0.12"/>
<stop offset="1" stop-color="#808080" stop-opacity="0.1"/>
</linearGradient>
<linearGradient id="paint4_linear" x1="214780" y1="7000.87" x2="214780" y2="0" gradientUnits="userSpaceOnUse">
<stop stop-color="#808080" stop-opacity="0.25"/>
<stop offset="0.54" stop-color="#808080" stop-opacity="0.12"/>
<stop offset="1" stop-color="#808080" stop-opacity="0.1"/>
</linearGradient>
<linearGradient id="paint5_linear" x1="183930" y1="153024" x2="183930" y2="25505.4" gradientUnits="userSpaceOnUse">
<stop stop-color="#808080" stop-opacity="0.25"/>
<stop offset="0.54" stop-color="#808080" stop-opacity="0.12"/>
<stop offset="1" stop-color="#808080" stop-opacity="0.1"/>
</linearGradient>
</defs>
</svg>
