<svg width="879" height="406" viewBox="0 0 879 406" fill="none" xmlns="http://www.w3.org/2000/svg">
<ellipse cx="439.5" cy="362" rx="439.5" ry="44" fill="#C4C4C4"/>
<path d="M200 1H171V340H200V1Z" fill="#1F2E35"/>
<path d="M784 206H95V352H784V206Z" fill="#F2F2F2"/>
<path d="M73 222L148 65H747L803 222H73Z" fill="#1F2E35"/>
<path d="M538 75H260V167H538V75Z" fill="#F2F2F2"/>
<path d="M278 0L234 92H564L538 0H278Z" fill="#1F2E35"/>
<path d="M504 235H284.5V352H504V235Z" fill="#CCCCCC"/>
<path d="M239 239H122V352H239V239Z" fill="#CCCCCC"/>
<path d="M602.5 246H542V352H602.5V246Z" fill="#1F2E35"/>
<path d="M697.5 252H668V279.5H697.5V252Z" fill="#1F2E35"/>
<path d="M737 252H707.5V279.5H737V252Z" fill="#1F2E35"/>
<path d="M697.5 289.5H668V318H697.5V289.5Z" fill="#1F2E35"/>
<path d="M737 289.5H707.5V318H737V289.5Z" fill="#1F2E35"/>
<path d="M308.587 100.174H285.5V121.696H308.587V100.174Z" fill="#1F2E35"/>
<path d="M339.5 100.174H316.413V121.696H339.5V100.174Z" fill="#1F2E35"/>
<path d="M308.587 129.522H285.5V151.826H308.587V129.522Z" fill="#1F2E35"/>
<path d="M339.5 129.522H316.413V151.826H339.5V129.522Z" fill="#1F2E35"/>
<path d="M481.587 100.174H458.5V121.696H481.587V100.174Z" fill="#1F2E35"/>
<path d="M512.5 100.174H489.413V121.696H512.5V100.174Z" fill="#1F2E35"/>
<path d="M481.587 129.522H458.5V151.826H481.587V129.522Z" fill="#1F2E35"/>
<path d="M512.5 129.522H489.413V151.826H512.5V129.522Z" fill="#1F2E35"/>
<path d="M395.587 100.174H372.5V121.696H395.587V100.174Z" fill="#1F2E35"/>
<path d="M426.5 100.174H403.413V121.696H426.5V100.174Z" fill="#1F2E35"/>
<path d="M395.587 129.522H372.5V151.826H395.587V129.522Z" fill="#1F2E35"/>
<path d="M426.5 129.522H403.413V151.826H426.5V129.522Z" fill="#1F2E35"/>
<path d="M570.036 256.739H555.5V270.29H570.036V256.739Z" fill="#F2F2F2"/>
<path d="M589.5 256.739H574.964V270.29H589.5V256.739Z" fill="#F2F2F2"/>
<path d="M570.036 275.217H555.5V289.261H570.036V275.217Z" fill="#F2F2F2"/>
<path d="M589.5 275.217H574.964V289.261H589.5V275.217Z" fill="#F2F2F2"/>
<path d="M594.5 310.5C596.709 310.5 598.5 308.709 598.5 306.5C598.5 304.291 596.709 302.5 594.5 302.5C592.291 302.5 590.5 304.291 590.5 306.5C590.5 308.709 592.291 310.5 594.5 310.5Z" fill="#F2F2F2"/>
<path d="M504.5 247.5H284.5V249.5H504.5V247.5Z" fill="#F2F2F2"/>
<path d="M504.5 256.5H284.5V258.5H504.5V256.5Z" fill="#F2F2F2"/>
<path d="M504.5 265.5H284.5V267.5H504.5V265.5Z" fill="#F2F2F2"/>
<path d="M504.5 274.5H284.5V276.5H504.5V274.5Z" fill="#F2F2F2"/>
<path d="M504.5 283.5H284.5V285.5H504.5V283.5Z" fill="#F2F2F2"/>
<path d="M504.5 292.5H284.5V294.5H504.5V292.5Z" fill="#F2F2F2"/>
<path d="M504.5 301.5H284.5V303.5H504.5V301.5Z" fill="#F2F2F2"/>
<path d="M504.5 310.5H284.5V312.5H504.5V310.5Z" fill="#F2F2F2"/>
<path d="M504.5 319.5H284.5V321.5H504.5V319.5Z" fill="#F2F2F2"/>
<path d="M504.5 328.5H284.5V330.5H504.5V328.5Z" fill="#F2F2F2"/>
<path d="M504.5 337.5H284.5V339.5H504.5V337.5Z" fill="#F2F2F2"/>
<path d="M239 247.5H122V249.5H239V247.5Z" fill="#F2F2F2"/>
<path d="M239 256.5H122V258.5H239V256.5Z" fill="#F2F2F2"/>
<path d="M239 265.5H122V267.5H239V265.5Z" fill="#F2F2F2"/>
<path d="M239 274.5H122V276.5H239V274.5Z" fill="#F2F2F2"/>
<path d="M239 283.5H122V285.5H239V283.5Z" fill="#F2F2F2"/>
<path d="M239 292.5H122V294.5H239V292.5Z" fill="#F2F2F2"/>
<path d="M239 301.5H122V303.5H239V301.5Z" fill="#F2F2F2"/>
<path d="M239 310.5H122V312.5H239V310.5Z" fill="#F2F2F2"/>
<path d="M239 319.5H122V321.5H239V319.5Z" fill="#F2F2F2"/>
<path d="M239 328.5H122V330.5H239V328.5Z" fill="#F2F2F2"/>
<path d="M239 337.5H122V339.5H239V337.5Z" fill="#F2F2F2"/>
</svg>
