<svg width="650" height="533" viewBox="0 0 650 533" fill="none" xmlns="http://www.w3.org/2000/svg">
<ellipse cx="325" cy="503.5" rx="325" ry="29.5" fill="#57B894"/>
<path d="M200.95 262.289H181.923V328.151H200.95V262.289Z" fill="#09203F"/>
<path d="M213.515 315.761L167.239 260.708L74.349 261.557L18 316.442L19.139 317.174H18.732V431.334H213.39V317.174L213.515 315.761Z" fill="#09203F"/>
<path d="M167.287 260.825L109.475 328.603V431.334H213.39V315.71L167.287 260.825Z" fill="#768291"/>
<path d="M172.409 374.523H151.187V393.281H172.409V374.523Z" fill="#09203F"/>
<path d="M172.409 342.055H151.187V360.515H172.409V342.055Z" fill="#09203F"/>
<path d="M172.409 374.523H151.187V393.281H172.409V374.523Z" fill="white"/>
<path d="M172.409 342.055H151.187V360.515H172.409V342.055Z" fill="white"/>
<path d="M78.0967 369.545H56.8745V388.303H78.0967V369.545Z" fill="#09203F"/>
<path d="M78.0967 337.077H56.8745V355.538H78.0967V337.077Z" fill="#09203F"/>
<path d="M78.0967 369.545H56.8745V388.303H78.0967V369.545Z" fill="white"/>
<path d="M78.0967 337.077H56.8745V355.538H78.0967V337.077Z" fill="white"/>
<path d="M439.592 1.58081H420.565V67.4426H439.592V1.58081Z" fill="#09203F"/>
<path d="M408.125 56.466V236.624H602.783V56.466H602.376L603.515 55.734L547.166 0.849L454.276 0L408 55.053L408.125 56.466Z" fill="#09203F"/>
<path d="M408.125 55.0019V236.624H512.04V67.896L454.228 0.116943L408.125 55.0019Z" fill="#768291"/>
<path d="M470.327 113.815H449.105V132.573H470.327V113.815Z" fill="#09203F"/>
<path d="M470.327 81.3469H449.105V99.8074H470.327V81.3469Z" fill="#09203F"/>
<path d="M470.327 113.815H449.105V132.573H470.327V113.815Z" fill="white"/>
<path d="M470.327 81.3469H449.105V99.8074H470.327V81.3469Z" fill="white"/>
<path d="M564.64 108.837H543.418V127.595H564.64V108.837Z" fill="#09203F"/>
<path d="M564.64 76.3696H543.418V94.8301H564.64V76.3696Z" fill="#09203F"/>
<path d="M564.64 108.837H543.418V127.595H564.64V108.837Z" fill="white"/>
<path d="M564.64 76.3696H543.418V94.8301H564.64V76.3696Z" fill="white"/>
<path d="M470.327 179.812H449.105V198.57H470.327V179.812Z" fill="white"/>
<path d="M470.327 147.344H449.105V165.805H470.327V147.344Z" fill="white"/>
<path d="M564.64 174.835H543.418V193.593H564.64V174.835Z" fill="white"/>
<path d="M564.64 142.367H543.418V160.827H564.64V142.367Z" fill="white"/>
<path d="M267.983 237.142C267.154 238.501 265.82 239.474 264.274 239.849C262.727 240.224 261.095 239.969 259.736 239.14L189.732 196.44C189.059 196.029 188.474 195.491 188.009 194.854C187.545 194.218 187.21 193.496 187.025 192.73C186.839 191.964 186.806 191.17 186.928 190.391C187.05 189.613 187.323 188.866 187.734 188.193C188.144 187.52 188.683 186.935 189.319 186.471C189.956 186.006 190.677 185.672 191.443 185.486C192.209 185.301 193.004 185.268 193.782 185.389C194.561 185.511 195.308 185.785 195.98 186.195L265.985 228.895C267.344 229.724 268.317 231.058 268.692 232.605C269.067 234.152 268.812 235.784 267.983 237.142V237.142Z" fill="#09203F"/>
<path d="M197.978 194.442C193.035 202.547 185.799 209.003 177.186 212.996C168.573 216.988 158.969 218.337 149.589 216.871C140.209 215.405 131.475 211.191 124.491 204.761C117.506 198.332 112.585 189.975 110.35 180.748C108.114 171.522 108.665 161.84 111.933 152.926C115.2 144.013 121.037 136.268 128.706 130.672C136.375 125.076 145.531 121.88 155.016 121.488C164.502 121.095 173.891 123.524 181.995 128.468C192.852 135.107 200.632 145.782 203.629 158.15C206.625 170.518 204.593 183.57 197.978 194.442ZM126.266 150.7C122.558 156.779 120.737 163.82 121.031 170.934C121.325 178.048 123.722 184.915 127.919 190.667C132.116 196.419 137.925 200.797 144.61 203.247C151.295 205.698 158.556 206.111 165.476 204.434C172.396 202.758 178.664 199.067 183.486 193.829C188.308 188.59 191.469 182.039 192.568 175.005C193.668 167.97 192.656 160.767 189.662 154.307C186.668 147.847 181.825 142.42 175.746 138.713C167.593 133.752 157.804 132.228 148.528 134.475C139.251 136.722 131.245 142.557 126.266 150.7V150.7Z" fill="#09203F"/>
<path d="M316.86 485H308L309.582 435L333 436.29L316.86 485Z" fill="#CCCCCC"/>
<path d="M317.811 512.896C315.097 514.106 312.825 504.303 310.536 506.5C304.134 512.648 297.52 513.986 288.975 511.302L288.777 511.27C288.262 511.108 287.785 510.845 287.376 510.498C286.967 510.151 286.635 509.726 286.399 509.25C286.163 508.773 286.029 508.255 286.004 507.726C285.979 507.198 286.065 506.67 286.255 506.174C286.482 505.581 286.854 505.051 287.338 504.629C287.821 504.208 288.402 503.907 289.031 503.753L295.839 502.09L306.529 483.72L317.442 483C319.875 486.031 321.573 489.561 322.408 493.325C323.243 497.09 323.194 500.99 322.264 504.733C321.274 508.683 319.745 512.033 317.811 512.896Z" fill="#09203F"/>
<path d="M402 477.719L393.697 481L377 434.487L399.413 427L402 477.719Z" fill="#CCCCCC"/>
<path d="M414.598 503.971C412.483 506.095 406.548 497.704 405.218 500.602C401.496 508.707 395.721 512.369 386.562 512.95L386.361 512.991C385.808 513.027 385.254 512.953 384.732 512.775C384.209 512.597 383.73 512.319 383.322 511.956C382.914 511.594 382.587 511.156 382.36 510.668C382.133 510.18 382.011 509.652 382.001 509.117C381.989 508.477 382.138 507.844 382.436 507.272C382.733 506.7 383.17 506.206 383.709 505.833L389.544 501.796L392.638 480.642L402.739 476C406.219 477.965 409.193 480.667 411.436 483.903C413.68 487.138 415.134 490.823 415.691 494.679C416.27 498.752 416.105 502.458 414.598 503.971Z" fill="#09203F"/>
<path d="M375.055 237.236L361.114 240.773C360.059 241.041 358.956 241.072 357.887 240.865C356.819 240.657 355.811 240.216 354.937 239.574C354.064 238.932 353.347 238.105 352.84 237.154C352.332 236.203 352.047 235.152 352.005 234.078C351.967 233.09 352.135 232.106 352.499 231.185C352.863 230.264 353.415 229.427 354.121 228.727C354.827 228.026 355.672 227.476 356.603 227.111C357.534 226.746 358.531 226.574 359.532 226.606L371.812 226.997L395.476 218.495L373.109 202.038L375.704 179L419.292 213.526C420.069 214.141 420.71 214.909 421.172 215.78C421.635 216.651 421.911 217.607 421.982 218.588V218.588C422.101 220.236 421.637 221.875 420.669 223.224C419.701 224.574 418.288 225.55 416.673 225.987C406.459 234.21 391.58 236.729 375.055 237.236Z" fill="#CCCCCC"/>
<path d="M343.5 151C355.926 151 366 140.926 366 128.5C366 116.074 355.926 106 343.5 106C331.074 106 321 116.074 321 128.5C321 140.926 331.074 151 343.5 151Z" fill="#CCCCCC"/>
<path d="M371 159.078L341.017 171C341.898 161.678 339.413 152.348 334 144.647L358.879 139C358.556 146.474 362.665 153.154 371 159.078Z" fill="#CCCCCC"/>
<path d="M412 444L370.561 441.752L357.07 334.47L346.148 441.109L297 438.861C311.992 368.755 322.407 302.202 319.486 241L370.883 245.497C388.302 263.862 396.951 293.177 402.042 328.046C407.133 362.915 411.237 403.337 412 444Z" fill="#09203F"/>
<path d="M371.648 249L319.611 243.264L315.756 226.692C307.212 213.896 310.941 202.176 320.896 191C339.04 202.553 355.883 207.545 380 203.747C373.586 219.222 367.663 234.431 371.648 249Z" fill="#09203F"/>
<path d="M253.648 218.254C254.864 217.294 256.27 216.601 257.773 216.222C259.276 215.843 260.842 215.785 262.368 216.053C263.895 216.321 265.348 216.909 266.632 217.778C267.915 218.647 269.001 219.777 269.817 221.094C270.074 221.512 270.301 221.948 270.497 222.398L318.451 232.09L331.219 202.087C331.707 200.94 332.417 199.902 333.308 199.031C334.2 198.161 335.255 197.476 336.412 197.015C337.57 196.555 338.807 196.328 340.053 196.349C341.299 196.369 342.528 196.636 343.67 197.135C344.812 197.633 345.844 198.353 346.706 199.252C347.568 200.151 348.244 201.212 348.694 202.374C349.144 203.536 349.359 204.775 349.327 206.021C349.295 207.266 349.017 208.493 348.508 209.63L329.798 251.461L329.746 251.55C328.661 253.034 327.127 254.127 325.371 254.67C323.615 255.212 321.731 255.173 319.999 254.56L267.146 235.619C266.862 235.841 266.566 236.048 266.261 236.238C264.943 237.055 263.468 237.583 261.931 237.79C260.395 237.996 258.832 237.875 257.346 237.436C255.86 236.996 254.483 236.247 253.306 235.239C252.129 234.23 251.179 232.984 250.517 231.582C250.382 231.299 250.26 231.013 250.152 230.723C249.347 228.542 249.251 226.161 249.879 223.922C250.507 221.683 251.826 219.699 253.648 218.254V218.254Z" fill="#CCCCCC"/>
<path d="M376.421 211.469C352.382 213.428 339.233 210.177 319 198.224L326.614 180.135C326.232 177.411 326.594 174.633 327.662 172.105C328.73 169.578 330.462 167.399 332.667 165.809L340.573 160.107L364.683 153L365.765 153.055C368.972 153.218 372.011 154.567 374.312 156.848C376.613 159.129 378.018 162.186 378.264 165.446C383.502 181.385 383.536 196.792 376.421 211.469Z" fill="#57B894"/>
<path d="M343 139C345.209 139 347 136.761 347 134C347 131.239 345.209 129 343 129C340.791 129 339 131.239 339 134C339 136.761 340.791 139 343 139Z" fill="#CCCCCC"/>
<path d="M443.508 154.884C441.142 150.693 437.695 146.853 433.139 145.304C427.254 143.303 420.882 145.433 414.832 146.856C410.17 147.952 405.3 148.623 400.601 147.698C395.903 146.773 391.371 144.039 389.233 139.754C386.088 133.45 388.737 125.933 388.546 118.891C388.448 115.058 387.48 111.297 385.717 107.892C383.954 104.486 381.441 101.526 378.367 99.2332C375.293 96.9405 371.739 95.3755 367.972 94.6562C364.206 93.9369 360.325 94.082 356.623 95.0805C350.829 93.4086 345.583 93.254 342 97.7077C337.491 97.7077 333.167 99.4988 329.979 102.687C326.791 105.875 325 110.199 325 114.708H341.255C340.485 118.853 341.365 123.135 343.709 126.639C346.579 130.855 351.569 133.904 352.529 138.913C353.46 143.766 350.161 148.371 346.7 151.899C343.24 155.427 339.225 158.923 338.145 163.746C337.483 167.407 338.234 171.182 340.248 174.311C342.258 177.401 344.752 180.148 347.634 182.446C360.62 193.571 376.052 201.466 392.672 205.487C404.376 208.304 417.178 209.035 428.043 203.851C432.389 201.777 436.263 198.832 439.423 195.198C442.583 191.564 444.962 187.319 446.413 182.727C447.863 178.135 448.353 173.294 447.854 168.504C447.354 163.714 445.875 159.078 443.508 154.884V154.884Z" fill="#09203F"/>
</svg>
