<svg width="40" height="38" viewBox="0 0 40 38" fill="none" xmlns="http://www.w3.org/2000/svg">
<path d="M10.1856 37.8521C9.2708 37.8485 8.38084 37.554 7.64436 37.0113C6.89764 36.4813 6.34156 35.7247 6.05854 34.8539C5.77552 33.983 5.78061 33.0441 6.07307 32.1763L8.20344 25.6212C8.35592 25.1545 8.35632 24.6515 8.2046 24.1845C8.05288 23.7176 7.75688 23.3109 7.3592 23.023L1.78254 18.9713C1.04375 18.4345 0.49381 17.6777 0.211617 16.8092C-0.070576 15.9407 -0.0705224 15.0052 0.211678 14.1367C0.493879 13.2682 1.04374 12.5114 1.78254 11.9747C2.52134 11.4379 3.41111 11.1489 4.32429 11.149H11.2171C11.7081 11.1499 12.1867 10.9948 12.5839 10.7062C12.9811 10.4176 13.2764 10.0102 13.4271 9.54297L15.5574 2.98779C15.8396 2.11935 16.3895 1.36253 17.1283 0.825806C17.8671 0.289079 18.7568 0 19.6699 0C20.5831 0 21.4727 0.289079 22.2115 0.825806C22.9502 1.36253 23.5002 2.11935 23.7824 2.98779L25.9122 9.54297C26.0631 10.0102 26.3583 10.4175 26.7556 10.7062C27.1528 10.9948 27.6314 11.1499 28.1224 11.149H35.0153C35.9284 11.149 36.818 11.4381 37.5568 11.9749C38.2955 12.5116 38.8454 13.2684 39.1276 14.1368C39.4098 15.0052 39.4098 15.9407 39.1276 16.8092C38.8455 17.6776 38.2957 18.4345 37.557 18.9713L31.9806 23.023C31.5828 23.3108 31.2865 23.7175 31.1348 24.1844C30.983 24.6514 30.9835 25.1545 31.1361 25.6212L33.2662 32.1763C33.5483 33.0448 33.5483 33.9803 33.2661 34.8488C32.9838 35.7172 32.434 36.474 31.6952 37.0108C30.9564 37.5475 30.0667 37.8366 29.1536 37.8366C28.2404 37.8366 27.3507 37.5475 26.6119 37.0108L21.0357 32.9595C20.639 32.6701 20.1607 32.5142 19.6697 32.5142C19.1787 32.5142 18.7003 32.6701 18.3036 32.9595L12.7272 37.0108C11.9908 37.5539 11.1006 37.8486 10.1856 37.8521V37.8521ZM19.6697 30.5133C20.5831 30.5134 21.4729 30.8034 22.211 31.3414L27.7874 35.3927C28.1844 35.6813 28.6626 35.8368 29.1535 35.8369C29.6443 35.8369 30.1226 35.6816 30.5197 35.3931C30.9168 35.1046 31.2124 34.6978 31.364 34.231C31.5157 33.7642 31.5156 33.2613 31.3638 32.7945L29.234 26.2393C28.95 25.371 28.9492 24.4349 29.2315 23.5661C29.5139 22.6972 30.0648 21.9404 30.8049 21.4049L36.3811 17.3531C36.7781 17.0646 37.0736 16.6579 37.2253 16.1911C37.3769 15.7244 37.3769 15.2216 37.2253 14.7549C37.0736 14.2881 36.7781 13.8813 36.3811 13.5929C35.9841 13.3044 35.5059 13.149 35.0151 13.149H28.1223C27.2087 13.1507 26.3183 12.8623 25.5792 12.3253C24.8402 11.7884 24.2907 11.0306 24.01 10.1612L21.8799 3.60605C21.7283 3.13924 21.4327 2.73242 21.0357 2.44391C20.6386 2.15539 20.1604 2 19.6696 2C19.1787 2 18.7005 2.15539 18.3034 2.44391C17.9063 2.73242 17.6109 3.13924 17.4592 3.60605L15.3291 10.1612C15.0485 11.0306 14.4991 11.7884 13.76 12.3253C13.021 12.8623 12.1306 13.1507 11.217 13.149H4.32423C3.83344 13.149 3.35521 13.3043 2.95814 13.5928C2.56107 13.8812 2.26552 14.288 2.11384 14.7548C1.96216 15.2215 1.96214 15.7243 2.11378 16.1911C2.26542 16.6578 2.56097 17.0646 2.95802 17.3531L8.53468 21.4049C9.27469 21.9405 9.8255 22.6973 10.1078 23.5662C10.3901 24.435 10.3893 25.371 10.1055 26.2393L7.97511 32.7945C7.82346 33.2613 7.82343 33.7641 7.97511 34.2308C8.12679 34.6976 8.4224 35.1044 8.81947 35.3928C9.21653 35.6813 9.69471 35.8366 10.1855 35.8366C10.6763 35.8366 11.1545 35.6812 11.5515 35.3927L17.1282 31.3414C17.8664 30.8034 18.7563 30.5134 19.6697 30.5133V30.5133Z" fill="black"/>
</svg>
