<svg width="1004" height="924" viewBox="0 0 1004 924" fill="none" xmlns="http://www.w3.org/2000/svg">
<path d="M891.232 325.723H245.543C215.408 325.723 190.978 350.153 190.978 380.29V551.266C190.978 581.402 215.408 605.833 245.543 605.833H891.232C921.367 605.833 945.797 581.402 945.797 551.266V380.29C945.797 350.153 921.367 325.723 891.232 325.723Z" fill="#3C3C3C"/>
<path d="M191.071 184.289C191.671 136.261 243.208 106.171 285.325 129.257L613.571 309.183C634.208 320.495 646.92 342.269 646.627 365.802L641.958 740.108C641.358 788.134 589.821 818.224 547.704 795.138L219.458 615.213C198.821 603.899 186.109 582.125 186.402 558.593L191.071 184.289Z" fill="white"/>
<path d="M321.211 422.479L298.319 518.526H296.144L274.339 426.828L252.471 518.526H250.296L227.404 422.479L229.516 421.968L251.384 513.922L273.252 422.224H275.427L297.231 513.922L319.099 421.968L321.211 422.479ZM348.77 518.526V422.224H350.816V467.049H417.509V422.224H419.619V518.526H417.509V469.161H350.816V518.526H348.77ZM456.323 518.526V422.224H458.37V518.526H456.323ZM513.36 518.526V423.31H482.347V421.2H546.547V423.31H515.47V518.526H513.36ZM608.253 469.161H572.573V517.438H631.145V519.421H570.527V421.2H631.145V423.31H572.573V467.049H608.253V469.161Z" fill="#3B3B3B"/>
<path d="M761.889 515.776L748.651 520.508V428.938L761.889 424.207V515.776ZM842.074 439.68L831.33 452.662C830.393 449.848 829.179 447.163 827.685 444.606C826.194 442.047 824.426 439.809 822.38 437.891C820.333 435.972 818.009 434.438 815.408 433.287C812.809 432.136 809.91 431.561 806.712 431.561C804.411 431.561 802.28 431.986 800.319 432.839C798.358 433.649 796.63 434.8 795.139 436.292C793.689 437.741 792.538 439.468 791.687 441.472C790.875 443.475 790.472 445.628 790.472 447.931C790.472 450.317 790.919 452.556 791.814 454.644C792.709 456.732 793.902 458.63 795.395 460.336C796.887 461.998 798.591 463.448 800.51 464.685C802.471 465.92 804.495 466.88 806.585 467.562C808.673 468.286 810.868 469.096 813.171 469.992C815.474 470.887 817.732 471.931 819.95 473.124C822.165 474.318 824.277 475.662 826.279 477.153C828.284 478.603 830.052 480.244 831.587 482.077C833.122 483.91 834.337 485.957 835.232 488.216C836.126 490.433 836.574 492.863 836.574 495.506C836.574 499.342 835.721 502.796 834.017 505.865C832.354 508.891 830.159 511.45 827.431 513.538C824.702 515.627 821.568 517.225 818.031 518.335C814.535 519.443 810.976 519.997 807.352 519.997C804.879 519.997 802.365 519.635 799.806 518.91C797.292 518.186 794.862 517.205 792.518 515.969C790.215 514.69 788.042 513.218 785.996 511.556C783.991 509.893 782.243 508.104 780.752 506.185L791.11 494.291C791.75 496.337 792.858 498.511 794.435 500.813C796.056 503.114 797.931 505.246 800.062 507.207C802.194 509.169 804.475 510.81 806.905 512.132C809.377 513.411 811.765 514.05 814.066 514.05C815.388 514.05 816.752 513.709 818.158 513.027C819.566 512.345 820.845 511.47 821.996 510.405C823.189 509.297 824.169 508.104 824.937 506.825C825.704 505.544 826.088 504.288 826.088 503.051C826.088 501.175 825.704 499.406 824.937 497.743C824.169 496.039 823.145 494.44 821.867 492.949C820.632 491.455 819.182 490.091 817.52 488.856C815.899 487.577 814.195 486.446 812.403 485.466C810.655 484.443 808.887 483.568 807.096 482.845C805.348 482.077 803.729 481.48 802.236 481.055C799.295 480.158 796.418 478.879 793.604 477.217C790.834 475.554 788.36 473.552 786.187 471.207C784.013 468.861 782.265 466.24 780.943 463.341C779.622 460.399 778.96 457.265 778.96 453.94C778.96 451.085 779.41 448.378 780.304 445.819C781.199 443.262 782.436 440.895 784.013 438.722C785.59 436.548 787.445 434.587 789.575 432.839C791.707 431.048 794.009 429.556 796.481 428.363C798.955 427.126 801.534 426.19 804.219 425.549C806.905 424.867 809.611 424.525 812.34 424.525C818.307 424.525 823.849 425.869 828.966 428.554C834.08 431.197 838.449 434.906 842.074 439.68ZM913.178 424.654C911.814 426.701 910.195 428.618 908.32 430.409C906.443 432.199 904.377 433.776 902.116 435.14C899.901 436.505 897.556 437.592 895.082 438.402C892.611 439.169 890.137 439.553 887.665 439.553L886.194 439.68C884.575 441.727 883.338 443.709 882.485 445.628C881.634 447.547 881.206 449.806 881.206 452.407V493.267C881.206 498.938 879.991 503.989 877.561 508.422C875.175 512.815 871.638 516.607 866.947 519.805L864.837 517.375C865.563 516.565 866.137 515.648 866.565 514.626C866.99 513.56 867.31 512.473 867.523 511.365C867.736 510.255 867.863 509.148 867.907 508.04C867.993 506.889 868.034 505.801 868.034 504.779V459.825C868.034 457.82 868.44 455.881 869.249 454.004C870.102 452.087 871.168 450.275 872.447 448.569C873.726 446.865 875.132 445.266 876.667 443.773C878.244 442.281 879.757 440.917 881.206 439.68L860.042 439.553C858.422 439.553 856.972 439.724 855.694 440.064C854.457 440.362 853.305 440.812 852.24 441.408C851.176 442.005 850.152 442.751 849.171 443.645C848.191 444.54 847.189 445.586 846.166 446.779L844.311 444.797C845.719 442.878 847.296 440.853 849.044 438.722C850.834 436.59 852.752 434.651 854.799 432.903C856.887 431.155 859.104 429.705 861.448 428.554C863.837 427.403 866.33 426.828 868.929 426.828H896.554C897.661 426.828 898.898 426.764 900.262 426.637C901.668 426.508 903.076 426.295 904.482 425.997C905.89 425.698 907.21 425.315 908.447 424.845C909.726 424.334 910.792 423.694 911.645 422.928L913.178 424.654Z" fill="white"/>
<path d="M735.665 496.217L718.527 524.012C714.662 523.33 711.081 522.733 707.785 522.22C704.544 521.709 701.334 521.227 698.151 520.772C695.024 520.374 691.812 519.946 688.517 519.492C685.219 519.037 681.667 518.499 677.86 517.873C676.381 517.589 674.903 517.389 673.426 517.276C672.005 517.105 670.556 517.02 669.077 517.02C665.952 517.02 662.938 517.445 660.041 518.299C657.198 519.152 654.47 520.487 651.856 522.306L649.213 519.492C650.406 518.47 651.429 517.247 652.282 515.827C653.135 514.406 653.844 512.898 654.413 511.307C655.039 509.659 655.494 508.011 655.777 506.363C656.061 504.713 656.203 503.151 656.203 501.674V451.369C656.203 443.411 657.596 435.993 660.381 429.116C663.166 422.239 667.003 416.269 671.891 411.211C676.836 406.096 682.633 402.089 689.284 399.19C695.99 396.234 703.238 394.755 711.025 394.755C713.526 394.755 715.941 395.041 718.271 395.608C720.603 396.178 722.647 397.087 724.41 398.337C726.228 399.588 727.678 401.207 728.758 403.197C729.839 405.187 730.377 407.629 730.377 410.529C730.377 413.086 729.895 415.56 728.929 417.946C727.962 420.335 726.627 422.608 724.921 424.767C723.273 426.928 721.341 428.945 719.124 430.82C716.965 432.639 714.692 434.289 712.303 435.766C709.915 437.245 707.473 438.494 704.972 439.518C702.471 440.541 700.112 441.337 697.895 441.905L696.53 438.665C698.464 437.529 700.452 436.221 702.498 434.744C704.602 433.265 706.507 431.646 708.211 429.884C709.915 428.065 711.309 426.104 712.389 424C713.469 421.841 714.008 419.511 714.008 417.01C714.008 415.02 713.638 413.201 712.9 411.553C712.162 409.847 711.138 408.397 709.832 407.204C708.58 406.011 707.103 405.072 705.397 404.39C703.749 403.708 701.96 403.368 700.026 403.368C695.763 403.368 692.012 404.277 688.773 406.096C685.532 407.915 682.804 410.301 680.588 413.257C678.371 416.213 676.694 419.567 675.557 423.317C674.421 427.07 673.851 430.879 673.851 434.744V489.651C673.851 491.812 673.538 493.914 672.915 495.961C672.289 497.95 671.436 499.882 670.356 501.757C669.333 503.576 668.111 505.312 666.691 506.959C665.27 508.607 663.764 510.113 662.171 511.478C663.99 510.17 665.752 508.977 667.458 507.896C669.162 506.759 670.896 505.794 672.658 504.999C674.477 504.202 676.352 503.605 678.286 503.207C680.217 502.752 682.349 502.525 684.681 502.525C687.522 502.525 690.052 502.667 692.267 502.953C694.484 503.236 696.645 503.549 698.748 503.889C700.907 504.175 703.095 504.459 705.312 504.742C707.529 505.026 710.059 505.168 712.9 505.168C714.89 505.168 716.794 504.884 718.613 504.317C720.488 503.691 722.251 502.867 723.899 501.843C725.546 500.821 727.082 499.655 728.502 498.347C729.981 496.983 731.316 495.535 732.509 494L735.665 496.217Z" fill="white"/>
</svg>
