<svg width="2525" height="479" viewBox="0 0 2525 479" fill="none" xmlns="http://www.w3.org/2000/svg">
<g clip-path="url(#clip0)">
<g filter="url(#filter0_d)">
<path d="M3.99921 46.2729C4.41379 13.0222 40.0764 -7.81051 69.2206 8.17288L296.362 132.742C310.643 140.573 319.44 155.649 319.237 171.942L316.005 431.086C315.591 464.336 279.928 485.17 250.784 469.186L23.6422 344.617C9.3619 336.785 0.56483 321.709 0.76797 305.417L3.99921 46.2729Z" fill="url(#paint0_linear)"/>
</g>
<g filter="url(#filter1_d)">
<path d="M183.102 163.272L147.461 312.889H144.075L110.127 170.046L76.0774 312.889H72.6931L37.0504 163.272L40.3359 162.476L74.3847 305.718L108.434 162.874H111.818L145.767 305.718L179.817 162.476L183.102 163.272Z" fill="white"/>
</g>
<g filter="url(#filter2_d)">
<path d="M354.339 306.848L318.764 364.579C310.74 363.163 303.307 361.922 296.463 360.86C289.738 359.798 283.071 358.794 276.463 357.85C269.974 357.023 263.307 356.138 256.462 355.194C249.62 354.25 242.244 353.127 234.339 351.829C231.271 351.238 228.203 350.825 225.136 350.589C222.186 350.235 219.176 350.057 216.109 350.057C209.62 350.057 203.366 350.943 197.348 352.714C191.448 354.485 185.784 357.259 180.357 361.037L174.869 355.194C177.348 353.068 179.471 350.529 181.241 347.579C183.011 344.627 184.487 341.499 185.666 338.193C186.964 334.77 187.909 331.345 188.497 327.922C189.088 324.498 189.382 321.251 189.382 318.182V213.7C189.382 197.172 192.274 181.766 198.055 167.481C203.837 153.195 211.802 140.8 221.949 130.292C232.215 119.667 244.25 111.344 258.056 105.323C271.979 99.1845 287.024 96.1143 303.189 96.1143C308.38 96.1143 313.396 96.7048 318.233 97.8846C323.071 99.0662 327.319 100.955 330.976 103.552C334.752 106.149 337.761 109.514 340.003 113.646C342.246 117.777 343.366 122.855 343.366 128.876C343.366 134.189 342.363 139.324 340.358 144.282C338.351 149.241 335.579 153.964 332.039 158.449C328.616 162.936 324.605 167.127 320.004 171.023C315.519 174.801 310.799 178.224 305.844 181.294C300.888 184.363 295.814 186.961 290.622 189.085C285.431 191.211 280.533 192.863 275.932 194.044L273.1 187.314C277.113 184.953 281.242 182.238 285.49 179.168C289.856 176.099 293.808 172.734 297.348 169.075C300.888 165.297 303.779 161.223 306.02 156.856C308.263 152.369 309.383 147.529 309.383 142.334C309.383 138.202 308.617 134.424 307.082 131.001C305.548 127.459 303.425 124.448 300.712 121.969C298.115 119.49 295.047 117.542 291.507 116.125C288.085 114.709 284.368 114 280.357 114C271.507 114 263.72 115.889 256.993 119.667C250.268 123.444 244.604 128.404 240.002 134.542C235.401 140.682 231.92 147.647 229.56 155.439C227.2 163.231 226.021 171.14 226.021 179.168V293.213C226.021 297.698 225.371 302.067 224.074 306.317C222.776 310.449 221.005 314.463 218.763 318.36C216.64 322.138 214.103 325.738 211.152 329.162C208.204 332.585 205.076 335.714 201.772 338.547C205.548 335.832 209.205 333.353 212.746 331.11C216.285 328.749 219.885 326.741 223.542 325.088C227.318 323.436 231.212 322.195 235.224 321.369C239.236 320.425 243.66 319.953 248.498 319.953C254.398 319.953 259.649 320.248 264.251 320.838C268.852 321.428 273.336 322.078 277.701 322.786C282.186 323.377 286.728 323.967 291.33 324.557C295.932 325.147 301.183 325.443 307.082 325.443C311.212 325.443 315.166 324.853 318.941 323.672C322.836 322.373 326.493 320.661 329.915 318.536C333.336 316.411 336.523 313.991 339.472 311.276C342.54 308.443 345.313 305.432 347.791 302.245L354.339 306.848Z" fill="#0F2027"/>
</g>
</g>
<g filter="url(#filter3_d)">
<g filter="url(#filter4_d)">
<path d="M793.084 127.9L729.37 395.184H723.319L662.631 140.001L601.765 395.184H595.714L532 127.9L537.873 126.477L598.739 382.371L659.606 127.189H665.657L726.345 382.371L787.211 126.477L793.084 127.9ZM869.79 395.184V127.189H875.485V251.933H1061.11V127.189H1066.98V395.184H1061.11V257.805H875.485V395.184H869.79ZM1169.14 395.184V127.189H1174.83V395.184H1169.14ZM1327.89 395.184V130.214H1241.57V124.342H1420.26V130.214H1333.76V395.184H1327.89ZM1592 257.805H1492.69V392.158H1655.71V397.675H1486.99V124.342H1655.71V130.214H1492.69V251.933H1592V257.805Z" fill="url(#paint1_linear)"/>
</g>
<g filter="url(#filter5_d)">
<path d="M2071.08 359.72L2031.93 373.711V102.958L2071.08 88.9669V359.72ZM2308.2 134.723L2276.43 173.105C2273.66 164.785 2270.07 156.844 2265.66 149.282C2261.24 141.718 2256.01 135.101 2249.96 129.429C2243.91 123.757 2237.04 119.219 2229.35 115.816C2221.66 112.412 2213.08 110.711 2203.63 110.711C2196.82 110.711 2190.52 111.971 2184.72 114.492C2178.92 116.887 2173.81 120.29 2169.4 124.702C2165.12 128.987 2161.71 134.092 2159.19 140.017C2156.8 145.941 2155.6 152.306 2155.6 159.113C2155.6 166.172 2156.93 172.79 2159.57 178.966C2162.22 185.142 2165.75 190.752 2170.16 195.793C2174.58 200.709 2179.61 204.995 2185.29 208.65C2191.09 212.306 2197.07 215.142 2203.25 217.159C2209.43 219.302 2215.92 221.697 2222.73 224.343C2229.54 226.991 2236.22 230.079 2242.78 233.608C2249.33 237.138 2255.57 241.108 2261.49 245.52C2267.42 249.805 2272.65 254.658 2277.19 260.079C2281.72 265.499 2285.32 271.549 2287.97 278.229C2290.61 284.784 2291.94 291.969 2291.94 299.784C2291.94 311.128 2289.42 321.338 2284.37 330.414C2279.46 339.363 2272.96 346.926 2264.9 353.103C2256.83 359.279 2247.56 364.006 2237.1 367.283C2226.77 370.56 2216.24 372.199 2205.52 372.199C2198.21 372.199 2190.77 371.128 2183.21 368.985C2175.77 366.842 2168.58 363.943 2161.65 360.287C2154.84 356.506 2148.41 352.157 2142.36 347.241C2136.44 342.325 2131.27 337.031 2126.86 331.359L2157.49 296.191C2159.38 302.242 2162.66 308.67 2167.33 315.477C2172.12 322.284 2177.66 328.586 2183.97 334.384C2190.27 340.183 2197.01 345.036 2204.2 348.943C2211.51 352.724 2218.57 354.615 2225.38 354.615C2229.28 354.615 2233.32 353.607 2237.48 351.59C2241.64 349.573 2245.42 346.989 2248.83 343.838C2252.35 340.561 2255.25 337.031 2257.52 333.25C2259.79 329.468 2260.93 325.75 2260.93 322.095C2260.93 316.548 2259.79 311.317 2257.52 306.401C2255.25 301.36 2252.23 296.633 2248.45 292.221C2244.79 287.809 2240.51 283.776 2235.59 280.12C2230.8 276.339 2225.75 272.999 2220.46 270.099C2215.29 267.074 2210.06 264.49 2204.76 262.347C2199.6 260.079 2194.8 258.314 2190.39 257.053C2181.7 254.406 2173.19 250.625 2164.87 245.709C2156.67 240.793 2149.36 234.869 2142.93 227.936C2136.5 221.003 2131.33 213.251 2127.42 204.68C2123.52 195.982 2121.57 186.718 2121.57 176.886C2121.57 168.441 2122.89 160.437 2125.53 152.874C2128.18 145.311 2131.84 138.315 2136.5 131.887C2141.17 125.458 2146.65 119.66 2152.95 114.492C2159.26 109.198 2166.06 104.786 2173.38 101.257C2180.69 97.6015 2188.31 94.8285 2196.26 92.9375C2204.2 90.9208 2212.2 89.9126 2220.27 89.9126C2237.92 89.9126 2254.31 93.8828 2269.44 101.824C2284.56 109.639 2297.48 120.605 2308.2 134.723ZM2518.47 90.2907C2514.44 96.341 2509.65 102.013 2504.1 107.307C2498.56 112.601 2492.44 117.265 2485.76 121.299C2479.2 125.332 2472.27 128.546 2464.96 130.941C2457.65 133.21 2450.34 134.345 2443.02 134.345L2438.68 134.723C2433.88 140.773 2430.23 146.634 2427.71 152.306C2425.19 157.979 2423.92 164.659 2423.92 172.349V293.167C2423.92 309.931 2420.33 324.868 2413.15 337.977C2406.09 350.96 2395.63 362.178 2381.76 371.632L2375.52 364.447C2377.66 362.052 2379.36 359.342 2380.62 356.317C2381.89 353.165 2382.83 349.951 2383.46 346.674C2384.09 343.397 2384.47 340.12 2384.6 336.842C2384.85 333.439 2384.97 330.225 2384.97 327.2V194.281C2384.97 188.357 2386.17 182.621 2388.56 177.075C2391.08 171.403 2394.24 166.046 2398.02 161.004C2401.8 155.962 2405.96 151.235 2410.5 146.823C2415.16 142.412 2419.64 138.378 2423.92 134.723L2361.34 134.345C2356.54 134.345 2352.26 134.849 2348.48 135.857C2344.82 136.74 2341.42 138.063 2338.27 139.828C2335.11 141.593 2332.09 143.798 2329.19 146.445C2326.29 149.092 2323.33 152.181 2320.3 155.71L2314.82 149.849C2318.98 144.177 2323.64 138.189 2328.81 131.887C2334.11 125.584 2339.78 119.849 2345.83 114.681C2352.01 109.513 2358.56 105.228 2365.5 101.824C2372.55 98.4206 2379.93 96.7191 2387.62 96.7191H2469.31C2472.59 96.7191 2476.24 96.53 2480.27 96.1519C2484.44 95.7738 2488.6 95.1433 2492.76 94.2609C2496.92 93.379 2500.83 92.2442 2504.48 90.8579C2508.26 89.345 2511.41 87.4545 2513.93 85.1858L2518.47 90.2907Z" fill="url(#paint2_linear)"/>
</g>
<g filter="url(#filter6_d)">
<path d="M1979.69 319.643L1926.03 406.661C1913.93 404.526 1902.71 402.657 1892.39 401.056C1882.25 399.454 1872.19 397.942 1862.23 396.518C1852.44 395.272 1842.38 393.938 1832.06 392.514C1821.74 391.091 1810.62 389.4 1798.69 387.443C1794.07 386.553 1789.44 385.93 1784.81 385.574C1780.36 385.04 1775.82 384.773 1771.19 384.773C1761.41 384.773 1751.97 386.108 1742.9 388.778C1734 391.447 1725.46 395.629 1717.27 401.323L1709 392.514C1712.73 389.311 1715.93 385.485 1718.6 381.036C1721.27 376.588 1723.5 371.872 1725.28 366.889C1727.24 361.728 1728.66 356.568 1729.55 351.407C1730.44 346.247 1730.89 341.353 1730.89 336.727V179.24C1730.89 154.326 1735.25 131.104 1743.97 109.572C1752.69 88.0394 1764.7 69.3548 1780.01 53.5169C1795.49 37.5013 1813.64 24.9557 1834.46 15.8802C1855.46 6.62673 1878.16 2 1902.54 2C1910.37 2 1917.93 2.88976 1925.23 4.66926C1932.52 6.44879 1938.94 9.29601 1944.45 13.2109C1950.15 17.1259 1954.69 22.1975 1958.07 28.4258C1961.45 34.6541 1963.14 42.306 1963.14 51.3813C1963.14 59.3895 1961.62 67.1303 1958.6 74.6041C1955.57 82.078 1951.39 89.196 1946.05 95.9583C1940.89 102.721 1934.84 109.038 1927.9 114.91C1921.13 120.605 1914.02 125.765 1906.54 130.392C1899.07 135.019 1891.42 138.934 1883.58 142.137C1875.75 145.34 1868.37 147.831 1861.43 149.611L1857.15 139.467C1863.21 135.908 1869.44 131.816 1875.84 127.189C1882.43 122.562 1888.39 117.491 1893.73 111.974C1899.07 106.279 1903.43 100.14 1906.81 93.5562C1910.19 86.7939 1911.88 79.4977 1911.88 71.6681C1911.88 65.4397 1910.72 59.7453 1908.41 54.5847C1906.1 49.2461 1902.89 44.7083 1898.8 40.9713C1894.89 37.2344 1890.26 34.2982 1884.92 32.1628C1879.76 30.0273 1874.15 28.9597 1868.1 28.9597C1854.75 28.9597 1843.01 31.8069 1832.86 37.5013C1822.72 43.1957 1814.18 50.6697 1807.23 59.9229C1800.29 69.1766 1795.05 79.6758 1791.48 91.4205C1787.92 103.165 1786.14 115.088 1786.14 127.189V299.09C1786.14 305.852 1785.17 312.436 1783.21 318.842C1781.25 325.071 1778.58 331.121 1775.2 336.994C1772 342.688 1768.17 348.116 1763.72 353.276C1759.27 358.437 1754.56 363.153 1749.57 367.423C1755.27 363.33 1760.78 359.593 1766.12 356.212C1771.46 352.653 1776.89 349.628 1782.41 347.137C1788.1 344.645 1793.97 342.777 1800.03 341.531C1806.08 340.108 1812.75 339.396 1820.05 339.396C1828.95 339.396 1836.87 339.841 1843.81 340.731C1850.75 341.62 1857.51 342.599 1864.1 343.667C1870.86 344.556 1877.71 345.446 1884.65 346.336C1891.59 347.226 1899.51 347.671 1908.41 347.671C1914.64 347.671 1920.6 346.781 1926.3 345.001C1932.17 343.044 1937.69 340.464 1942.85 337.261C1948.01 334.057 1952.82 330.409 1957.26 326.316C1961.89 322.045 1966.08 317.508 1969.81 312.703L1979.69 319.643Z" fill="url(#paint3_linear)"/>
</g>
</g>
<defs>
<filter id="filter0_d" x="-0.235474" y="1.68744" width="326.476" height="479.984" filterUnits="userSpaceOnUse" color-interpolation-filters="sRGB">
<feFlood flood-opacity="0" result="BackgroundImageFix"/>
<feColorMatrix in="SourceAlpha" type="matrix" values="0 0 0 0 0 0 0 0 0 0 0 0 0 0 0 0 0 0 127 0" result="hardAlpha"/>
<feOffset dx="3" dy="3"/>
<feGaussianBlur stdDeviation="2"/>
<feColorMatrix type="matrix" values="0 0 0 0 1 0 0 0 0 1 0 0 0 0 1 0 0 0 0.25 0"/>
<feBlend mode="normal" in2="BackgroundImageFix" result="effect1_dropShadow"/>
<feBlend mode="normal" in="SourceGraphic" in2="effect1_dropShadow" result="shape"/>
</filter>
<filter id="filter1_d" x="36.0504" y="161.476" width="154.051" height="158.413" filterUnits="userSpaceOnUse" color-interpolation-filters="sRGB">
<feFlood flood-opacity="0" result="BackgroundImageFix"/>
<feColorMatrix in="SourceAlpha" type="matrix" values="0 0 0 0 0 0 0 0 0 0 0 0 0 0 0 0 0 0 127 0" result="hardAlpha"/>
<feOffset dx="3" dy="3"/>
<feGaussianBlur stdDeviation="2"/>
<feColorMatrix type="matrix" values="0 0 0 0 1 0 0 0 0 1 0 0 0 0 1 0 0 0 0.25 0"/>
<feBlend mode="normal" in2="BackgroundImageFix" result="effect1_dropShadow"/>
<feBlend mode="normal" in="SourceGraphic" in2="effect1_dropShadow" result="shape"/>
</filter>
<filter id="filter2_d" x="173.869" y="95.1143" width="187.47" height="276.465" filterUnits="userSpaceOnUse" color-interpolation-filters="sRGB">
<feFlood flood-opacity="0" result="BackgroundImageFix"/>
<feColorMatrix in="SourceAlpha" type="matrix" values="0 0 0 0 0 0 0 0 0 0 0 0 0 0 0 0 0 0 127 0" result="hardAlpha"/>
<feOffset dx="3" dy="3"/>
<feGaussianBlur stdDeviation="2"/>
<feColorMatrix type="matrix" values="0 0 0 0 1 0 0 0 0 1 0 0 0 0 1 0 0 0 0.25 0"/>
<feBlend mode="normal" in2="BackgroundImageFix" result="effect1_dropShadow"/>
<feBlend mode="normal" in="SourceGraphic" in2="effect1_dropShadow" result="shape"/>
</filter>
<filter id="filter3_d" x="530" y="0" width="1994.47" height="412.661" filterUnits="userSpaceOnUse" color-interpolation-filters="sRGB">
<feFlood flood-opacity="0" result="BackgroundImageFix"/>
<feColorMatrix in="SourceAlpha" type="matrix" values="0 0 0 0 0 0 0 0 0 0 0 0 0 0 0 0 0 0 127 0" result="hardAlpha"/>
<feOffset dx="2" dy="2"/>
<feGaussianBlur stdDeviation="2"/>
<feComposite in2="hardAlpha" operator="out"/>
<feColorMatrix type="matrix" values="0 0 0 0 0.458333 0 0 0 0 0.458333 0 0 0 0 0.458333 0 0 0 0.25 0"/>
<feBlend mode="normal" in2="BackgroundImageFix" result="effect1_dropShadow"/>
<feBlend mode="normal" in="SourceGraphic" in2="effect1_dropShadow" result="shape"/>
</filter>
<filter id="filter4_d" x="528" y="124.342" width="1131.71" height="281.333" filterUnits="userSpaceOnUse" color-interpolation-filters="sRGB">
<feFlood flood-opacity="0" result="BackgroundImageFix"/>
<feColorMatrix in="SourceAlpha" type="matrix" values="0 0 0 0 0 0 0 0 0 0 0 0 0 0 0 0 0 0 127 0" result="hardAlpha"/>
<feOffset dy="4"/>
<feGaussianBlur stdDeviation="2"/>
<feColorMatrix type="matrix" values="0 0 0 0 0.841667 0 0 0 0 0.841667 0 0 0 0 0.841667 0 0 0 1 0"/>
<feBlend mode="normal" in2="BackgroundImageFix" result="effect1_dropShadow"/>
<feBlend mode="normal" in="SourceGraphic" in2="effect1_dropShadow" result="shape"/>
</filter>
<filter id="filter5_d" x="2027.93" y="85.1858" width="494.537" height="296.526" filterUnits="userSpaceOnUse" color-interpolation-filters="sRGB">
<feFlood flood-opacity="0" result="BackgroundImageFix"/>
<feColorMatrix in="SourceAlpha" type="matrix" values="0 0 0 0 0 0 0 0 0 0 0 0 0 0 0 0 0 0 127 0" result="hardAlpha"/>
<feOffset dy="4"/>
<feGaussianBlur stdDeviation="2"/>
<feColorMatrix type="matrix" values="0 0 0 0 0.841667 0 0 0 0 0.841667 0 0 0 0 0.841667 0 0 0 1 0"/>
<feBlend mode="normal" in2="BackgroundImageFix" result="effect1_dropShadow"/>
<feBlend mode="normal" in="SourceGraphic" in2="effect1_dropShadow" result="shape"/>
</filter>
<filter id="filter6_d" x="1705" y="2" width="278.694" height="412.661" filterUnits="userSpaceOnUse" color-interpolation-filters="sRGB">
<feFlood flood-opacity="0" result="BackgroundImageFix"/>
<feColorMatrix in="SourceAlpha" type="matrix" values="0 0 0 0 0 0 0 0 0 0 0 0 0 0 0 0 0 0 127 0" result="hardAlpha"/>
<feOffset dy="4"/>
<feGaussianBlur stdDeviation="2"/>
<feColorMatrix type="matrix" values="0 0 0 0 0.841667 0 0 0 0 0.841667 0 0 0 0 0.841667 0 0 0 1 0"/>
<feBlend mode="normal" in2="BackgroundImageFix" result="effect1_dropShadow"/>
<feBlend mode="normal" in="SourceGraphic" in2="effect1_dropShadow" result="shape"/>
</filter>
<linearGradient id="paint0_linear" x1="160.002" y1="2.68744" x2="160.002" y2="474.671" gradientUnits="userSpaceOnUse">
<stop stop-color="#2C5364"/>
<stop offset="0.534375" stop-color="#203A43" stop-opacity="0.465625"/>
<stop offset="1" stop-color="#0F2027" stop-opacity="0"/>
</linearGradient>
<linearGradient id="paint1_linear" x1="1656" y1="124" x2="627" y2="124" gradientUnits="userSpaceOnUse">
<stop stop-color="#2C5364"/>
<stop offset="0.508333" stop-color="#203A43"/>
<stop offset="1" stop-color="#0F2027"/>
</linearGradient>
<linearGradient id="paint2_linear" x1="2275.2" y1="85.1858" x2="2504.52" y2="85.1251" gradientUnits="userSpaceOnUse">
<stop stop-color="#2C5364"/>
<stop offset="0.508333" stop-color="#203A43"/>
<stop offset="1" stop-color="#0F2027"/>
</linearGradient>
<linearGradient id="paint3_linear" x1="1844.34" y1="1.99996" x2="1971.93" y2="1.98656" gradientUnits="userSpaceOnUse">
<stop stop-color="#2C5364"/>
<stop offset="0.508333" stop-color="#203A43"/>
<stop offset="1" stop-color="#0F2027"/>
</linearGradient>
<clipPath id="clip0">
<rect width="359" height="477" fill="white" transform="translate(0 2)"/>
</clipPath>
</defs>
</svg>
