<svg width="1996" height="413" viewBox="0 0 1996 413" fill="none" xmlns="http://www.w3.org/2000/svg">
<g filter="url(#filter0_d)">
<path d="M265.753 126.05L202.04 393.333H195.989L135.301 138.151L74.4342 393.333H68.3833L4.66968 126.05L10.5427 124.627L71.409 380.521L132.275 125.339H138.326L199.014 380.521L259.881 124.627L265.753 126.05ZM342.459 393.333V125.339H348.154V250.083H533.779V125.339H539.652V393.333H533.779V255.955H348.154V393.333H342.459ZM641.808 393.333V125.339H647.503V393.333H641.808ZM800.555 393.333V128.364H714.241V122.491H892.925V128.364H806.428V393.333H800.555ZM1064.67 255.955H965.357V390.308H1128.38V395.825H959.662V122.491H1128.38V128.364H965.357V250.083H1064.67V255.955Z" fill="white"/>
</g>
<g filter="url(#filter1_d)">
<path d="M1543.75 357.87L1504.6 371.861V101.108L1543.75 87.1167V357.87ZM1780.87 132.873L1749.1 171.255C1746.33 162.935 1742.74 154.994 1738.33 147.431C1733.91 139.868 1728.68 133.251 1722.63 127.579C1716.58 121.907 1709.71 117.369 1702.02 113.965C1694.33 110.562 1685.75 108.86 1676.3 108.86C1669.49 108.86 1663.19 110.121 1657.39 112.642C1651.59 115.037 1646.48 118.44 1642.07 122.852C1637.79 127.137 1634.38 132.242 1631.86 138.167C1629.47 144.091 1628.27 150.456 1628.27 157.263C1628.27 164.322 1629.59 170.939 1632.24 177.116C1634.89 183.292 1638.42 188.901 1642.83 193.943C1647.25 198.859 1652.28 203.145 1657.96 206.8C1663.76 210.456 1669.74 213.292 1675.92 215.309C1682.1 217.452 1688.59 219.846 1695.4 222.493C1702.2 225.14 1708.89 228.229 1715.44 231.758C1722 235.287 1728.24 239.258 1734.16 243.67C1740.09 247.955 1745.32 252.808 1749.86 258.228C1754.39 263.649 1757.99 269.699 1760.64 276.379C1763.28 282.934 1764.61 290.119 1764.61 297.934C1764.61 309.278 1762.09 319.488 1757.04 328.563C1752.13 337.513 1745.63 345.076 1737.57 351.252C1729.5 357.429 1720.23 362.156 1709.77 365.433C1699.43 368.71 1688.91 370.349 1678.19 370.349C1670.88 370.349 1663.44 369.277 1655.88 367.134C1648.44 364.991 1641.25 362.093 1634.32 358.437C1627.51 354.656 1621.08 350.307 1615.03 345.391C1609.11 340.475 1603.94 335.181 1599.53 329.509L1630.16 294.341C1632.05 300.391 1635.33 306.82 1640 313.627C1644.78 320.434 1650.33 326.736 1656.64 332.534C1662.94 338.332 1669.68 343.185 1676.87 347.093C1684.18 350.874 1691.24 352.765 1698.05 352.765C1701.95 352.765 1705.99 351.757 1710.15 349.74C1714.31 347.723 1718.09 345.139 1721.5 341.988C1725.02 338.71 1727.92 335.181 1730.19 331.4C1732.46 327.618 1733.6 323.9 1733.6 320.244C1733.6 314.698 1732.46 309.467 1730.19 304.551C1727.92 299.509 1724.9 294.783 1721.12 290.371C1717.46 285.959 1713.18 281.925 1708.26 278.27C1703.47 274.488 1698.42 271.148 1693.13 268.249C1687.96 265.224 1682.73 262.64 1677.43 260.497C1672.27 258.228 1667.47 256.464 1663.06 255.203C1654.37 252.556 1645.86 248.775 1637.54 243.859C1629.34 238.943 1622.03 233.018 1615.6 226.086C1609.17 219.153 1604 211.401 1600.09 202.83C1596.19 194.132 1594.24 184.868 1594.24 175.036C1594.24 166.591 1595.56 158.587 1598.2 151.024C1600.85 143.461 1604.51 136.465 1609.17 130.036C1613.84 123.608 1619.32 117.81 1625.62 112.642C1631.93 107.348 1638.73 102.936 1646.05 99.4066C1653.35 95.7513 1660.98 92.9783 1668.93 91.0873C1676.87 89.0705 1684.87 88.0624 1692.94 88.0624C1710.59 88.0624 1726.98 92.0326 1742.11 99.9738C1757.23 107.789 1770.15 118.755 1780.87 132.873ZM1991.14 88.4405C1987.11 94.4907 1982.32 100.163 1976.77 105.457C1971.23 110.751 1965.11 115.415 1958.43 119.448C1951.87 123.482 1944.94 126.696 1937.63 129.091C1930.32 131.36 1923.01 132.495 1915.69 132.495L1911.35 132.873C1906.55 138.923 1902.9 144.784 1900.38 150.456C1897.86 156.129 1896.59 162.809 1896.59 170.498V291.316C1896.59 308.081 1893 323.017 1885.82 336.127C1878.76 349.109 1868.3 360.328 1854.43 369.782L1848.19 362.597C1850.33 360.202 1852.03 357.492 1853.29 354.467C1854.56 351.315 1855.5 348.101 1856.13 344.824C1856.76 341.547 1857.14 338.269 1857.27 334.992C1857.52 331.589 1857.64 328.374 1857.64 325.349V192.431C1857.64 186.507 1858.84 180.771 1861.23 175.225C1863.75 169.553 1866.91 164.196 1870.69 159.154C1874.47 154.112 1878.63 149.385 1883.17 144.973C1887.83 140.562 1892.31 136.528 1896.59 132.873L1834.01 132.495C1829.21 132.495 1824.93 132.999 1821.15 134.007C1817.49 134.889 1814.09 136.213 1810.94 137.978C1807.78 139.742 1804.76 141.948 1801.86 144.595C1798.96 147.242 1796 150.33 1792.97 153.86L1787.49 147.998C1791.65 142.326 1796.31 136.339 1801.48 130.036C1806.78 123.734 1812.45 117.999 1818.5 112.831C1824.68 107.663 1831.23 103.377 1838.17 99.9738C1845.22 96.5704 1852.6 94.8689 1860.29 94.8689H1941.98C1945.26 94.8689 1948.91 94.6798 1952.94 94.3017C1957.11 93.9236 1961.27 93.2931 1965.43 92.4107C1969.59 91.5287 1973.5 90.3939 1977.15 89.0077C1980.93 87.4948 1984.08 85.6042 1986.6 83.3356L1991.14 88.4405Z" fill="white"/>
</g>
<g filter="url(#filter2_d)">
<path d="M1452.36 317.793L1398.7 404.811C1386.6 402.676 1375.38 400.807 1365.06 399.206C1354.92 397.604 1344.86 396.092 1334.9 394.668C1325.11 393.422 1315.05 392.088 1304.73 390.664C1294.41 389.241 1283.29 387.55 1271.36 385.592C1266.74 384.703 1262.11 384.08 1257.48 383.724C1253.03 383.19 1248.49 382.923 1243.86 382.923C1234.08 382.923 1224.64 384.258 1215.57 386.927C1206.67 389.596 1198.13 393.778 1189.94 399.473L1181.66 390.664C1185.4 387.461 1188.6 383.635 1191.27 379.186C1193.94 374.738 1196.17 370.022 1197.95 365.039C1199.91 359.878 1201.33 354.718 1202.22 349.557C1203.11 344.397 1203.56 339.503 1203.56 334.876V177.39C1203.56 152.476 1207.92 129.253 1216.64 107.721C1225.36 86.1891 1237.37 67.5045 1252.68 51.6667C1268.16 35.6511 1286.31 23.1055 1307.13 14.03C1328.13 4.77648 1350.83 0.14975 1375.21 0.14975C1383.04 0.14975 1390.6 1.03951 1397.9 2.819C1405.19 4.59854 1411.6 7.44576 1417.12 11.3607C1422.82 15.2756 1427.36 20.3472 1430.74 26.5755C1434.12 32.8038 1435.81 40.4557 1435.81 49.531C1435.81 57.5392 1434.29 65.28 1431.27 72.7539C1428.24 80.2277 1424.06 87.3458 1418.72 94.1081C1413.56 100.87 1407.51 107.188 1400.57 113.06C1393.8 118.755 1386.69 123.915 1379.21 128.542C1371.74 133.168 1364.09 137.083 1356.25 140.286C1348.42 143.489 1341.04 145.981 1334.1 147.761L1329.82 137.617C1335.88 134.058 1342.11 129.965 1348.51 125.339C1355.1 120.712 1361.06 115.64 1366.4 110.124C1371.74 104.429 1376.1 98.2901 1379.48 91.7059C1382.86 84.9436 1384.55 77.6475 1384.55 69.8178C1384.55 63.5895 1383.39 57.895 1381.08 52.7345C1378.77 47.3958 1375.56 42.8581 1371.47 39.1211C1367.56 35.3841 1362.93 32.4479 1357.59 30.3125C1352.43 28.1771 1346.82 27.1094 1340.77 27.1094C1327.42 27.1094 1315.68 29.9566 1305.53 35.6511C1295.39 41.3455 1286.85 48.8195 1279.9 58.0727C1272.96 67.3264 1267.72 77.8256 1264.15 89.5703C1260.59 101.315 1258.81 113.238 1258.81 125.339V297.239C1258.81 304.002 1257.84 310.586 1255.88 316.992C1253.92 323.221 1251.25 329.271 1247.87 335.143C1244.67 340.838 1240.84 346.265 1236.39 351.426C1231.94 356.586 1227.23 361.302 1222.24 365.573C1227.94 361.48 1233.45 357.743 1238.79 354.362C1244.13 350.803 1249.56 347.778 1255.08 345.286C1260.77 342.795 1266.64 340.927 1272.7 339.681C1278.75 338.258 1285.42 337.546 1292.72 337.546C1301.62 337.546 1309.54 337.991 1316.48 338.88C1323.42 339.77 1330.18 340.749 1336.77 341.816C1343.53 342.706 1350.38 343.596 1357.32 344.485C1364.26 345.376 1372.18 345.82 1381.08 345.82C1387.31 345.82 1393.27 344.931 1398.97 343.151C1404.84 341.194 1410.36 338.613 1415.52 335.41C1420.68 332.207 1425.49 328.559 1429.93 324.466C1434.56 320.195 1438.75 315.657 1442.48 310.853L1452.36 317.793Z" fill="white"/>
</g>
<defs>
<filter id="filter0_d" x="0.669678" y="122.491" width="1131.71" height="281.333" filterUnits="userSpaceOnUse" color-interpolation-filters="sRGB">
<feFlood flood-opacity="0" result="BackgroundImageFix"/>
<feColorMatrix in="SourceAlpha" type="matrix" values="0 0 0 0 0 0 0 0 0 0 0 0 0 0 0 0 0 0 127 0"/>
<feOffset dy="4"/>
<feGaussianBlur stdDeviation="2"/>
<feColorMatrix type="matrix" values="0 0 0 0 0 0 0 0 0 0 0 0 0 0 0 0 0 0 0.25 0"/>
<feBlend mode="normal" in2="BackgroundImageFix" result="effect1_dropShadow"/>
<feBlend mode="normal" in="SourceGraphic" in2="effect1_dropShadow" result="shape"/>
</filter>
<filter id="filter1_d" x="1500.6" y="83.3356" width="494.537" height="296.526" filterUnits="userSpaceOnUse" color-interpolation-filters="sRGB">
<feFlood flood-opacity="0" result="BackgroundImageFix"/>
<feColorMatrix in="SourceAlpha" type="matrix" values="0 0 0 0 0 0 0 0 0 0 0 0 0 0 0 0 0 0 127 0"/>
<feOffset dy="4"/>
<feGaussianBlur stdDeviation="2"/>
<feColorMatrix type="matrix" values="0 0 0 0 0 0 0 0 0 0 0 0 0 0 0 0 0 0 0.25 0"/>
<feBlend mode="normal" in2="BackgroundImageFix" result="effect1_dropShadow"/>
<feBlend mode="normal" in="SourceGraphic" in2="effect1_dropShadow" result="shape"/>
</filter>
<filter id="filter2_d" x="1177.66" y="0.14975" width="278.694" height="412.661" filterUnits="userSpaceOnUse" color-interpolation-filters="sRGB">
<feFlood flood-opacity="0" result="BackgroundImageFix"/>
<feColorMatrix in="SourceAlpha" type="matrix" values="0 0 0 0 0 0 0 0 0 0 0 0 0 0 0 0 0 0 127 0"/>
<feOffset dy="4"/>
<feGaussianBlur stdDeviation="2"/>
<feColorMatrix type="matrix" values="0 0 0 0 0 0 0 0 0 0 0 0 0 0 0 0 0 0 0.25 0"/>
<feBlend mode="normal" in2="BackgroundImageFix" result="effect1_dropShadow"/>
<feBlend mode="normal" in="SourceGraphic" in2="effect1_dropShadow" result="shape"/>
</filter>
</defs>
</svg>
