<svg width="611" height="811" viewBox="0 0 611 811" fill="none" xmlns="http://www.w3.org/2000/svg">
<g filter="url(#filter0_d)">
<path d="M6.80653 75.2732C7.51213 18.74 68.2081 -16.6799 117.81 10.4952L504.393 222.289C528.699 235.604 543.67 261.236 543.325 288.937L537.824 729.536C537.12 786.068 476.424 821.49 426.821 794.314L40.238 582.521C15.9336 569.205 0.961397 543.573 1.30713 515.872L6.80653 75.2732Z" fill="url(#paint0_linear)"/>
</g>
<g filter="url(#filter1_d)">
<path d="M311.63 274.196L250.971 528.577H245.208L187.43 285.713L129.48 528.577H123.72L63.058 274.196L68.6497 272.843L126.599 516.384L184.549 273.52H190.309L248.089 516.384L306.039 272.843L311.63 274.196Z" fill="black"/>
</g>
<g filter="url(#filter2_d)">
<path d="M603.068 518.306L542.52 616.461C528.864 614.052 516.213 611.943 504.566 610.138C493.119 608.331 481.772 606.625 470.526 605.019C459.482 603.614 448.135 602.109 436.486 600.503C424.84 598.898 412.287 596.99 398.833 594.782C393.612 593.778 388.39 593.076 383.17 592.674C378.149 592.072 373.027 591.77 367.807 591.77C356.762 591.77 346.118 593.277 335.877 596.288C325.835 599.298 316.195 604.015 306.958 610.438L297.619 600.503C301.837 596.889 305.45 592.573 308.464 587.556C311.476 582.538 313.987 577.219 315.994 571.599C318.204 565.778 319.811 559.956 320.813 554.135C321.818 548.315 322.319 542.793 322.319 537.576V359.935C322.319 331.833 327.24 305.64 337.08 281.352C346.921 257.064 360.476 235.989 377.746 218.124C395.219 200.058 415.702 185.908 439.198 175.671C462.894 165.234 488.501 160.014 516.012 160.014C524.848 160.014 533.384 161.018 541.616 163.024C549.85 165.033 557.08 168.244 563.305 172.659C569.731 177.076 574.853 182.797 578.668 189.822C582.485 196.846 584.391 205.479 584.391 215.716C584.391 224.749 582.684 233.48 579.272 241.909C575.857 250.341 571.138 258.37 565.113 265.996C559.288 273.625 552.461 280.75 544.63 287.374C536.998 293.798 528.965 299.617 520.531 304.837C512.096 310.055 503.461 314.472 494.625 318.084C485.789 321.698 477.454 324.507 469.622 326.515L464.803 315.073C471.632 311.059 478.66 306.443 485.889 301.223C493.32 296.005 500.046 290.284 506.072 284.062C512.096 277.639 517.016 270.713 520.831 263.288C524.648 255.659 526.555 247.429 526.555 238.597C526.555 231.572 525.25 225.149 522.639 219.328C520.028 213.307 516.414 208.188 511.796 203.972C507.377 199.758 502.156 196.446 496.131 194.037C490.306 191.629 483.981 190.423 477.154 190.423C462.091 190.423 448.838 193.635 437.39 200.058C425.943 206.481 416.304 214.913 408.472 225.35C400.641 235.788 394.716 247.63 390.699 260.879C386.683 274.126 384.676 287.574 384.676 301.223V495.123C384.676 502.749 383.57 510.177 381.362 517.403C379.153 524.428 376.139 531.253 372.324 537.878C368.711 544.301 364.392 550.422 359.371 556.244C354.352 562.063 349.029 567.383 343.406 572.201C349.832 567.585 356.057 563.369 362.083 559.556C368.107 555.541 374.233 552.128 380.458 549.317C386.884 546.508 393.512 544.399 400.339 542.995C407.168 541.389 414.697 540.586 422.931 540.586C432.973 540.586 441.91 541.089 449.742 542.091C457.573 543.095 465.205 544.2 472.634 545.403C480.266 546.408 487.997 547.412 495.829 548.414C503.662 549.418 512.599 549.921 522.639 549.921C529.667 549.921 536.396 548.917 542.822 546.909C549.45 544.701 555.674 541.791 561.499 538.177C567.321 534.565 572.745 530.45 577.764 525.834C582.986 521.017 587.705 515.898 591.923 510.479L603.068 518.306Z" fill="#444444"/>
</g>
<defs>
<filter id="filter0_d" x="0.30127" y="0.168808" width="550.03" height="810.472" filterUnits="userSpaceOnUse" color-interpolation-filters="sRGB">
<feFlood flood-opacity="0" result="BackgroundImageFix"/>
<feColorMatrix in="SourceAlpha" type="matrix" values="0 0 0 0 0 0 0 0 0 0 0 0 0 0 0 0 0 0 127 0"/>
<feOffset dx="3" dy="3"/>
<feGaussianBlur stdDeviation="2"/>
<feColorMatrix type="matrix" values="0 0 0 0 1 0 0 0 0 1 0 0 0 0 1 0 0 0 0.25 0"/>
<feBlend mode="normal" in2="BackgroundImageFix" result="effect1_dropShadow"/>
<feBlend mode="normal" in="SourceGraphic" in2="effect1_dropShadow" result="shape"/>
</filter>
<filter id="filter1_d" x="62.058" y="271.843" width="256.572" height="263.734" filterUnits="userSpaceOnUse" color-interpolation-filters="sRGB">
<feFlood flood-opacity="0" result="BackgroundImageFix"/>
<feColorMatrix in="SourceAlpha" type="matrix" values="0 0 0 0 0 0 0 0 0 0 0 0 0 0 0 0 0 0 127 0"/>
<feOffset dx="3" dy="3"/>
<feGaussianBlur stdDeviation="2"/>
<feColorMatrix type="matrix" values="0 0 0 0 1 0 0 0 0 1 0 0 0 0 1 0 0 0 0.25 0"/>
<feBlend mode="normal" in2="BackgroundImageFix" result="effect1_dropShadow"/>
<feBlend mode="normal" in="SourceGraphic" in2="effect1_dropShadow" result="shape"/>
</filter>
<filter id="filter2_d" x="296.619" y="159.014" width="313.449" height="464.447" filterUnits="userSpaceOnUse" color-interpolation-filters="sRGB">
<feFlood flood-opacity="0" result="BackgroundImageFix"/>
<feColorMatrix in="SourceAlpha" type="matrix" values="0 0 0 0 0 0 0 0 0 0 0 0 0 0 0 0 0 0 127 0"/>
<feOffset dx="3" dy="3"/>
<feGaussianBlur stdDeviation="2"/>
<feColorMatrix type="matrix" values="0 0 0 0 1 0 0 0 0 1 0 0 0 0 1 0 0 0 0.25 0"/>
<feBlend mode="normal" in2="BackgroundImageFix" result="effect1_dropShadow"/>
<feBlend mode="normal" in="SourceGraphic" in2="effect1_dropShadow" result="shape"/>
</filter>
<linearGradient id="paint0_linear" x1="272.316" y1="1.16881" x2="272.316" y2="803.641" gradientUnits="userSpaceOnUse">
<stop stop-color="#8E8E8E"/>
<stop offset="1" stop-color="white" stop-opacity="0"/>
</linearGradient>
</defs>
</svg>
