<svg width="359" height="477" viewBox="0 0 359 477" fill="none" xmlns="http://www.w3.org/2000/svg">
<g clip-path="url(#clip0)">
<g filter="url(#filter0_d)">
<path d="M3.99921 44.2729C4.41379 11.0222 40.0764 -9.81044 69.2206 6.17294L296.362 130.742C310.643 138.574 319.44 153.649 319.237 169.942L316.005 429.086C315.591 462.336 279.928 483.17 250.784 467.186L23.6422 342.617C9.3619 334.785 0.56483 319.709 0.76797 303.417L3.99921 44.2729Z" fill="url(#paint0_linear)"/>
</g>
<g filter="url(#filter1_d)">
<path d="M183.102 161.272L147.461 310.889H144.075L110.127 168.046L76.0775 310.889H72.6931L37.0505 161.272L40.3359 160.476L74.3847 303.718L108.434 160.874H111.818L145.768 303.718L179.817 160.476L183.102 161.272Z" fill="white"/>
</g>
<g filter="url(#filter2_d)">
<path d="M354.339 304.848L318.764 362.579C310.74 361.163 303.307 359.922 296.463 358.86C289.738 357.798 283.071 356.794 276.463 355.85C269.974 355.023 263.307 354.138 256.462 353.194C249.62 352.25 242.244 351.127 234.339 349.829C231.271 349.238 228.203 348.825 225.136 348.589C222.186 348.235 219.176 348.057 216.109 348.057C209.62 348.057 203.366 348.943 197.348 350.714C191.448 352.485 185.784 355.259 180.357 359.037L174.869 353.194C177.348 351.068 179.471 348.529 181.241 345.579C183.011 342.627 184.487 339.499 185.666 336.193C186.964 332.77 187.909 329.345 188.497 325.922C189.088 322.498 189.382 319.251 189.382 316.182V211.7C189.382 195.172 192.274 179.766 198.055 165.481C203.837 151.195 211.802 138.8 221.949 128.292C232.215 117.667 244.25 109.344 258.056 103.323C271.979 97.1845 287.024 94.1143 303.189 94.1143C308.38 94.1143 313.396 94.7048 318.233 95.8846C323.071 97.0662 327.319 98.9548 330.976 101.552C334.752 104.149 337.761 107.514 340.003 111.646C342.246 115.777 343.366 120.855 343.366 126.876C343.366 132.189 342.363 137.324 340.358 142.282C338.351 147.241 335.579 151.964 332.038 156.449C328.616 160.936 324.605 165.127 320.003 169.023C315.519 172.801 310.799 176.224 305.844 179.294C300.888 182.363 295.814 184.961 290.622 187.085C285.431 189.211 280.533 190.863 275.932 192.044L273.1 185.314C277.113 182.953 281.242 180.238 285.49 177.168C289.856 174.099 293.808 170.734 297.348 167.075C300.888 163.297 303.779 159.223 306.02 154.856C308.263 150.369 309.383 145.529 309.383 140.334C309.383 136.202 308.617 132.424 307.082 129.001C305.548 125.459 303.425 122.448 300.712 119.969C298.115 117.49 295.047 115.542 291.507 114.125C288.085 112.709 284.368 112 280.357 112C271.507 112 263.72 113.889 256.993 117.667C250.268 121.444 244.604 126.404 240.002 132.542C235.401 138.682 231.92 145.647 229.56 153.439C227.2 161.231 226.021 169.14 226.021 177.168V291.213C226.021 295.698 225.371 300.067 224.074 304.317C222.776 308.449 221.005 312.463 218.763 316.36C216.64 320.138 214.103 323.738 211.152 327.162C208.204 330.585 205.076 333.714 201.772 336.547C205.548 333.832 209.205 331.353 212.746 329.11C216.285 326.749 219.885 324.741 223.542 323.088C227.318 321.436 231.212 320.195 235.224 319.369C239.236 318.425 243.66 317.953 248.498 317.953C254.398 317.953 259.649 318.248 264.251 318.838C268.852 319.428 273.336 320.078 277.701 320.786C282.186 321.377 286.728 321.967 291.33 322.557C295.932 323.147 301.183 323.443 307.082 323.443C311.212 323.443 315.166 322.853 318.941 321.672C322.836 320.373 326.493 318.661 329.915 316.536C333.336 314.411 336.523 311.991 339.472 309.276C342.54 306.443 345.313 303.432 347.791 300.245L354.339 304.848Z" fill="#0F2027"/>
</g>
</g>
<defs>
<filter id="filter0_d" x="-0.235474" y="-0.3125" width="326.476" height="479.984" filterUnits="userSpaceOnUse" color-interpolation-filters="sRGB">
<feFlood flood-opacity="0" result="BackgroundImageFix"/>
<feColorMatrix in="SourceAlpha" type="matrix" values="0 0 0 0 0 0 0 0 0 0 0 0 0 0 0 0 0 0 127 0" result="hardAlpha"/>
<feOffset dx="3" dy="3"/>
<feGaussianBlur stdDeviation="2"/>
<feColorMatrix type="matrix" values="0 0 0 0 1 0 0 0 0 1 0 0 0 0 1 0 0 0 0.25 0"/>
<feBlend mode="normal" in2="BackgroundImageFix" result="effect1_dropShadow"/>
<feBlend mode="normal" in="SourceGraphic" in2="effect1_dropShadow" result="shape"/>
</filter>
<filter id="filter1_d" x="36.0505" y="159.476" width="154.051" height="158.413" filterUnits="userSpaceOnUse" color-interpolation-filters="sRGB">
<feFlood flood-opacity="0" result="BackgroundImageFix"/>
<feColorMatrix in="SourceAlpha" type="matrix" values="0 0 0 0 0 0 0 0 0 0 0 0 0 0 0 0 0 0 127 0" result="hardAlpha"/>
<feOffset dx="3" dy="3"/>
<feGaussianBlur stdDeviation="2"/>
<feColorMatrix type="matrix" values="0 0 0 0 1 0 0 0 0 1 0 0 0 0 1 0 0 0 0.25 0"/>
<feBlend mode="normal" in2="BackgroundImageFix" result="effect1_dropShadow"/>
<feBlend mode="normal" in="SourceGraphic" in2="effect1_dropShadow" result="shape"/>
</filter>
<filter id="filter2_d" x="173.869" y="93.1143" width="187.47" height="276.465" filterUnits="userSpaceOnUse" color-interpolation-filters="sRGB">
<feFlood flood-opacity="0" result="BackgroundImageFix"/>
<feColorMatrix in="SourceAlpha" type="matrix" values="0 0 0 0 0 0 0 0 0 0 0 0 0 0 0 0 0 0 127 0" result="hardAlpha"/>
<feOffset dx="3" dy="3"/>
<feGaussianBlur stdDeviation="2"/>
<feColorMatrix type="matrix" values="0 0 0 0 1 0 0 0 0 1 0 0 0 0 1 0 0 0 0.25 0"/>
<feBlend mode="normal" in2="BackgroundImageFix" result="effect1_dropShadow"/>
<feBlend mode="normal" in="SourceGraphic" in2="effect1_dropShadow" result="shape"/>
</filter>
<linearGradient id="paint0_linear" x1="160.002" y1="0.6875" x2="160.002" y2="472.672" gradientUnits="userSpaceOnUse">
<stop stop-color="#2C5364"/>
<stop offset="0.534375" stop-color="#203A43" stop-opacity="0.465625"/>
<stop offset="1" stop-color="#0F2027" stop-opacity="0"/>
</linearGradient>
<clipPath id="clip0">
<rect width="359" height="477" fill="white"/>
</clipPath>
</defs>
</svg>
