<svg width="2277" height="90" viewBox="0 0 2277 90" fill="none" xmlns="http://www.w3.org/2000/svg">
<path d="M22.112 71.152C17.696 71.152 13.6 70.32 9.824 68.656C6.048 66.992 2.784 64.72 0.0320003 61.84L4.832 56.272C7.072 58.64 9.696 60.56 12.704 62.032C15.776 63.44 18.944 64.144 22.208 64.144C26.368 64.144 29.6 63.216 31.904 61.36C34.208 59.44 35.36 56.944 35.36 53.872C35.36 52.272 35.072 50.928 34.496 49.84C33.984 48.688 33.248 47.728 32.288 46.96C31.392 46.128 30.304 45.392 29.024 44.752C27.744 44.112 26.368 43.44 24.896 42.736L15.872 38.8C14.4 38.16 12.896 37.392 11.36 36.496C9.824 35.6 8.448 34.512 7.232 33.232C6.016 31.952 5.024 30.448 4.256 28.72C3.488 26.928 3.104 24.88 3.104 22.576C3.104 20.208 3.584 18 4.544 15.952C5.568 13.904 6.944 12.144 8.672 10.672C10.464 9.136 12.544 7.952 14.912 7.12C17.344 6.288 20 5.872 22.88 5.872C26.656 5.872 30.144 6.608 33.344 8.08C36.544 9.488 39.264 11.344 41.504 13.648L37.184 18.832C35.264 16.976 33.12 15.536 30.752 14.512C28.448 13.424 25.824 12.88 22.88 12.88C19.36 12.88 16.512 13.712 14.336 15.376C12.224 16.976 11.168 19.216 11.168 22.096C11.168 23.632 11.456 24.944 12.032 26.032C12.672 27.056 13.504 27.984 14.528 28.816C15.552 29.584 16.672 30.288 17.888 30.928C19.104 31.504 20.352 32.048 21.632 32.56L30.56 36.4C32.352 37.168 34.048 38.064 35.648 39.088C37.248 40.048 38.624 41.2 39.776 42.544C40.928 43.824 41.824 45.36 42.464 47.152C43.168 48.88 43.52 50.896 43.52 53.2C43.52 55.696 43.008 58.032 41.984 60.208C41.024 62.384 39.616 64.304 37.76 65.968C35.904 67.568 33.664 68.848 31.04 69.808C28.416 70.704 25.44 71.152 22.112 71.152ZM82.8973 71.152C80.0173 71.152 77.2652 70.608 74.6412 69.52C72.0812 68.432 69.8092 66.864 67.8252 64.816C65.8412 62.704 64.2412 60.144 63.0252 57.136C61.8732 54.064 61.2972 50.608 61.2972 46.768C61.2972 42.864 61.8732 39.408 63.0252 36.4C64.2412 33.328 65.8412 30.736 67.8252 28.624C69.8092 26.512 72.0812 24.912 74.6412 23.824C77.2652 22.736 80.0173 22.192 82.8973 22.192C85.7773 22.192 88.4972 22.736 91.0572 23.824C93.6812 24.912 95.9853 26.512 97.9693 28.624C99.9533 30.736 101.521 33.328 102.673 36.4C103.889 39.408 104.497 42.864 104.497 46.768C104.497 50.608 103.889 54.064 102.673 57.136C101.521 60.144 99.9533 62.704 97.9693 64.816C95.9853 66.864 93.6812 68.432 91.0572 69.52C88.4972 70.608 85.7773 71.152 82.8973 71.152ZM82.8973 64.624C84.8813 64.624 86.7052 64.208 88.3692 63.376C90.0332 62.48 91.4412 61.264 92.5932 59.728C93.8093 58.128 94.7373 56.24 95.3773 54.064C96.0173 51.888 96.3372 49.456 96.3372 46.768C96.3372 44.08 96.0173 41.648 95.3773 39.472C94.7373 37.232 93.8093 35.312 92.5932 33.712C91.4412 32.112 90.0332 30.896 88.3692 30.064C86.7052 29.168 84.8813 28.72 82.8973 28.72C80.9132 28.72 79.0892 29.168 77.4253 30.064C75.7612 30.896 74.3212 32.112 73.1052 33.712C71.9532 35.312 71.0572 37.232 70.4172 39.472C69.7772 41.648 69.4572 44.08 69.4572 46.768C69.4572 49.456 69.7772 51.888 70.4172 54.064C71.0572 56.24 71.9532 58.128 73.1052 59.728C74.3212 61.264 75.7612 62.48 77.4253 63.376C79.0892 64.208 80.9132 64.624 82.8973 64.624ZM144.528 71.152C141.648 71.152 138.896 70.608 136.272 69.52C133.712 68.432 131.44 66.864 129.456 64.816C127.472 62.704 125.872 60.144 124.656 57.136C123.504 54.064 122.928 50.608 122.928 46.768C122.928 42.864 123.504 39.408 124.656 36.4C125.872 33.328 127.472 30.736 129.456 28.624C131.44 26.512 133.712 24.912 136.272 23.824C138.896 22.736 141.648 22.192 144.528 22.192C147.408 22.192 150.128 22.736 152.688 23.824C155.312 24.912 157.616 26.512 159.601 28.624C161.584 30.736 163.152 33.328 164.304 36.4C165.52 39.408 166.128 42.864 166.128 46.768C166.128 50.608 165.52 54.064 164.304 57.136C163.152 60.144 161.584 62.704 159.601 64.816C157.616 66.864 155.312 68.432 152.688 69.52C150.128 70.608 147.408 71.152 144.528 71.152ZM144.528 64.624C146.512 64.624 148.336 64.208 150 63.376C151.664 62.48 153.072 61.264 154.224 59.728C155.44 58.128 156.368 56.24 157.008 54.064C157.648 51.888 157.968 49.456 157.968 46.768C157.968 44.08 157.648 41.648 157.008 39.472C156.368 37.232 155.44 35.312 154.224 33.712C153.072 32.112 151.664 30.896 150 30.064C148.336 29.168 146.512 28.72 144.528 28.72C142.544 28.72 140.72 29.168 139.056 30.064C137.392 30.896 135.952 32.112 134.736 33.712C133.584 35.312 132.688 37.232 132.048 39.472C131.408 41.648 131.088 44.08 131.088 46.768C131.088 49.456 131.408 51.888 132.048 54.064C132.688 56.24 133.584 58.128 134.736 59.728C135.952 61.264 137.392 62.48 139.056 63.376C140.72 64.208 142.544 64.624 144.528 64.624ZM188.016 70V23.344H194.544L195.216 30.064H195.504C197.744 27.824 200.08 25.968 202.512 24.496C205.008 22.96 207.888 22.192 211.152 22.192C216.08 22.192 219.664 23.728 221.904 26.8C224.208 29.872 225.36 34.416 225.36 40.432V70H217.488V41.488C217.488 37.072 216.784 33.904 215.376 31.984C213.968 30 211.728 29.008 208.656 29.008C206.224 29.008 204.08 29.616 202.224 30.832C200.368 32.048 198.256 33.84 195.888 36.208V70H188.016ZM293.623 71.152C291.127 71.152 289.015 70.768 287.287 70C285.623 69.232 284.247 68.176 283.159 66.832C282.135 65.488 281.399 63.856 280.951 61.936C280.503 60.016 280.279 57.904 280.279 55.6V29.776H273.367V23.824L280.663 23.344L281.623 10.288H288.247V23.344H300.823V29.776H288.247V55.696C288.247 58.576 288.759 60.816 289.783 62.416C290.871 63.952 292.759 64.72 295.447 64.72C296.279 64.72 297.175 64.592 298.135 64.336C299.095 64.08 299.959 63.792 300.727 63.472L302.263 69.424C300.983 69.872 299.575 70.256 298.039 70.576C296.567 70.96 295.095 71.152 293.623 71.152ZM337.804 71.152C334.924 71.152 332.172 70.608 329.548 69.52C326.988 68.432 324.716 66.864 322.732 64.816C320.748 62.704 319.148 60.144 317.932 57.136C316.78 54.064 316.204 50.608 316.204 46.768C316.204 42.864 316.78 39.408 317.932 36.4C319.148 33.328 320.748 30.736 322.732 28.624C324.716 26.512 326.988 24.912 329.548 23.824C332.172 22.736 334.924 22.192 337.804 22.192C340.684 22.192 343.404 22.736 345.964 23.824C348.588 24.912 350.892 26.512 352.876 28.624C354.86 30.736 356.428 33.328 357.58 36.4C358.796 39.408 359.404 42.864 359.404 46.768C359.404 50.608 358.796 54.064 357.58 57.136C356.428 60.144 354.86 62.704 352.876 64.816C350.892 66.864 348.588 68.432 345.964 69.52C343.404 70.608 340.684 71.152 337.804 71.152ZM337.804 64.624C339.788 64.624 341.612 64.208 343.276 63.376C344.94 62.48 346.348 61.264 347.5 59.728C348.716 58.128 349.644 56.24 350.284 54.064C350.924 51.888 351.244 49.456 351.244 46.768C351.244 44.08 350.924 41.648 350.284 39.472C349.644 37.232 348.716 35.312 347.5 33.712C346.348 32.112 344.94 30.896 343.276 30.064C341.612 29.168 339.788 28.72 337.804 28.72C335.82 28.72 333.996 29.168 332.332 30.064C330.668 30.896 329.228 32.112 328.012 33.712C326.86 35.312 325.964 37.232 325.324 39.472C324.684 41.648 324.364 44.08 324.364 46.768C324.364 49.456 324.684 51.888 325.324 54.064C325.964 56.24 326.86 58.128 328.012 59.728C329.228 61.264 330.668 62.48 332.332 63.376C333.996 64.208 335.82 64.624 337.804 64.624ZM430.749 71.152C428.573 71.152 426.301 70.64 423.933 69.616C421.629 68.528 419.453 67.056 417.405 65.2H417.117L416.445 70H410.109V1.648H417.981V20.272L417.789 28.72C419.901 26.864 422.205 25.328 424.701 24.112C427.197 22.832 429.757 22.192 432.381 22.192C435.389 22.192 438.045 22.768 440.349 23.92C442.653 25.008 444.573 26.608 446.109 28.72C447.709 30.768 448.893 33.264 449.661 36.208C450.493 39.088 450.909 42.32 450.909 45.904C450.909 49.872 450.365 53.424 449.277 56.56C448.189 59.696 446.717 62.352 444.861 64.528C443.005 66.704 440.861 68.368 438.429 69.52C435.997 70.608 433.437 71.152 430.749 71.152ZM429.405 64.528C431.325 64.528 433.085 64.112 434.685 63.28C436.349 62.384 437.757 61.168 438.909 59.632C440.125 58.032 441.053 56.08 441.693 53.776C442.397 51.472 442.749 48.88 442.749 46C442.749 43.44 442.525 41.104 442.077 38.992C441.629 36.88 440.893 35.088 439.869 33.616C438.909 32.08 437.629 30.896 436.029 30.064C434.493 29.232 432.637 28.816 430.461 28.816C426.685 28.816 422.525 30.928 417.981 35.152V59.632C420.029 61.424 422.045 62.704 424.029 63.472C426.077 64.176 427.869 64.528 429.405 64.528ZM491.684 71.152C488.548 71.152 485.604 70.608 482.852 69.52C480.164 68.368 477.796 66.768 475.748 64.72C473.764 62.608 472.196 60.048 471.044 57.04C469.892 54.032 469.316 50.608 469.316 46.768C469.316 42.928 469.892 39.504 471.044 36.496C472.26 33.424 473.828 30.832 475.748 28.72C477.732 26.608 479.972 25.008 482.468 23.92C484.964 22.768 487.556 22.192 490.244 22.192C493.188 22.192 495.812 22.704 498.116 23.728C500.484 24.752 502.436 26.224 503.972 28.144C505.572 30.064 506.788 32.368 507.62 35.056C508.452 37.744 508.868 40.752 508.868 44.08C508.868 44.912 508.836 45.744 508.772 46.576C508.772 47.344 508.708 48.016 508.58 48.592H477.092C477.412 53.584 478.948 57.552 481.7 60.496C484.516 63.376 488.164 64.816 492.644 64.816C494.884 64.816 496.932 64.496 498.788 63.856C500.708 63.152 502.532 62.256 504.26 61.168L507.044 66.352C504.996 67.632 502.724 68.752 500.228 69.712C497.732 70.672 494.884 71.152 491.684 71.152ZM476.996 42.928H501.956C501.956 38.192 500.932 34.608 498.884 32.176C496.9 29.68 494.084 28.432 490.436 28.432C488.772 28.432 487.172 28.752 485.636 29.392C484.164 30.032 482.82 30.992 481.604 32.272C480.388 33.488 479.364 34.992 478.532 36.784C477.764 38.576 477.252 40.624 476.996 42.928ZM583.392 71.152C579.424 71.152 575.776 70.416 572.448 68.944C569.12 67.472 566.208 65.36 563.712 62.608C561.28 59.792 559.36 56.368 557.952 52.336C556.608 48.24 555.936 43.632 555.936 38.512C555.936 33.456 556.64 28.912 558.048 24.88C559.456 20.848 561.408 17.424 563.904 14.608C566.4 11.792 569.344 9.64799 572.736 8.17599C576.128 6.64 579.84 5.872 583.872 5.872C587.712 5.872 591.072 6.672 593.952 8.272C596.896 9.808 599.296 11.6 601.152 13.648L596.832 18.832C595.168 17.04 593.28 15.6 591.168 14.512C589.056 13.424 586.656 12.88 583.968 12.88C580.96 12.88 578.24 13.488 575.808 14.704C573.376 15.856 571.296 17.552 569.568 19.792C567.84 21.968 566.496 24.624 565.536 27.76C564.64 30.896 564.192 34.416 564.192 38.32C564.192 42.288 564.64 45.872 565.536 49.072C566.496 52.208 567.808 54.896 569.472 57.136C571.136 59.376 573.152 61.104 575.52 62.32C577.952 63.536 580.672 64.144 583.68 64.144C586.752 64.144 589.44 63.536 591.744 62.32C594.048 61.04 596.224 59.28 598.272 57.04L602.688 62.032C600.192 64.912 597.376 67.152 594.24 68.752C591.104 70.352 587.488 71.152 583.392 71.152ZM642.172 71.152C639.036 71.152 636.092 70.608 633.34 69.52C630.652 68.368 628.284 66.768 626.236 64.72C624.252 62.608 622.684 60.048 621.532 57.04C620.38 54.032 619.804 50.608 619.804 46.768C619.804 42.928 620.38 39.504 621.532 36.496C622.748 33.424 624.316 30.832 626.236 28.72C628.22 26.608 630.46 25.008 632.956 23.92C635.452 22.768 638.044 22.192 640.732 22.192C643.676 22.192 646.3 22.704 648.604 23.728C650.972 24.752 652.924 26.224 654.46 28.144C656.06 30.064 657.276 32.368 658.108 35.056C658.94 37.744 659.356 40.752 659.356 44.08C659.356 44.912 659.324 45.744 659.26 46.576C659.26 47.344 659.196 48.016 659.068 48.592H627.58C627.9 53.584 629.436 57.552 632.188 60.496C635.004 63.376 638.652 64.816 643.132 64.816C645.372 64.816 647.42 64.496 649.276 63.856C651.196 63.152 653.02 62.256 654.748 61.168L657.532 66.352C655.484 67.632 653.212 68.752 650.716 69.712C648.22 70.672 645.372 71.152 642.172 71.152ZM627.484 42.928H652.444C652.444 38.192 651.42 34.608 649.372 32.176C647.388 29.68 644.572 28.432 640.924 28.432C639.26 28.432 637.66 28.752 636.124 29.392C634.652 30.032 633.308 30.992 632.092 32.272C630.876 33.488 629.852 34.992 629.02 36.784C628.252 38.576 627.74 40.624 627.484 42.928ZM701.124 71.152C698.948 71.152 696.676 70.64 694.308 69.616C692.004 68.528 689.828 67.056 687.78 65.2H687.492L686.82 70H680.484V1.648H688.356V20.272L688.164 28.72C690.276 26.864 692.58 25.328 695.076 24.112C697.572 22.832 700.132 22.192 702.756 22.192C705.764 22.192 708.42 22.768 710.724 23.92C713.028 25.008 714.948 26.608 716.484 28.72C718.084 30.768 719.268 33.264 720.036 36.208C720.868 39.088 721.284 42.32 721.284 45.904C721.284 49.872 720.74 53.424 719.652 56.56C718.564 59.696 717.092 62.352 715.236 64.528C713.38 66.704 711.236 68.368 708.804 69.52C706.372 70.608 703.812 71.152 701.124 71.152ZM699.78 64.528C701.7 64.528 703.46 64.112 705.06 63.28C706.724 62.384 708.132 61.168 709.284 59.632C710.5 58.032 711.428 56.08 712.068 53.776C712.772 51.472 713.124 48.88 713.124 46C713.124 43.44 712.9 41.104 712.452 38.992C712.004 36.88 711.268 35.088 710.244 33.616C709.284 32.08 708.004 30.896 706.404 30.064C704.868 29.232 703.012 28.816 700.836 28.816C697.06 28.816 692.9 30.928 688.356 35.152V59.632C690.404 61.424 692.42 62.704 694.404 63.472C696.452 64.176 698.244 64.528 699.78 64.528ZM756.779 71.152C751.787 71.152 748.139 69.616 745.835 66.544C743.595 63.472 742.475 58.928 742.475 52.912V23.344H750.443V51.856C750.443 56.272 751.115 59.472 752.459 61.456C753.867 63.376 756.107 64.336 759.179 64.336C761.611 64.336 763.755 63.728 765.611 62.512C767.467 61.232 769.515 59.216 771.755 56.464V23.344H779.627V70H773.099L772.427 62.704H772.139C769.963 65.264 767.659 67.312 765.227 68.848C762.859 70.384 760.043 71.152 756.779 71.152ZM805.35 28.624L803.142 24.976C805.574 23.376 807.366 21.68 808.518 19.888C809.734 18.032 810.342 15.728 810.342 12.976C810.15 13.04 809.894 13.072 809.574 13.072C808.23 13.072 807.046 12.656 806.022 11.824C804.998 10.992 804.486 9.808 804.486 8.272C804.486 6.608 804.966 5.296 805.926 4.336C806.886 3.376 808.102 2.89599 809.574 2.89599C811.43 2.89599 812.902 3.664 813.99 5.2C815.078 6.672 815.622 8.816 815.622 11.632C815.622 15.472 814.726 18.8 812.934 21.616C811.206 24.368 808.678 26.704 805.35 28.624ZM845.976 71.152C842.648 71.152 839.48 70.544 836.472 69.328C833.464 68.112 830.84 66.576 828.6 64.72L832.536 59.44C834.584 61.104 836.664 62.448 838.776 63.472C840.952 64.496 843.448 65.008 846.264 65.008C849.336 65.008 851.64 64.304 853.176 62.896C854.712 61.488 855.48 59.76 855.48 57.712C855.48 56.496 855.16 55.44 854.52 54.544C853.88 53.648 853.048 52.88 852.024 52.24C851.064 51.536 849.944 50.928 848.664 50.416C847.384 49.904 846.104 49.392 844.824 48.88C843.16 48.304 841.496 47.664 839.832 46.96C838.168 46.192 836.664 45.296 835.32 44.272C834.04 43.184 832.984 41.936 832.152 40.528C831.32 39.12 830.904 37.424 830.904 35.44C830.904 33.584 831.256 31.856 831.96 30.256C832.728 28.592 833.784 27.184 835.128 26.032C836.536 24.816 838.232 23.888 840.216 23.248C842.2 22.544 844.44 22.192 846.936 22.192C849.88 22.192 852.568 22.704 855 23.728C857.496 24.752 859.64 26 861.432 27.472L857.688 32.464C856.088 31.248 854.424 30.256 852.696 29.488C850.968 28.72 849.08 28.336 847.032 28.336C844.088 28.336 841.912 29.008 840.504 30.352C839.16 31.696 838.488 33.264 838.488 35.056C838.488 36.144 838.776 37.104 839.352 37.936C839.928 38.704 840.696 39.408 841.656 40.048C842.616 40.624 843.704 41.168 844.92 41.68C846.2 42.128 847.512 42.608 848.856 43.12C850.52 43.76 852.184 44.432 853.848 45.136C855.576 45.84 857.112 46.736 858.456 47.824C859.8 48.848 860.888 50.128 861.72 51.664C862.616 53.2 863.064 55.056 863.064 57.232C863.064 59.152 862.68 60.944 861.912 62.608C861.208 64.272 860.12 65.744 858.648 67.024C857.24 68.304 855.448 69.296 853.272 70C851.16 70.768 848.728 71.152 845.976 71.152ZM912.422 70V23.344H918.95L919.622 30.064H919.91C922.15 27.824 924.486 25.968 926.918 24.496C929.414 22.96 932.294 22.192 935.558 22.192C940.486 22.192 944.07 23.728 946.31 26.8C948.614 29.872 949.766 34.416 949.766 40.432V70H941.894V41.488C941.894 37.072 941.19 33.904 939.782 31.984C938.374 30 936.134 29.008 933.062 29.008C930.63 29.008 928.486 29.616 926.63 30.832C924.774 32.048 922.662 33.84 920.294 36.208V70H912.422ZM992.666 71.152C989.786 71.152 987.034 70.608 984.41 69.52C981.85 68.432 979.578 66.864 977.594 64.816C975.61 62.704 974.01 60.144 972.794 57.136C971.642 54.064 971.066 50.608 971.066 46.768C971.066 42.864 971.642 39.408 972.794 36.4C974.01 33.328 975.61 30.736 977.594 28.624C979.578 26.512 981.85 24.912 984.41 23.824C987.034 22.736 989.786 22.192 992.666 22.192C995.546 22.192 998.266 22.736 1000.83 23.824C1003.45 24.912 1005.75 26.512 1007.74 28.624C1009.72 30.736 1011.29 33.328 1012.44 36.4C1013.66 39.408 1014.27 42.864 1014.27 46.768C1014.27 50.608 1013.66 54.064 1012.44 57.136C1011.29 60.144 1009.72 62.704 1007.74 64.816C1005.75 66.864 1003.45 68.432 1000.83 69.52C998.266 70.608 995.546 71.152 992.666 71.152ZM992.666 64.624C994.65 64.624 996.474 64.208 998.138 63.376C999.802 62.48 1001.21 61.264 1002.36 59.728C1003.58 58.128 1004.51 56.24 1005.15 54.064C1005.79 51.888 1006.11 49.456 1006.11 46.768C1006.11 44.08 1005.79 41.648 1005.15 39.472C1004.51 37.232 1003.58 35.312 1002.36 33.712C1001.21 32.112 999.802 30.896 998.138 30.064C996.474 29.168 994.65 28.72 992.666 28.72C990.682 28.72 988.858 29.168 987.194 30.064C985.53 30.896 984.09 32.112 982.874 33.712C981.722 35.312 980.826 37.232 980.186 39.472C979.546 41.648 979.226 44.08 979.226 46.768C979.226 49.456 979.546 51.888 980.186 54.064C980.826 56.24 981.722 58.128 982.874 59.728C984.09 61.264 985.53 62.48 987.194 63.376C988.858 64.208 990.682 64.624 992.666 64.624ZM1039.34 71.152C1037.74 71.152 1036.37 70.608 1035.22 69.52C1034.13 68.368 1033.58 66.928 1033.58 65.2C1033.58 63.344 1034.13 61.872 1035.22 60.784C1036.37 59.632 1037.74 59.056 1039.34 59.056C1040.88 59.056 1042.19 59.632 1043.28 60.784C1044.43 61.872 1045.01 63.344 1045.01 65.2C1045.01 66.928 1044.43 68.368 1043.28 69.52C1042.19 70.608 1040.88 71.152 1039.34 71.152ZM1068.43 70V63.472H1082.45V18.352H1071.31V13.264C1074.13 12.752 1076.56 12.144 1078.61 11.44C1080.72 10.672 1082.61 9.776 1084.27 8.752H1090.32V63.472H1102.99V70H1068.43ZM1165.61 71.152C1161.71 71.152 1158.44 70 1155.82 67.696C1153.26 65.392 1151.98 62.128 1151.98 57.904C1151.98 52.784 1154.25 48.88 1158.8 46.192C1163.34 43.44 1170.6 41.52 1180.59 40.432C1180.59 38.96 1180.43 37.52 1180.11 36.112C1179.85 34.704 1179.37 33.456 1178.67 32.368C1177.96 31.28 1176.97 30.416 1175.69 29.776C1174.48 29.072 1172.91 28.72 1170.99 28.72C1168.3 28.72 1165.77 29.232 1163.4 30.256C1161.04 31.28 1158.92 32.432 1157.07 33.712L1154 28.24C1156.17 26.832 1158.83 25.488 1161.96 24.208C1165.1 22.864 1168.56 22.192 1172.33 22.192C1178.03 22.192 1182.16 23.952 1184.72 27.472C1187.28 30.928 1188.56 35.568 1188.56 41.392V70H1182.03L1181.36 64.432H1181.07C1178.83 66.288 1176.43 67.888 1173.87 69.232C1171.31 70.512 1168.56 71.152 1165.61 71.152ZM1167.92 64.816C1170.16 64.816 1172.27 64.304 1174.25 63.28C1176.24 62.192 1178.35 60.624 1180.59 58.576V45.616C1176.68 46.128 1173.39 46.736 1170.7 47.44C1168.08 48.144 1165.93 48.976 1164.27 49.936C1162.67 50.896 1161.48 52.016 1160.72 53.296C1160.01 54.512 1159.66 55.856 1159.66 57.328C1159.66 60.016 1160.46 61.936 1162.06 63.088C1163.66 64.24 1165.61 64.816 1167.92 64.816ZM1231.27 71.152C1228.19 71.152 1225.31 70.608 1222.63 69.52C1219.94 68.432 1217.6 66.864 1215.62 64.816C1213.7 62.704 1212.16 60.144 1211.01 57.136C1209.92 54.064 1209.38 50.608 1209.38 46.768C1209.38 42.864 1209.99 39.408 1211.2 36.4C1212.42 33.328 1214.05 30.736 1216.1 28.624C1218.15 26.512 1220.51 24.912 1223.2 23.824C1225.95 22.736 1228.83 22.192 1231.84 22.192C1234.91 22.192 1237.54 22.736 1239.71 23.824C1241.89 24.912 1243.81 26.192 1245.47 27.664L1241.44 32.848C1240.1 31.632 1238.66 30.64 1237.12 29.872C1235.65 29.104 1233.99 28.72 1232.13 28.72C1230.02 28.72 1228.07 29.168 1226.27 30.064C1224.48 30.896 1222.95 32.112 1221.67 33.712C1220.39 35.312 1219.36 37.232 1218.59 39.472C1217.89 41.648 1217.54 44.08 1217.54 46.768C1217.54 49.456 1217.89 51.888 1218.59 54.064C1219.3 56.24 1220.26 58.128 1221.47 59.728C1222.75 61.264 1224.29 62.48 1226.08 63.376C1227.87 64.208 1229.83 64.624 1231.94 64.624C1234.11 64.624 1236.1 64.176 1237.89 63.28C1239.75 62.32 1241.41 61.2 1242.88 59.92L1246.34 65.2C1244.23 67.056 1241.89 68.528 1239.33 69.616C1236.77 70.64 1234.08 71.152 1231.27 71.152ZM1282.59 71.152C1279.51 71.152 1276.63 70.608 1273.95 69.52C1271.26 68.432 1268.92 66.864 1266.94 64.816C1265.02 62.704 1263.48 60.144 1262.33 57.136C1261.24 54.064 1260.7 50.608 1260.7 46.768C1260.7 42.864 1261.31 39.408 1262.52 36.4C1263.74 33.328 1265.37 30.736 1267.42 28.624C1269.47 26.512 1271.83 24.912 1274.52 23.824C1277.27 22.736 1280.15 22.192 1283.16 22.192C1286.23 22.192 1288.86 22.736 1291.03 23.824C1293.21 24.912 1295.13 26.192 1296.79 27.664L1292.76 32.848C1291.42 31.632 1289.98 30.64 1288.44 29.872C1286.97 29.104 1285.31 28.72 1283.45 28.72C1281.34 28.72 1279.39 29.168 1277.59 30.064C1275.8 30.896 1274.27 32.112 1272.99 33.712C1271.71 35.312 1270.68 37.232 1269.91 39.472C1269.21 41.648 1268.86 44.08 1268.86 46.768C1268.86 49.456 1269.21 51.888 1269.91 54.064C1270.62 56.24 1271.58 58.128 1272.79 59.728C1274.07 61.264 1275.61 62.48 1277.4 63.376C1279.19 64.208 1281.15 64.624 1283.26 64.624C1285.43 64.624 1287.42 64.176 1289.21 63.28C1291.07 62.32 1292.73 61.2 1294.2 59.92L1297.66 65.2C1295.55 67.056 1293.21 68.528 1290.65 69.616C1288.09 70.64 1285.4 71.152 1282.59 71.152ZM1333.62 71.152C1330.74 71.152 1327.98 70.608 1325.36 69.52C1322.8 68.432 1320.53 66.864 1318.54 64.816C1316.56 62.704 1314.96 60.144 1313.74 57.136C1312.59 54.064 1312.02 50.608 1312.02 46.768C1312.02 42.864 1312.59 39.408 1313.74 36.4C1314.96 33.328 1316.56 30.736 1318.54 28.624C1320.53 26.512 1322.8 24.912 1325.36 23.824C1327.98 22.736 1330.74 22.192 1333.62 22.192C1336.5 22.192 1339.22 22.736 1341.78 23.824C1344.4 24.912 1346.7 26.512 1348.69 28.624C1350.67 30.736 1352.24 33.328 1353.39 36.4C1354.61 39.408 1355.22 42.864 1355.22 46.768C1355.22 50.608 1354.61 54.064 1353.39 57.136C1352.24 60.144 1350.67 62.704 1348.69 64.816C1346.7 66.864 1344.4 68.432 1341.78 69.52C1339.22 70.608 1336.5 71.152 1333.62 71.152ZM1333.62 64.624C1335.6 64.624 1337.42 64.208 1339.09 63.376C1340.75 62.48 1342.16 61.264 1343.31 59.728C1344.53 58.128 1345.46 56.24 1346.1 54.064C1346.74 51.888 1347.06 49.456 1347.06 46.768C1347.06 44.08 1346.74 41.648 1346.1 39.472C1345.46 37.232 1344.53 35.312 1343.31 33.712C1342.16 32.112 1340.75 30.896 1339.09 30.064C1337.42 29.168 1335.6 28.72 1333.62 28.72C1331.63 28.72 1329.81 29.168 1328.14 30.064C1326.48 30.896 1325.04 32.112 1323.82 33.712C1322.67 35.312 1321.78 37.232 1321.14 39.472C1320.5 41.648 1320.18 44.08 1320.18 46.768C1320.18 49.456 1320.5 51.888 1321.14 54.064C1321.78 56.24 1322.67 58.128 1323.82 59.728C1325.04 61.264 1326.48 62.48 1328.14 63.376C1329.81 64.208 1331.63 64.624 1333.62 64.624ZM1377.1 70V23.344H1383.63L1384.3 30.064H1384.59C1386.64 27.824 1388.85 25.968 1391.22 24.496C1393.65 22.96 1396.27 22.192 1399.09 22.192C1402.67 22.192 1405.46 22.992 1407.44 24.592C1409.49 26.128 1410.99 28.304 1411.95 31.12C1414.38 28.432 1416.82 26.288 1419.25 24.688C1421.74 23.024 1424.43 22.192 1427.31 22.192C1432.11 22.192 1435.66 23.728 1437.97 26.8C1440.34 29.872 1441.52 34.416 1441.52 40.432V70H1433.65V41.488C1433.65 37.072 1432.94 33.904 1431.54 31.984C1430.13 30 1427.95 29.008 1425.01 29.008C1421.49 29.008 1417.58 31.408 1413.3 36.208V70H1405.42V41.488C1405.42 37.072 1404.72 33.904 1403.31 31.984C1401.9 30 1399.7 29.008 1396.69 29.008C1393.17 29.008 1389.26 31.408 1384.98 36.208V70H1377.1ZM1484.44 71.152C1481.56 71.152 1478.81 70.608 1476.19 69.52C1473.63 68.432 1471.35 66.864 1469.37 64.816C1467.39 62.704 1465.79 60.144 1464.57 57.136C1463.42 54.064 1462.84 50.608 1462.84 46.768C1462.84 42.864 1463.42 39.408 1464.57 36.4C1465.79 33.328 1467.39 30.736 1469.37 28.624C1471.35 26.512 1473.63 24.912 1476.19 23.824C1478.81 22.736 1481.56 22.192 1484.44 22.192C1487.32 22.192 1490.04 22.736 1492.6 23.824C1495.23 24.912 1497.53 26.512 1499.51 28.624C1501.5 30.736 1503.07 33.328 1504.22 36.4C1505.43 39.408 1506.04 42.864 1506.04 46.768C1506.04 50.608 1505.43 54.064 1504.22 57.136C1503.07 60.144 1501.5 62.704 1499.51 64.816C1497.53 66.864 1495.23 68.432 1492.6 69.52C1490.04 70.608 1487.32 71.152 1484.44 71.152ZM1484.44 64.624C1486.43 64.624 1488.25 64.208 1489.91 63.376C1491.58 62.48 1492.99 61.264 1494.14 59.728C1495.35 58.128 1496.28 56.24 1496.92 54.064C1497.56 51.888 1497.88 49.456 1497.88 46.768C1497.88 44.08 1497.56 41.648 1496.92 39.472C1496.28 37.232 1495.35 35.312 1494.14 33.712C1492.99 32.112 1491.58 30.896 1489.91 30.064C1488.25 29.168 1486.43 28.72 1484.44 28.72C1482.46 28.72 1480.63 29.168 1478.97 30.064C1477.31 30.896 1475.87 32.112 1474.65 33.712C1473.5 35.312 1472.6 37.232 1471.96 39.472C1471.32 41.648 1471 44.08 1471 46.768C1471 49.456 1471.32 51.888 1471.96 54.064C1472.6 56.24 1473.5 58.128 1474.65 59.728C1475.87 61.264 1477.31 62.48 1478.97 63.376C1480.63 64.208 1482.46 64.624 1484.44 64.624ZM1543.86 71.152C1537.98 71.152 1533.27 69.04 1529.75 64.816C1526.3 60.592 1524.57 54.576 1524.57 46.768C1524.57 42.992 1525.11 39.6 1526.2 36.592C1527.35 33.52 1528.86 30.928 1530.71 28.816C1532.57 26.704 1534.71 25.072 1537.14 23.92C1539.58 22.768 1542.14 22.192 1544.82 22.192C1547.51 22.192 1549.85 22.672 1551.83 23.632C1553.82 24.592 1555.83 25.904 1557.88 27.568L1557.5 19.6V1.648H1565.46V70H1558.94L1558.26 64.528H1557.98C1556.12 66.32 1553.98 67.888 1551.54 69.232C1549.18 70.512 1546.62 71.152 1543.86 71.152ZM1545.59 64.528C1547.77 64.528 1549.82 64.016 1551.74 62.992C1553.66 61.904 1555.58 60.272 1557.5 58.096V33.712C1555.51 31.92 1553.59 30.672 1551.74 29.968C1549.94 29.2 1548.09 28.816 1546.17 28.816C1544.31 28.816 1542.55 29.264 1540.89 30.16C1539.29 30.992 1537.88 32.208 1536.66 33.808C1535.45 35.344 1534.49 37.2 1533.78 39.376C1533.08 41.552 1532.73 43.984 1532.73 46.672C1532.73 52.304 1533.85 56.688 1536.09 59.824C1538.33 62.96 1541.5 64.528 1545.59 64.528ZM1601.53 71.152C1597.63 71.152 1594.36 70 1591.74 67.696C1589.18 65.392 1587.9 62.128 1587.9 57.904C1587.9 52.784 1590.17 48.88 1594.71 46.192C1599.26 43.44 1606.52 41.52 1616.51 40.432C1616.51 38.96 1616.35 37.52 1616.03 36.112C1615.77 34.704 1615.29 33.456 1614.59 32.368C1613.88 31.28 1612.89 30.416 1611.61 29.776C1610.39 29.072 1608.83 28.72 1606.91 28.72C1604.22 28.72 1601.69 29.232 1599.32 30.256C1596.95 31.28 1594.84 32.432 1592.99 33.712L1589.91 28.24C1592.09 26.832 1594.75 25.488 1597.88 24.208C1601.02 22.864 1604.47 22.192 1608.25 22.192C1613.95 22.192 1618.07 23.952 1620.63 27.472C1623.19 30.928 1624.47 35.568 1624.47 41.392V70H1617.95L1617.27 64.432H1616.99C1614.75 66.288 1612.35 67.888 1609.79 69.232C1607.23 70.512 1604.47 71.152 1601.53 71.152ZM1603.83 64.816C1606.07 64.816 1608.19 64.304 1610.17 63.28C1612.15 62.192 1614.27 60.624 1616.51 58.576V45.616C1612.6 46.128 1609.31 46.736 1606.62 47.44C1603.99 48.144 1601.85 48.976 1600.19 49.936C1598.59 50.896 1597.4 52.016 1596.63 53.296C1595.93 54.512 1595.58 55.856 1595.58 57.328C1595.58 60.016 1596.38 61.936 1597.98 63.088C1599.58 64.24 1601.53 64.816 1603.83 64.816ZM1662.13 71.152C1659.63 71.152 1657.52 70.768 1655.79 70C1654.13 69.232 1652.75 68.176 1651.66 66.832C1650.64 65.488 1649.9 63.856 1649.46 61.936C1649.01 60.016 1648.78 57.904 1648.78 55.6V29.776H1641.87V23.824L1649.17 23.344L1650.13 10.288H1656.75V23.344H1669.33V29.776H1656.75V55.696C1656.75 58.576 1657.26 60.816 1658.29 62.416C1659.38 63.952 1661.26 64.72 1663.95 64.72C1664.78 64.72 1665.68 64.592 1666.64 64.336C1667.6 64.08 1668.46 63.792 1669.23 63.472L1670.77 69.424C1669.49 69.872 1668.08 70.256 1666.54 70.576C1665.07 70.96 1663.6 71.152 1662.13 71.152ZM1689.48 70V23.344H1697.35V70H1689.48ZM1693.51 13.744C1691.97 13.744 1690.66 13.264 1689.57 12.304C1688.55 11.344 1688.04 10.128 1688.04 8.65599C1688.04 7.12 1688.55 5.904 1689.57 5.008C1690.66 4.048 1691.97 3.568 1693.51 3.568C1695.05 3.568 1696.33 4.048 1697.35 5.008C1698.44 5.904 1698.98 7.12 1698.98 8.65599C1698.98 10.128 1698.44 11.344 1697.35 12.304C1696.33 13.264 1695.05 13.744 1693.51 13.744ZM1740.85 71.152C1737.97 71.152 1735.22 70.608 1732.59 69.52C1730.03 68.432 1727.76 66.864 1725.78 64.816C1723.79 62.704 1722.19 60.144 1720.98 57.136C1719.82 54.064 1719.25 50.608 1719.25 46.768C1719.25 42.864 1719.82 39.408 1720.98 36.4C1722.19 33.328 1723.79 30.736 1725.78 28.624C1727.76 26.512 1730.03 24.912 1732.59 23.824C1735.22 22.736 1737.97 22.192 1740.85 22.192C1743.73 22.192 1746.45 22.736 1749.01 23.824C1751.63 24.912 1753.94 26.512 1755.92 28.624C1757.9 30.736 1759.47 33.328 1760.62 36.4C1761.84 39.408 1762.45 42.864 1762.45 46.768C1762.45 50.608 1761.84 54.064 1760.62 57.136C1759.47 60.144 1757.9 62.704 1755.92 64.816C1753.94 66.864 1751.63 68.432 1749.01 69.52C1746.45 70.608 1743.73 71.152 1740.85 71.152ZM1740.85 64.624C1742.83 64.624 1744.66 64.208 1746.32 63.376C1747.98 62.48 1749.39 61.264 1750.54 59.728C1751.76 58.128 1752.69 56.24 1753.33 54.064C1753.97 51.888 1754.29 49.456 1754.29 46.768C1754.29 44.08 1753.97 41.648 1753.33 39.472C1752.69 37.232 1751.76 35.312 1750.54 33.712C1749.39 32.112 1747.98 30.896 1746.32 30.064C1744.66 29.168 1742.83 28.72 1740.85 28.72C1738.86 28.72 1737.04 29.168 1735.38 30.064C1733.71 30.896 1732.27 32.112 1731.06 33.712C1729.9 35.312 1729.01 37.232 1728.37 39.472C1727.73 41.648 1727.41 44.08 1727.41 46.768C1727.41 49.456 1727.73 51.888 1728.37 54.064C1729.01 56.24 1729.9 58.128 1731.06 59.728C1732.27 61.264 1733.71 62.48 1735.38 63.376C1737.04 64.208 1738.86 64.624 1740.85 64.624ZM1784.33 70V23.344H1790.86L1791.53 30.064H1791.82C1794.06 27.824 1796.4 25.968 1798.83 24.496C1801.33 22.96 1804.21 22.192 1807.47 22.192C1812.4 22.192 1815.98 23.728 1818.22 26.8C1820.53 29.872 1821.68 34.416 1821.68 40.432V70H1813.81V41.488C1813.81 37.072 1813.1 33.904 1811.69 31.984C1810.29 30 1808.05 29.008 1804.97 29.008C1802.54 29.008 1800.4 29.616 1798.54 30.832C1796.69 32.048 1794.57 33.84 1792.21 36.208V70H1784.33ZM1875.25 89.68V23.344H1881.78L1882.45 28.72H1882.74C1884.85 26.928 1887.16 25.392 1889.65 24.112C1892.21 22.832 1894.87 22.192 1897.62 22.192C1900.63 22.192 1903.29 22.768 1905.59 23.92C1907.89 25.008 1909.81 26.608 1911.35 28.72C1912.89 30.768 1914.04 33.264 1914.81 36.208C1915.64 39.088 1916.05 42.352 1916.05 46C1916.05 49.968 1915.51 53.52 1914.42 56.656C1913.33 59.728 1911.86 62.352 1910.01 64.528C1908.15 66.704 1906.01 68.368 1903.57 69.52C1901.14 70.608 1898.58 71.152 1895.89 71.152C1893.72 71.152 1891.54 70.672 1889.37 69.712C1887.25 68.752 1885.11 67.44 1882.93 65.776L1883.13 73.936V89.68H1875.25ZM1894.55 64.528C1896.47 64.528 1898.23 64.112 1899.83 63.28C1901.49 62.384 1902.9 61.168 1904.05 59.632C1905.27 58.032 1906.2 56.08 1906.84 53.776C1907.54 51.472 1907.89 48.88 1907.89 46C1907.89 43.44 1907.67 41.104 1907.22 38.992C1906.77 36.88 1906.04 35.088 1905.01 33.616C1904.05 32.08 1902.77 30.896 1901.17 30.064C1899.64 29.232 1897.78 28.816 1895.61 28.816C1893.62 28.816 1891.61 29.36 1889.56 30.448C1887.57 31.536 1885.43 33.104 1883.13 35.152V59.632C1885.24 61.424 1887.29 62.704 1889.27 63.472C1891.25 64.176 1893.01 64.528 1894.55 64.528ZM1946.46 71.152C1943.45 71.152 1941.3 70.256 1940.02 68.464C1938.74 66.672 1938.1 64.048 1938.1 60.592V1.648H1945.98V61.168C1945.98 62.448 1946.2 63.344 1946.65 63.856C1947.1 64.368 1947.61 64.624 1948.18 64.624C1948.44 64.624 1948.66 64.624 1948.86 64.624C1949.11 64.624 1949.46 64.56 1949.91 64.432L1950.97 70.384C1950.46 70.64 1949.85 70.832 1949.14 70.96C1948.44 71.088 1947.54 71.152 1946.46 71.152ZM1982.92 71.152C1979.02 71.152 1975.76 70 1973.13 67.696C1970.57 65.392 1969.29 62.128 1969.29 57.904C1969.29 52.784 1971.56 48.88 1976.11 46.192C1980.65 43.44 1987.92 41.52 1997.9 40.432C1997.9 38.96 1997.74 37.52 1997.42 36.112C1997.16 34.704 1996.68 33.456 1995.98 32.368C1995.28 31.28 1994.28 30.416 1993 29.776C1991.79 29.072 1990.22 28.72 1988.3 28.72C1985.61 28.72 1983.08 29.232 1980.72 30.256C1978.35 31.28 1976.24 32.432 1974.38 33.712L1971.31 28.24C1973.48 26.832 1976.14 25.488 1979.28 24.208C1982.41 22.864 1985.87 22.192 1989.64 22.192C1995.34 22.192 1999.47 23.952 2002.03 27.472C2004.59 30.928 2005.87 35.568 2005.87 41.392V70H1999.34L1998.67 64.432H1998.38C1996.14 66.288 1993.74 67.888 1991.18 69.232C1988.62 70.512 1985.87 71.152 1982.92 71.152ZM1985.23 64.816C1987.47 64.816 1989.58 64.304 1991.56 63.28C1993.55 62.192 1995.66 60.624 1997.9 58.576V45.616C1994 46.128 1990.7 46.736 1988.01 47.44C1985.39 48.144 1983.24 48.976 1981.58 49.936C1979.98 50.896 1978.8 52.016 1978.03 53.296C1977.32 54.512 1976.97 55.856 1976.97 57.328C1976.97 60.016 1977.77 61.936 1979.37 63.088C1980.97 64.24 1982.92 64.816 1985.23 64.816ZM2043.52 71.152C2041.03 71.152 2038.91 70.768 2037.19 70C2035.52 69.232 2034.15 68.176 2033.06 66.832C2032.03 65.488 2031.3 63.856 2030.85 61.936C2030.4 60.016 2030.18 57.904 2030.18 55.6V29.776H2023.27V23.824L2030.56 23.344L2031.52 10.288H2038.15V23.344H2050.72V29.776H2038.15V55.696C2038.15 58.576 2038.66 60.816 2039.68 62.416C2040.77 63.952 2042.66 64.72 2045.35 64.72C2046.18 64.72 2047.07 64.592 2048.03 64.336C2048.99 64.08 2049.86 63.792 2050.63 63.472L2052.16 69.424C2050.88 69.872 2049.47 70.256 2047.94 70.576C2046.47 70.96 2044.99 71.152 2043.52 71.152ZM2072.22 70V29.776H2065.88V23.824L2072.22 23.344V15.952C2072.22 11.152 2073.3 7.376 2075.48 4.62399C2077.72 1.872 2081.18 0.495996 2085.85 0.495996C2087.32 0.495996 2088.7 0.655996 2089.98 0.975996C2091.32 1.232 2092.54 1.584 2093.62 2.032L2091.9 8.08C2090.17 7.312 2088.41 6.928 2086.62 6.928C2082.26 6.928 2080.09 9.936 2080.09 15.952V23.344H2089.98V29.776H2080.09V70H2072.22ZM2125.71 71.152C2122.83 71.152 2120.08 70.608 2117.45 69.52C2114.89 68.432 2112.62 66.864 2110.64 64.816C2108.65 62.704 2107.05 60.144 2105.84 57.136C2104.69 54.064 2104.11 50.608 2104.11 46.768C2104.11 42.864 2104.69 39.408 2105.84 36.4C2107.05 33.328 2108.65 30.736 2110.64 28.624C2112.62 26.512 2114.89 24.912 2117.45 23.824C2120.08 22.736 2122.83 22.192 2125.71 22.192C2128.59 22.192 2131.31 22.736 2133.87 23.824C2136.49 24.912 2138.8 26.512 2140.78 28.624C2142.77 30.736 2144.33 33.328 2145.49 36.4C2146.7 39.408 2147.31 42.864 2147.31 46.768C2147.31 50.608 2146.7 54.064 2145.49 57.136C2144.33 60.144 2142.77 62.704 2140.78 64.816C2138.8 66.864 2136.49 68.432 2133.87 69.52C2131.31 70.608 2128.59 71.152 2125.71 71.152ZM2125.71 64.624C2127.69 64.624 2129.52 64.208 2131.18 63.376C2132.85 62.48 2134.25 61.264 2135.41 59.728C2136.62 58.128 2137.55 56.24 2138.19 54.064C2138.83 51.888 2139.15 49.456 2139.15 46.768C2139.15 44.08 2138.83 41.648 2138.19 39.472C2137.55 37.232 2136.62 35.312 2135.41 33.712C2134.25 32.112 2132.85 30.896 2131.18 30.064C2129.52 29.168 2127.69 28.72 2125.71 28.72C2123.73 28.72 2121.9 29.168 2120.24 30.064C2118.57 30.896 2117.13 32.112 2115.92 33.712C2114.77 35.312 2113.87 37.232 2113.23 39.472C2112.59 41.648 2112.27 44.08 2112.27 46.768C2112.27 49.456 2112.59 51.888 2113.23 54.064C2113.87 56.24 2114.77 58.128 2115.92 59.728C2117.13 61.264 2118.57 62.48 2120.24 63.376C2121.9 64.208 2123.73 64.624 2125.71 64.624ZM2169.2 70V23.344H2175.72L2176.4 31.792H2176.68C2178.28 28.848 2180.2 26.512 2182.44 24.784C2184.75 23.056 2187.24 22.192 2189.93 22.192C2191.79 22.192 2193.45 22.512 2194.92 23.152L2193.39 30.064C2192.62 29.808 2191.92 29.616 2191.28 29.488C2190.64 29.36 2189.84 29.296 2188.88 29.296C2186.89 29.296 2184.81 30.096 2182.64 31.696C2180.52 33.296 2178.67 36.08 2177.07 40.048V70H2169.2ZM2212.08 70V23.344H2218.61L2219.28 30.064H2219.57C2221.61 27.824 2223.82 25.968 2226.19 24.496C2228.62 22.96 2231.25 22.192 2234.06 22.192C2237.65 22.192 2240.43 22.992 2242.41 24.592C2244.46 26.128 2245.97 28.304 2246.93 31.12C2249.36 28.432 2251.79 26.288 2254.22 24.688C2256.72 23.024 2259.41 22.192 2262.29 22.192C2267.09 22.192 2270.64 23.728 2272.94 26.8C2275.31 29.872 2276.49 34.416 2276.49 40.432V70H2268.62V41.488C2268.62 37.072 2267.92 33.904 2266.51 31.984C2265.1 30 2262.93 29.008 2259.98 29.008C2256.46 29.008 2252.56 31.408 2248.27 36.208V70H2240.4V41.488C2240.4 37.072 2239.69 33.904 2238.29 31.984C2236.88 30 2234.67 29.008 2231.66 29.008C2228.14 29.008 2224.24 31.408 2219.95 36.208V70H2212.08Z" fill="white"/>
</svg>
