<svg width="1988" height="405" viewBox="0 0 1988 405" fill="none" xmlns="http://www.w3.org/2000/svg">
<path d="M261.753 126.05L198.04 393.333H191.989L131.301 138.151L70.4342 393.333H64.3833L0.669678 126.05L6.54273 124.627L67.409 380.521L128.275 125.339H134.326L195.014 380.521L255.881 124.627L261.753 126.05ZM338.459 393.333V125.339H344.154V250.083H529.779V125.339H535.652V393.333H529.779V255.955H344.154V393.333H338.459ZM637.808 393.333V125.339H643.503V393.333H637.808ZM796.555 393.333V128.364H710.241V122.491H888.925V128.364H802.428V393.333H796.555ZM1060.67 255.955H961.357V390.308H1124.38V395.825H955.662V122.491H1124.38V128.364H961.357V250.083H1060.67V255.955Z" fill="white"/>
<path d="M1539.75 357.87L1500.6 371.861V101.108L1539.75 87.1167V357.87ZM1776.87 132.873L1745.1 171.255C1742.33 162.935 1738.74 154.994 1734.33 147.431C1729.91 139.868 1724.68 133.251 1718.63 127.579C1712.58 121.907 1705.71 117.369 1698.02 113.965C1690.33 110.562 1681.75 108.86 1672.3 108.86C1665.49 108.86 1659.19 110.121 1653.39 112.642C1647.59 115.037 1642.48 118.44 1638.07 122.852C1633.79 127.137 1630.38 132.242 1627.86 138.167C1625.47 144.091 1624.27 150.456 1624.27 157.263C1624.27 164.322 1625.59 170.939 1628.24 177.116C1630.89 183.292 1634.42 188.901 1638.83 193.943C1643.25 198.859 1648.28 203.145 1653.96 206.8C1659.76 210.456 1665.74 213.292 1671.92 215.309C1678.1 217.452 1684.59 219.846 1691.4 222.493C1698.2 225.14 1704.89 228.229 1711.44 231.758C1718 235.287 1724.24 239.258 1730.16 243.67C1736.09 247.955 1741.32 252.808 1745.86 258.228C1750.39 263.649 1753.99 269.699 1756.64 276.379C1759.28 282.934 1760.61 290.119 1760.61 297.934C1760.61 309.278 1758.09 319.488 1753.04 328.563C1748.13 337.513 1741.63 345.076 1733.57 351.252C1725.5 357.429 1716.23 362.156 1705.77 365.433C1695.43 368.71 1684.91 370.349 1674.19 370.349C1666.88 370.349 1659.44 369.277 1651.88 367.134C1644.44 364.991 1637.25 362.093 1630.32 358.437C1623.51 354.656 1617.08 350.307 1611.03 345.391C1605.11 340.475 1599.94 335.181 1595.53 329.509L1626.16 294.341C1628.05 300.391 1631.33 306.82 1636 313.627C1640.78 320.434 1646.33 326.736 1652.64 332.534C1658.94 338.332 1665.68 343.185 1672.87 347.093C1680.18 350.874 1687.24 352.765 1694.05 352.765C1697.95 352.765 1701.99 351.757 1706.15 349.74C1710.31 347.723 1714.09 345.139 1717.5 341.988C1721.02 338.71 1723.92 335.181 1726.19 331.4C1728.46 327.618 1729.6 323.9 1729.6 320.244C1729.6 314.698 1728.46 309.467 1726.19 304.551C1723.92 299.509 1720.9 294.783 1717.12 290.371C1713.46 285.959 1709.18 281.925 1704.26 278.27C1699.47 274.488 1694.42 271.148 1689.13 268.249C1683.96 265.224 1678.73 262.64 1673.43 260.497C1668.27 258.228 1663.47 256.464 1659.06 255.203C1650.37 252.556 1641.86 248.775 1633.54 243.859C1625.34 238.943 1618.03 233.018 1611.6 226.086C1605.17 219.153 1600 211.401 1596.09 202.83C1592.19 194.132 1590.24 184.868 1590.24 175.036C1590.24 166.591 1591.56 158.586 1594.2 151.024C1596.85 143.461 1600.51 136.465 1605.17 130.036C1609.84 123.608 1615.32 117.81 1621.62 112.642C1627.93 107.348 1634.73 102.936 1642.05 99.4066C1649.35 95.7513 1656.98 92.9783 1664.93 91.0873C1672.87 89.0705 1680.87 88.0624 1688.94 88.0624C1706.59 88.0624 1722.98 92.0326 1738.11 99.9738C1753.23 107.789 1766.15 118.755 1776.87 132.873ZM1987.14 88.4405C1983.11 94.4907 1978.32 100.163 1972.77 105.457C1967.23 110.751 1961.11 115.415 1954.43 119.448C1947.87 123.482 1940.94 126.696 1933.63 129.091C1926.32 131.36 1919.01 132.495 1911.69 132.495L1907.35 132.873C1902.55 138.923 1898.9 144.784 1896.38 150.456C1893.86 156.129 1892.59 162.809 1892.59 170.498V291.316C1892.59 308.081 1889 323.017 1881.82 336.127C1874.76 349.109 1864.3 360.328 1850.43 369.782L1844.19 362.597C1846.33 360.202 1848.03 357.492 1849.29 354.467C1850.56 351.315 1851.5 348.101 1852.13 344.824C1852.76 341.547 1853.14 338.269 1853.27 334.992C1853.52 331.589 1853.64 328.374 1853.64 325.349V192.431C1853.64 186.507 1854.84 180.771 1857.23 175.225C1859.75 169.553 1862.91 164.196 1866.69 159.154C1870.47 154.112 1874.63 149.385 1879.17 144.973C1883.83 140.562 1888.31 136.528 1892.59 132.873L1830.01 132.495C1825.21 132.495 1820.93 132.999 1817.15 134.007C1813.49 134.889 1810.09 136.213 1806.94 137.978C1803.78 139.742 1800.76 141.948 1797.86 144.595C1794.96 147.242 1792 150.33 1788.97 153.86L1783.49 147.998C1787.65 142.326 1792.31 136.339 1797.48 130.036C1802.78 123.734 1808.45 117.999 1814.5 112.831C1820.68 107.663 1827.23 103.377 1834.17 99.9738C1841.22 96.5704 1848.6 94.8689 1856.29 94.8689H1937.98C1941.26 94.8689 1944.91 94.6798 1948.94 94.3017C1953.11 93.9236 1957.27 93.2931 1961.43 92.4107C1965.59 91.5287 1969.5 90.3939 1973.15 89.0077C1976.93 87.4948 1980.08 85.6042 1982.6 83.3356L1987.14 88.4405Z" fill="white"/>
<path d="M1448.36 317.793L1394.7 404.811C1382.6 402.676 1371.38 400.807 1361.06 399.206C1350.92 397.604 1340.86 396.092 1330.9 394.668C1321.11 393.422 1311.05 392.088 1300.73 390.664C1290.41 389.241 1279.29 387.55 1267.36 385.593C1262.74 384.703 1258.11 384.08 1253.48 383.724C1249.03 383.19 1244.49 382.923 1239.86 382.923C1230.08 382.923 1220.64 384.258 1211.57 386.927C1202.67 389.596 1194.13 393.778 1185.94 399.473L1177.66 390.664C1181.4 387.461 1184.6 383.635 1187.27 379.186C1189.94 374.738 1192.17 370.022 1193.95 365.039C1195.91 359.878 1197.33 354.718 1198.22 349.557C1199.11 344.397 1199.56 339.503 1199.56 334.876V177.39C1199.56 152.476 1203.92 129.253 1212.64 107.721C1221.36 86.1891 1233.37 67.5045 1248.68 51.6667C1264.16 35.6511 1282.31 23.1055 1303.13 14.03C1324.13 4.77648 1346.83 0.14975 1371.21 0.14975C1379.04 0.14975 1386.6 1.03951 1393.9 2.819C1401.19 4.59854 1407.6 7.44576 1413.12 11.3607C1418.82 15.2756 1423.36 20.3472 1426.74 26.5755C1430.12 32.8038 1431.81 40.4557 1431.81 49.531C1431.81 57.5392 1430.29 65.28 1427.27 72.7539C1424.24 80.2277 1420.06 87.3458 1414.72 94.1081C1409.56 100.87 1403.51 107.188 1396.57 113.06C1389.8 118.755 1382.69 123.915 1375.21 128.542C1367.74 133.168 1360.09 137.083 1352.25 140.286C1344.42 143.489 1337.04 145.981 1330.1 147.761L1325.82 137.617C1331.88 134.058 1338.11 129.965 1344.51 125.339C1351.1 120.712 1357.06 115.64 1362.4 110.124C1367.74 104.429 1372.1 98.2901 1375.48 91.7059C1378.86 84.9436 1380.55 77.6475 1380.55 69.8178C1380.55 63.5895 1379.39 57.895 1377.08 52.7345C1374.77 47.3958 1371.56 42.8581 1367.47 39.1211C1363.56 35.3841 1358.93 32.4479 1353.59 30.3125C1348.43 28.1771 1342.82 27.1094 1336.77 27.1094C1323.42 27.1094 1311.68 29.9566 1301.53 35.6511C1291.39 41.3455 1282.85 48.8195 1275.9 58.0727C1268.96 67.3264 1263.72 77.8256 1260.15 89.5703C1256.59 101.315 1254.81 113.238 1254.81 125.339V297.239C1254.81 304.002 1253.84 310.586 1251.88 316.992C1249.92 323.221 1247.25 329.271 1243.87 335.143C1240.67 340.838 1236.84 346.265 1232.39 351.426C1227.94 356.586 1223.23 361.302 1218.24 365.573C1223.94 361.48 1229.45 357.743 1234.79 354.362C1240.13 350.803 1245.56 347.778 1251.08 345.286C1256.77 342.795 1262.64 340.927 1268.7 339.681C1274.75 338.258 1281.42 337.546 1288.72 337.546C1297.62 337.546 1305.54 337.991 1312.48 338.88C1319.42 339.77 1326.18 340.749 1332.77 341.816C1339.53 342.706 1346.38 343.596 1353.32 344.485C1360.26 345.376 1368.18 345.82 1377.08 345.82C1383.31 345.82 1389.27 344.931 1394.97 343.151C1400.84 341.194 1406.36 338.613 1411.52 335.41C1416.68 332.207 1421.49 328.559 1425.93 324.466C1430.56 320.195 1434.75 315.657 1438.48 310.853L1448.36 317.793Z" fill="white"/>
</svg>
