<svg width="1933" height="71" viewBox="0 0 1933 71" fill="none" xmlns="http://www.w3.org/2000/svg">
<path d="M29.3303 43.0983C29.3303 44.522 29.0195 45.7558 28.398 46.7997C27.7765 47.8197 26.9757 48.6619 25.9957 49.3264C25.0156 50.0144 23.8921 50.5246 22.6252 50.8566C21.3822 51.1652 20.1153 51.3195 18.8245 51.3195C17.199 51.3195 15.693 51.1061 14.3066 50.6789C12.944 50.2282 11.7369 49.5637 10.6851 48.6858C9.63335 47.8318 8.77279 46.7879 8.10349 45.5541C7.43418 44.2964 6.99195 42.861 6.77679 41.2478H0C0.0717121 43.4781 0.561747 45.5068 1.4701 47.3334C2.40236 49.1365 3.65732 50.7145 5.23498 52.0669C7.00391 53.6328 9.08354 54.831 11.474 55.6615C13.8883 56.4916 16.3384 56.907 18.8245 56.907C20.9041 56.907 22.9838 56.6223 25.0634 56.0526C27.1431 55.4598 29.0076 54.5819 30.657 53.4194C32.3063 52.2803 33.645 50.8449 34.6728 49.113C35.7246 47.3808 36.2505 45.3525 36.2505 43.027C36.2505 40.7258 35.7605 38.6972 34.7804 36.9415C33.8242 35.1857 32.5573 33.7028 30.9797 32.4928C29.3781 31.1879 27.6092 30.1202 25.673 29.2898C23.7367 28.4357 21.8005 27.712 19.8643 27.1189C18.693 26.763 17.438 26.3478 16.0994 25.8733C14.7847 25.3987 13.5655 24.8056 12.442 24.0938C11.2947 23.382 10.3505 22.516 9.60944 21.4958C8.86842 20.4518 8.48595 19.1825 8.46205 17.6878C8.46205 16.3117 8.73693 15.1016 9.28674 14.0577C9.86042 13.0138 10.6253 12.1359 11.5815 11.4241C12.5138 10.7123 13.5775 10.1785 14.7727 9.82258C15.9918 9.46669 17.2348 9.28877 18.5018 9.28877C20.0794 9.28877 21.4898 9.53788 22.7328 10.0361C23.9997 10.5106 25.0873 11.1869 25.9957 12.0647C26.904 12.9426 27.6331 13.9984 28.1829 15.2321C28.7327 16.4422 29.1032 17.7945 29.2944 19.2893H36.1071C36.0593 16.9167 35.5453 14.7695 34.5653 12.8476C33.5852 10.9258 32.2825 9.28877 30.657 7.93636C29.0315 6.58399 27.167 5.54002 25.0634 4.80451C22.9599 4.04528 20.7726 3.66566 18.5018 3.66566C16.446 3.66566 14.4022 3.986 12.3704 4.62659C10.3385 5.24345 8.52181 6.15692 6.92023 7.36695C5.31865 8.57695 4.01586 10.0599 3.01191 11.8156C2.03184 13.5713 1.54181 15.5643 1.54181 17.7945C1.54181 20.0248 2.03184 21.9703 3.01191 23.6312C4.01586 25.2682 5.3067 26.6918 6.88437 27.9019C8.43814 29.0881 10.1592 30.1084 12.0476 30.9625C13.96 31.7929 15.8365 32.5047 17.6771 33.0978C18.944 33.5012 20.2587 33.952 21.6212 34.4502C23.0077 34.9485 24.2746 35.5653 25.422 36.3008C26.5693 37.0601 27.5016 37.9854 28.2187 39.0768C28.9598 40.1682 29.3303 41.5085 29.3303 43.0983ZM44.2464 36.5856V37.3685C44.2464 40.1443 44.6527 42.7189 45.4654 45.0913C46.2784 47.4642 47.4497 49.5281 48.9795 51.2838C50.4853 53.0396 52.3261 54.4155 54.5013 55.412C56.7002 56.4085 59.1745 56.907 61.9234 56.907C64.6486 56.907 67.0988 56.4085 69.2741 55.412C71.4493 54.4155 73.3019 53.0396 74.8317 51.2838C76.3375 49.5281 77.497 47.4642 78.3096 45.0913C79.1223 42.7189 79.5286 40.1443 79.5286 37.3685V36.5856C79.5286 33.8096 79.1223 31.2354 78.3096 28.8627C77.497 26.4664 76.3375 24.3904 74.8317 22.6346C73.3019 20.8789 71.4375 19.5028 69.2382 18.5063C67.0629 17.4861 64.6009 16.976 61.8516 16.976C59.1268 16.976 56.6766 17.4861 54.5013 18.5063C52.3261 19.5028 50.4853 20.8789 48.9795 22.6346C47.4497 24.3904 46.2784 26.4664 45.4654 28.8627C44.6527 31.2354 44.2464 33.8096 44.2464 36.5856ZM50.8798 37.3685V36.5856C50.8798 34.7112 51.1071 32.9199 51.5611 31.2116C52.0152 29.4796 52.7083 27.9611 53.6405 26.6562C54.5491 25.3513 55.6844 24.3192 57.047 23.56C58.4096 22.777 60.0113 22.3855 61.8516 22.3855C63.6923 22.3855 65.294 22.777 66.6566 23.56C68.0428 24.3192 69.2023 25.3513 70.1345 26.6562C71.043 27.9611 71.7243 29.4796 72.1783 31.2116C72.6565 32.9199 72.8955 34.7112 72.8955 36.5856V37.3685C72.8955 39.2666 72.6683 41.0817 72.2142 42.8136C71.7602 44.522 71.0789 46.0287 70.1704 47.3334C69.2382 48.6384 68.0787 49.6706 66.6925 50.4298C65.3299 51.1891 63.74 51.5685 61.9234 51.5685C60.0827 51.5685 58.4692 51.1891 57.0829 50.4298C55.6967 49.6706 54.5491 48.6384 53.6405 47.3334C52.7083 46.0287 52.0152 44.522 51.5611 42.8136C51.1071 41.0817 50.8798 39.2666 50.8798 37.3685ZM88.3496 36.5856V37.3685C88.3496 40.1443 88.7559 42.7189 89.5686 45.0913C90.3812 47.4642 91.5525 49.5281 93.0824 51.2838C94.5885 53.0396 96.4289 54.4155 98.6041 55.412C100.803 56.4085 103.277 56.907 106.027 56.907C108.751 56.907 111.202 56.4085 113.377 55.412C115.552 54.4155 117.405 53.0396 118.935 51.2838C120.441 49.5281 121.6 47.4642 122.413 45.0913C123.225 42.7189 123.632 40.1443 123.632 37.3685V36.5856C123.632 33.8096 123.225 31.2354 122.413 28.8627C121.6 26.4664 120.441 24.3904 118.935 22.6346C117.405 20.8789 115.54 19.5028 113.341 18.5063C111.166 17.4861 108.704 16.976 105.955 16.976C103.23 16.976 100.779 17.4861 98.6041 18.5063C96.4289 19.5028 94.5885 20.8789 93.0824 22.6346C91.5525 24.3904 90.3812 26.4664 89.5686 28.8627C88.7559 31.2354 88.3496 33.8096 88.3496 36.5856ZM94.9826 37.3685V36.5856C94.9826 34.7112 95.2099 32.9199 95.6639 31.2116C96.1184 29.4796 96.8115 27.9611 97.7437 26.6562C98.6523 25.3513 99.7876 24.3192 101.15 23.56C102.512 22.777 104.114 22.3855 105.955 22.3855C107.796 22.3855 109.397 22.777 110.759 23.56C112.146 24.3192 113.305 25.3513 114.238 26.6562C115.146 27.9611 115.827 29.4796 116.281 31.2116C116.759 32.9199 116.998 34.7112 116.998 36.5856V37.3685C116.998 39.2666 116.772 41.0817 116.317 42.8136C115.863 44.522 115.182 46.0287 114.274 47.3334C113.341 48.6384 112.182 49.6706 110.795 50.4298C109.433 51.1891 107.843 51.5685 106.027 51.5685C104.186 51.5685 102.572 51.1891 101.186 50.4298C99.7995 49.6706 98.6523 48.6384 97.7437 47.3334C96.8115 46.0287 96.1184 44.522 95.6639 42.8136C95.2099 41.0817 94.9826 39.2666 94.9826 37.3685ZM134.317 56.1951H140.95V28.578C141.404 27.7476 141.93 26.9884 142.528 26.3003C143.15 25.6123 143.819 25.0073 144.536 24.4853C145.42 23.8921 146.388 23.4295 147.44 23.0973C148.492 22.7414 149.628 22.5635 150.847 22.5635C152.257 22.5635 153.5 22.7296 154.576 23.0617C155.675 23.3939 156.607 23.9277 157.372 24.6632C158.113 25.3987 158.675 26.3597 159.058 27.5459C159.44 28.7322 159.631 30.1796 159.631 31.8878V56.1951H166.265V31.7454C166.265 29.183 165.942 26.9765 165.297 25.1259C164.675 23.2515 163.779 21.7093 162.607 20.4993C161.436 19.2893 160.014 18.3996 158.34 17.8301C156.691 17.2607 154.85 16.976 152.819 16.976C151.313 16.9997 149.878 17.2251 148.516 17.6522C147.177 18.0555 145.934 18.6368 144.787 19.396C144.022 19.8943 143.293 20.4874 142.6 21.1755C141.93 21.8398 141.309 22.5754 140.735 23.382L140.269 17.6878H134.317V56.1951ZM238.228 8.36343H231.559V17.6878H221.376V22.777H231.559V43.7032C231.559 46.0761 231.869 48.1048 232.491 49.7892C233.136 51.4498 234.009 52.8023 235.108 53.8462C236.208 54.914 237.499 55.6971 238.981 56.1951C240.487 56.6697 242.101 56.907 243.821 56.907C244.849 56.907 245.877 56.8596 246.905 56.7645C247.957 56.6697 248.949 56.5272 249.881 56.3377C250.813 56.1713 251.674 55.9696 252.463 55.7323C253.252 55.4715 253.921 55.1747 254.471 54.8427L253.539 50.1804C253.132 50.2756 252.606 50.3942 251.961 50.5363C251.339 50.655 250.67 50.7736 249.953 50.8923C249.212 51.0109 248.459 51.1178 247.694 51.2126C246.929 51.2838 246.188 51.3195 245.471 51.3195C244.491 51.3195 243.559 51.2008 242.674 50.9635C241.813 50.7262 241.048 50.3112 240.379 49.718C239.71 49.1487 239.184 48.3773 238.802 47.4046C238.419 46.432 238.228 45.1982 238.228 43.7032V22.777H253V17.6878H238.228V8.36343ZM264.761 36.5856V37.3685C264.761 40.1443 265.168 42.7189 265.981 45.0913C266.793 47.4642 267.965 49.5281 269.494 51.2838C271 53.0396 272.841 54.4155 275.016 55.412C277.216 56.4085 279.689 56.907 282.439 56.907C285.163 56.907 287.614 56.4085 289.789 55.412C291.964 54.4155 293.817 53.0396 295.347 51.2838C296.853 49.5281 298.012 47.4642 298.825 45.0913C299.638 42.7189 300.044 40.1443 300.044 37.3685V36.5856C300.044 33.8096 299.638 31.2354 298.825 28.8627C298.012 26.4664 296.853 24.3904 295.347 22.6346C293.817 20.8789 291.952 19.5028 289.753 18.5063C287.578 17.4861 285.116 16.976 282.367 16.976C279.642 16.976 277.191 17.4861 275.016 18.5063C272.841 19.5028 271 20.8789 269.494 22.6346C267.965 24.3904 266.793 26.4664 265.981 28.8627C265.168 31.2354 264.761 33.8096 264.761 36.5856ZM271.395 37.3685V36.5856C271.395 34.7112 271.622 32.9199 272.076 31.2116C272.53 29.4796 273.224 27.9611 274.156 26.6562C275.064 25.3513 276.2 24.3192 277.562 23.56C278.924 22.777 280.526 22.3855 282.367 22.3855C284.207 22.3855 285.809 22.777 287.171 23.56C288.558 24.3192 289.717 25.3513 290.649 26.6562C291.558 27.9611 292.239 29.4796 292.693 31.2116C293.171 32.9199 293.41 34.7112 293.41 36.5856V37.3685C293.41 39.2666 293.183 41.0817 292.729 42.8136C292.275 44.522 291.594 46.0287 290.685 47.3334C289.753 48.6384 288.594 49.6706 287.207 50.4298C285.845 51.1891 284.255 51.5685 282.439 51.5685C280.598 51.5685 278.984 51.1891 277.598 50.4298C276.211 49.6706 275.064 48.6384 274.156 47.3334C273.224 46.0287 272.53 44.522 272.076 42.8136C271.622 41.0817 271.395 39.2666 271.395 37.3685ZM387.712 37.3685V36.6212C387.712 34.6045 387.545 32.6945 387.21 30.8913C386.875 29.0644 386.385 27.4036 385.74 25.9089C385.118 24.5802 384.401 23.382 383.588 22.3143C382.776 21.2229 381.855 20.2977 380.827 19.5384C379.68 18.7317 378.401 18.103 376.991 17.6522C375.581 17.2014 374.039 16.976 372.365 16.976C371.027 16.976 369.784 17.1065 368.637 17.3675C367.489 17.6285 366.437 18.0081 365.481 18.5063C364.716 18.9097 363.999 19.3961 363.33 19.9655C362.66 20.5112 362.051 21.128 361.501 21.8161V1.53033H354.868V56.1951H360.963L361.286 51.8175C361.716 52.3633 362.17 52.8618 362.649 53.3125C363.127 53.7632 363.628 54.1786 364.154 54.558C365.254 55.3173 366.485 55.8987 367.848 56.302C369.234 56.7054 370.764 56.907 372.437 56.907C373.895 56.907 375.246 56.7288 376.489 56.3729C377.756 56.0174 378.915 55.5189 379.967 54.8783C381.425 53.9531 382.668 52.7905 383.696 51.3907C384.748 49.967 385.596 48.3655 386.242 46.5863C386.72 45.2338 387.079 43.7862 387.318 42.2443C387.58 40.6784 387.712 39.0531 387.712 37.3685ZM381.079 36.6212V37.3685C381.079 38.5074 381.007 39.6225 380.863 40.7141C380.72 41.8053 380.493 42.8254 380.182 43.7745C379.8 45.0322 379.286 46.1708 378.64 47.1912C377.995 48.2113 377.194 49.0535 376.238 49.718C375.521 50.2399 374.708 50.6432 373.8 50.9279C372.891 51.1891 371.887 51.3195 370.788 51.3195C369.641 51.3195 368.589 51.1769 367.633 50.8923C366.676 50.5841 365.816 50.1569 365.051 49.6111C364.286 49.0656 363.605 48.4368 363.007 47.7249C362.434 46.9896 361.931 46.1947 361.501 45.3403V28.5069C361.907 27.6527 362.398 26.8697 362.971 26.158C363.569 25.4225 364.25 24.7819 365.015 24.2362C365.756 23.7142 366.605 23.3109 367.561 23.0261C368.517 22.7177 369.569 22.5635 370.716 22.5635C371.768 22.5635 372.724 22.6821 373.585 22.9194C374.445 23.1566 375.222 23.4888 375.915 23.9159C376.919 24.509 377.768 25.3275 378.461 26.3715C379.154 27.4155 379.716 28.5662 380.147 29.8236C380.457 30.8439 380.684 31.9353 380.827 33.0978C380.995 34.2367 381.079 35.4111 381.079 36.6212ZM416.073 56.907C419.85 56.907 423.02 56.1595 425.574 54.6649C428.156 53.1465 430.094 51.4142 431.383 49.4689L427.332 46.3369C426.112 47.9027 424.583 49.1604 422.743 50.1095C420.903 51.0583 418.798 51.5328 416.432 51.5328C414.641 51.5328 413.001 51.2008 411.52 50.5363C410.039 49.8722 408.77 48.9587 407.719 47.7962C406.692 46.7045 405.879 45.4472 405.281 44.0235C404.708 42.6002 404.337 40.9514 404.17 39.0768V38.8277H431.885V35.8738C431.885 33.1928 431.538 30.7015 430.845 28.4001C430.176 26.0986 429.148 24.0938 427.765 22.3855C426.378 20.701 424.632 19.3842 422.526 18.4351C420.45 17.4624 418.01 16.976 415.212 16.976C412.992 16.976 410.814 17.4268 408.688 18.3284C406.584 19.2299 404.708 20.523 403.059 22.2076C401.385 23.9159 400.047 26.0038 399.043 28.4713C398.039 30.9151 397.536 33.691 397.536 36.7991V38.2938C397.536 40.9748 397.991 43.4542 398.899 45.7319C399.807 48.0096 401.074 49.9787 402.7 51.6397C404.325 53.3007 406.273 54.5937 408.546 55.5189C410.838 56.4442 413.347 56.907 416.073 56.907ZM415.212 22.3855C416.909 22.3855 418.369 22.694 419.589 23.3109C420.829 23.9277 421.857 24.7344 422.673 25.7309C423.485 26.7274 424.118 27.9137 424.57 29.2898C425.027 30.6422 425.252 31.9115 425.252 33.0978V33.4181H404.385C404.648 31.6387 405.102 30.0728 405.747 28.7204C406.417 27.3443 407.23 26.1817 408.187 25.2327C409.141 24.3073 410.218 23.6074 411.414 23.1329C412.609 22.6346 413.874 22.3855 415.212 22.3855ZM520.952 40.6072H514.318C514.106 42.173 513.735 43.6324 513.208 44.9844C512.682 46.3134 511.976 47.4642 511.091 48.4368C510.21 49.4333 509.121 50.2043 507.831 50.7501C506.563 51.2956 505.057 51.5685 503.311 51.5685C501.712 51.5685 500.313 51.3195 499.117 50.8214C497.922 50.299 496.882 49.5876 495.996 48.6858C495.111 47.8079 494.385 46.7879 493.81 45.625C493.235 44.4625 492.77 43.2169 492.41 41.8884C492.051 40.5833 491.79 39.2548 491.623 37.9024C491.48 36.5263 491.407 35.1976 491.407 33.9164V26.6206C491.407 25.3394 491.48 24.0226 491.623 22.6702C491.79 21.2941 492.051 19.9536 492.41 18.6487C492.77 17.3437 493.235 16.11 493.81 14.9474C494.409 13.7848 495.148 12.7646 496.033 11.8868C496.894 11.0089 497.922 10.3208 499.117 9.82258C500.337 9.30063 501.732 9.03962 503.311 9.03962C505.057 9.03962 506.563 9.33618 507.831 9.92936C509.121 10.4988 510.21 11.2936 511.091 12.3138C511.976 13.334 512.682 14.5204 513.208 15.8727C513.735 17.2251 514.106 18.6843 514.318 20.2502H520.952C520.666 17.7827 520.07 15.5287 519.161 13.4882C518.275 11.4478 517.092 9.69207 515.611 8.22106C514.13 6.77378 512.36 5.65866 510.304 4.8757C508.248 4.06901 505.918 3.66566 503.311 3.66566C501.137 3.66566 499.179 3.97413 497.432 4.59099C495.686 5.18413 494.132 6.01455 492.769 7.08221C491.382 8.14992 490.187 9.41923 489.184 10.8902C488.204 12.3376 487.393 13.9153 486.748 15.6236C486.079 17.3319 485.577 19.1232 485.238 20.9976C484.928 22.8719 484.761 24.77 484.737 26.6918V33.9164C484.761 35.8382 484.928 37.7363 485.238 39.6107C485.577 41.4851 486.079 43.2764 486.748 44.9844C487.393 46.6928 488.204 48.2708 489.184 49.718C490.187 51.1652 491.382 52.4229 492.769 53.4903C494.132 54.558 495.686 55.4003 497.432 56.0174C499.199 56.6102 501.161 56.907 503.311 56.907C505.82 56.907 508.093 56.5154 510.124 55.7323C512.18 54.9257 513.963 53.7988 515.469 52.3516C516.949 50.9279 518.157 49.2195 519.087 47.2269C520.021 45.2099 520.641 43.0035 520.952 40.6072ZM548.383 56.907C552.161 56.907 555.326 56.1595 557.884 54.6649C560.467 53.1465 562.405 51.4142 563.694 49.4689L559.643 46.3369C558.423 47.9027 556.893 49.1604 555.053 50.1095C553.213 51.0583 551.108 51.5328 548.742 51.5328C546.947 51.5328 545.311 51.2008 543.83 50.5363C542.349 49.8722 541.08 48.9587 540.028 47.7962C539 46.7045 538.188 45.4472 537.592 44.0235C537.017 42.6002 536.646 40.9514 536.479 39.0768V38.8277H564.196V35.8738C564.196 33.1928 563.849 30.7015 563.155 28.4001C562.486 26.0986 561.458 24.0938 560.071 22.3855C558.684 20.701 556.942 19.3842 554.837 18.4351C552.756 17.4624 550.321 16.976 547.522 16.976C545.299 16.976 543.124 17.4268 540.995 18.3284C538.894 19.2299 537.017 20.523 535.369 22.2076C533.692 23.9159 532.354 26.0038 531.351 28.4713C530.347 30.9151 529.845 33.691 529.845 36.7991V38.2938C529.845 40.9748 530.298 43.4542 531.208 45.7319C532.117 48.0096 533.382 49.9787 535.01 51.6397C536.634 53.3007 538.584 54.5937 540.852 55.5189C543.149 56.4442 545.658 56.907 548.383 56.907ZM547.522 22.3855C549.219 22.3855 550.68 22.694 551.896 23.3109C553.14 23.9277 554.168 24.7344 554.98 25.7309C555.792 26.7274 556.428 27.9137 556.881 29.2898C557.334 30.6422 557.562 31.9115 557.562 33.0978V33.4181H536.695C536.956 31.6387 537.413 30.0728 538.057 28.7204C538.726 27.3443 539.538 26.1817 540.493 25.2327C541.452 24.3073 542.525 23.6074 543.72 23.1329C544.915 22.6346 546.184 22.3855 547.522 22.3855ZM608.227 37.3685V36.6212C608.227 34.6045 608.06 32.6945 607.725 30.8913C607.391 29.0644 606.901 27.4036 606.257 25.9089C605.632 24.5802 604.914 23.382 604.103 22.3143C603.291 21.2229 602.369 20.2977 601.341 19.5384C600.194 18.7317 598.917 18.103 597.506 17.6522C596.094 17.2014 594.552 16.976 592.879 16.976C591.541 16.976 590.297 17.1065 589.151 17.3675C588.004 17.6285 586.952 18.0081 585.997 18.5063C585.23 18.9097 584.512 19.3961 583.843 19.9655C583.174 20.5112 582.566 21.128 582.015 21.8161V1.53033H575.382V56.1951H581.477L581.799 51.8175C582.232 52.3633 582.684 52.8618 583.162 53.3125C583.643 53.7632 584.145 54.1786 584.671 54.558C585.769 55.3173 587.001 55.8987 588.363 56.302C589.75 56.7054 591.28 56.907 592.953 56.907C594.409 56.907 595.76 56.7288 597.004 56.3729C598.273 56.0174 599.431 55.5189 600.484 54.8783C601.94 53.9531 603.185 52.7905 604.213 51.3907C605.261 49.967 606.11 48.3655 606.758 46.5863C607.236 45.2338 607.595 43.7862 607.831 42.2443C608.096 40.6784 608.227 39.0531 608.227 37.3685ZM601.594 36.6212V37.3685C601.594 38.5074 601.52 39.6225 601.377 40.7141C601.235 41.8053 601.006 42.8254 600.696 43.7745C600.317 45.0322 599.803 46.1708 599.154 47.1912C598.509 48.2113 597.71 49.0535 596.751 49.718C596.037 50.2399 595.221 50.6432 594.315 50.9279C593.406 51.1891 592.402 51.3195 591.305 51.3195C590.154 51.3195 589.102 51.1769 588.147 50.8923C587.192 50.5841 586.332 50.1569 585.565 49.6111C584.802 49.0656 584.121 48.4368 583.521 47.7249C582.95 46.9896 582.448 46.1947 582.015 45.3403V28.5069C582.423 27.6527 582.913 26.8697 583.488 26.158C584.084 25.4225 584.765 24.7819 585.528 24.2362C586.27 23.7142 587.119 23.3109 588.078 23.0261C589.032 22.7177 590.085 22.5635 591.231 22.5635C592.284 22.5635 593.238 22.6821 594.099 22.9194C594.96 23.1566 595.735 23.4888 596.429 23.9159C597.432 24.509 598.281 25.3275 598.974 26.3715C599.668 27.4155 600.231 28.5662 600.659 29.8236C600.973 30.8439 601.198 31.9353 601.341 33.0978C601.508 34.2367 601.594 35.4111 601.594 36.6212ZM645.017 56.1951H651.039V17.6878H644.368V45.3047C644.009 46.1352 643.557 46.9066 643.006 47.618C642.48 48.3064 641.859 48.8992 641.141 49.3977C640.281 50.0144 639.265 50.5011 638.094 50.8566C636.923 51.1891 635.597 51.3551 634.116 51.3551C632.848 51.3551 631.726 51.1891 630.747 50.8566C629.788 50.5246 628.976 49.9435 628.307 49.113C627.638 48.3064 627.136 47.2147 626.802 45.8388C626.467 44.4625 626.3 42.7306 626.3 40.6428V17.6878H619.666V40.5715C619.666 43.4425 619.976 45.9101 620.596 47.974C621.241 50.0144 622.151 51.6989 623.322 53.0278C624.492 54.3564 625.904 55.3412 627.552 55.9818C629.204 56.5985 631.044 56.907 633.076 56.907C635.609 56.907 637.845 56.3851 639.779 55.3412C641.717 54.2734 643.328 52.7905 644.621 50.8923L645.017 56.1951ZM683.704 5.97895V0.747373H677.213V6.08573C677.213 8.12619 676.928 10.0243 676.353 11.78C675.802 13.5357 674.966 15.2559 673.844 16.9404L677.466 19.5028C678.47 18.6487 679.355 17.6759 680.118 16.5845C680.885 15.4931 681.542 14.3424 682.089 13.1324C682.615 11.9461 683.011 10.736 683.272 9.50228C683.561 8.26852 683.704 7.09408 683.704 5.97895ZM733.435 45.9809C733.435 46.598 733.317 47.1791 733.076 47.7249C732.839 48.2708 732.492 48.7688 732.04 49.2195C731.297 49.9553 730.269 50.5363 728.955 50.9635C727.638 51.3668 726.1 51.5685 724.329 51.5685C723.207 51.5685 722.069 51.4498 720.923 51.2126C719.776 50.9753 718.736 50.572 717.802 50.0026C716.847 49.4333 716.047 48.6858 715.399 47.7606C714.779 46.8353 714.42 45.6963 714.326 44.3438H707.692C707.692 45.9809 708.064 47.5589 708.802 49.0774C709.569 50.5959 710.666 51.9244 712.102 53.0635C713.514 54.226 715.244 55.163 717.3 55.8749C719.356 56.5628 721.698 56.907 724.329 56.907C726.622 56.907 728.739 56.6341 730.677 56.0882C732.611 55.5428 734.271 54.7714 735.658 53.7749C737.045 52.7784 738.122 51.5806 738.885 50.1804C739.677 48.7806 740.068 47.2269 740.068 45.5185C740.068 43.9288 739.722 42.5289 739.028 41.319C738.359 40.1087 737.38 39.0412 736.091 38.1159C734.797 37.2143 733.21 36.4432 731.322 35.8026C729.433 35.1383 727.295 34.557 724.904 34.0587C723.085 33.7028 721.579 33.3351 720.384 32.9555C719.213 32.5759 718.283 32.1488 717.59 31.6743C716.872 31.1998 716.37 30.6659 716.08 30.0728C715.794 29.4796 715.652 28.8034 715.652 28.0442C715.652 27.3087 715.831 26.5969 716.19 25.9089C716.549 25.2208 717.088 24.6158 717.802 24.0938C718.495 23.5718 719.368 23.1566 720.421 22.8482C721.498 22.5398 722.738 22.3855 724.15 22.3855C725.512 22.3855 726.732 22.5754 727.809 22.955C728.906 23.3346 729.841 23.8328 730.604 24.4497C731.371 25.0666 731.966 25.7784 732.394 26.585C732.827 27.368 733.043 28.1747 733.043 29.0051H739.677C739.677 27.3205 739.305 25.7546 738.563 24.3073C737.845 22.8363 736.817 21.5551 735.479 20.4637C734.141 19.3723 732.517 18.5182 730.604 17.9013C728.69 17.2844 726.54 16.976 724.15 16.976C721.926 16.976 719.882 17.2726 718.018 17.8657C716.178 18.4589 714.587 19.2655 713.249 20.2858C711.911 21.306 710.87 22.5042 710.128 23.8803C709.39 25.2327 709.018 26.6918 709.018 28.2577C709.018 29.8474 709.377 31.2472 710.095 32.4573C710.809 33.6435 711.829 34.6756 713.143 35.5535C714.432 36.4551 715.986 37.2262 717.802 37.8668C719.646 38.5074 721.677 39.0531 723.897 39.5039C725.716 39.8598 727.234 40.263 728.454 40.7141C729.673 41.1409 730.653 41.6154 731.391 42.1374C732.133 42.6593 732.66 43.2408 732.97 43.8814C733.28 44.4981 733.435 45.1982 733.435 45.9809ZM795.861 56.1951H802.495V28.578C802.948 27.7476 803.474 26.9884 804.074 26.3003C804.694 25.6123 805.363 25.0073 806.081 24.4853C806.966 23.8921 807.933 23.4295 808.985 23.0973C810.038 22.7414 811.172 22.5635 812.392 22.5635C813.803 22.5635 815.044 22.7296 816.121 23.0617C817.218 23.3939 818.152 23.9277 818.919 24.6632C819.658 25.3987 820.221 26.3597 820.604 27.5459C820.984 28.7322 821.175 30.1796 821.175 31.8878V56.1951H827.809V31.7454C827.809 29.183 827.487 26.9765 826.842 25.1259C826.222 23.2515 825.324 21.7093 824.154 20.4993C822.983 19.2893 821.559 18.3996 819.886 17.8301C818.238 17.2607 816.394 16.976 814.362 16.976C812.857 16.9997 811.425 17.2251 810.062 17.6522C808.72 18.0555 807.48 18.6368 806.334 19.396C805.567 19.8943 804.836 20.4874 804.143 21.1755C803.474 21.8398 802.854 22.5754 802.279 23.382L801.813 17.6878H795.861V56.1951ZM838.102 36.5856V37.3685C838.102 40.1443 838.506 42.7189 839.317 45.0913C840.133 47.4642 841.304 49.5281 842.834 51.2838C844.339 53.0396 846.179 54.4155 848.354 55.412C850.553 56.4085 853.029 56.907 855.779 56.907C858.504 56.907 860.952 56.4085 863.126 55.412C865.305 54.4155 867.157 53.0396 868.687 51.2838C870.192 49.5281 871.351 47.4642 872.163 45.0913C872.974 42.7189 873.382 40.1443 873.382 37.3685V36.5856C873.382 33.8096 872.974 31.2354 872.163 28.8627C871.351 26.4664 870.192 24.3904 868.687 22.6346C867.157 20.8789 865.292 19.5028 863.094 18.5063C860.915 17.4861 858.455 16.976 855.705 16.976C852.98 16.976 850.532 17.4861 848.354 18.5063C846.179 19.5028 844.339 20.8789 842.834 22.6346C841.304 24.3904 840.133 26.4664 839.317 28.8627C838.506 31.2354 838.102 33.8096 838.102 36.5856ZM844.735 37.3685V36.5856C844.735 34.7112 844.96 32.9199 845.417 31.2116C845.869 29.4796 846.563 27.9611 847.493 26.6562C848.403 25.3513 849.537 24.3192 850.9 23.56C852.262 22.777 853.865 22.3855 855.705 22.3855C857.545 22.3855 859.148 22.777 860.511 23.56C861.898 24.3192 863.057 25.3513 863.987 26.6562C864.897 27.9611 865.578 29.4796 866.031 31.2116C866.512 32.9199 866.749 34.7112 866.749 36.5856V37.3685C866.749 39.2666 866.52 41.0817 866.068 42.8136C865.615 44.522 864.933 46.0287 864.024 47.3334C863.093 48.6384 861.931 49.6706 860.548 50.4298C859.185 51.1891 857.594 51.5685 855.779 51.5685C853.935 51.5685 852.323 51.1891 850.936 50.4298C849.549 49.6706 848.403 48.6384 847.493 47.3334C846.563 46.0287 845.869 44.522 845.417 42.8136C844.96 41.0817 844.735 39.2666 844.735 37.3685ZM895.612 51.9244C895.612 53.3007 896.045 54.475 896.905 55.4477C897.791 56.3968 899.092 56.8714 900.814 56.8714C902.511 56.8714 903.812 56.3968 904.722 55.4477C905.628 54.4989 906.085 53.3242 906.085 51.9244C906.085 50.5011 905.628 49.3029 904.722 48.3299C903.837 47.3334 902.535 46.8353 900.814 46.8353C899.068 46.8353 897.766 47.3334 896.905 48.3299C896.045 49.3264 895.612 50.5246 895.612 51.9244ZM949.684 56.1951V4.37744H949.145L929.392 11.9224V17.9369L943.05 12.7765V56.1951H949.684ZM1041.87 56.1951H1048.79V55.6258C1048.36 54.558 1048.03 53.3125 1047.79 51.8888C1047.55 50.4416 1047.43 49.0774 1047.43 47.7962V29.8948C1047.43 27.7358 1047.04 25.8495 1046.24 24.2362C1045.46 22.6228 1044.38 21.2704 1043.02 20.179C1041.63 19.1113 1039.99 18.3165 1038.11 17.7945C1036.22 17.2489 1034.17 16.976 1031.97 16.976C1029.56 16.976 1027.4 17.3081 1025.48 17.9725C1023.59 18.6368 1021.99 19.5028 1020.68 20.5705C1019.34 21.6619 1018.31 22.8838 1017.6 24.2362C1016.9 25.5886 1016.54 26.9647 1016.52 28.3645H1023.19C1023.19 27.5578 1023.38 26.7867 1023.76 26.0512C1024.17 25.292 1024.73 24.6395 1025.45 24.0938C1026.16 23.5481 1027.04 23.1092 1028.07 22.777C1029.12 22.4448 1030.3 22.2787 1031.61 22.2787C1033.03 22.2787 1034.29 22.4567 1035.42 22.8126C1036.56 23.1685 1037.53 23.6667 1038.32 24.3073C1039.11 24.9717 1039.72 25.7665 1040.15 26.6918C1040.58 27.6171 1040.79 28.6611 1040.79 29.8236V32.8487H1033.55C1030.85 32.8487 1028.4 33.1097 1026.2 33.6317C1024.03 34.1536 1022.16 34.9366 1020.61 35.9805C1019.05 37.0482 1017.85 38.3769 1016.99 39.9665C1016.15 41.5563 1015.73 43.4068 1015.73 45.5185C1015.73 47.1317 1016.04 48.6384 1016.66 50.0383C1017.31 51.4142 1018.22 52.6006 1019.39 53.5972C1020.53 54.6176 1021.93 55.4242 1023.58 56.0174C1025.26 56.6102 1027.12 56.907 1029.18 56.907C1030.44 56.907 1031.64 56.7766 1032.76 56.5154C1033.89 56.2543 1034.95 55.8987 1035.96 55.4477C1036.93 54.997 1037.83 54.475 1038.64 53.8818C1039.48 53.2886 1040.23 52.6602 1040.9 51.9957C1040.97 52.8023 1041.08 53.5854 1041.23 54.3446C1041.39 55.08 1041.61 55.6971 1041.87 56.1951ZM1030.15 51.1769C1028.85 51.1769 1027.72 51.0109 1026.74 50.6789C1025.76 50.3468 1024.94 49.884 1024.3 49.2908C1023.66 48.7215 1023.17 48.0335 1022.83 47.2269C1022.52 46.4199 1022.37 45.542 1022.37 44.5933C1022.37 43.5967 1022.55 42.7067 1022.9 41.924C1023.28 41.1409 1023.83 40.4646 1024.55 39.8954C1025.56 39.0887 1026.91 38.4955 1028.6 38.1159C1030.33 37.7126 1032.33 37.5109 1034.63 37.5109H1040.79V45.3047C1040.41 46.0639 1039.89 46.7997 1039.22 47.5115C1038.55 48.1995 1037.76 48.8162 1036.85 49.362C1035.92 49.9079 1034.89 50.3468 1033.77 50.6789C1032.64 51.0109 1031.44 51.1769 1030.15 51.1769ZM1077.01 51.5685C1074.93 51.5685 1073.19 51.1652 1071.77 50.3586C1070.39 49.5281 1069.28 48.4485 1068.44 47.12C1067.58 45.8149 1066.96 44.3438 1066.58 42.7067C1066.22 41.0461 1066.04 39.3734 1066.04 37.6888V36.1941C1066.04 34.5333 1066.22 32.8843 1066.58 31.2472C1066.96 29.6101 1067.58 28.1272 1068.44 26.7986C1069.3 25.4936 1070.42 24.4378 1071.81 23.6312C1073.22 22.8007 1074.95 22.3855 1077.01 22.3855C1078.35 22.3855 1079.59 22.6109 1080.74 23.0617C1081.91 23.5125 1082.91 24.1294 1083.75 24.9123C1084.59 25.6953 1085.25 26.6088 1085.72 27.6527C1086.22 28.6729 1086.49 29.7643 1086.51 30.9269H1092.78C1092.78 28.9814 1092.39 27.1544 1091.6 25.4462C1090.81 23.7379 1089.72 22.255 1088.34 20.9976C1086.93 19.7638 1085.26 18.7911 1083.32 18.0792C1081.41 17.3437 1079.31 16.976 1077.01 16.976C1074.07 16.976 1071.5 17.498 1069.3 18.5419C1067.1 19.5858 1065.27 20.9857 1063.82 22.7414C1062.33 24.5209 1061.22 26.5732 1060.48 28.8983C1059.74 31.2235 1059.37 33.6554 1059.37 36.1941V37.6888C1059.37 40.2512 1059.74 42.695 1060.48 45.02C1061.22 47.3216 1062.33 49.3503 1063.82 51.1061C1065.27 52.8853 1067.1 54.2969 1069.3 55.3412C1071.5 56.3851 1074.07 56.907 1077.01 56.907C1079.06 56.907 1081.04 56.5628 1082.92 55.8749C1084.81 55.163 1086.49 54.2139 1087.95 53.0278C1089.4 51.8653 1090.56 50.5128 1091.42 48.9705C1092.31 47.4046 1092.76 45.7675 1092.78 44.0592H1086.51C1086.49 45.1269 1086.2 46.1235 1085.65 47.0487C1085.12 47.9505 1084.42 48.7332 1083.54 49.3977C1082.65 50.0856 1081.64 50.6193 1080.49 50.9992C1079.36 51.3786 1078.2 51.5685 1077.01 51.5685ZM1121.11 51.5685C1119.03 51.5685 1117.29 51.1652 1115.88 50.3586C1114.49 49.5281 1113.38 48.4485 1112.54 47.12C1111.68 45.8149 1111.06 44.3438 1110.68 42.7067C1110.32 41.0461 1110.14 39.3734 1110.14 37.6888V36.1941C1110.14 34.5333 1110.32 32.8843 1110.68 31.2472C1111.06 29.6101 1111.68 28.1272 1112.54 26.7986C1113.4 25.4936 1114.53 24.4378 1115.91 23.6312C1117.32 22.8007 1119.06 22.3855 1121.11 22.3855C1122.45 22.3855 1123.7 22.6109 1124.84 23.0617C1126.01 23.5125 1127.02 24.1294 1127.85 24.9123C1128.69 25.6953 1129.35 26.6088 1129.82 27.6527C1130.33 28.6729 1130.59 29.7643 1130.62 30.9269H1136.89C1136.89 28.9814 1136.49 27.1544 1135.71 25.4462C1134.92 23.7379 1133.83 22.255 1132.44 20.9976C1131.03 19.7638 1129.36 18.7911 1127.42 18.0792C1125.51 17.3437 1123.41 16.976 1121.11 16.976C1118.17 16.976 1115.6 17.498 1113.4 18.5419C1111.2 19.5858 1109.38 20.9857 1107.92 22.7414C1106.43 24.5209 1105.33 26.5732 1104.58 28.8983C1103.84 31.2235 1103.47 33.6554 1103.47 36.1941V37.6888C1103.47 40.2512 1103.84 42.695 1104.58 45.02C1105.33 47.3216 1106.43 49.3503 1107.92 51.1061C1109.38 52.8853 1111.2 54.2969 1113.4 55.3412C1115.6 56.3851 1118.17 56.907 1121.11 56.907C1123.17 56.907 1125.14 56.5628 1127.03 55.8749C1128.92 55.163 1130.59 54.2139 1132.05 53.0278C1133.51 51.8653 1134.67 50.5128 1135.53 48.9705C1136.41 47.4046 1136.86 45.7675 1136.89 44.0592H1130.62C1130.59 45.1269 1130.31 46.1235 1129.75 47.0487C1129.23 47.9505 1128.52 48.7332 1127.64 49.3977C1126.76 50.0856 1125.74 50.6193 1124.59 50.9992C1123.47 51.3786 1122.31 51.5685 1121.11 51.5685ZM1146.82 36.5856V37.3685C1146.82 40.1443 1147.23 42.7189 1148.04 45.0913C1148.86 47.4642 1150.03 49.5281 1151.56 51.2838C1153.06 53.0396 1154.9 54.4155 1157.08 55.412C1159.27 56.4085 1161.75 56.907 1164.5 56.907C1167.22 56.907 1169.67 56.4085 1171.85 55.412C1174.02 54.4155 1175.88 53.0396 1177.41 51.2838C1178.91 49.5281 1180.07 47.4642 1180.88 45.0913C1181.7 42.7189 1182.1 40.1443 1182.1 37.3685V36.5856C1182.1 33.8096 1181.7 31.2354 1180.88 28.8627C1180.07 26.4664 1178.91 24.3904 1177.41 22.6346C1175.88 20.8789 1174.01 19.5028 1171.81 18.5063C1169.64 17.4861 1167.18 16.976 1164.43 16.976C1161.7 16.976 1159.25 17.4861 1157.08 18.5063C1154.9 19.5028 1153.06 20.8789 1151.56 22.6346C1150.03 24.3904 1148.86 26.4664 1148.04 28.8627C1147.23 31.2354 1146.82 33.8096 1146.82 36.5856ZM1153.45 37.3685V36.5856C1153.45 34.7112 1153.68 32.9199 1154.13 31.2116C1154.59 29.4796 1155.28 27.9611 1156.21 26.6562C1157.12 25.3513 1158.26 24.3192 1159.62 23.56C1160.98 22.777 1162.59 22.3855 1164.43 22.3855C1166.27 22.3855 1167.87 22.777 1169.23 23.56C1170.62 24.3192 1171.78 25.3513 1172.71 26.6562C1173.62 27.9611 1174.3 29.4796 1174.75 31.2116C1175.23 32.9199 1175.47 34.7112 1175.47 36.5856V37.3685C1175.47 39.2666 1175.24 41.0817 1174.79 42.8136C1174.34 44.522 1173.66 46.0287 1172.75 47.3334C1171.81 48.6384 1170.65 49.6706 1169.27 50.4298C1167.9 51.1891 1166.32 51.5685 1164.5 51.5685C1162.66 51.5685 1161.04 51.1891 1159.66 50.4298C1158.27 49.6706 1157.12 48.6384 1156.21 47.3334C1155.28 46.0287 1154.59 44.522 1154.13 42.8136C1153.68 41.0817 1153.45 39.2666 1153.45 37.3685ZM1195.84 17.6878H1189.88V56.1951H1196.19V25.553C1196.34 25.1734 1196.52 24.8175 1196.73 24.4853C1196.97 24.1531 1197.25 23.8565 1197.56 23.5956C1197.97 23.2634 1198.46 23.0143 1199.03 22.8482C1199.63 22.6584 1200.32 22.5635 1201.11 22.5635C1201.82 22.5635 1202.45 22.6584 1202.97 22.8482C1203.52 23.0143 1203.97 23.2871 1204.33 23.6667C1204.72 24.0701 1204.99 24.5802 1205.16 25.1971C1205.35 25.8139 1205.45 26.5257 1205.45 27.3324V56.1951H1211.75V27.368C1211.75 27.2256 1211.75 27.107 1211.75 27.0121C1211.75 26.8935 1211.75 26.7749 1211.75 26.6562C1211.83 26.0631 1211.97 25.5292 1212.19 25.0547C1212.4 24.5564 1212.7 24.1175 1213.08 23.7379C1213.46 23.382 1213.95 23.0973 1214.52 22.8838C1215.09 22.6702 1215.77 22.5635 1216.56 22.5635C1217.3 22.5635 1217.95 22.6584 1218.5 22.8482C1219.07 23.038 1219.55 23.3227 1219.93 23.7023C1220.29 24.1057 1220.57 24.6158 1220.76 25.2327C1220.95 25.8495 1221.04 26.5613 1221.04 27.368V56.1951H1227.36V27.4392C1227.36 25.5886 1227.14 23.987 1226.71 22.6346C1226.28 21.2585 1225.66 20.1434 1224.84 19.2893C1224.1 18.53 1223.19 17.9606 1222.12 17.581C1221.04 17.1777 1219.84 16.976 1218.5 16.976C1217.52 16.9997 1216.61 17.1302 1215.77 17.3675C1214.96 17.6047 1214.22 17.925 1213.55 18.3284C1213.02 18.6843 1212.53 19.0995 1212.08 19.574C1211.62 20.0485 1211.23 20.5586 1210.9 21.1043C1210.63 20.5112 1210.31 19.9773 1209.93 19.5028C1209.57 19.0283 1209.16 18.625 1208.71 18.2928C1208.09 17.8657 1207.36 17.5454 1206.52 17.3319C1205.71 17.0946 1204.79 16.976 1203.76 16.976C1201.94 16.9997 1200.39 17.3912 1199.1 18.1504C1197.83 18.9097 1196.8 19.9655 1196.02 21.3179L1195.84 17.6878ZM1235.03 36.5856V37.3685C1235.03 40.1443 1235.43 42.7189 1236.24 45.0913C1237.06 47.4642 1238.23 49.5281 1239.76 51.2838C1241.27 53.0396 1243.11 54.4155 1245.28 55.412C1247.48 56.4085 1249.96 56.907 1252.71 56.907C1255.43 56.907 1257.88 56.4085 1260.05 55.412C1262.23 54.4155 1264.08 53.0396 1265.61 51.2838C1267.12 49.5281 1268.28 47.4642 1269.09 45.0913C1269.9 42.7189 1270.31 40.1443 1270.31 37.3685V36.5856C1270.31 33.8096 1269.9 31.2354 1269.09 28.8627C1268.28 26.4664 1267.12 24.3904 1265.61 22.6346C1264.08 20.8789 1262.22 19.5028 1260.02 18.5063C1257.84 17.4861 1255.38 16.976 1252.63 16.976C1249.91 16.976 1247.46 17.4861 1245.28 18.5063C1243.11 19.5028 1241.27 20.8789 1239.76 22.6346C1238.23 24.3904 1237.06 26.4664 1236.24 28.8627C1235.43 31.2354 1235.03 33.8096 1235.03 36.5856ZM1241.66 37.3685V36.5856C1241.66 34.7112 1241.89 32.9199 1242.34 31.2116C1242.8 29.4796 1243.49 27.9611 1244.42 26.6562C1245.33 25.3513 1246.46 24.3192 1247.83 23.56C1249.19 22.777 1250.79 22.3855 1252.63 22.3855C1254.47 22.3855 1256.08 22.777 1257.44 23.56C1258.83 24.3192 1259.98 25.3513 1260.91 26.6562C1261.82 27.9611 1262.51 29.4796 1262.96 31.2116C1263.44 32.9199 1263.68 34.7112 1263.68 36.5856V37.3685C1263.68 39.2666 1263.45 41.0817 1262.99 42.8136C1262.54 44.522 1261.86 46.0287 1260.95 47.3334C1260.02 48.6384 1258.86 49.6706 1257.48 50.4298C1256.11 51.1891 1254.52 51.5685 1252.71 51.5685C1250.86 51.5685 1249.25 51.1891 1247.86 50.4298C1246.48 49.6706 1245.33 48.6384 1244.42 47.3334C1243.49 46.0287 1242.8 44.522 1242.34 42.8136C1241.89 41.0817 1241.66 39.2666 1241.66 37.3685ZM1279.74 36.6212V37.3685C1279.74 40.1209 1280.11 42.695 1280.85 45.0913C1281.59 47.4642 1282.63 49.5281 1283.97 51.2838C1285.31 53.0396 1286.92 54.4155 1288.81 55.412C1290.72 56.4085 1292.85 56.907 1295.2 56.907C1297.59 56.907 1299.67 56.5037 1301.47 55.6971C1303.26 54.8901 1304.8 53.7041 1306.1 52.1378L1306.38 56.1951H1312.48V1.53033H1305.84V21.4958C1304.57 20.0248 1303.07 18.9097 1301.33 18.1504C1299.61 17.3675 1297.59 16.976 1295.26 16.976C1292.9 16.976 1290.76 17.4624 1288.85 18.4351C1286.93 19.4079 1285.31 20.7603 1283.97 22.4923C1282.61 24.2243 1281.56 26.3003 1280.81 28.7204C1280.1 31.1167 1279.74 33.7503 1279.74 36.6212ZM1286.38 37.3685V36.6212C1286.38 34.7468 1286.58 32.9673 1286.98 31.2828C1287.39 29.5745 1288.02 28.0679 1288.88 26.763C1289.72 25.4818 1290.8 24.4616 1292.11 23.7023C1293.45 22.9431 1295.05 22.5635 1296.92 22.5635C1299.09 22.5635 1300.91 23.0736 1302.36 24.0938C1303.82 25.0903 1304.98 26.3715 1305.84 27.9374V45.8032C1304.98 47.4877 1303.82 48.8284 1302.36 49.8249C1300.91 50.8214 1299.07 51.3195 1296.84 51.3195C1295 51.3195 1293.42 50.9518 1292.11 50.216C1290.8 49.4568 1289.72 48.4368 1288.88 47.1556C1288.02 45.8744 1287.39 44.3916 1286.98 42.7067C1286.58 41.0222 1286.38 39.2429 1286.38 37.3685ZM1350.59 56.1951H1357.51V55.6258C1357.08 54.558 1356.75 53.3125 1356.51 51.8888C1356.27 50.4416 1356.15 49.0774 1356.15 47.7962V29.8948C1356.15 27.7358 1355.75 25.8495 1354.97 24.2362C1354.18 22.6228 1353.1 21.2704 1351.74 20.179C1350.35 19.1113 1348.72 18.3165 1346.83 17.7945C1344.94 17.2489 1342.89 16.976 1340.7 16.976C1338.28 16.976 1336.12 17.3081 1334.2 17.9725C1332.32 18.6368 1330.72 19.5028 1329.4 20.5705C1328.06 21.6619 1327.03 22.8838 1326.32 24.2362C1325.63 25.5886 1325.27 26.9647 1325.24 28.3645H1331.91C1331.91 27.5578 1332.1 26.7867 1332.48 26.0512C1332.89 25.292 1333.45 24.6395 1334.17 24.0938C1334.89 23.5481 1335.76 23.1092 1336.79 22.777C1337.84 22.4448 1339.02 22.2787 1340.34 22.2787C1341.75 22.2787 1343.01 22.4567 1344.14 22.8126C1345.28 23.1685 1346.25 23.6667 1347.04 24.3073C1347.83 24.9717 1348.44 25.7665 1348.87 26.6918C1349.3 27.6171 1349.52 28.6611 1349.52 29.8236V32.8487H1342.27C1339.57 32.8487 1337.12 33.1097 1334.92 33.6317C1332.75 34.1536 1330.88 34.9366 1329.33 35.9805C1327.78 37.0482 1326.57 38.3769 1325.71 39.9665C1324.87 41.5563 1324.45 43.4068 1324.45 45.5185C1324.45 47.1317 1324.76 48.6384 1325.38 50.0383C1326.03 51.4142 1326.94 52.6006 1328.11 53.5972C1329.26 54.6176 1330.66 55.4242 1332.3 56.0174C1333.98 56.6102 1335.84 56.907 1337.9 56.907C1339.17 56.907 1340.36 56.7766 1341.48 56.5154C1342.61 56.2543 1343.67 55.8987 1344.68 55.4477C1345.66 54.997 1346.55 54.475 1347.37 53.8818C1348.2 53.2886 1348.95 52.6602 1349.62 51.9957C1349.7 52.8023 1349.8 53.5854 1349.95 54.3446C1350.12 55.08 1350.33 55.6971 1350.59 56.1951ZM1338.87 51.1769C1337.57 51.1769 1336.44 51.0109 1335.46 50.6789C1334.48 50.3468 1333.67 49.884 1333.02 49.2908C1332.38 48.7215 1331.89 48.0335 1331.55 47.2269C1331.24 46.4199 1331.08 45.542 1331.08 44.5933C1331.08 43.5967 1331.26 42.7067 1331.62 41.924C1332.01 41.1409 1332.56 40.4646 1333.27 39.8954C1334.28 39.0887 1335.63 38.4955 1337.33 38.1159C1339.05 37.7126 1341.05 37.5109 1343.35 37.5109H1349.52V45.3047C1349.13 46.0639 1348.61 46.7997 1347.94 47.5115C1347.27 48.1995 1346.48 48.8162 1345.57 49.362C1344.64 49.9079 1343.61 50.3468 1342.49 50.6789C1341.36 51.0109 1340.16 51.1769 1338.87 51.1769ZM1384.91 8.36343H1378.24V17.6878H1368.05V22.777H1378.24V43.7032C1378.24 46.0761 1378.55 48.1048 1379.17 49.7892C1379.81 51.4498 1380.69 52.8023 1381.79 53.8462C1382.89 54.914 1384.18 55.6971 1385.66 56.1951C1387.17 56.6697 1388.78 56.907 1390.5 56.907C1391.53 56.907 1392.56 56.8596 1393.58 56.7645C1394.64 56.6697 1395.63 56.5272 1396.56 56.3377C1397.49 56.1713 1398.35 55.9696 1399.14 55.7323C1399.93 55.4715 1400.6 55.1747 1401.15 54.8427L1400.22 50.1804C1399.81 50.2756 1399.28 50.3942 1398.64 50.5363C1398.02 50.655 1397.35 50.7736 1396.63 50.8923C1395.89 51.0109 1395.14 51.1178 1394.37 51.2126C1393.61 51.2838 1392.87 51.3195 1392.15 51.3195C1391.17 51.3195 1390.23 51.2008 1389.35 50.9635C1388.49 50.7262 1387.73 50.3112 1387.06 49.718C1386.39 49.1487 1385.86 48.3773 1385.48 47.4046C1385.1 46.432 1384.91 45.1982 1384.91 43.7032V22.777H1399.68V17.6878H1384.91V8.36343ZM1414.34 17.6878V23.4176H1427.54V50.5011H1414.34V56.1951H1446.83V50.5011H1434.17V17.6878H1414.34ZM1426.68 7.58047C1426.68 8.64814 1427 9.53788 1427.64 10.2497C1428.31 10.9614 1429.32 11.3173 1430.66 11.3173C1431.97 11.3173 1432.96 10.9614 1433.63 10.2497C1434.3 9.53788 1434.64 8.64814 1434.64 7.58047C1434.64 6.98734 1434.54 6.44162 1434.35 5.94336C1434.16 5.44514 1433.87 5.02993 1433.49 4.69777C1433.18 4.3893 1432.78 4.15206 1432.31 3.986C1431.83 3.79617 1431.28 3.70125 1430.66 3.70125C1430.04 3.70125 1429.48 3.79617 1428.97 3.986C1428.49 4.15206 1428.1 4.3893 1427.79 4.69777C1427.41 5.05366 1427.12 5.48074 1426.93 5.97895C1426.76 6.47721 1426.68 7.01107 1426.68 7.58047ZM1455.54 36.5856V37.3685C1455.54 40.1443 1455.95 42.7189 1456.76 45.0913C1457.57 47.4642 1458.74 49.5281 1460.27 51.2838C1461.78 53.0396 1463.62 54.4155 1465.8 55.412C1468 56.4085 1470.47 56.907 1473.22 56.907C1475.94 56.907 1478.4 56.4085 1480.57 55.412C1482.74 54.4155 1484.6 53.0396 1486.13 51.2838C1487.64 49.5281 1488.79 47.4642 1489.61 45.0913C1490.42 42.7189 1490.83 40.1443 1490.83 37.3685V36.5856C1490.83 33.8096 1490.42 31.2354 1489.61 28.8627C1488.79 26.4664 1487.64 24.3904 1486.13 22.6346C1484.6 20.8789 1482.73 19.5028 1480.53 18.5063C1478.36 17.4861 1475.9 16.976 1473.15 16.976C1470.42 16.976 1467.97 17.4861 1465.8 18.5063C1463.62 19.5028 1461.78 20.8789 1460.27 22.6346C1458.74 24.3904 1457.57 26.4664 1456.76 28.8627C1455.95 31.2354 1455.54 33.8096 1455.54 36.5856ZM1462.17 37.3685V36.5856C1462.17 34.7112 1462.4 32.9199 1462.86 31.2116C1463.31 29.4796 1464.01 27.9611 1464.94 26.6562C1465.85 25.3513 1466.98 24.3192 1468.34 23.56C1469.71 22.777 1471.31 22.3855 1473.15 22.3855C1474.99 22.3855 1476.59 22.777 1477.95 23.56C1479.34 24.3192 1480.5 25.3513 1481.43 26.6562C1482.34 27.9611 1483.02 29.4796 1483.47 31.2116C1483.95 32.9199 1484.19 34.7112 1484.19 36.5856V37.3685C1484.19 39.2666 1483.96 41.0817 1483.51 42.8136C1483.05 44.522 1482.37 46.0287 1481.47 47.3334C1480.53 48.6384 1479.37 49.6706 1477.99 50.4298C1476.62 51.1891 1475.04 51.5685 1473.22 51.5685C1471.38 51.5685 1469.77 51.1891 1468.38 50.4298C1466.99 49.6706 1465.85 48.6384 1464.94 47.3334C1464.01 46.0287 1463.31 44.522 1462.86 42.8136C1462.4 41.0817 1462.17 39.2666 1462.17 37.3685ZM1501.51 56.1951H1508.14V28.578C1508.6 27.7476 1509.12 26.9884 1509.72 26.3003C1510.34 25.6123 1511.01 25.0073 1511.73 24.4853C1512.61 23.8921 1513.58 23.4295 1514.63 23.0973C1515.68 22.7414 1516.82 22.5635 1518.04 22.5635C1519.45 22.5635 1520.69 22.7296 1521.77 23.0617C1522.87 23.3939 1523.8 23.9277 1524.56 24.6632C1525.31 25.3987 1525.87 26.3597 1526.25 27.5459C1526.63 28.7322 1526.82 30.1796 1526.82 31.8878V56.1951H1533.46V31.7454C1533.46 29.183 1533.14 26.9765 1532.49 25.1259C1531.87 23.2515 1530.97 21.7093 1529.8 20.4993C1528.63 19.2893 1527.21 18.3996 1525.54 17.8301C1523.88 17.2607 1522.04 16.976 1520.01 16.976C1518.51 16.9997 1517.07 17.2251 1515.71 17.6522C1514.37 18.0555 1513.13 18.6368 1511.98 19.396C1511.22 19.8943 1510.49 20.4874 1509.79 21.1755C1509.12 21.8398 1508.5 22.5754 1507.93 23.382L1507.46 17.6878H1501.51V56.1951ZM1589.68 71H1596.31V52.4937C1596.79 53.0157 1597.3 53.5024 1597.85 53.9531C1598.41 54.3803 1598.99 54.7714 1599.61 55.1274C1600.64 55.6971 1601.79 56.136 1603.06 56.4442C1604.35 56.7527 1605.73 56.907 1607.21 56.907C1609.65 56.907 1611.82 56.4085 1613.7 55.412C1615.62 54.4155 1617.22 53.0396 1618.51 51.2838C1619.8 49.5281 1620.78 47.4642 1621.45 45.0913C1622.12 42.695 1622.45 40.1209 1622.45 37.3685V36.6212C1622.45 33.7503 1622.12 31.1167 1621.45 28.7204C1620.78 26.3003 1619.8 24.2243 1618.51 22.4923C1617.22 20.7603 1615.62 19.4079 1613.7 18.4351C1611.79 17.4624 1609.59 16.976 1607.11 16.976C1605.7 16.976 1604.37 17.1302 1603.13 17.4386C1601.91 17.7233 1600.8 18.1504 1599.79 18.7199C1599.07 19.0995 1598.41 19.5621 1597.79 20.1078C1597.16 20.6298 1596.59 21.2229 1596.06 21.8873L1595.74 17.6878H1589.68V71ZM1615.82 36.6212V37.3685C1615.82 39.2429 1615.61 41.0344 1615.17 42.7423C1614.77 44.4507 1614.13 45.9574 1613.27 47.2621C1612.41 48.5672 1611.31 49.6111 1609.98 50.3942C1608.64 51.1534 1607.05 51.5328 1605.21 51.5328C1604.06 51.5328 1603.01 51.3907 1602.05 51.1061C1601.12 50.8214 1600.27 50.4298 1599.5 49.9314C1598.83 49.5046 1598.24 48.9826 1597.71 48.3655C1597.19 47.7488 1596.72 47.0843 1596.31 46.3725V27.8307C1596.77 27.024 1597.29 26.2885 1597.89 25.6242C1598.49 24.9598 1599.17 24.4023 1599.94 23.9515C1600.63 23.5006 1601.4 23.1566 1602.26 22.9194C1603.15 22.6821 1604.1 22.5635 1605.13 22.5635C1607 22.5635 1608.6 22.9431 1609.94 23.7023C1611.28 24.4616 1612.39 25.4818 1613.27 26.763C1614.13 28.0679 1614.77 29.5745 1615.17 31.2828C1615.61 32.9673 1615.82 34.7468 1615.82 36.6212ZM1634.86 1.53033V7.26018H1648.05V50.5011H1634.86V56.1951H1667.34V50.5011H1654.69V1.53033H1634.86ZM1703.42 56.1951H1710.33V55.6258C1709.91 54.558 1709.57 53.3125 1709.33 51.8888C1709.09 50.4416 1708.97 49.0774 1708.97 47.7962V29.8948C1708.97 27.7358 1708.58 25.8495 1707.79 24.2362C1707 22.6228 1705.92 21.2704 1704.56 20.179C1703.18 19.1113 1701.54 18.3165 1699.65 17.7945C1697.76 17.2489 1695.72 16.976 1693.52 16.976C1691.11 16.976 1688.94 17.3081 1687.03 17.9725C1685.14 18.6368 1683.54 19.5028 1682.23 20.5705C1680.89 21.6619 1679.86 22.8838 1679.14 24.2362C1678.45 25.5886 1678.09 26.9647 1678.06 28.3645H1684.73C1684.73 27.5578 1684.93 26.7867 1685.31 26.0512C1685.71 25.292 1686.28 24.6395 1686.99 24.0938C1687.71 23.5481 1688.58 23.1092 1689.61 22.777C1690.66 22.4448 1691.85 22.2787 1693.16 22.2787C1694.57 22.2787 1695.84 22.4567 1696.96 22.8126C1698.11 23.1685 1699.08 23.6667 1699.87 24.3073C1700.65 24.9717 1701.27 25.7665 1701.69 26.6918C1702.13 27.6171 1702.34 28.6611 1702.34 29.8236V32.8487H1695.1C1692.4 32.8487 1689.94 33.1097 1687.75 33.6317C1685.57 34.1536 1683.71 34.9366 1682.15 35.9805C1680.6 37.0482 1679.39 38.3769 1678.53 39.9665C1677.69 41.5563 1677.28 43.4068 1677.28 45.5185C1677.28 47.1317 1677.59 48.6384 1678.21 50.0383C1678.86 51.4142 1679.76 52.6006 1680.93 53.5972C1682.08 54.6176 1683.48 55.4242 1685.13 56.0174C1686.8 56.6102 1688.67 56.907 1690.72 56.907C1691.99 56.907 1693.18 56.7766 1694.31 56.5154C1695.43 56.2543 1696.5 55.8987 1697.5 55.4477C1698.48 54.997 1699.38 54.475 1700.19 53.8818C1701.02 53.2886 1701.78 52.6602 1702.45 51.9957C1702.52 52.8023 1702.63 53.5854 1702.77 54.3446C1702.94 55.08 1703.15 55.6971 1703.42 56.1951ZM1691.69 51.1769C1690.4 51.1769 1689.26 51.0109 1688.28 50.6789C1687.3 50.3468 1686.49 49.884 1685.84 49.2908C1685.2 48.7215 1684.71 48.0335 1684.38 47.2269C1684.07 46.4199 1683.91 45.542 1683.91 44.5933C1683.91 43.5967 1684.09 42.7067 1684.45 41.924C1684.83 41.1409 1685.38 40.4646 1686.1 39.8954C1687.1 39.0887 1688.45 38.4955 1690.15 38.1159C1691.87 37.7126 1693.88 37.5109 1696.17 37.5109H1702.34V45.3047C1701.96 46.0639 1701.43 46.7997 1700.76 47.5115C1700.09 48.1995 1699.3 48.8162 1698.4 49.362C1697.46 49.9079 1696.43 50.3468 1695.31 50.6789C1694.19 51.0109 1692.98 51.1769 1691.69 51.1769ZM1737.73 8.36343H1731.06V17.6878H1720.88V22.777H1731.06V43.7032C1731.06 46.0761 1731.37 48.1048 1731.99 49.7892C1732.64 51.4498 1733.51 52.8023 1734.61 53.8462C1735.71 54.914 1737 55.6971 1738.48 56.1951C1739.99 56.6697 1741.6 56.907 1743.32 56.907C1744.35 56.907 1745.38 56.8596 1746.41 56.7645C1747.46 56.6697 1748.45 56.5272 1749.38 56.3377C1750.31 56.1713 1751.18 55.9696 1751.96 55.7323C1752.75 55.4715 1753.42 55.1747 1753.97 54.8427L1753.04 50.1804C1752.64 50.2756 1752.11 50.3942 1751.46 50.5363C1750.84 50.655 1750.17 50.7736 1749.45 50.8923C1748.72 51.0109 1747.96 51.1178 1747.2 51.2126C1746.43 51.2838 1745.69 51.3195 1744.97 51.3195C1743.99 51.3195 1743.06 51.2008 1742.18 50.9635C1741.31 50.7262 1740.55 50.3112 1739.88 49.718C1739.21 49.1487 1738.69 48.3773 1738.3 47.4046C1737.92 46.432 1737.73 45.1982 1737.73 43.7032V22.777H1752.5V17.6878H1737.73V8.36343ZM1776.02 56.1951H1782.69V22.777H1797.65V17.6878H1782.69V14.983C1782.69 13.3696 1782.9 11.9579 1783.3 10.7479C1783.73 9.53788 1784.35 8.55322 1785.17 7.79403C1785.93 7.05848 1786.89 6.51281 1788.03 6.15692C1789.21 5.7773 1790.55 5.58747 1792.05 5.58747C1793.53 5.58747 1794.92 5.71798 1796.21 5.97895C1797.52 6.21624 1798.67 6.50094 1799.65 6.8331L1800.44 1.38798C1799.82 1.22189 1799.21 1.07954 1798.61 0.960906C1798.02 0.818551 1797.42 0.688056 1796.82 0.569425C1795.91 0.403345 1794.99 0.27285 1794.06 0.177948C1793.13 0.0593174 1792.18 0 1791.23 0C1788.93 0 1786.85 0.320303 1784.99 0.960906C1783.12 1.60151 1781.54 2.55055 1780.22 3.80803C1778.88 5.06553 1777.84 6.63145 1777.1 8.50581C1776.38 10.3564 1776.02 12.5155 1776.02 14.983V17.6878H1765.34V22.777H1776.02V56.1951ZM1808.37 36.5856V37.3685C1808.37 40.1443 1808.77 42.7189 1809.59 45.0913C1810.4 47.4642 1811.57 49.5281 1813.1 51.2838C1814.61 53.0396 1816.45 54.4155 1818.62 55.412C1820.82 56.4085 1823.29 56.907 1826.04 56.907C1828.77 56.907 1831.22 56.4085 1833.39 55.412C1835.57 54.4155 1837.42 53.0396 1838.95 51.2838C1840.46 49.5281 1841.62 47.4642 1842.43 45.0913C1843.24 42.7189 1843.65 40.1443 1843.65 37.3685V36.5856C1843.65 33.8096 1843.24 31.2354 1842.43 28.8627C1841.62 26.4664 1840.46 24.3904 1838.95 22.6346C1837.42 20.8789 1835.56 19.5028 1833.36 18.5063C1831.18 17.4861 1828.72 16.976 1825.97 16.976C1823.25 16.976 1820.8 17.4861 1818.62 18.5063C1816.45 19.5028 1814.61 20.8789 1813.1 22.6346C1811.57 24.3904 1810.4 26.4664 1809.59 28.8627C1808.77 31.2354 1808.37 33.8096 1808.37 36.5856ZM1815 37.3685V36.5856C1815 34.7112 1815.23 32.9199 1815.68 31.2116C1816.14 29.4796 1816.83 27.9611 1817.76 26.6562C1818.67 25.3513 1819.8 24.3192 1821.17 23.56C1822.53 22.777 1824.13 22.3855 1825.97 22.3855C1827.81 22.3855 1829.41 22.777 1830.78 23.56C1832.16 24.3192 1833.32 25.3513 1834.25 26.6562C1835.16 27.9611 1835.84 29.4796 1836.3 31.2116C1836.78 32.9199 1837.01 34.7112 1837.01 36.5856V37.3685C1837.01 39.2666 1836.79 41.0817 1836.33 42.8136C1835.88 44.522 1835.2 46.0287 1834.29 47.3334C1833.36 48.6384 1832.2 49.6706 1830.81 50.4298C1829.45 51.1891 1827.86 51.5685 1826.04 51.5685C1824.2 51.5685 1822.59 51.1891 1821.2 50.4298C1819.81 49.6706 1818.67 48.6384 1817.76 47.3334C1816.83 46.0287 1816.14 44.522 1815.68 42.8136C1815.23 41.0817 1815 39.2666 1815 37.3685ZM1879.76 16.976C1876.93 16.976 1874.41 17.5929 1872.19 18.8266C1869.99 20.0366 1868.1 21.6975 1866.53 23.8091L1866.49 22.8482L1866.2 17.6878H1859.89V56.1951H1866.56V31.4963C1866.99 30.31 1867.53 29.2424 1868.17 28.2933C1868.84 27.3205 1869.62 26.502 1870.5 25.8377C1871.48 25.0784 1872.63 24.509 1873.95 24.1294C1875.26 23.7261 1876.73 23.5244 1878.36 23.5244C1879.62 23.5244 1880.83 23.5956 1881.98 23.7379C1883.15 23.8565 1884.38 24.0582 1885.67 24.3429L1886.57 17.9013C1885.9 17.6166 1884.89 17.3912 1883.55 17.2251C1882.24 17.059 1880.98 16.976 1879.76 16.976ZM1901.48 17.6878H1895.53V56.1951H1901.84V25.553C1901.99 25.1734 1902.17 24.8175 1902.38 24.4853C1902.62 24.1531 1902.9 23.8565 1903.21 23.5956C1903.61 23.2634 1904.1 23.0143 1904.68 22.8482C1905.27 22.6584 1905.97 22.5635 1906.76 22.5635C1907.47 22.5635 1908.09 22.6584 1908.62 22.8482C1909.17 23.0143 1909.62 23.2871 1909.98 23.6667C1910.37 24.0701 1910.64 24.5802 1910.81 25.1971C1911 25.8139 1911.09 26.5257 1911.09 27.3324V56.1951H1917.4V27.368C1917.4 27.2256 1917.4 27.107 1917.4 27.0121C1917.4 26.8935 1917.4 26.7749 1917.4 26.6562C1917.48 26.0631 1917.62 25.5292 1917.84 25.0547C1918.05 24.5564 1918.35 24.1175 1918.73 23.7379C1919.11 23.382 1919.59 23.0973 1920.17 22.8838C1920.74 22.6702 1921.42 22.5635 1922.21 22.5635C1922.95 22.5635 1923.6 22.6584 1924.15 22.8482C1924.72 23.038 1925.2 23.3227 1925.58 23.7023C1925.94 24.1057 1926.21 24.6158 1926.4 25.2327C1926.6 25.8495 1926.69 26.5613 1926.69 27.368V56.1951H1933V27.4392C1933 25.5886 1932.79 23.987 1932.36 22.6346C1931.93 21.2585 1931.3 20.1434 1930.49 19.2893C1929.75 18.53 1928.84 17.9606 1927.77 17.581C1926.69 17.1777 1925.49 16.976 1924.15 16.976C1923.16 16.9997 1922.26 17.1302 1921.42 17.3675C1920.61 17.6047 1919.87 17.925 1919.2 18.3284C1918.67 18.6843 1918.18 19.0995 1917.73 19.574C1917.27 20.0485 1916.88 20.5586 1916.54 21.1043C1916.28 20.5112 1915.96 19.9773 1915.58 19.5028C1915.22 19.0283 1914.81 18.625 1914.36 18.2928C1913.74 17.8657 1913.01 17.5454 1912.17 17.3319C1911.36 17.0946 1910.44 16.976 1909.41 16.976C1907.59 16.9997 1906.04 17.3912 1904.75 18.1504C1903.48 18.9097 1902.45 19.9655 1901.66 21.3179L1901.48 17.6878Z" fill="black"/>
</svg>
