<svg width="233" height="233" viewBox="0 0 233 233" fill="none" xmlns="http://www.w3.org/2000/svg">
<g filter="url(#filter0_d)">
<circle cx="116.5" cy="112.5" r="112" fill="#C4C4C4" stroke="#3B3B3B"/>
<g filter="url(#filter1_d)">
<path d="M117.784 90.832C119.032 90.832 120.04 91.216 120.808 91.984C121.672 92.752 122.104 93.808 122.104 95.152C122.104 95.248 121.96 95.872 121.672 97.024L99.496 163.264C99.016 164.128 98.392 164.848 97.624 165.424C96.856 165.904 96.04 166.096 95.176 166C94.312 166 93.544 165.76 92.872 165.28C92.2 164.8 91.672 164.128 91.288 163.264L72.424 118.912L55.576 163.264C55.192 164.032 54.616 164.704 53.848 165.28C53.176 165.76 52.456 166 51.688 166C50.728 166.096 49.816 165.904 48.952 165.424C48.184 164.848 47.656 164.128 47.368 163.264L24.616 97.024C24.328 96.448 24.184 95.824 24.184 95.152C24.184 93.904 24.616 92.896 25.48 92.128C26.344 91.264 27.4 90.832 28.648 90.832C29.512 90.832 30.28 91.12 30.952 91.696C31.72 92.176 32.248 92.848 32.536 93.712L51.688 151.168L68.824 108.112C69.496 106.288 70.84 105.376 72.856 105.376C74.776 105.376 76.12 106.288 76.888 108.112L94.888 150.88L113.752 93.712C114.328 91.792 115.672 90.832 117.784 90.832Z" fill="white"/>
<path d="M120.808 91.984L120.101 92.6911L120.122 92.7119L120.144 92.7314L120.808 91.984ZM121.672 97.024L122.62 97.3415L122.633 97.3044L122.642 97.2665L121.672 97.024ZM99.496 163.264L100.37 163.75L100.415 163.669L100.444 163.581L99.496 163.264ZM97.624 165.424L98.154 166.272L98.19 166.249L98.224 166.224L97.624 165.424ZM95.176 166L95.2864 165.006L95.2314 165H95.176V166ZM92.872 165.28L92.2908 166.094L92.2908 166.094L92.872 165.28ZM91.288 163.264L90.3678 163.655L90.3709 163.663L90.3742 163.67L91.288 163.264ZM72.424 118.912L73.3442 118.521L72.3716 116.234L71.4892 118.557L72.424 118.912ZM55.576 163.264L56.4704 163.711L56.4929 163.666L56.5108 163.619L55.576 163.264ZM53.848 165.28L54.4292 166.094L54.4387 166.087L54.448 166.08L53.848 165.28ZM51.688 166V165H51.6381L51.5885 165.005L51.688 166ZM48.952 165.424L48.352 166.224L48.4066 166.265L48.4664 166.298L48.952 165.424ZM47.368 163.264L48.3167 162.948L48.3138 162.939L47.368 163.264ZM24.616 97.024L25.5618 96.6991L25.5402 96.6363L25.5104 96.5768L24.616 97.024ZM25.48 92.128L26.1444 92.8754L26.1663 92.8559L26.1871 92.8351L25.48 92.128ZM30.952 91.696L30.3012 92.4553L30.3583 92.5042L30.422 92.544L30.952 91.696ZM32.536 93.712L31.5873 94.0282L31.5873 94.0282L32.536 93.712ZM51.688 151.168L50.7393 151.484L51.6049 154.081L52.6171 151.538L51.688 151.168ZM68.824 108.112L69.7531 108.482L69.7579 108.47L69.7623 108.458L68.824 108.112ZM76.888 108.112L77.8097 107.724L77.8096 107.724L76.888 108.112ZM94.888 150.88L93.9663 151.268L95.0015 153.727L95.8376 151.193L94.888 150.88ZM113.752 93.712L114.702 94.0254L114.706 94.0124L114.71 93.9993L113.752 93.712ZM117.784 91.832C118.81 91.832 119.549 92.1389 120.101 92.6911L121.515 91.2769C120.531 90.2931 119.254 89.832 117.784 89.832V91.832ZM120.144 92.7314C120.759 93.2781 121.104 94.0424 121.104 95.152H123.104C123.104 93.5735 122.585 92.2259 121.472 91.2366L120.144 92.7314ZM121.104 95.152C121.104 95.0774 121.114 95.0283 121.109 95.0568C121.108 95.0664 121.104 95.0884 121.096 95.1269C121.081 95.2028 121.057 95.3148 121.022 95.4671C120.952 95.7702 120.845 96.2073 120.702 96.7815L122.642 97.2665C122.787 96.6887 122.896 96.2378 122.97 95.9169C123.007 95.7572 123.037 95.6232 123.058 95.5191C123.069 95.4628 123.104 95.2967 123.104 95.152H121.104ZM120.724 96.7065L98.5477 162.947L100.444 163.581L122.62 97.3415L120.724 96.7065ZM98.6218 162.778C98.208 163.523 97.6762 164.135 97.024 164.624L98.224 166.224C99.1078 165.561 99.824 164.733 100.37 163.75L98.6218 162.778ZM97.094 164.576C96.5084 164.942 95.9167 165.076 95.2864 165.006L95.0656 166.994C96.1633 167.116 97.2037 166.866 98.154 166.272L97.094 164.576ZM95.176 165C94.5102 165 93.9475 164.819 93.4532 164.466L92.2908 166.094C93.1405 166.701 94.1138 167 95.176 167V165ZM93.4532 164.466C92.9465 164.104 92.524 163.583 92.2018 162.858L90.3742 163.67C90.82 164.673 91.4535 165.496 92.2908 166.094L93.4532 164.466ZM92.2082 162.873L73.3442 118.521L71.5038 119.303L90.3678 163.655L92.2082 162.873ZM71.4892 118.557L54.6412 162.909L56.5108 163.619L73.3588 119.267L71.4892 118.557ZM54.6816 162.817C54.3748 163.43 53.9066 163.986 53.248 164.48L54.448 166.08C55.3254 165.422 56.0092 164.634 56.4704 163.711L54.6816 162.817ZM53.2668 164.466C52.7509 164.835 52.2316 165 51.688 165V167C52.6804 167 53.6011 166.685 54.4292 166.094L53.2668 164.466ZM51.5885 165.005C50.8365 165.08 50.1281 164.933 49.4376 164.55L48.4664 166.298C49.5039 166.875 50.6195 167.112 51.7875 166.995L51.5885 165.005ZM49.552 164.624C48.9374 164.163 48.5368 163.608 48.3167 162.948L46.4193 163.58C46.7752 164.648 47.4306 165.533 48.352 166.224L49.552 164.624ZM48.3138 162.939L25.5618 96.6991L23.6702 97.3488L46.4222 163.589L48.3138 162.939ZM25.5104 96.5768C25.2949 96.1457 25.184 95.6757 25.184 95.152H23.184C23.184 95.9723 23.3611 96.7503 23.7216 97.4712L25.5104 96.5768ZM25.184 95.152C25.184 94.164 25.5123 93.4373 26.1444 92.8754L24.8156 91.3806C23.7197 92.3547 23.184 93.644 23.184 95.152H25.184ZM26.1871 92.8351C26.8591 92.1631 27.6589 91.832 28.648 91.832V89.832C27.1411 89.832 25.8289 90.3649 24.7729 91.4209L26.1871 92.8351ZM28.648 91.832C29.267 91.832 29.8056 92.0305 30.3012 92.4553L31.6028 90.9367C30.7544 90.2095 29.757 89.832 28.648 89.832V91.832ZM30.422 92.544C30.9917 92.9 31.3724 93.3834 31.5873 94.0282L33.4847 93.3958C33.1236 92.3126 32.4483 91.452 31.482 90.848L30.422 92.544ZM31.5873 94.0282L50.7393 151.484L52.6367 150.852L33.4847 93.3958L31.5873 94.0282ZM52.6171 151.538L69.7531 108.482L67.8949 107.742L50.7589 150.798L52.6171 151.538ZM69.7623 108.458C70.0407 107.702 70.4302 107.205 70.8975 106.887C71.3677 106.568 71.9996 106.376 72.856 106.376V104.376C71.6964 104.376 70.6483 104.64 69.7745 105.233C68.8978 105.827 68.2793 106.698 67.8857 107.766L69.7623 108.458ZM72.856 106.376C73.653 106.376 74.2645 106.563 74.7425 106.887C75.2226 107.213 75.6409 107.727 75.9664 108.5L77.8096 107.724C77.3671 106.673 76.7294 105.819 75.8655 105.233C74.9995 104.645 73.979 104.376 72.856 104.376V106.376ZM75.9663 108.5L93.9663 151.268L95.8097 150.492L77.8097 107.724L75.9663 108.5ZM95.8376 151.193L114.702 94.0254L112.802 93.3986L93.9384 150.567L95.8376 151.193ZM114.71 93.9993C114.948 93.205 115.318 92.6911 115.773 92.3657C116.234 92.0368 116.878 91.832 117.784 91.832V89.832C116.578 89.832 115.494 90.1072 114.611 90.7383C113.722 91.3728 113.132 92.299 112.794 93.4246L114.71 93.9993Z" fill="black"/>
</g>
<g filter="url(#filter2_d)">
<path d="M203.823 148.818L186.648 176.674C182.774 175.991 179.185 175.393 175.881 174.88C172.634 174.367 169.416 173.883 166.226 173.427C163.092 173.028 159.874 172.601 156.57 172.146C153.266 171.69 149.705 171.149 145.889 170.522C144.408 170.237 142.926 170.038 141.445 169.924C140.021 169.753 138.569 169.667 137.087 169.667C133.954 169.667 130.935 170.095 128.03 170.949C125.181 171.804 122.447 173.142 119.827 174.965L117.178 172.146C118.374 171.12 119.399 169.895 120.254 168.471C121.108 167.047 121.82 165.537 122.39 163.942C123.017 162.29 123.472 160.638 123.757 158.986C124.042 157.334 124.185 155.768 124.185 154.287V103.872C124.185 95.8963 125.58 88.4622 128.372 81.5693C131.163 74.6764 135.008 68.695 139.907 63.625C144.863 58.498 150.674 54.4819 157.339 51.5767C164.061 48.6144 171.324 47.1333 179.128 47.1333C181.635 47.1333 184.056 47.4181 186.392 47.9878C188.727 48.5575 190.778 49.4689 192.544 50.7222C194.367 51.9754 195.819 53.599 196.902 55.5928C197.984 57.5866 198.525 60.0361 198.525 62.9414C198.525 65.5049 198.041 67.9829 197.073 70.3755C196.104 72.7681 194.766 75.0467 193.057 77.2114C191.405 79.3761 189.468 81.3984 187.246 83.2783C185.081 85.1012 182.803 86.7533 180.41 88.2344C178.018 89.7155 175.568 90.9688 173.062 91.9941C170.555 93.0195 168.191 93.8171 165.969 94.3867L164.602 91.1396C166.539 90.0003 168.533 88.6901 170.583 87.209C172.691 85.7279 174.6 84.1043 176.309 82.3384C178.018 80.5155 179.413 78.5501 180.496 76.4424C181.578 74.2777 182.119 71.9421 182.119 69.4355C182.119 67.4417 181.749 65.6188 181.008 63.9668C180.268 62.2578 179.242 60.8052 177.932 59.6089C176.679 58.4126 175.198 57.4727 173.489 56.7891C171.837 56.1055 170.042 55.7637 168.105 55.7637C163.833 55.7637 160.073 56.6751 156.826 58.498C153.579 60.321 150.845 62.7135 148.623 65.6758C146.401 68.638 144.721 71.999 143.582 75.7588C142.442 79.5186 141.873 83.3353 141.873 87.209V142.238C141.873 144.403 141.559 146.511 140.933 148.562C140.306 150.555 139.451 152.492 138.369 154.372C137.344 156.195 136.119 157.932 134.695 159.584C133.271 161.236 131.761 162.746 130.166 164.113C131.989 162.803 133.755 161.607 135.464 160.524C137.173 159.385 138.91 158.417 140.676 157.619C142.499 156.822 144.379 156.223 146.316 155.825C148.253 155.369 150.389 155.141 152.725 155.141C155.573 155.141 158.108 155.284 160.33 155.568C162.551 155.853 164.716 156.167 166.824 156.508C168.988 156.793 171.182 157.078 173.403 157.363C175.625 157.648 178.16 157.79 181.008 157.79C183.002 157.79 184.91 157.505 186.733 156.936C188.613 156.309 190.379 155.483 192.031 154.458C193.683 153.432 195.221 152.264 196.646 150.954C198.127 149.587 199.465 148.134 200.662 146.596L203.823 148.818Z" fill="#3B3B3B"/>
<path d="M203.823 148.818L204.674 149.343L205.169 148.541L204.398 148L203.823 148.818ZM186.648 176.674L186.474 177.659L187.143 177.777L187.499 177.199L186.648 176.674ZM175.881 174.88L175.725 175.868L175.728 175.868L175.881 174.88ZM166.226 173.427L166.367 172.437L166.359 172.436L166.352 172.435L166.226 173.427ZM145.889 170.522L145.7 171.504L145.713 171.507L145.727 171.509L145.889 170.522ZM141.445 169.924L141.326 170.917L141.347 170.919L141.369 170.921L141.445 169.924ZM128.03 170.949L127.748 169.99L127.742 169.991L128.03 170.949ZM119.827 174.965L119.098 175.65L119.689 176.279L120.398 175.786L119.827 174.965ZM117.178 172.146L116.527 171.386L115.732 172.067L116.449 172.83L117.178 172.146ZM122.39 163.942L121.455 163.588L121.452 163.597L121.448 163.606L122.39 163.942ZM139.907 63.625L139.188 62.93L139.188 62.9301L139.907 63.625ZM157.339 51.5767L157.738 52.4934L157.742 52.4917L157.339 51.5767ZM192.544 50.7222L191.965 51.5377L191.971 51.542L191.977 51.5462L192.544 50.7222ZM196.902 55.5928L196.023 56.0699L196.023 56.0699L196.902 55.5928ZM197.073 70.3755L198 70.7507L197.073 70.3755ZM193.057 77.2114L192.272 76.5918L192.267 76.5982L192.262 76.6048L193.057 77.2114ZM187.246 83.2783L187.89 84.0432L187.892 84.0417L187.246 83.2783ZM165.969 94.3867L165.048 94.7748L165.382 95.5696L166.218 95.3554L165.969 94.3867ZM164.602 91.1396L164.095 90.2777L163.341 90.7213L163.68 91.5277L164.602 91.1396ZM170.583 87.209L170.009 86.3907L169.998 86.3983L170.583 87.209ZM176.309 82.3384L177.027 83.0338L177.033 83.0281L177.038 83.0223L176.309 82.3384ZM180.496 76.4424L181.385 76.8992L181.39 76.8896L180.496 76.4424ZM181.008 63.9668L180.091 64.3644L180.096 64.3759L181.008 63.9668ZM177.932 59.6089L177.242 60.3322L177.25 60.3399L177.258 60.3474L177.932 59.6089ZM173.489 56.7891L173.106 57.7131L173.117 57.7175L173.489 56.7891ZM140.933 148.562L141.887 148.861L141.889 148.854L140.933 148.562ZM138.369 154.372L137.502 153.873L137.498 153.882L138.369 154.372ZM130.166 164.113L129.515 163.354L130.75 164.925L130.166 164.113ZM135.464 160.524L135.999 161.369L136.009 161.363L136.019 161.356L135.464 160.524ZM140.676 157.619L140.275 156.703L140.265 156.708L140.676 157.619ZM146.316 155.825L146.518 156.804L146.531 156.801L146.545 156.798L146.316 155.825ZM166.824 156.508L166.664 157.495L166.678 157.498L166.693 157.5L166.824 156.508ZM186.733 156.936L187.032 157.89L187.041 157.887L187.05 157.884L186.733 156.936ZM196.646 150.954L197.323 151.69L197.324 151.689L196.646 150.954ZM200.662 146.596L201.237 145.778L200.457 145.23L199.872 145.982L200.662 146.596ZM202.972 148.293L185.797 176.149L187.499 177.199L204.674 149.343L202.972 148.293ZM186.822 175.69C182.942 175.005 179.347 174.406 176.035 173.892L175.728 175.868C179.024 176.38 182.606 176.977 186.474 177.659L186.822 175.69ZM176.037 173.892C172.785 173.379 169.562 172.894 166.367 172.437L166.084 174.417C169.269 174.872 172.483 175.356 175.725 175.868L176.037 173.892ZM166.352 172.435C163.222 172.037 160.007 171.61 156.706 171.155L156.433 173.136C159.74 173.592 162.963 174.02 166.099 174.419L166.352 172.435ZM156.706 171.155C153.412 170.7 149.86 170.161 146.051 169.535L145.727 171.509C149.551 172.137 153.119 172.679 156.433 173.136L156.706 171.155ZM146.078 169.54C144.56 169.248 143.041 169.044 141.522 168.927L141.369 170.921C142.812 171.032 144.255 171.226 145.7 171.504L146.078 169.54ZM141.564 168.931C140.1 168.755 138.607 168.667 137.087 168.667V170.667C138.53 170.667 139.943 170.751 141.326 170.917L141.564 168.931ZM137.087 168.667C133.862 168.667 130.748 169.107 127.748 169.99L128.312 171.909C131.122 171.082 134.046 170.667 137.087 170.667V168.667ZM127.742 169.991C124.786 170.878 121.956 172.266 119.256 174.144L120.398 175.786C122.938 174.019 125.577 172.729 128.317 171.907L127.742 169.991ZM120.556 174.281L117.907 171.461L116.449 172.83L119.098 175.65L120.556 174.281ZM117.829 172.905C119.111 171.806 120.205 170.497 121.111 168.986L119.396 167.957C118.594 169.294 117.637 170.435 116.527 171.386L117.829 172.905ZM121.111 168.986C122 167.504 122.741 165.935 123.332 164.279L121.448 163.606C120.9 165.14 120.216 166.59 119.396 167.957L121.111 168.986ZM123.325 164.297C123.973 162.588 124.447 160.875 124.743 159.156L122.772 158.816C122.498 160.402 122.06 161.992 121.455 163.588L123.325 164.297ZM124.743 159.156C125.036 157.455 125.185 155.832 125.185 154.287H123.185C123.185 155.704 123.048 157.213 122.772 158.816L124.743 159.156ZM125.185 154.287V103.872H123.185V154.287H125.185ZM125.185 103.872C125.185 96.0156 126.559 88.7099 129.298 81.9447L127.445 81.194C124.602 88.2146 123.185 95.7771 123.185 103.872H125.185ZM129.298 81.9447C132.044 75.164 135.821 69.2927 140.626 64.3199L139.188 62.9301C134.195 68.0973 130.281 74.1888 127.445 81.194L129.298 81.9447ZM140.626 64.32C145.49 59.289 151.191 55.3474 157.738 52.4934L156.939 50.66C150.157 53.6165 144.237 57.7071 139.188 62.93L140.626 64.32ZM157.742 52.4917C164.329 49.589 171.454 48.1333 179.128 48.1333V46.1333C171.194 46.1333 163.793 47.6399 156.936 50.6616L157.742 52.4917ZM179.128 48.1333C181.558 48.1333 183.9 48.4094 186.155 48.9593L186.629 47.0163C184.212 46.4269 181.711 46.1333 179.128 46.1333V48.1333ZM186.155 48.9593C188.381 49.5023 190.313 50.3652 191.965 51.5377L193.123 49.9067C191.243 48.5726 189.073 47.6126 186.629 47.0163L186.155 48.9593ZM191.977 51.5462C193.667 52.7077 195.014 54.2111 196.023 56.0699L197.781 55.1157C196.625 52.9869 195.067 51.2431 193.11 49.8981L191.977 51.5462ZM196.023 56.0699C197.007 57.8818 197.525 60.1572 197.525 62.9414H199.525C199.525 59.9151 198.962 57.2914 197.781 55.1157L196.023 56.0699ZM197.525 62.9414C197.525 65.3754 197.066 67.7261 196.146 70.0003L198 70.7507C199.016 68.2397 199.525 65.6344 199.525 62.9414H197.525ZM196.146 70.0003C195.215 72.2993 193.926 74.4963 192.272 76.5918L193.842 77.8311C195.605 75.5971 196.993 73.2369 198 70.7507L196.146 70.0003ZM192.262 76.6048C190.656 78.7082 188.77 80.6786 186.6 82.5149L187.892 84.0417C190.165 82.1183 192.153 80.0441 193.852 77.8181L192.262 76.6048ZM186.602 82.5134C184.474 84.3052 182.235 85.9287 179.884 87.3841L180.937 89.0846C183.371 87.5778 185.689 85.8972 187.89 84.0432L186.602 82.5134ZM179.884 87.3841C177.536 88.8372 175.136 90.065 172.683 91.0686L173.44 92.9197C176 91.8725 178.499 90.5938 180.937 89.0846L179.884 87.3841ZM172.683 91.0686C170.211 92.0797 167.891 92.8616 165.721 93.4181L166.218 95.3554C168.491 94.7725 170.899 93.9594 173.44 92.9197L172.683 91.0686ZM166.891 93.9987L165.524 90.7516L163.68 91.5277L165.048 94.7748L166.891 93.9987ZM165.109 92.0016C167.076 90.8446 169.096 89.5169 171.169 88.0197L169.998 86.3983C167.969 87.8634 166.002 89.1561 164.095 90.2777L165.109 92.0016ZM171.158 88.0272C173.315 86.5115 175.272 84.8472 177.027 83.0338L175.59 81.643C173.927 83.3614 172.067 84.9442 170.009 86.3908L171.158 88.0272ZM177.038 83.0223C178.807 81.1352 180.258 79.0941 181.385 76.8992L179.606 75.9856C178.568 78.0061 177.228 79.8957 175.579 81.6544L177.038 83.0223ZM181.39 76.8896C182.544 74.581 183.119 72.0916 183.119 69.4355H181.119C181.119 71.7925 180.612 73.9743 179.601 75.9952L181.39 76.8896ZM183.119 69.4355C183.119 67.3151 182.725 65.3509 181.921 63.5577L180.096 64.3759C180.773 65.8867 181.119 67.5683 181.119 69.4355H183.119ZM181.926 63.5692C181.132 61.7373 180.026 60.1666 178.606 58.8704L177.258 60.3474C178.459 61.4438 179.403 62.7784 180.091 64.3644L181.926 63.5692ZM178.623 58.8855C177.271 57.5957 175.68 56.5886 173.86 55.8606L173.117 57.7175C174.715 58.3567 176.086 59.2295 177.242 60.3322L178.623 58.8855ZM173.871 55.865C172.088 55.1272 170.162 54.7637 168.105 54.7637V56.7637C169.922 56.7637 171.585 57.0837 173.106 57.7131L173.871 55.865ZM168.105 54.7637C163.687 54.7637 159.754 55.7075 156.337 57.6261L157.316 59.37C160.392 57.6427 163.979 56.7637 168.105 56.7637V54.7637ZM156.337 57.6261C152.969 59.5167 150.129 62.0016 147.823 65.0758L149.423 66.2758C151.561 63.4255 154.189 61.1253 157.316 59.37L156.337 57.6261ZM147.823 65.0758C145.527 68.137 143.796 71.6042 142.625 75.4688L144.539 76.0488C145.646 72.3939 147.276 69.1391 149.423 66.2758L147.823 65.0758ZM142.625 75.4688C141.457 79.3212 140.873 83.2356 140.873 87.209H142.873C142.873 83.4349 143.427 79.7159 144.539 76.0488L142.625 75.4688ZM140.873 87.209V142.238H142.873V87.209H140.873ZM140.873 142.238C140.873 144.305 140.574 146.314 139.976 148.269L141.889 148.854C142.545 146.707 142.873 144.501 142.873 142.238H140.873ZM139.979 148.262C139.375 150.184 138.55 152.054 137.503 153.873L139.236 154.871C140.353 152.931 141.237 150.927 141.887 148.861L139.979 148.262ZM137.498 153.882C136.506 155.644 135.32 157.328 133.937 158.932L135.452 160.237C136.918 158.537 138.181 156.746 139.241 154.862L137.498 153.882ZM133.937 158.932C132.545 160.547 131.071 162.021 129.515 163.354L130.817 164.873C132.451 163.471 133.997 161.926 135.452 160.237L133.937 158.932ZM130.75 164.925C132.558 163.625 134.308 162.44 135.999 161.369L134.929 159.68C133.202 160.773 131.419 161.981 129.582 163.301L130.75 164.925ZM136.019 161.356C137.685 160.246 139.375 159.304 141.088 158.531L140.265 156.708C138.446 157.529 136.661 158.525 134.909 159.692L136.019 161.356ZM141.077 158.535C142.836 157.766 144.65 157.189 146.518 156.804L146.114 154.845C144.109 155.258 142.162 155.878 140.275 156.703L141.077 158.535ZM146.545 156.798C148.395 156.363 150.453 156.141 152.725 156.141V154.141C150.325 154.141 148.11 154.375 146.087 154.851L146.545 156.798ZM152.725 156.141C155.541 156.141 158.032 156.282 160.202 156.56L160.457 154.576C158.183 154.285 155.605 154.141 152.725 154.141V156.141ZM160.202 156.56C162.414 156.844 164.567 157.155 166.664 157.495L166.984 155.521C164.865 155.178 162.689 154.863 160.457 154.576L160.202 156.56ZM166.693 157.5C168.859 157.785 171.053 158.07 173.276 158.355L173.53 156.371C171.31 156.086 169.118 155.802 166.954 155.517L166.693 157.5ZM173.276 158.355C175.55 158.646 178.128 158.79 181.008 158.79V156.79C178.192 156.79 175.7 156.649 173.53 156.371L173.276 158.355ZM181.008 158.79C183.099 158.79 185.108 158.491 187.032 157.89L186.435 155.981C184.713 156.519 182.905 156.79 181.008 156.79V158.79ZM187.05 157.884C189.002 157.233 190.839 156.374 192.559 155.307L191.504 153.608C189.919 154.591 188.224 155.384 186.417 155.987L187.05 157.884ZM192.559 155.307C194.264 154.249 195.852 153.043 197.323 151.69L195.968 150.218C194.591 151.486 193.103 152.615 191.504 153.608L192.559 155.307ZM197.324 151.689C198.844 150.286 200.22 148.793 201.451 147.21L199.872 145.982C198.711 147.476 197.409 148.888 195.967 150.219L197.324 151.689ZM200.087 147.414L203.248 149.636L204.398 148L201.237 145.778L200.087 147.414Z" fill="black"/>
</g>
</g>
<defs>
<filter id="filter0_d" x="0" y="0" width="233" height="233" filterUnits="userSpaceOnUse" color-interpolation-filters="sRGB">
<feFlood flood-opacity="0" result="BackgroundImageFix"/>
<feColorMatrix in="SourceAlpha" type="matrix" values="0 0 0 0 0 0 0 0 0 0 0 0 0 0 0 0 0 0 127 0"/>
<feOffset dy="4"/>
<feGaussianBlur stdDeviation="2"/>
<feColorMatrix type="matrix" values="0 0 0 0 0 0 0 0 0 0 0 0 0 0 0 0 0 0 0.25 0"/>
<feBlend mode="normal" in2="BackgroundImageFix" result="effect1_dropShadow"/>
<feBlend mode="normal" in="SourceGraphic" in2="effect1_dropShadow" result="shape"/>
</filter>
<filter id="filter1_d" x="22.184" y="88.832" width="109.92" height="87.192" filterUnits="userSpaceOnUse" color-interpolation-filters="sRGB">
<feFlood flood-opacity="0" result="BackgroundImageFix"/>
<feColorMatrix in="SourceAlpha" type="matrix" values="0 0 0 0 0 0 0 0 0 0 0 0 0 0 0 0 0 0 127 0"/>
<feOffset dx="4" dy="4"/>
<feGaussianBlur stdDeviation="2.5"/>
<feColorMatrix type="matrix" values="0 0 0 0 0 0 0 0 0 0 0 0 0 0 0 0 0 0 0.25 0"/>
<feBlend mode="normal" in2="BackgroundImageFix" result="effect1_dropShadow"/>
<feBlend mode="normal" in="SourceGraphic" in2="effect1_dropShadow" result="shape"/>
</filter>
<filter id="filter2_d" x="111.732" y="46.1333" width="97.4364" height="139.644" filterUnits="userSpaceOnUse" color-interpolation-filters="sRGB">
<feFlood flood-opacity="0" result="BackgroundImageFix"/>
<feColorMatrix in="SourceAlpha" type="matrix" values="0 0 0 0 0 0 0 0 0 0 0 0 0 0 0 0 0 0 127 0"/>
<feOffset dy="4"/>
<feGaussianBlur stdDeviation="2"/>
<feColorMatrix type="matrix" values="0 0 0 0 0 0 0 0 0 0 0 0 0 0 0 0 0 0 0.25 0"/>
<feBlend mode="normal" in2="BackgroundImageFix" result="effect1_dropShadow"/>
<feBlend mode="normal" in="SourceGraphic" in2="effect1_dropShadow" result="shape"/>
</filter>
</defs>
</svg>
